%TF.GenerationSoftware,KiCad,Pcbnew,5.1.10*%
%TF.CreationDate,2021-09-10T11:26:47+02:00*%
%TF.ProjectId,PeltierSwitchingMainBoard_control,50656c74-6965-4725-9377-69746368696e,rev?*%
%TF.SameCoordinates,Original*%
%TF.FileFunction,Copper,L2,Bot*%
%TF.FilePolarity,Positive*%
%FSLAX46Y46*%
G04 Gerber Fmt 4.6, Leading zero omitted, Abs format (unit mm)*
G04 Created by KiCad (PCBNEW 5.1.10) date 2021-09-10 11:26:47*
%MOMM*%
%LPD*%
G01*
G04 APERTURE LIST*
%TA.AperFunction,ComponentPad*%
%ADD10O,1.700000X1.700000*%
%TD*%
%TA.AperFunction,ComponentPad*%
%ADD11R,1.700000X1.700000*%
%TD*%
%TA.AperFunction,ViaPad*%
%ADD12C,0.800000*%
%TD*%
%TA.AperFunction,Conductor*%
%ADD13C,0.250000*%
%TD*%
%TA.AperFunction,Conductor*%
%ADD14C,0.254000*%
%TD*%
%TA.AperFunction,Conductor*%
%ADD15C,0.100000*%
%TD*%
G04 APERTURE END LIST*
D10*
%TO.P,J4,14*%
%TO.N,GND*%
X86614000Y-77216000D03*
%TO.P,J4,13*%
%TO.N,+12V*%
X86614000Y-74676000D03*
%TO.P,J4,12*%
%TO.N,/VSense*%
X86614000Y-72136000D03*
%TO.P,J4,11*%
%TO.N,+12V*%
X86614000Y-69596000D03*
%TO.P,J4,10*%
%TO.N,/BHS*%
X86614000Y-67056000D03*
%TO.P,J4,9*%
%TO.N,/BLS*%
X86614000Y-64516000D03*
%TO.P,J4,8*%
%TO.N,/BLO*%
X86614000Y-61976000D03*
%TO.P,J4,7*%
%TO.N,/BHO*%
X86614000Y-59436000D03*
%TO.P,J4,6*%
%TO.N,/BHB*%
X86614000Y-56896000D03*
%TO.P,J4,5*%
%TO.N,/ALS*%
X86614000Y-54356000D03*
%TO.P,J4,4*%
%TO.N,/ALO*%
X86614000Y-51816000D03*
%TO.P,J4,3*%
%TO.N,/AHO*%
X86614000Y-49276000D03*
%TO.P,J4,2*%
%TO.N,/AHS*%
X86614000Y-46736000D03*
D11*
%TO.P,J4,1*%
%TO.N,/AHB*%
X86614000Y-44196000D03*
%TD*%
D12*
%TO.N,GND*%
X71755000Y-77470000D03*
X80302516Y-55880000D03*
X83835602Y-71813139D03*
X79375000Y-76200000D03*
X75105000Y-49217270D03*
X80290000Y-50800000D03*
X68453000Y-55245000D03*
X72390000Y-51308000D03*
%TO.N,+12V*%
X80645000Y-73025000D03*
X83185000Y-74295006D03*
X81915000Y-70485000D03*
X81915000Y-67855740D03*
X76835000Y-65405000D03*
X64045000Y-59055000D03*
X69215000Y-60960000D03*
X71755000Y-60960000D03*
X83820000Y-66802000D03*
%TO.N,/BHS*%
X69215000Y-62660010D03*
X80627093Y-71120000D03*
%TO.N,/BHB*%
X64770000Y-68872500D03*
X67945000Y-73660000D03*
X84384965Y-69849992D03*
%TO.N,/AHS*%
X81915000Y-63207500D03*
X84059835Y-54370165D03*
%TO.N,/AHB*%
X78105199Y-78195009D03*
X81280000Y-75655010D03*
%TO.N,/VSense*%
X81614581Y-53578504D03*
%TO.N,/IN-*%
X75565000Y-69850000D03*
X75565000Y-53340000D03*
%TO.N,/IN+*%
X74295000Y-69850000D03*
X73025000Y-49275998D03*
%TO.N,/Disable*%
X77190000Y-50800000D03*
X73660000Y-68580000D03*
%TO.N,/HEN*%
X79375000Y-46990000D03*
X69195469Y-70017914D03*
X69850000Y-51180998D03*
%TO.N,/BLS*%
X83185010Y-64770000D03*
X71170908Y-68098355D03*
X72389998Y-65405000D03*
%TO.N,/BLO*%
X81915000Y-64619990D03*
X74840000Y-64770000D03*
X74385000Y-57150000D03*
%TO.N,/BHO*%
X67945000Y-62660000D03*
X84384959Y-62865000D03*
X78740000Y-67945000D03*
X70485000Y-69215000D03*
X83516340Y-68793660D03*
%TO.N,/ALS*%
X78740000Y-49530000D03*
X83910000Y-52070000D03*
%TO.N,/ALO*%
X81825000Y-56515000D03*
%TO.N,/AHO*%
X81915000Y-48895000D03*
%TD*%
D13*
%TO.N,GND*%
X71755000Y-77470000D02*
X78105000Y-77470000D01*
X78105000Y-77470000D02*
X79375000Y-76200000D01*
X75565000Y-66130143D02*
X79027246Y-69592389D01*
X75565000Y-60617516D02*
X75565000Y-66130143D01*
X82180537Y-69592389D02*
X83835602Y-71247454D01*
X80302516Y-55880000D02*
X75565000Y-60617516D01*
X79027246Y-69592389D02*
X82180537Y-69592389D01*
X83835602Y-71247454D02*
X83835602Y-71813139D01*
X78936998Y-50800000D02*
X80290000Y-50800000D01*
X77354268Y-49217270D02*
X78936998Y-50800000D01*
X75105000Y-49217270D02*
X77354268Y-49217270D01*
X68453000Y-55245000D02*
X72390000Y-51308000D01*
%TO.N,+12V*%
X83454994Y-74565000D02*
X83185000Y-74295006D01*
X86684999Y-74565000D02*
X83454994Y-74565000D01*
X81915000Y-71755000D02*
X81915000Y-70485000D01*
X80645000Y-73025000D02*
X81915000Y-71755000D01*
X79464260Y-65405000D02*
X76835000Y-65405000D01*
X81915000Y-67855740D02*
X79464260Y-65405000D01*
X64044999Y-70833001D02*
X64044999Y-59145001D01*
X67907003Y-74695005D02*
X64044999Y-70833001D01*
X82785001Y-74695005D02*
X67907003Y-74695005D01*
X83185000Y-74295006D02*
X82785001Y-74695005D01*
X64045000Y-59145000D02*
X64045000Y-59055000D01*
X64044999Y-59145001D02*
X64045000Y-59145000D01*
X69215000Y-60960000D02*
X71755000Y-60960000D01*
X86614000Y-69596000D02*
X83820000Y-66802000D01*
%TO.N,/BHS*%
X69215000Y-62660010D02*
X69759999Y-63205009D01*
X71316998Y-71120000D02*
X80627093Y-71120000D01*
X69759999Y-63205009D02*
X69759999Y-69563001D01*
X69759999Y-69563001D02*
X71316998Y-71120000D01*
%TO.N,/BHB*%
X64770000Y-70485000D02*
X67945000Y-73660000D01*
X64770000Y-68872500D02*
X64770000Y-70485000D01*
X82836999Y-73569999D02*
X83151746Y-73569999D01*
X84585018Y-70050045D02*
X84384965Y-69849992D01*
X68344999Y-74059999D02*
X82346999Y-74059999D01*
X67945000Y-73660000D02*
X68344999Y-74059999D01*
X84585018Y-72136727D02*
X84585018Y-70050045D01*
X82346999Y-74059999D02*
X82836999Y-73569999D01*
X83151746Y-73569999D02*
X84585018Y-72136727D01*
%TO.N,/AHS*%
X81280000Y-58195353D02*
X84059835Y-55415518D01*
X81280000Y-62572500D02*
X81280000Y-58195353D01*
X84059835Y-55415518D02*
X84059835Y-54370165D01*
X81915000Y-63207500D02*
X81280000Y-62572500D01*
%TO.N,/AHB*%
X78740001Y-78195009D02*
X81280000Y-75655010D01*
X78105199Y-78195009D02*
X78740001Y-78195009D01*
%TO.N,/VSense*%
X81214582Y-56040922D02*
X81214582Y-53978503D01*
X80409999Y-56845505D02*
X81214582Y-56040922D01*
X86684999Y-72025000D02*
X85109989Y-70449990D01*
X80409999Y-64661999D02*
X80409999Y-56845505D01*
X85109989Y-69361989D02*
X80409999Y-64661999D01*
X85109989Y-70449990D02*
X85109989Y-69361989D01*
X81214582Y-53978503D02*
X81614581Y-53578504D01*
%TO.N,/IN-*%
X76290002Y-69124998D02*
X75565000Y-69850000D01*
X76290002Y-67596998D02*
X76290002Y-69124998D01*
X73660000Y-64329175D02*
X74015025Y-64684199D01*
X73660000Y-54864000D02*
X73660000Y-64329175D01*
X74015025Y-65322021D02*
X76290002Y-67596998D01*
X75184000Y-53340000D02*
X73660000Y-54864000D01*
X74015025Y-64684199D02*
X74015025Y-65322021D01*
X75565000Y-53340000D02*
X75184000Y-53340000D01*
%TO.N,/IN+*%
X73424999Y-51346003D02*
X73424999Y-49675997D01*
X72664989Y-64606985D02*
X72664989Y-52106013D01*
X73115003Y-65056999D02*
X72664989Y-64606985D01*
X73115003Y-68051993D02*
X73115003Y-65056999D01*
X73424999Y-49675997D02*
X73025000Y-49275998D01*
X73729315Y-69850000D02*
X72934998Y-69055683D01*
X72934998Y-69055683D02*
X72934998Y-68231998D01*
X72664989Y-52106013D02*
X73424999Y-51346003D01*
X74295000Y-69850000D02*
X73729315Y-69850000D01*
X72934998Y-68231998D02*
X73115003Y-68051993D01*
%TO.N,/Disable*%
X73565014Y-68485014D02*
X73660000Y-68580000D01*
X77190000Y-50800000D02*
X75184000Y-50800000D01*
X73115000Y-52869000D02*
X73115000Y-64420585D01*
X75184000Y-50800000D02*
X73115000Y-52869000D01*
X73565014Y-64870599D02*
X73565014Y-68485014D01*
X73115000Y-64420585D02*
X73565014Y-64870599D01*
%TO.N,/HEN*%
X74040998Y-46990000D02*
X69850000Y-51180998D01*
X79375000Y-46990000D02*
X74040998Y-46990000D01*
X67310000Y-53720998D02*
X69850000Y-51180998D01*
X67310000Y-60579000D02*
X67310000Y-53720998D01*
X67183000Y-60706000D02*
X67310000Y-60579000D01*
X67183000Y-68005445D02*
X67183000Y-60706000D01*
X69195469Y-70017914D02*
X67183000Y-68005445D01*
%TO.N,/BLS*%
X86684999Y-64405000D02*
X83550010Y-64405000D01*
X83550010Y-64405000D02*
X83185010Y-64770000D01*
X71170908Y-68098355D02*
X71170908Y-66624090D01*
X71170908Y-66624090D02*
X72389998Y-65405000D01*
%TO.N,/BLO*%
X84345009Y-63954990D02*
X82730010Y-63954990D01*
X86434999Y-61865000D02*
X84345009Y-63954990D01*
X86684999Y-61865000D02*
X86434999Y-61865000D01*
X82065010Y-64619990D02*
X81915000Y-64619990D01*
X82730010Y-63954990D02*
X82065010Y-64619990D01*
X74840000Y-57605000D02*
X74385000Y-57150000D01*
X74840000Y-64770000D02*
X74840000Y-57605000D01*
%TO.N,/BHO*%
X84384959Y-60125040D02*
X84384959Y-62865000D01*
X85184999Y-59325000D02*
X84384959Y-60125040D01*
X86684999Y-59325000D02*
X85184999Y-59325000D01*
X70210010Y-68940010D02*
X70485000Y-69215000D01*
X70210010Y-62582004D02*
X70210010Y-68940010D01*
X68670011Y-61934989D02*
X69562995Y-61934989D01*
X69562995Y-61934989D02*
X70210010Y-62582004D01*
X67945000Y-62660000D02*
X68670011Y-61934989D01*
X78740000Y-67945000D02*
X79588660Y-68793660D01*
X79588660Y-68793660D02*
X83516340Y-68793660D01*
%TO.N,/ALS*%
X81370000Y-49530000D02*
X83910000Y-52070000D01*
X78740000Y-49530000D02*
X81370000Y-49530000D01*
%TO.N,/ALO*%
X81825000Y-55064999D02*
X81825000Y-56515000D01*
X84094997Y-52795002D02*
X81825000Y-55064999D01*
X85594997Y-52795002D02*
X84094997Y-52795002D01*
X86684999Y-51705000D02*
X85594997Y-52795002D01*
%TO.N,/AHO*%
X82185000Y-49165000D02*
X81915000Y-48895000D01*
X86684999Y-49165000D02*
X82185000Y-49165000D01*
%TD*%
D14*
%TO.N,GND*%
X86724545Y-37528909D02*
X87075208Y-37634780D01*
X87398625Y-37806744D01*
X87682484Y-38038254D01*
X87915965Y-38320486D01*
X88090183Y-38642695D01*
X88198502Y-38992614D01*
X88240000Y-39387443D01*
X88240001Y-79342711D01*
X88201091Y-79739545D01*
X88095220Y-80090206D01*
X87923257Y-80413623D01*
X87691748Y-80697482D01*
X87409514Y-80930965D01*
X87087304Y-81105184D01*
X86737385Y-81213502D01*
X86342557Y-81255000D01*
X64675279Y-81255000D01*
X64278455Y-81216091D01*
X63927794Y-81110220D01*
X63604377Y-80938257D01*
X63320518Y-80706748D01*
X63087035Y-80424514D01*
X62912816Y-80102304D01*
X62804498Y-79752385D01*
X62763000Y-79357557D01*
X62763000Y-58953061D01*
X63010000Y-58953061D01*
X63010000Y-59156939D01*
X63049774Y-59356898D01*
X63127795Y-59545256D01*
X63241063Y-59714774D01*
X63285000Y-59758711D01*
X63284999Y-70795679D01*
X63281323Y-70833001D01*
X63284999Y-70870323D01*
X63284999Y-70870333D01*
X63295996Y-70981986D01*
X63337861Y-71119999D01*
X63339453Y-71125247D01*
X63410025Y-71257277D01*
X63436008Y-71288937D01*
X63504998Y-71373002D01*
X63534002Y-71396805D01*
X67343208Y-75206013D01*
X67367002Y-75235006D01*
X67395995Y-75258800D01*
X67395999Y-75258804D01*
X67434295Y-75290232D01*
X67482727Y-75329979D01*
X67614756Y-75400551D01*
X67758017Y-75444008D01*
X67869670Y-75455005D01*
X67869679Y-75455005D01*
X67907002Y-75458681D01*
X67944325Y-75455005D01*
X80264506Y-75455005D01*
X80245000Y-75553071D01*
X80245000Y-75615208D01*
X78586227Y-77273982D01*
X78407097Y-77199783D01*
X78207138Y-77160009D01*
X78003260Y-77160009D01*
X77803301Y-77199783D01*
X77614943Y-77277804D01*
X77445425Y-77391072D01*
X77301262Y-77535235D01*
X77187994Y-77704753D01*
X77109973Y-77893111D01*
X77070199Y-78093070D01*
X77070199Y-78296948D01*
X77109973Y-78496907D01*
X77187994Y-78685265D01*
X77301262Y-78854783D01*
X77445425Y-78998946D01*
X77614943Y-79112214D01*
X77803301Y-79190235D01*
X78003260Y-79230009D01*
X78207138Y-79230009D01*
X78407097Y-79190235D01*
X78595455Y-79112214D01*
X78764973Y-78998946D01*
X78812360Y-78951559D01*
X78888987Y-78944012D01*
X79032248Y-78900555D01*
X79164277Y-78829983D01*
X79280002Y-78735010D01*
X79303805Y-78706006D01*
X80436921Y-77572890D01*
X85172524Y-77572890D01*
X85217175Y-77720099D01*
X85342359Y-77982920D01*
X85516412Y-78216269D01*
X85732645Y-78411178D01*
X85982748Y-78560157D01*
X86257109Y-78657481D01*
X86487000Y-78536814D01*
X86487000Y-77343000D01*
X86741000Y-77343000D01*
X86741000Y-78536814D01*
X86970891Y-78657481D01*
X87245252Y-78560157D01*
X87495355Y-78411178D01*
X87711588Y-78216269D01*
X87885641Y-77982920D01*
X88010825Y-77720099D01*
X88055476Y-77572890D01*
X87934155Y-77343000D01*
X86741000Y-77343000D01*
X86487000Y-77343000D01*
X85293845Y-77343000D01*
X85172524Y-77572890D01*
X80436921Y-77572890D01*
X81319802Y-76690010D01*
X81381939Y-76690010D01*
X81581898Y-76650236D01*
X81770256Y-76572215D01*
X81939774Y-76458947D01*
X82083937Y-76314784D01*
X82197205Y-76145266D01*
X82275226Y-75956908D01*
X82315000Y-75756949D01*
X82315000Y-75553071D01*
X82295494Y-75455005D01*
X82747679Y-75455005D01*
X82785001Y-75458681D01*
X82822323Y-75455005D01*
X82822334Y-75455005D01*
X82933987Y-75444008D01*
X83077248Y-75400551D01*
X83209226Y-75330006D01*
X83286939Y-75330006D01*
X83347063Y-75318047D01*
X83417661Y-75325000D01*
X83417670Y-75325000D01*
X83454993Y-75328676D01*
X83492316Y-75325000D01*
X85275472Y-75325000D01*
X85298010Y-75379411D01*
X85460525Y-75622632D01*
X85667368Y-75829475D01*
X85849534Y-75951195D01*
X85732645Y-76020822D01*
X85516412Y-76215731D01*
X85342359Y-76449080D01*
X85217175Y-76711901D01*
X85172524Y-76859110D01*
X85293845Y-77089000D01*
X86487000Y-77089000D01*
X86487000Y-77069000D01*
X86741000Y-77069000D01*
X86741000Y-77089000D01*
X87934155Y-77089000D01*
X88055476Y-76859110D01*
X88010825Y-76711901D01*
X87885641Y-76449080D01*
X87711588Y-76215731D01*
X87495355Y-76020822D01*
X87378466Y-75951195D01*
X87560632Y-75829475D01*
X87767475Y-75622632D01*
X87929990Y-75379411D01*
X88041932Y-75109158D01*
X88099000Y-74822260D01*
X88099000Y-74529740D01*
X88041932Y-74242842D01*
X87929990Y-73972589D01*
X87767475Y-73729368D01*
X87560632Y-73522525D01*
X87386240Y-73406000D01*
X87560632Y-73289475D01*
X87767475Y-73082632D01*
X87929990Y-72839411D01*
X88041932Y-72569158D01*
X88099000Y-72282260D01*
X88099000Y-71989740D01*
X88041932Y-71702842D01*
X87929990Y-71432589D01*
X87767475Y-71189368D01*
X87560632Y-70982525D01*
X87386240Y-70866000D01*
X87560632Y-70749475D01*
X87767475Y-70542632D01*
X87929990Y-70299411D01*
X88041932Y-70029158D01*
X88099000Y-69742260D01*
X88099000Y-69449740D01*
X88041932Y-69162842D01*
X87929990Y-68892589D01*
X87767475Y-68649368D01*
X87560632Y-68442525D01*
X87386240Y-68326000D01*
X87560632Y-68209475D01*
X87767475Y-68002632D01*
X87929990Y-67759411D01*
X88041932Y-67489158D01*
X88099000Y-67202260D01*
X88099000Y-66909740D01*
X88041932Y-66622842D01*
X87929990Y-66352589D01*
X87767475Y-66109368D01*
X87560632Y-65902525D01*
X87386240Y-65786000D01*
X87560632Y-65669475D01*
X87767475Y-65462632D01*
X87929990Y-65219411D01*
X88041932Y-64949158D01*
X88099000Y-64662260D01*
X88099000Y-64369740D01*
X88041932Y-64082842D01*
X87929990Y-63812589D01*
X87767475Y-63569368D01*
X87560632Y-63362525D01*
X87386240Y-63246000D01*
X87560632Y-63129475D01*
X87767475Y-62922632D01*
X87929990Y-62679411D01*
X88041932Y-62409158D01*
X88099000Y-62122260D01*
X88099000Y-61829740D01*
X88041932Y-61542842D01*
X87929990Y-61272589D01*
X87767475Y-61029368D01*
X87560632Y-60822525D01*
X87386240Y-60706000D01*
X87560632Y-60589475D01*
X87767475Y-60382632D01*
X87929990Y-60139411D01*
X88041932Y-59869158D01*
X88099000Y-59582260D01*
X88099000Y-59289740D01*
X88041932Y-59002842D01*
X87929990Y-58732589D01*
X87767475Y-58489368D01*
X87560632Y-58282525D01*
X87386240Y-58166000D01*
X87560632Y-58049475D01*
X87767475Y-57842632D01*
X87929990Y-57599411D01*
X88041932Y-57329158D01*
X88099000Y-57042260D01*
X88099000Y-56749740D01*
X88041932Y-56462842D01*
X87929990Y-56192589D01*
X87767475Y-55949368D01*
X87560632Y-55742525D01*
X87386240Y-55626000D01*
X87560632Y-55509475D01*
X87767475Y-55302632D01*
X87929990Y-55059411D01*
X88041932Y-54789158D01*
X88099000Y-54502260D01*
X88099000Y-54209740D01*
X88041932Y-53922842D01*
X87929990Y-53652589D01*
X87767475Y-53409368D01*
X87560632Y-53202525D01*
X87386240Y-53086000D01*
X87560632Y-52969475D01*
X87767475Y-52762632D01*
X87929990Y-52519411D01*
X88041932Y-52249158D01*
X88099000Y-51962260D01*
X88099000Y-51669740D01*
X88041932Y-51382842D01*
X87929990Y-51112589D01*
X87767475Y-50869368D01*
X87560632Y-50662525D01*
X87386240Y-50546000D01*
X87560632Y-50429475D01*
X87767475Y-50222632D01*
X87929990Y-49979411D01*
X88041932Y-49709158D01*
X88099000Y-49422260D01*
X88099000Y-49129740D01*
X88041932Y-48842842D01*
X87929990Y-48572589D01*
X87767475Y-48329368D01*
X87560632Y-48122525D01*
X87386240Y-48006000D01*
X87560632Y-47889475D01*
X87767475Y-47682632D01*
X87929990Y-47439411D01*
X88041932Y-47169158D01*
X88099000Y-46882260D01*
X88099000Y-46589740D01*
X88041932Y-46302842D01*
X87929990Y-46032589D01*
X87767475Y-45789368D01*
X87635620Y-45657513D01*
X87708180Y-45635502D01*
X87818494Y-45576537D01*
X87915185Y-45497185D01*
X87994537Y-45400494D01*
X88053502Y-45290180D01*
X88089812Y-45170482D01*
X88102072Y-45046000D01*
X88102072Y-43346000D01*
X88089812Y-43221518D01*
X88053502Y-43101820D01*
X87994537Y-42991506D01*
X87915185Y-42894815D01*
X87818494Y-42815463D01*
X87708180Y-42756498D01*
X87588482Y-42720188D01*
X87464000Y-42707928D01*
X85764000Y-42707928D01*
X85639518Y-42720188D01*
X85519820Y-42756498D01*
X85409506Y-42815463D01*
X85312815Y-42894815D01*
X85233463Y-42991506D01*
X85174498Y-43101820D01*
X85138188Y-43221518D01*
X85125928Y-43346000D01*
X85125928Y-45046000D01*
X85138188Y-45170482D01*
X85174498Y-45290180D01*
X85233463Y-45400494D01*
X85312815Y-45497185D01*
X85409506Y-45576537D01*
X85519820Y-45635502D01*
X85592380Y-45657513D01*
X85460525Y-45789368D01*
X85298010Y-46032589D01*
X85186068Y-46302842D01*
X85129000Y-46589740D01*
X85129000Y-46882260D01*
X85186068Y-47169158D01*
X85298010Y-47439411D01*
X85460525Y-47682632D01*
X85667368Y-47889475D01*
X85841760Y-48006000D01*
X85667368Y-48122525D01*
X85460525Y-48329368D01*
X85409989Y-48405000D01*
X82832311Y-48405000D01*
X82832205Y-48404744D01*
X82718937Y-48235226D01*
X82574774Y-48091063D01*
X82405256Y-47977795D01*
X82216898Y-47899774D01*
X82016939Y-47860000D01*
X81813061Y-47860000D01*
X81613102Y-47899774D01*
X81424744Y-47977795D01*
X81255226Y-48091063D01*
X81111063Y-48235226D01*
X80997795Y-48404744D01*
X80919774Y-48593102D01*
X80884587Y-48770000D01*
X79443711Y-48770000D01*
X79399774Y-48726063D01*
X79230256Y-48612795D01*
X79041898Y-48534774D01*
X78841939Y-48495000D01*
X78638061Y-48495000D01*
X78438102Y-48534774D01*
X78249744Y-48612795D01*
X78080226Y-48726063D01*
X77936063Y-48870226D01*
X77822795Y-49039744D01*
X77744774Y-49228102D01*
X77705000Y-49428061D01*
X77705000Y-49631939D01*
X77744774Y-49831898D01*
X77798614Y-49961879D01*
X77680256Y-49882795D01*
X77491898Y-49804774D01*
X77291939Y-49765000D01*
X77088061Y-49765000D01*
X76888102Y-49804774D01*
X76699744Y-49882795D01*
X76530226Y-49996063D01*
X76486289Y-50040000D01*
X75221323Y-50040000D01*
X75184000Y-50036324D01*
X75146677Y-50040000D01*
X75146667Y-50040000D01*
X75035014Y-50050997D01*
X74891753Y-50094454D01*
X74759724Y-50165026D01*
X74643999Y-50259999D01*
X74620201Y-50288997D01*
X74184999Y-50724199D01*
X74184999Y-49713319D01*
X74188675Y-49675996D01*
X74184999Y-49638674D01*
X74184999Y-49638664D01*
X74174002Y-49527011D01*
X74130545Y-49383750D01*
X74060000Y-49251772D01*
X74060000Y-49174059D01*
X74020226Y-48974100D01*
X73942205Y-48785742D01*
X73828937Y-48616224D01*
X73684774Y-48472061D01*
X73654181Y-48451619D01*
X74355800Y-47750000D01*
X78671289Y-47750000D01*
X78715226Y-47793937D01*
X78884744Y-47907205D01*
X79073102Y-47985226D01*
X79273061Y-48025000D01*
X79476939Y-48025000D01*
X79676898Y-47985226D01*
X79865256Y-47907205D01*
X80034774Y-47793937D01*
X80178937Y-47649774D01*
X80292205Y-47480256D01*
X80370226Y-47291898D01*
X80410000Y-47091939D01*
X80410000Y-46888061D01*
X80370226Y-46688102D01*
X80292205Y-46499744D01*
X80178937Y-46330226D01*
X80034774Y-46186063D01*
X79865256Y-46072795D01*
X79676898Y-45994774D01*
X79476939Y-45955000D01*
X79273061Y-45955000D01*
X79073102Y-45994774D01*
X78884744Y-46072795D01*
X78715226Y-46186063D01*
X78671289Y-46230000D01*
X74078320Y-46230000D01*
X74040997Y-46226324D01*
X74003674Y-46230000D01*
X74003665Y-46230000D01*
X73892012Y-46240997D01*
X73748751Y-46284454D01*
X73616722Y-46355026D01*
X73500997Y-46449999D01*
X73477199Y-46478997D01*
X69810199Y-50145998D01*
X69748061Y-50145998D01*
X69548102Y-50185772D01*
X69359744Y-50263793D01*
X69190226Y-50377061D01*
X69046063Y-50521224D01*
X68932795Y-50690742D01*
X68854774Y-50879100D01*
X68815000Y-51079059D01*
X68815000Y-51141195D01*
X66798998Y-53157199D01*
X66770000Y-53180997D01*
X66746202Y-53209995D01*
X66746201Y-53209996D01*
X66675026Y-53296722D01*
X66604454Y-53428752D01*
X66589951Y-53476565D01*
X66560998Y-53572012D01*
X66557602Y-53606488D01*
X66546324Y-53720998D01*
X66550001Y-53758330D01*
X66550000Y-60279319D01*
X66548026Y-60281724D01*
X66477454Y-60413754D01*
X66454023Y-60491000D01*
X66433998Y-60557014D01*
X66430801Y-60589475D01*
X66419324Y-60706000D01*
X66423001Y-60743332D01*
X66423000Y-67968122D01*
X66419324Y-68005445D01*
X66423000Y-68042767D01*
X66423000Y-68042777D01*
X66433997Y-68154430D01*
X66472893Y-68282656D01*
X66477454Y-68297691D01*
X66548026Y-68429721D01*
X66569595Y-68456002D01*
X66642999Y-68545446D01*
X66672003Y-68569249D01*
X68160469Y-70057716D01*
X68160469Y-70119853D01*
X68200243Y-70319812D01*
X68278264Y-70508170D01*
X68391532Y-70677688D01*
X68535695Y-70821851D01*
X68705213Y-70935119D01*
X68893571Y-71013140D01*
X69093530Y-71052914D01*
X69297408Y-71052914D01*
X69497367Y-71013140D01*
X69685725Y-70935119D01*
X69855243Y-70821851D01*
X69899645Y-70777449D01*
X70753199Y-71631003D01*
X70776997Y-71660001D01*
X70805995Y-71683799D01*
X70892721Y-71754974D01*
X71024751Y-71825546D01*
X71168012Y-71869003D01*
X71279665Y-71880000D01*
X71279674Y-71880000D01*
X71316997Y-71883676D01*
X71354320Y-71880000D01*
X79923382Y-71880000D01*
X79967319Y-71923937D01*
X80136837Y-72037205D01*
X80231000Y-72076209D01*
X80154744Y-72107795D01*
X79985226Y-72221063D01*
X79841063Y-72365226D01*
X79727795Y-72534744D01*
X79649774Y-72723102D01*
X79610000Y-72923061D01*
X79610000Y-73126939D01*
X79644423Y-73299999D01*
X68916159Y-73299999D01*
X68862205Y-73169744D01*
X68748937Y-73000226D01*
X68604774Y-72856063D01*
X68435256Y-72742795D01*
X68246898Y-72664774D01*
X68046939Y-72625000D01*
X67984802Y-72625000D01*
X65530000Y-70170199D01*
X65530000Y-69576211D01*
X65573937Y-69532274D01*
X65687205Y-69362756D01*
X65765226Y-69174398D01*
X65805000Y-68974439D01*
X65805000Y-68770561D01*
X65765226Y-68570602D01*
X65687205Y-68382244D01*
X65573937Y-68212726D01*
X65429774Y-68068563D01*
X65260256Y-67955295D01*
X65071898Y-67877274D01*
X64871939Y-67837500D01*
X64804999Y-67837500D01*
X64804999Y-59758712D01*
X64848937Y-59714774D01*
X64962205Y-59545256D01*
X65040226Y-59356898D01*
X65080000Y-59156939D01*
X65080000Y-58953061D01*
X65040226Y-58753102D01*
X64962205Y-58564744D01*
X64848937Y-58395226D01*
X64704774Y-58251063D01*
X64535256Y-58137795D01*
X64346898Y-58059774D01*
X64146939Y-58020000D01*
X63943061Y-58020000D01*
X63743102Y-58059774D01*
X63554744Y-58137795D01*
X63385226Y-58251063D01*
X63241063Y-58395226D01*
X63127795Y-58564744D01*
X63049774Y-58753102D01*
X63010000Y-58953061D01*
X62763000Y-58953061D01*
X62763000Y-39402279D01*
X62801909Y-39005455D01*
X62907780Y-38654792D01*
X63079744Y-38331375D01*
X63311254Y-38047516D01*
X63593486Y-37814035D01*
X63915695Y-37639817D01*
X64265614Y-37531498D01*
X64660443Y-37490000D01*
X86327721Y-37490000D01*
X86724545Y-37528909D01*
%TA.AperFunction,Conductor*%
D15*
G36*
X86724545Y-37528909D02*
G01*
X87075208Y-37634780D01*
X87398625Y-37806744D01*
X87682484Y-38038254D01*
X87915965Y-38320486D01*
X88090183Y-38642695D01*
X88198502Y-38992614D01*
X88240000Y-39387443D01*
X88240001Y-79342711D01*
X88201091Y-79739545D01*
X88095220Y-80090206D01*
X87923257Y-80413623D01*
X87691748Y-80697482D01*
X87409514Y-80930965D01*
X87087304Y-81105184D01*
X86737385Y-81213502D01*
X86342557Y-81255000D01*
X64675279Y-81255000D01*
X64278455Y-81216091D01*
X63927794Y-81110220D01*
X63604377Y-80938257D01*
X63320518Y-80706748D01*
X63087035Y-80424514D01*
X62912816Y-80102304D01*
X62804498Y-79752385D01*
X62763000Y-79357557D01*
X62763000Y-58953061D01*
X63010000Y-58953061D01*
X63010000Y-59156939D01*
X63049774Y-59356898D01*
X63127795Y-59545256D01*
X63241063Y-59714774D01*
X63285000Y-59758711D01*
X63284999Y-70795679D01*
X63281323Y-70833001D01*
X63284999Y-70870323D01*
X63284999Y-70870333D01*
X63295996Y-70981986D01*
X63337861Y-71119999D01*
X63339453Y-71125247D01*
X63410025Y-71257277D01*
X63436008Y-71288937D01*
X63504998Y-71373002D01*
X63534002Y-71396805D01*
X67343208Y-75206013D01*
X67367002Y-75235006D01*
X67395995Y-75258800D01*
X67395999Y-75258804D01*
X67434295Y-75290232D01*
X67482727Y-75329979D01*
X67614756Y-75400551D01*
X67758017Y-75444008D01*
X67869670Y-75455005D01*
X67869679Y-75455005D01*
X67907002Y-75458681D01*
X67944325Y-75455005D01*
X80264506Y-75455005D01*
X80245000Y-75553071D01*
X80245000Y-75615208D01*
X78586227Y-77273982D01*
X78407097Y-77199783D01*
X78207138Y-77160009D01*
X78003260Y-77160009D01*
X77803301Y-77199783D01*
X77614943Y-77277804D01*
X77445425Y-77391072D01*
X77301262Y-77535235D01*
X77187994Y-77704753D01*
X77109973Y-77893111D01*
X77070199Y-78093070D01*
X77070199Y-78296948D01*
X77109973Y-78496907D01*
X77187994Y-78685265D01*
X77301262Y-78854783D01*
X77445425Y-78998946D01*
X77614943Y-79112214D01*
X77803301Y-79190235D01*
X78003260Y-79230009D01*
X78207138Y-79230009D01*
X78407097Y-79190235D01*
X78595455Y-79112214D01*
X78764973Y-78998946D01*
X78812360Y-78951559D01*
X78888987Y-78944012D01*
X79032248Y-78900555D01*
X79164277Y-78829983D01*
X79280002Y-78735010D01*
X79303805Y-78706006D01*
X80436921Y-77572890D01*
X85172524Y-77572890D01*
X85217175Y-77720099D01*
X85342359Y-77982920D01*
X85516412Y-78216269D01*
X85732645Y-78411178D01*
X85982748Y-78560157D01*
X86257109Y-78657481D01*
X86487000Y-78536814D01*
X86487000Y-77343000D01*
X86741000Y-77343000D01*
X86741000Y-78536814D01*
X86970891Y-78657481D01*
X87245252Y-78560157D01*
X87495355Y-78411178D01*
X87711588Y-78216269D01*
X87885641Y-77982920D01*
X88010825Y-77720099D01*
X88055476Y-77572890D01*
X87934155Y-77343000D01*
X86741000Y-77343000D01*
X86487000Y-77343000D01*
X85293845Y-77343000D01*
X85172524Y-77572890D01*
X80436921Y-77572890D01*
X81319802Y-76690010D01*
X81381939Y-76690010D01*
X81581898Y-76650236D01*
X81770256Y-76572215D01*
X81939774Y-76458947D01*
X82083937Y-76314784D01*
X82197205Y-76145266D01*
X82275226Y-75956908D01*
X82315000Y-75756949D01*
X82315000Y-75553071D01*
X82295494Y-75455005D01*
X82747679Y-75455005D01*
X82785001Y-75458681D01*
X82822323Y-75455005D01*
X82822334Y-75455005D01*
X82933987Y-75444008D01*
X83077248Y-75400551D01*
X83209226Y-75330006D01*
X83286939Y-75330006D01*
X83347063Y-75318047D01*
X83417661Y-75325000D01*
X83417670Y-75325000D01*
X83454993Y-75328676D01*
X83492316Y-75325000D01*
X85275472Y-75325000D01*
X85298010Y-75379411D01*
X85460525Y-75622632D01*
X85667368Y-75829475D01*
X85849534Y-75951195D01*
X85732645Y-76020822D01*
X85516412Y-76215731D01*
X85342359Y-76449080D01*
X85217175Y-76711901D01*
X85172524Y-76859110D01*
X85293845Y-77089000D01*
X86487000Y-77089000D01*
X86487000Y-77069000D01*
X86741000Y-77069000D01*
X86741000Y-77089000D01*
X87934155Y-77089000D01*
X88055476Y-76859110D01*
X88010825Y-76711901D01*
X87885641Y-76449080D01*
X87711588Y-76215731D01*
X87495355Y-76020822D01*
X87378466Y-75951195D01*
X87560632Y-75829475D01*
X87767475Y-75622632D01*
X87929990Y-75379411D01*
X88041932Y-75109158D01*
X88099000Y-74822260D01*
X88099000Y-74529740D01*
X88041932Y-74242842D01*
X87929990Y-73972589D01*
X87767475Y-73729368D01*
X87560632Y-73522525D01*
X87386240Y-73406000D01*
X87560632Y-73289475D01*
X87767475Y-73082632D01*
X87929990Y-72839411D01*
X88041932Y-72569158D01*
X88099000Y-72282260D01*
X88099000Y-71989740D01*
X88041932Y-71702842D01*
X87929990Y-71432589D01*
X87767475Y-71189368D01*
X87560632Y-70982525D01*
X87386240Y-70866000D01*
X87560632Y-70749475D01*
X87767475Y-70542632D01*
X87929990Y-70299411D01*
X88041932Y-70029158D01*
X88099000Y-69742260D01*
X88099000Y-69449740D01*
X88041932Y-69162842D01*
X87929990Y-68892589D01*
X87767475Y-68649368D01*
X87560632Y-68442525D01*
X87386240Y-68326000D01*
X87560632Y-68209475D01*
X87767475Y-68002632D01*
X87929990Y-67759411D01*
X88041932Y-67489158D01*
X88099000Y-67202260D01*
X88099000Y-66909740D01*
X88041932Y-66622842D01*
X87929990Y-66352589D01*
X87767475Y-66109368D01*
X87560632Y-65902525D01*
X87386240Y-65786000D01*
X87560632Y-65669475D01*
X87767475Y-65462632D01*
X87929990Y-65219411D01*
X88041932Y-64949158D01*
X88099000Y-64662260D01*
X88099000Y-64369740D01*
X88041932Y-64082842D01*
X87929990Y-63812589D01*
X87767475Y-63569368D01*
X87560632Y-63362525D01*
X87386240Y-63246000D01*
X87560632Y-63129475D01*
X87767475Y-62922632D01*
X87929990Y-62679411D01*
X88041932Y-62409158D01*
X88099000Y-62122260D01*
X88099000Y-61829740D01*
X88041932Y-61542842D01*
X87929990Y-61272589D01*
X87767475Y-61029368D01*
X87560632Y-60822525D01*
X87386240Y-60706000D01*
X87560632Y-60589475D01*
X87767475Y-60382632D01*
X87929990Y-60139411D01*
X88041932Y-59869158D01*
X88099000Y-59582260D01*
X88099000Y-59289740D01*
X88041932Y-59002842D01*
X87929990Y-58732589D01*
X87767475Y-58489368D01*
X87560632Y-58282525D01*
X87386240Y-58166000D01*
X87560632Y-58049475D01*
X87767475Y-57842632D01*
X87929990Y-57599411D01*
X88041932Y-57329158D01*
X88099000Y-57042260D01*
X88099000Y-56749740D01*
X88041932Y-56462842D01*
X87929990Y-56192589D01*
X87767475Y-55949368D01*
X87560632Y-55742525D01*
X87386240Y-55626000D01*
X87560632Y-55509475D01*
X87767475Y-55302632D01*
X87929990Y-55059411D01*
X88041932Y-54789158D01*
X88099000Y-54502260D01*
X88099000Y-54209740D01*
X88041932Y-53922842D01*
X87929990Y-53652589D01*
X87767475Y-53409368D01*
X87560632Y-53202525D01*
X87386240Y-53086000D01*
X87560632Y-52969475D01*
X87767475Y-52762632D01*
X87929990Y-52519411D01*
X88041932Y-52249158D01*
X88099000Y-51962260D01*
X88099000Y-51669740D01*
X88041932Y-51382842D01*
X87929990Y-51112589D01*
X87767475Y-50869368D01*
X87560632Y-50662525D01*
X87386240Y-50546000D01*
X87560632Y-50429475D01*
X87767475Y-50222632D01*
X87929990Y-49979411D01*
X88041932Y-49709158D01*
X88099000Y-49422260D01*
X88099000Y-49129740D01*
X88041932Y-48842842D01*
X87929990Y-48572589D01*
X87767475Y-48329368D01*
X87560632Y-48122525D01*
X87386240Y-48006000D01*
X87560632Y-47889475D01*
X87767475Y-47682632D01*
X87929990Y-47439411D01*
X88041932Y-47169158D01*
X88099000Y-46882260D01*
X88099000Y-46589740D01*
X88041932Y-46302842D01*
X87929990Y-46032589D01*
X87767475Y-45789368D01*
X87635620Y-45657513D01*
X87708180Y-45635502D01*
X87818494Y-45576537D01*
X87915185Y-45497185D01*
X87994537Y-45400494D01*
X88053502Y-45290180D01*
X88089812Y-45170482D01*
X88102072Y-45046000D01*
X88102072Y-43346000D01*
X88089812Y-43221518D01*
X88053502Y-43101820D01*
X87994537Y-42991506D01*
X87915185Y-42894815D01*
X87818494Y-42815463D01*
X87708180Y-42756498D01*
X87588482Y-42720188D01*
X87464000Y-42707928D01*
X85764000Y-42707928D01*
X85639518Y-42720188D01*
X85519820Y-42756498D01*
X85409506Y-42815463D01*
X85312815Y-42894815D01*
X85233463Y-42991506D01*
X85174498Y-43101820D01*
X85138188Y-43221518D01*
X85125928Y-43346000D01*
X85125928Y-45046000D01*
X85138188Y-45170482D01*
X85174498Y-45290180D01*
X85233463Y-45400494D01*
X85312815Y-45497185D01*
X85409506Y-45576537D01*
X85519820Y-45635502D01*
X85592380Y-45657513D01*
X85460525Y-45789368D01*
X85298010Y-46032589D01*
X85186068Y-46302842D01*
X85129000Y-46589740D01*
X85129000Y-46882260D01*
X85186068Y-47169158D01*
X85298010Y-47439411D01*
X85460525Y-47682632D01*
X85667368Y-47889475D01*
X85841760Y-48006000D01*
X85667368Y-48122525D01*
X85460525Y-48329368D01*
X85409989Y-48405000D01*
X82832311Y-48405000D01*
X82832205Y-48404744D01*
X82718937Y-48235226D01*
X82574774Y-48091063D01*
X82405256Y-47977795D01*
X82216898Y-47899774D01*
X82016939Y-47860000D01*
X81813061Y-47860000D01*
X81613102Y-47899774D01*
X81424744Y-47977795D01*
X81255226Y-48091063D01*
X81111063Y-48235226D01*
X80997795Y-48404744D01*
X80919774Y-48593102D01*
X80884587Y-48770000D01*
X79443711Y-48770000D01*
X79399774Y-48726063D01*
X79230256Y-48612795D01*
X79041898Y-48534774D01*
X78841939Y-48495000D01*
X78638061Y-48495000D01*
X78438102Y-48534774D01*
X78249744Y-48612795D01*
X78080226Y-48726063D01*
X77936063Y-48870226D01*
X77822795Y-49039744D01*
X77744774Y-49228102D01*
X77705000Y-49428061D01*
X77705000Y-49631939D01*
X77744774Y-49831898D01*
X77798614Y-49961879D01*
X77680256Y-49882795D01*
X77491898Y-49804774D01*
X77291939Y-49765000D01*
X77088061Y-49765000D01*
X76888102Y-49804774D01*
X76699744Y-49882795D01*
X76530226Y-49996063D01*
X76486289Y-50040000D01*
X75221323Y-50040000D01*
X75184000Y-50036324D01*
X75146677Y-50040000D01*
X75146667Y-50040000D01*
X75035014Y-50050997D01*
X74891753Y-50094454D01*
X74759724Y-50165026D01*
X74643999Y-50259999D01*
X74620201Y-50288997D01*
X74184999Y-50724199D01*
X74184999Y-49713319D01*
X74188675Y-49675996D01*
X74184999Y-49638674D01*
X74184999Y-49638664D01*
X74174002Y-49527011D01*
X74130545Y-49383750D01*
X74060000Y-49251772D01*
X74060000Y-49174059D01*
X74020226Y-48974100D01*
X73942205Y-48785742D01*
X73828937Y-48616224D01*
X73684774Y-48472061D01*
X73654181Y-48451619D01*
X74355800Y-47750000D01*
X78671289Y-47750000D01*
X78715226Y-47793937D01*
X78884744Y-47907205D01*
X79073102Y-47985226D01*
X79273061Y-48025000D01*
X79476939Y-48025000D01*
X79676898Y-47985226D01*
X79865256Y-47907205D01*
X80034774Y-47793937D01*
X80178937Y-47649774D01*
X80292205Y-47480256D01*
X80370226Y-47291898D01*
X80410000Y-47091939D01*
X80410000Y-46888061D01*
X80370226Y-46688102D01*
X80292205Y-46499744D01*
X80178937Y-46330226D01*
X80034774Y-46186063D01*
X79865256Y-46072795D01*
X79676898Y-45994774D01*
X79476939Y-45955000D01*
X79273061Y-45955000D01*
X79073102Y-45994774D01*
X78884744Y-46072795D01*
X78715226Y-46186063D01*
X78671289Y-46230000D01*
X74078320Y-46230000D01*
X74040997Y-46226324D01*
X74003674Y-46230000D01*
X74003665Y-46230000D01*
X73892012Y-46240997D01*
X73748751Y-46284454D01*
X73616722Y-46355026D01*
X73500997Y-46449999D01*
X73477199Y-46478997D01*
X69810199Y-50145998D01*
X69748061Y-50145998D01*
X69548102Y-50185772D01*
X69359744Y-50263793D01*
X69190226Y-50377061D01*
X69046063Y-50521224D01*
X68932795Y-50690742D01*
X68854774Y-50879100D01*
X68815000Y-51079059D01*
X68815000Y-51141195D01*
X66798998Y-53157199D01*
X66770000Y-53180997D01*
X66746202Y-53209995D01*
X66746201Y-53209996D01*
X66675026Y-53296722D01*
X66604454Y-53428752D01*
X66589951Y-53476565D01*
X66560998Y-53572012D01*
X66557602Y-53606488D01*
X66546324Y-53720998D01*
X66550001Y-53758330D01*
X66550000Y-60279319D01*
X66548026Y-60281724D01*
X66477454Y-60413754D01*
X66454023Y-60491000D01*
X66433998Y-60557014D01*
X66430801Y-60589475D01*
X66419324Y-60706000D01*
X66423001Y-60743332D01*
X66423000Y-67968122D01*
X66419324Y-68005445D01*
X66423000Y-68042767D01*
X66423000Y-68042777D01*
X66433997Y-68154430D01*
X66472893Y-68282656D01*
X66477454Y-68297691D01*
X66548026Y-68429721D01*
X66569595Y-68456002D01*
X66642999Y-68545446D01*
X66672003Y-68569249D01*
X68160469Y-70057716D01*
X68160469Y-70119853D01*
X68200243Y-70319812D01*
X68278264Y-70508170D01*
X68391532Y-70677688D01*
X68535695Y-70821851D01*
X68705213Y-70935119D01*
X68893571Y-71013140D01*
X69093530Y-71052914D01*
X69297408Y-71052914D01*
X69497367Y-71013140D01*
X69685725Y-70935119D01*
X69855243Y-70821851D01*
X69899645Y-70777449D01*
X70753199Y-71631003D01*
X70776997Y-71660001D01*
X70805995Y-71683799D01*
X70892721Y-71754974D01*
X71024751Y-71825546D01*
X71168012Y-71869003D01*
X71279665Y-71880000D01*
X71279674Y-71880000D01*
X71316997Y-71883676D01*
X71354320Y-71880000D01*
X79923382Y-71880000D01*
X79967319Y-71923937D01*
X80136837Y-72037205D01*
X80231000Y-72076209D01*
X80154744Y-72107795D01*
X79985226Y-72221063D01*
X79841063Y-72365226D01*
X79727795Y-72534744D01*
X79649774Y-72723102D01*
X79610000Y-72923061D01*
X79610000Y-73126939D01*
X79644423Y-73299999D01*
X68916159Y-73299999D01*
X68862205Y-73169744D01*
X68748937Y-73000226D01*
X68604774Y-72856063D01*
X68435256Y-72742795D01*
X68246898Y-72664774D01*
X68046939Y-72625000D01*
X67984802Y-72625000D01*
X65530000Y-70170199D01*
X65530000Y-69576211D01*
X65573937Y-69532274D01*
X65687205Y-69362756D01*
X65765226Y-69174398D01*
X65805000Y-68974439D01*
X65805000Y-68770561D01*
X65765226Y-68570602D01*
X65687205Y-68382244D01*
X65573937Y-68212726D01*
X65429774Y-68068563D01*
X65260256Y-67955295D01*
X65071898Y-67877274D01*
X64871939Y-67837500D01*
X64804999Y-67837500D01*
X64804999Y-59758712D01*
X64848937Y-59714774D01*
X64962205Y-59545256D01*
X65040226Y-59356898D01*
X65080000Y-59156939D01*
X65080000Y-58953061D01*
X65040226Y-58753102D01*
X64962205Y-58564744D01*
X64848937Y-58395226D01*
X64704774Y-58251063D01*
X64535256Y-58137795D01*
X64346898Y-58059774D01*
X64146939Y-58020000D01*
X63943061Y-58020000D01*
X63743102Y-58059774D01*
X63554744Y-58137795D01*
X63385226Y-58251063D01*
X63241063Y-58395226D01*
X63127795Y-58564744D01*
X63049774Y-58753102D01*
X63010000Y-58953061D01*
X62763000Y-58953061D01*
X62763000Y-39402279D01*
X62801909Y-39005455D01*
X62907780Y-38654792D01*
X63079744Y-38331375D01*
X63311254Y-38047516D01*
X63593486Y-37814035D01*
X63915695Y-37639817D01*
X64265614Y-37531498D01*
X64660443Y-37490000D01*
X86327721Y-37490000D01*
X86724545Y-37528909D01*
G37*
%TD.AperFunction*%
D14*
X82856566Y-69597597D02*
X83026084Y-69710865D01*
X83214442Y-69788886D01*
X83349965Y-69815843D01*
X83349965Y-69951931D01*
X83389739Y-70151890D01*
X83467760Y-70340248D01*
X83581028Y-70509766D01*
X83725191Y-70653929D01*
X83825019Y-70720632D01*
X83825018Y-71821925D01*
X82840296Y-72806648D01*
X82836999Y-72806323D01*
X82799674Y-72809999D01*
X82799666Y-72809999D01*
X82688013Y-72820996D01*
X82544752Y-72864453D01*
X82412723Y-72935025D01*
X82296998Y-73029998D01*
X82273195Y-73059002D01*
X82032198Y-73299999D01*
X81645577Y-73299999D01*
X81680000Y-73126939D01*
X81680000Y-73064801D01*
X82426004Y-72318798D01*
X82455001Y-72295001D01*
X82549974Y-72179276D01*
X82620546Y-72047247D01*
X82664003Y-71903986D01*
X82675000Y-71792333D01*
X82675000Y-71792324D01*
X82678676Y-71755001D01*
X82675000Y-71717678D01*
X82675000Y-71188711D01*
X82718937Y-71144774D01*
X82832205Y-70975256D01*
X82910226Y-70786898D01*
X82950000Y-70586939D01*
X82950000Y-70383061D01*
X82910226Y-70183102D01*
X82832205Y-69994744D01*
X82718937Y-69825226D01*
X82574774Y-69681063D01*
X82405256Y-69567795D01*
X82371131Y-69553660D01*
X82812629Y-69553660D01*
X82856566Y-69597597D01*
%TA.AperFunction,Conductor*%
D15*
G36*
X82856566Y-69597597D02*
G01*
X83026084Y-69710865D01*
X83214442Y-69788886D01*
X83349965Y-69815843D01*
X83349965Y-69951931D01*
X83389739Y-70151890D01*
X83467760Y-70340248D01*
X83581028Y-70509766D01*
X83725191Y-70653929D01*
X83825019Y-70720632D01*
X83825018Y-71821925D01*
X82840296Y-72806648D01*
X82836999Y-72806323D01*
X82799674Y-72809999D01*
X82799666Y-72809999D01*
X82688013Y-72820996D01*
X82544752Y-72864453D01*
X82412723Y-72935025D01*
X82296998Y-73029998D01*
X82273195Y-73059002D01*
X82032198Y-73299999D01*
X81645577Y-73299999D01*
X81680000Y-73126939D01*
X81680000Y-73064801D01*
X82426004Y-72318798D01*
X82455001Y-72295001D01*
X82549974Y-72179276D01*
X82620546Y-72047247D01*
X82664003Y-71903986D01*
X82675000Y-71792333D01*
X82675000Y-71792324D01*
X82678676Y-71755001D01*
X82675000Y-71717678D01*
X82675000Y-71188711D01*
X82718937Y-71144774D01*
X82832205Y-70975256D01*
X82910226Y-70786898D01*
X82950000Y-70586939D01*
X82950000Y-70383061D01*
X82910226Y-70183102D01*
X82832205Y-69994744D01*
X82718937Y-69825226D01*
X82574774Y-69681063D01*
X82405256Y-69567795D01*
X82371131Y-69553660D01*
X82812629Y-69553660D01*
X82856566Y-69597597D01*
G37*
%TD.AperFunction*%
D14*
X82875000Y-52109803D02*
X82875000Y-52171939D01*
X82914774Y-52371898D01*
X82992795Y-52560256D01*
X83097796Y-52717401D01*
X82588948Y-53226249D01*
X82531786Y-53088248D01*
X82418518Y-52918730D01*
X82274355Y-52774567D01*
X82104837Y-52661299D01*
X81916479Y-52583278D01*
X81716520Y-52543504D01*
X81512642Y-52543504D01*
X81312683Y-52583278D01*
X81124325Y-52661299D01*
X80954807Y-52774567D01*
X80810644Y-52918730D01*
X80697376Y-53088248D01*
X80619355Y-53276606D01*
X80579581Y-53476565D01*
X80579581Y-53554278D01*
X80509036Y-53686257D01*
X80465580Y-53829518D01*
X80450906Y-53978503D01*
X80454583Y-54015835D01*
X80454582Y-55726120D01*
X79898997Y-56281706D01*
X79869999Y-56305504D01*
X79846201Y-56334502D01*
X79846200Y-56334503D01*
X79775025Y-56421229D01*
X79704453Y-56553259D01*
X79660997Y-56696520D01*
X79646323Y-56845505D01*
X79650000Y-56882837D01*
X79649999Y-64624677D01*
X79646323Y-64661999D01*
X79646732Y-64666155D01*
X79613246Y-64655997D01*
X79501593Y-64645000D01*
X79501582Y-64645000D01*
X79464260Y-64641324D01*
X79426938Y-64645000D01*
X77538711Y-64645000D01*
X77494774Y-64601063D01*
X77325256Y-64487795D01*
X77136898Y-64409774D01*
X76936939Y-64370000D01*
X76733061Y-64370000D01*
X76533102Y-64409774D01*
X76344744Y-64487795D01*
X76175226Y-64601063D01*
X76031063Y-64745226D01*
X75917795Y-64914744D01*
X75839774Y-65103102D01*
X75800000Y-65303061D01*
X75800000Y-65506939D01*
X75839774Y-65706898D01*
X75917795Y-65895256D01*
X76031063Y-66064774D01*
X76175226Y-66208937D01*
X76344744Y-66322205D01*
X76533102Y-66400226D01*
X76733061Y-66440000D01*
X76936939Y-66440000D01*
X77136898Y-66400226D01*
X77325256Y-66322205D01*
X77494774Y-66208937D01*
X77538711Y-66165000D01*
X79149459Y-66165000D01*
X80880000Y-67895542D01*
X80880000Y-67957679D01*
X80895113Y-68033660D01*
X79903462Y-68033660D01*
X79775000Y-67905198D01*
X79775000Y-67843061D01*
X79735226Y-67643102D01*
X79657205Y-67454744D01*
X79543937Y-67285226D01*
X79399774Y-67141063D01*
X79230256Y-67027795D01*
X79041898Y-66949774D01*
X78841939Y-66910000D01*
X78638061Y-66910000D01*
X78438102Y-66949774D01*
X78249744Y-67027795D01*
X78080226Y-67141063D01*
X77936063Y-67285226D01*
X77822795Y-67454744D01*
X77744774Y-67643102D01*
X77705000Y-67843061D01*
X77705000Y-68046939D01*
X77744774Y-68246898D01*
X77822795Y-68435256D01*
X77936063Y-68604774D01*
X78080226Y-68748937D01*
X78249744Y-68862205D01*
X78438102Y-68940226D01*
X78638061Y-68980000D01*
X78700198Y-68980000D01*
X79024865Y-69304668D01*
X79048659Y-69333661D01*
X79077652Y-69357455D01*
X79077656Y-69357459D01*
X79146572Y-69414016D01*
X79164384Y-69428634D01*
X79296413Y-69499206D01*
X79439674Y-69542663D01*
X79551327Y-69553660D01*
X79551336Y-69553660D01*
X79588659Y-69557336D01*
X79625982Y-69553660D01*
X81458869Y-69553660D01*
X81424744Y-69567795D01*
X81255226Y-69681063D01*
X81111063Y-69825226D01*
X80997795Y-69994744D01*
X80941746Y-70130057D01*
X80928991Y-70124774D01*
X80729032Y-70085000D01*
X80525154Y-70085000D01*
X80325195Y-70124774D01*
X80136837Y-70202795D01*
X79967319Y-70316063D01*
X79923382Y-70360000D01*
X76469013Y-70360000D01*
X76482205Y-70340256D01*
X76560226Y-70151898D01*
X76600000Y-69951939D01*
X76600000Y-69889802D01*
X76801004Y-69688797D01*
X76830003Y-69664999D01*
X76924976Y-69549274D01*
X76995548Y-69417245D01*
X77039005Y-69273984D01*
X77050002Y-69162331D01*
X77050002Y-69162323D01*
X77053678Y-69124998D01*
X77050002Y-69087673D01*
X77050002Y-67634320D01*
X77053678Y-67596997D01*
X77050002Y-67559674D01*
X77050002Y-67559665D01*
X77039005Y-67448012D01*
X76995548Y-67304751D01*
X76924976Y-67172722D01*
X76830003Y-67056997D01*
X76801006Y-67033200D01*
X75405041Y-65637235D01*
X75499774Y-65573937D01*
X75643937Y-65429774D01*
X75757205Y-65260256D01*
X75835226Y-65071898D01*
X75875000Y-64871939D01*
X75875000Y-64668061D01*
X75835226Y-64468102D01*
X75757205Y-64279744D01*
X75643937Y-64110226D01*
X75600000Y-64066289D01*
X75600000Y-57642322D01*
X75603676Y-57604999D01*
X75600000Y-57567676D01*
X75600000Y-57567667D01*
X75589003Y-57456014D01*
X75545546Y-57312753D01*
X75474974Y-57180724D01*
X75420000Y-57113738D01*
X75420000Y-57048061D01*
X75380226Y-56848102D01*
X75302205Y-56659744D01*
X75188937Y-56490226D01*
X75044774Y-56346063D01*
X74875256Y-56232795D01*
X74686898Y-56154774D01*
X74486939Y-56115000D01*
X74420000Y-56115000D01*
X74420000Y-55178801D01*
X75263498Y-54335305D01*
X75463061Y-54375000D01*
X75666939Y-54375000D01*
X75866898Y-54335226D01*
X76055256Y-54257205D01*
X76224774Y-54143937D01*
X76368937Y-53999774D01*
X76482205Y-53830256D01*
X76560226Y-53641898D01*
X76600000Y-53441939D01*
X76600000Y-53238061D01*
X76560226Y-53038102D01*
X76482205Y-52849744D01*
X76368937Y-52680226D01*
X76224774Y-52536063D01*
X76055256Y-52422795D01*
X75866898Y-52344774D01*
X75666939Y-52305000D01*
X75463061Y-52305000D01*
X75263102Y-52344774D01*
X75074744Y-52422795D01*
X74905226Y-52536063D01*
X74761063Y-52680226D01*
X74725999Y-52732703D01*
X74672996Y-52776201D01*
X74672992Y-52776205D01*
X74643999Y-52799999D01*
X74620205Y-52828992D01*
X73875000Y-53574198D01*
X73875000Y-53183801D01*
X75498802Y-51560000D01*
X76486289Y-51560000D01*
X76530226Y-51603937D01*
X76699744Y-51717205D01*
X76888102Y-51795226D01*
X77088061Y-51835000D01*
X77291939Y-51835000D01*
X77491898Y-51795226D01*
X77680256Y-51717205D01*
X77849774Y-51603937D01*
X77993937Y-51459774D01*
X78107205Y-51290256D01*
X78185226Y-51101898D01*
X78225000Y-50901939D01*
X78225000Y-50698061D01*
X78185226Y-50498102D01*
X78131386Y-50368121D01*
X78249744Y-50447205D01*
X78438102Y-50525226D01*
X78638061Y-50565000D01*
X78841939Y-50565000D01*
X79041898Y-50525226D01*
X79230256Y-50447205D01*
X79399774Y-50333937D01*
X79443711Y-50290000D01*
X81055199Y-50290000D01*
X82875000Y-52109803D01*
%TA.AperFunction,Conductor*%
D15*
G36*
X82875000Y-52109803D02*
G01*
X82875000Y-52171939D01*
X82914774Y-52371898D01*
X82992795Y-52560256D01*
X83097796Y-52717401D01*
X82588948Y-53226249D01*
X82531786Y-53088248D01*
X82418518Y-52918730D01*
X82274355Y-52774567D01*
X82104837Y-52661299D01*
X81916479Y-52583278D01*
X81716520Y-52543504D01*
X81512642Y-52543504D01*
X81312683Y-52583278D01*
X81124325Y-52661299D01*
X80954807Y-52774567D01*
X80810644Y-52918730D01*
X80697376Y-53088248D01*
X80619355Y-53276606D01*
X80579581Y-53476565D01*
X80579581Y-53554278D01*
X80509036Y-53686257D01*
X80465580Y-53829518D01*
X80450906Y-53978503D01*
X80454583Y-54015835D01*
X80454582Y-55726120D01*
X79898997Y-56281706D01*
X79869999Y-56305504D01*
X79846201Y-56334502D01*
X79846200Y-56334503D01*
X79775025Y-56421229D01*
X79704453Y-56553259D01*
X79660997Y-56696520D01*
X79646323Y-56845505D01*
X79650000Y-56882837D01*
X79649999Y-64624677D01*
X79646323Y-64661999D01*
X79646732Y-64666155D01*
X79613246Y-64655997D01*
X79501593Y-64645000D01*
X79501582Y-64645000D01*
X79464260Y-64641324D01*
X79426938Y-64645000D01*
X77538711Y-64645000D01*
X77494774Y-64601063D01*
X77325256Y-64487795D01*
X77136898Y-64409774D01*
X76936939Y-64370000D01*
X76733061Y-64370000D01*
X76533102Y-64409774D01*
X76344744Y-64487795D01*
X76175226Y-64601063D01*
X76031063Y-64745226D01*
X75917795Y-64914744D01*
X75839774Y-65103102D01*
X75800000Y-65303061D01*
X75800000Y-65506939D01*
X75839774Y-65706898D01*
X75917795Y-65895256D01*
X76031063Y-66064774D01*
X76175226Y-66208937D01*
X76344744Y-66322205D01*
X76533102Y-66400226D01*
X76733061Y-66440000D01*
X76936939Y-66440000D01*
X77136898Y-66400226D01*
X77325256Y-66322205D01*
X77494774Y-66208937D01*
X77538711Y-66165000D01*
X79149459Y-66165000D01*
X80880000Y-67895542D01*
X80880000Y-67957679D01*
X80895113Y-68033660D01*
X79903462Y-68033660D01*
X79775000Y-67905198D01*
X79775000Y-67843061D01*
X79735226Y-67643102D01*
X79657205Y-67454744D01*
X79543937Y-67285226D01*
X79399774Y-67141063D01*
X79230256Y-67027795D01*
X79041898Y-66949774D01*
X78841939Y-66910000D01*
X78638061Y-66910000D01*
X78438102Y-66949774D01*
X78249744Y-67027795D01*
X78080226Y-67141063D01*
X77936063Y-67285226D01*
X77822795Y-67454744D01*
X77744774Y-67643102D01*
X77705000Y-67843061D01*
X77705000Y-68046939D01*
X77744774Y-68246898D01*
X77822795Y-68435256D01*
X77936063Y-68604774D01*
X78080226Y-68748937D01*
X78249744Y-68862205D01*
X78438102Y-68940226D01*
X78638061Y-68980000D01*
X78700198Y-68980000D01*
X79024865Y-69304668D01*
X79048659Y-69333661D01*
X79077652Y-69357455D01*
X79077656Y-69357459D01*
X79146572Y-69414016D01*
X79164384Y-69428634D01*
X79296413Y-69499206D01*
X79439674Y-69542663D01*
X79551327Y-69553660D01*
X79551336Y-69553660D01*
X79588659Y-69557336D01*
X79625982Y-69553660D01*
X81458869Y-69553660D01*
X81424744Y-69567795D01*
X81255226Y-69681063D01*
X81111063Y-69825226D01*
X80997795Y-69994744D01*
X80941746Y-70130057D01*
X80928991Y-70124774D01*
X80729032Y-70085000D01*
X80525154Y-70085000D01*
X80325195Y-70124774D01*
X80136837Y-70202795D01*
X79967319Y-70316063D01*
X79923382Y-70360000D01*
X76469013Y-70360000D01*
X76482205Y-70340256D01*
X76560226Y-70151898D01*
X76600000Y-69951939D01*
X76600000Y-69889802D01*
X76801004Y-69688797D01*
X76830003Y-69664999D01*
X76924976Y-69549274D01*
X76995548Y-69417245D01*
X77039005Y-69273984D01*
X77050002Y-69162331D01*
X77050002Y-69162323D01*
X77053678Y-69124998D01*
X77050002Y-69087673D01*
X77050002Y-67634320D01*
X77053678Y-67596997D01*
X77050002Y-67559674D01*
X77050002Y-67559665D01*
X77039005Y-67448012D01*
X76995548Y-67304751D01*
X76924976Y-67172722D01*
X76830003Y-67056997D01*
X76801006Y-67033200D01*
X75405041Y-65637235D01*
X75499774Y-65573937D01*
X75643937Y-65429774D01*
X75757205Y-65260256D01*
X75835226Y-65071898D01*
X75875000Y-64871939D01*
X75875000Y-64668061D01*
X75835226Y-64468102D01*
X75757205Y-64279744D01*
X75643937Y-64110226D01*
X75600000Y-64066289D01*
X75600000Y-57642322D01*
X75603676Y-57604999D01*
X75600000Y-57567676D01*
X75600000Y-57567667D01*
X75589003Y-57456014D01*
X75545546Y-57312753D01*
X75474974Y-57180724D01*
X75420000Y-57113738D01*
X75420000Y-57048061D01*
X75380226Y-56848102D01*
X75302205Y-56659744D01*
X75188937Y-56490226D01*
X75044774Y-56346063D01*
X74875256Y-56232795D01*
X74686898Y-56154774D01*
X74486939Y-56115000D01*
X74420000Y-56115000D01*
X74420000Y-55178801D01*
X75263498Y-54335305D01*
X75463061Y-54375000D01*
X75666939Y-54375000D01*
X75866898Y-54335226D01*
X76055256Y-54257205D01*
X76224774Y-54143937D01*
X76368937Y-53999774D01*
X76482205Y-53830256D01*
X76560226Y-53641898D01*
X76600000Y-53441939D01*
X76600000Y-53238061D01*
X76560226Y-53038102D01*
X76482205Y-52849744D01*
X76368937Y-52680226D01*
X76224774Y-52536063D01*
X76055256Y-52422795D01*
X75866898Y-52344774D01*
X75666939Y-52305000D01*
X75463061Y-52305000D01*
X75263102Y-52344774D01*
X75074744Y-52422795D01*
X74905226Y-52536063D01*
X74761063Y-52680226D01*
X74725999Y-52732703D01*
X74672996Y-52776201D01*
X74672992Y-52776205D01*
X74643999Y-52799999D01*
X74620205Y-52828992D01*
X73875000Y-53574198D01*
X73875000Y-53183801D01*
X75498802Y-51560000D01*
X76486289Y-51560000D01*
X76530226Y-51603937D01*
X76699744Y-51717205D01*
X76888102Y-51795226D01*
X77088061Y-51835000D01*
X77291939Y-51835000D01*
X77491898Y-51795226D01*
X77680256Y-51717205D01*
X77849774Y-51603937D01*
X77993937Y-51459774D01*
X78107205Y-51290256D01*
X78185226Y-51101898D01*
X78225000Y-50901939D01*
X78225000Y-50698061D01*
X78185226Y-50498102D01*
X78131386Y-50368121D01*
X78249744Y-50447205D01*
X78438102Y-50525226D01*
X78638061Y-50565000D01*
X78841939Y-50565000D01*
X79041898Y-50525226D01*
X79230256Y-50447205D01*
X79399774Y-50333937D01*
X79443711Y-50290000D01*
X81055199Y-50290000D01*
X82875000Y-52109803D01*
G37*
%TD.AperFunction*%
D14*
X72221063Y-49935772D02*
X72365226Y-50079935D01*
X72534744Y-50193203D01*
X72665000Y-50247157D01*
X72664999Y-51031200D01*
X72153986Y-51542214D01*
X72124989Y-51566012D01*
X72101191Y-51595010D01*
X72101190Y-51595011D01*
X72030015Y-51681737D01*
X71959443Y-51813767D01*
X71946327Y-51857007D01*
X71924186Y-51930000D01*
X71915987Y-51957028D01*
X71901313Y-52106013D01*
X71904990Y-52143345D01*
X71904989Y-59934558D01*
X71856939Y-59925000D01*
X71653061Y-59925000D01*
X71453102Y-59964774D01*
X71264744Y-60042795D01*
X71095226Y-60156063D01*
X71051289Y-60200000D01*
X69918711Y-60200000D01*
X69874774Y-60156063D01*
X69705256Y-60042795D01*
X69516898Y-59964774D01*
X69316939Y-59925000D01*
X69113061Y-59925000D01*
X68913102Y-59964774D01*
X68724744Y-60042795D01*
X68555226Y-60156063D01*
X68411063Y-60300226D01*
X68297795Y-60469744D01*
X68219774Y-60658102D01*
X68180000Y-60858061D01*
X68180000Y-61061939D01*
X68219774Y-61261898D01*
X68238143Y-61306245D01*
X68159007Y-61371190D01*
X68159003Y-61371194D01*
X68130010Y-61394988D01*
X68106216Y-61423981D01*
X67943000Y-61587198D01*
X67943000Y-61005681D01*
X67944974Y-61003276D01*
X68015546Y-60871247D01*
X68059003Y-60727986D01*
X68070000Y-60616333D01*
X68070000Y-60616323D01*
X68073676Y-60579001D01*
X68070000Y-60541678D01*
X68070000Y-54035799D01*
X69889803Y-52215998D01*
X69951939Y-52215998D01*
X70151898Y-52176224D01*
X70340256Y-52098203D01*
X70509774Y-51984935D01*
X70653937Y-51840772D01*
X70767205Y-51671254D01*
X70845226Y-51482896D01*
X70885000Y-51282937D01*
X70885000Y-51220799D01*
X72200621Y-49905178D01*
X72221063Y-49935772D01*
%TA.AperFunction,Conductor*%
D15*
G36*
X72221063Y-49935772D02*
G01*
X72365226Y-50079935D01*
X72534744Y-50193203D01*
X72665000Y-50247157D01*
X72664999Y-51031200D01*
X72153986Y-51542214D01*
X72124989Y-51566012D01*
X72101191Y-51595010D01*
X72101190Y-51595011D01*
X72030015Y-51681737D01*
X71959443Y-51813767D01*
X71946327Y-51857007D01*
X71924186Y-51930000D01*
X71915987Y-51957028D01*
X71901313Y-52106013D01*
X71904990Y-52143345D01*
X71904989Y-59934558D01*
X71856939Y-59925000D01*
X71653061Y-59925000D01*
X71453102Y-59964774D01*
X71264744Y-60042795D01*
X71095226Y-60156063D01*
X71051289Y-60200000D01*
X69918711Y-60200000D01*
X69874774Y-60156063D01*
X69705256Y-60042795D01*
X69516898Y-59964774D01*
X69316939Y-59925000D01*
X69113061Y-59925000D01*
X68913102Y-59964774D01*
X68724744Y-60042795D01*
X68555226Y-60156063D01*
X68411063Y-60300226D01*
X68297795Y-60469744D01*
X68219774Y-60658102D01*
X68180000Y-60858061D01*
X68180000Y-61061939D01*
X68219774Y-61261898D01*
X68238143Y-61306245D01*
X68159007Y-61371190D01*
X68159003Y-61371194D01*
X68130010Y-61394988D01*
X68106216Y-61423981D01*
X67943000Y-61587198D01*
X67943000Y-61005681D01*
X67944974Y-61003276D01*
X68015546Y-60871247D01*
X68059003Y-60727986D01*
X68070000Y-60616333D01*
X68070000Y-60616323D01*
X68073676Y-60579001D01*
X68070000Y-60541678D01*
X68070000Y-54035799D01*
X69889803Y-52215998D01*
X69951939Y-52215998D01*
X70151898Y-52176224D01*
X70340256Y-52098203D01*
X70509774Y-51984935D01*
X70653937Y-51840772D01*
X70767205Y-51671254D01*
X70845226Y-51482896D01*
X70885000Y-51282937D01*
X70885000Y-51220799D01*
X72200621Y-49905178D01*
X72221063Y-49935772D01*
G37*
%TD.AperFunction*%
%TD*%
M02*
