M48
; DRILL file {KiCad 5.1.10} date Fri Sep 10 11:26:50 2021
; FORMAT={-:-/ absolute / inch / decimal}
; #@! TF.CreationDate,2021-09-10T11:26:50+02:00
; #@! TF.GenerationSoftware,Kicad,Pcbnew,5.1.10
; #@! TF.FileFunction,Plated,1,2,PTH
FMAT,2
INCH
T1C0.0157
T2C0.0394
%
G90
G05
T1
X2.5215Y-2.325
X2.55Y-2.7115
X2.675Y-2.4669
X2.675Y-2.9
X2.695Y-2.175
X2.7242Y-2.7566
X2.725Y-2.4
X2.725Y-2.4669
X2.75Y-2.015
X2.775Y-2.725
X2.802Y-2.681
X2.825Y-2.4
X2.825Y-3.05
X2.85Y-2.575
X2.85Y-2.02
X2.875Y-1.94
X2.9Y-2.7
X2.925Y-2.75
X2.9285Y-2.25
X2.9465Y-2.55
X2.9569Y-1.9377
X2.975Y-2.1
X2.975Y-2.75
X3.025Y-2.575
X3.039Y-2.0
X3.075Y-3.0785
X3.1Y-1.95
X3.1Y-2.675
X3.125Y-1.85
X3.125Y-3.0
X3.161Y-2.0
X3.1615Y-2.2
X3.1743Y-2.8
X3.175Y-2.875
X3.2Y-2.9785
X3.2132Y-2.1094
X3.2215Y-2.225
X3.225Y-1.925
X3.225Y-2.4885
X3.225Y-2.5441
X3.225Y-2.6715
X3.225Y-2.775
X3.275Y-2.925
X3.275Y-2.55
X3.288Y-2.7084
X3.3Y-2.63
X3.3006Y-2.8273
X3.3035Y-2.05
X3.3094Y-2.1406
X3.3222Y-2.475
X3.3222Y-2.75
T2
X3.41Y-1.74
X3.41Y-1.84
X3.41Y-1.94
X3.41Y-2.04
X3.41Y-2.14
X3.41Y-2.24
X3.41Y-2.34
X3.41Y-2.44
X3.41Y-2.54
X3.41Y-2.64
X3.41Y-2.74
X3.41Y-2.84
X3.41Y-2.94
X3.41Y-3.04
T0
M30
