%TF.GenerationSoftware,KiCad,Pcbnew,5.1.10*%
%TF.CreationDate,2021-09-10T11:26:47+02:00*%
%TF.ProjectId,PeltierSwitchingMainBoard_control,50656c74-6965-4725-9377-69746368696e,rev?*%
%TF.SameCoordinates,Original*%
%TF.FileFunction,Paste,Top*%
%TF.FilePolarity,Positive*%
%FSLAX46Y46*%
G04 Gerber Fmt 4.6, Leading zero omitted, Abs format (unit mm)*
G04 Created by KiCad (PCBNEW 5.1.10) date 2021-09-10 11:26:47*
%MOMM*%
%LPD*%
G01*
G04 APERTURE LIST*
%ADD10R,1.000000X2.500000*%
%ADD11R,1.750000X3.450000*%
%ADD12R,1.200000X0.900000*%
G04 APERTURE END LIST*
D10*
%TO.C,J3*%
X69105000Y-46910000D03*
X71105000Y-46910000D03*
X73105000Y-46910000D03*
X75105000Y-46910000D03*
X77105000Y-46910000D03*
X79105000Y-46910000D03*
D11*
X81605000Y-42910000D03*
X66605000Y-42910000D03*
%TD*%
%TO.C,U1*%
G36*
G01*
X68095000Y-63685000D02*
X67795000Y-63685000D01*
G75*
G02*
X67645000Y-63535000I0J150000D01*
G01*
X67645000Y-61785000D01*
G75*
G02*
X67795000Y-61635000I150000J0D01*
G01*
X68095000Y-61635000D01*
G75*
G02*
X68245000Y-61785000I0J-150000D01*
G01*
X68245000Y-63535000D01*
G75*
G02*
X68095000Y-63685000I-150000J0D01*
G01*
G37*
G36*
G01*
X69365000Y-63685000D02*
X69065000Y-63685000D01*
G75*
G02*
X68915000Y-63535000I0J150000D01*
G01*
X68915000Y-61785000D01*
G75*
G02*
X69065000Y-61635000I150000J0D01*
G01*
X69365000Y-61635000D01*
G75*
G02*
X69515000Y-61785000I0J-150000D01*
G01*
X69515000Y-63535000D01*
G75*
G02*
X69365000Y-63685000I-150000J0D01*
G01*
G37*
G36*
G01*
X70635000Y-63685000D02*
X70335000Y-63685000D01*
G75*
G02*
X70185000Y-63535000I0J150000D01*
G01*
X70185000Y-61785000D01*
G75*
G02*
X70335000Y-61635000I150000J0D01*
G01*
X70635000Y-61635000D01*
G75*
G02*
X70785000Y-61785000I0J-150000D01*
G01*
X70785000Y-63535000D01*
G75*
G02*
X70635000Y-63685000I-150000J0D01*
G01*
G37*
G36*
G01*
X71905000Y-63685000D02*
X71605000Y-63685000D01*
G75*
G02*
X71455000Y-63535000I0J150000D01*
G01*
X71455000Y-61785000D01*
G75*
G02*
X71605000Y-61635000I150000J0D01*
G01*
X71905000Y-61635000D01*
G75*
G02*
X72055000Y-61785000I0J-150000D01*
G01*
X72055000Y-63535000D01*
G75*
G02*
X71905000Y-63685000I-150000J0D01*
G01*
G37*
G36*
G01*
X73175000Y-63685000D02*
X72875000Y-63685000D01*
G75*
G02*
X72725000Y-63535000I0J150000D01*
G01*
X72725000Y-61785000D01*
G75*
G02*
X72875000Y-61635000I150000J0D01*
G01*
X73175000Y-61635000D01*
G75*
G02*
X73325000Y-61785000I0J-150000D01*
G01*
X73325000Y-63535000D01*
G75*
G02*
X73175000Y-63685000I-150000J0D01*
G01*
G37*
G36*
G01*
X74445000Y-63685000D02*
X74145000Y-63685000D01*
G75*
G02*
X73995000Y-63535000I0J150000D01*
G01*
X73995000Y-61785000D01*
G75*
G02*
X74145000Y-61635000I150000J0D01*
G01*
X74445000Y-61635000D01*
G75*
G02*
X74595000Y-61785000I0J-150000D01*
G01*
X74595000Y-63535000D01*
G75*
G02*
X74445000Y-63685000I-150000J0D01*
G01*
G37*
G36*
G01*
X75715000Y-63685000D02*
X75415000Y-63685000D01*
G75*
G02*
X75265000Y-63535000I0J150000D01*
G01*
X75265000Y-61785000D01*
G75*
G02*
X75415000Y-61635000I150000J0D01*
G01*
X75715000Y-61635000D01*
G75*
G02*
X75865000Y-61785000I0J-150000D01*
G01*
X75865000Y-63535000D01*
G75*
G02*
X75715000Y-63685000I-150000J0D01*
G01*
G37*
G36*
G01*
X76985000Y-63685000D02*
X76685000Y-63685000D01*
G75*
G02*
X76535000Y-63535000I0J150000D01*
G01*
X76535000Y-61785000D01*
G75*
G02*
X76685000Y-61635000I150000J0D01*
G01*
X76985000Y-61635000D01*
G75*
G02*
X77135000Y-61785000I0J-150000D01*
G01*
X77135000Y-63535000D01*
G75*
G02*
X76985000Y-63685000I-150000J0D01*
G01*
G37*
G36*
G01*
X78255000Y-63685000D02*
X77955000Y-63685000D01*
G75*
G02*
X77805000Y-63535000I0J150000D01*
G01*
X77805000Y-61785000D01*
G75*
G02*
X77955000Y-61635000I150000J0D01*
G01*
X78255000Y-61635000D01*
G75*
G02*
X78405000Y-61785000I0J-150000D01*
G01*
X78405000Y-63535000D01*
G75*
G02*
X78255000Y-63685000I-150000J0D01*
G01*
G37*
G36*
G01*
X79525000Y-63685000D02*
X79225000Y-63685000D01*
G75*
G02*
X79075000Y-63535000I0J150000D01*
G01*
X79075000Y-61785000D01*
G75*
G02*
X79225000Y-61635000I150000J0D01*
G01*
X79525000Y-61635000D01*
G75*
G02*
X79675000Y-61785000I0J-150000D01*
G01*
X79675000Y-63535000D01*
G75*
G02*
X79525000Y-63685000I-150000J0D01*
G01*
G37*
G36*
G01*
X79525000Y-72985000D02*
X79225000Y-72985000D01*
G75*
G02*
X79075000Y-72835000I0J150000D01*
G01*
X79075000Y-71085000D01*
G75*
G02*
X79225000Y-70935000I150000J0D01*
G01*
X79525000Y-70935000D01*
G75*
G02*
X79675000Y-71085000I0J-150000D01*
G01*
X79675000Y-72835000D01*
G75*
G02*
X79525000Y-72985000I-150000J0D01*
G01*
G37*
G36*
G01*
X78255000Y-72985000D02*
X77955000Y-72985000D01*
G75*
G02*
X77805000Y-72835000I0J150000D01*
G01*
X77805000Y-71085000D01*
G75*
G02*
X77955000Y-70935000I150000J0D01*
G01*
X78255000Y-70935000D01*
G75*
G02*
X78405000Y-71085000I0J-150000D01*
G01*
X78405000Y-72835000D01*
G75*
G02*
X78255000Y-72985000I-150000J0D01*
G01*
G37*
G36*
G01*
X76985000Y-72985000D02*
X76685000Y-72985000D01*
G75*
G02*
X76535000Y-72835000I0J150000D01*
G01*
X76535000Y-71085000D01*
G75*
G02*
X76685000Y-70935000I150000J0D01*
G01*
X76985000Y-70935000D01*
G75*
G02*
X77135000Y-71085000I0J-150000D01*
G01*
X77135000Y-72835000D01*
G75*
G02*
X76985000Y-72985000I-150000J0D01*
G01*
G37*
G36*
G01*
X75715000Y-72985000D02*
X75415000Y-72985000D01*
G75*
G02*
X75265000Y-72835000I0J150000D01*
G01*
X75265000Y-71085000D01*
G75*
G02*
X75415000Y-70935000I150000J0D01*
G01*
X75715000Y-70935000D01*
G75*
G02*
X75865000Y-71085000I0J-150000D01*
G01*
X75865000Y-72835000D01*
G75*
G02*
X75715000Y-72985000I-150000J0D01*
G01*
G37*
G36*
G01*
X74445000Y-72985000D02*
X74145000Y-72985000D01*
G75*
G02*
X73995000Y-72835000I0J150000D01*
G01*
X73995000Y-71085000D01*
G75*
G02*
X74145000Y-70935000I150000J0D01*
G01*
X74445000Y-70935000D01*
G75*
G02*
X74595000Y-71085000I0J-150000D01*
G01*
X74595000Y-72835000D01*
G75*
G02*
X74445000Y-72985000I-150000J0D01*
G01*
G37*
G36*
G01*
X73175000Y-72985000D02*
X72875000Y-72985000D01*
G75*
G02*
X72725000Y-72835000I0J150000D01*
G01*
X72725000Y-71085000D01*
G75*
G02*
X72875000Y-70935000I150000J0D01*
G01*
X73175000Y-70935000D01*
G75*
G02*
X73325000Y-71085000I0J-150000D01*
G01*
X73325000Y-72835000D01*
G75*
G02*
X73175000Y-72985000I-150000J0D01*
G01*
G37*
G36*
G01*
X71905000Y-72985000D02*
X71605000Y-72985000D01*
G75*
G02*
X71455000Y-72835000I0J150000D01*
G01*
X71455000Y-71085000D01*
G75*
G02*
X71605000Y-70935000I150000J0D01*
G01*
X71905000Y-70935000D01*
G75*
G02*
X72055000Y-71085000I0J-150000D01*
G01*
X72055000Y-72835000D01*
G75*
G02*
X71905000Y-72985000I-150000J0D01*
G01*
G37*
G36*
G01*
X70635000Y-72985000D02*
X70335000Y-72985000D01*
G75*
G02*
X70185000Y-72835000I0J150000D01*
G01*
X70185000Y-71085000D01*
G75*
G02*
X70335000Y-70935000I150000J0D01*
G01*
X70635000Y-70935000D01*
G75*
G02*
X70785000Y-71085000I0J-150000D01*
G01*
X70785000Y-72835000D01*
G75*
G02*
X70635000Y-72985000I-150000J0D01*
G01*
G37*
G36*
G01*
X69365000Y-72985000D02*
X69065000Y-72985000D01*
G75*
G02*
X68915000Y-72835000I0J150000D01*
G01*
X68915000Y-71085000D01*
G75*
G02*
X69065000Y-70935000I150000J0D01*
G01*
X69365000Y-70935000D01*
G75*
G02*
X69515000Y-71085000I0J-150000D01*
G01*
X69515000Y-72835000D01*
G75*
G02*
X69365000Y-72985000I-150000J0D01*
G01*
G37*
G36*
G01*
X68095000Y-72985000D02*
X67795000Y-72985000D01*
G75*
G02*
X67645000Y-72835000I0J150000D01*
G01*
X67645000Y-71085000D01*
G75*
G02*
X67795000Y-70935000I150000J0D01*
G01*
X68095000Y-70935000D01*
G75*
G02*
X68245000Y-71085000I0J-150000D01*
G01*
X68245000Y-72835000D01*
G75*
G02*
X68095000Y-72985000I-150000J0D01*
G01*
G37*
%TD*%
%TO.C,R7*%
G36*
G01*
X65140000Y-52714999D02*
X65140000Y-53965001D01*
G75*
G02*
X64890001Y-54215000I-249999J0D01*
G01*
X64089999Y-54215000D01*
G75*
G02*
X63840000Y-53965001I0J249999D01*
G01*
X63840000Y-52714999D01*
G75*
G02*
X64089999Y-52465000I249999J0D01*
G01*
X64890001Y-52465000D01*
G75*
G02*
X65140000Y-52714999I0J-249999D01*
G01*
G37*
G36*
G01*
X68240000Y-52714999D02*
X68240000Y-53965001D01*
G75*
G02*
X67990001Y-54215000I-249999J0D01*
G01*
X67189999Y-54215000D01*
G75*
G02*
X66940000Y-53965001I0J249999D01*
G01*
X66940000Y-52714999D01*
G75*
G02*
X67189999Y-52465000I249999J0D01*
G01*
X67990001Y-52465000D01*
G75*
G02*
X68240000Y-52714999I0J-249999D01*
G01*
G37*
%TD*%
%TO.C,R6*%
G36*
G01*
X79005000Y-76825001D02*
X79005000Y-75574999D01*
G75*
G02*
X79254999Y-75325000I249999J0D01*
G01*
X80055001Y-75325000D01*
G75*
G02*
X80305000Y-75574999I0J-249999D01*
G01*
X80305000Y-76825001D01*
G75*
G02*
X80055001Y-77075000I-249999J0D01*
G01*
X79254999Y-77075000D01*
G75*
G02*
X79005000Y-76825001I0J249999D01*
G01*
G37*
G36*
G01*
X75905000Y-76825001D02*
X75905000Y-75574999D01*
G75*
G02*
X76154999Y-75325000I249999J0D01*
G01*
X76955001Y-75325000D01*
G75*
G02*
X77205000Y-75574999I0J-249999D01*
G01*
X77205000Y-76825001D01*
G75*
G02*
X76955001Y-77075000I-249999J0D01*
G01*
X76154999Y-77075000D01*
G75*
G02*
X75905000Y-76825001I0J249999D01*
G01*
G37*
%TD*%
%TO.C,R5*%
G36*
G01*
X79005000Y-80000001D02*
X79005000Y-78749999D01*
G75*
G02*
X79254999Y-78500000I249999J0D01*
G01*
X80055001Y-78500000D01*
G75*
G02*
X80305000Y-78749999I0J-249999D01*
G01*
X80305000Y-80000001D01*
G75*
G02*
X80055001Y-80250000I-249999J0D01*
G01*
X79254999Y-80250000D01*
G75*
G02*
X79005000Y-80000001I0J249999D01*
G01*
G37*
G36*
G01*
X75905000Y-80000001D02*
X75905000Y-78749999D01*
G75*
G02*
X76154999Y-78500000I249999J0D01*
G01*
X76955001Y-78500000D01*
G75*
G02*
X77205000Y-78749999I0J-249999D01*
G01*
X77205000Y-80000001D01*
G75*
G02*
X76955001Y-80250000I-249999J0D01*
G01*
X76154999Y-80250000D01*
G75*
G02*
X75905000Y-80000001I0J249999D01*
G01*
G37*
%TD*%
%TO.C,R4*%
G36*
G01*
X79640000Y-51425001D02*
X79640000Y-50174999D01*
G75*
G02*
X79889999Y-49925000I249999J0D01*
G01*
X80690001Y-49925000D01*
G75*
G02*
X80940000Y-50174999I0J-249999D01*
G01*
X80940000Y-51425001D01*
G75*
G02*
X80690001Y-51675000I-249999J0D01*
G01*
X79889999Y-51675000D01*
G75*
G02*
X79640000Y-51425001I0J249999D01*
G01*
G37*
G36*
G01*
X76540000Y-51425001D02*
X76540000Y-50174999D01*
G75*
G02*
X76789999Y-49925000I249999J0D01*
G01*
X77590001Y-49925000D01*
G75*
G02*
X77840000Y-50174999I0J-249999D01*
G01*
X77840000Y-51425001D01*
G75*
G02*
X77590001Y-51675000I-249999J0D01*
G01*
X76789999Y-51675000D01*
G75*
G02*
X76540000Y-51425001I0J249999D01*
G01*
G37*
%TD*%
%TO.C,R3*%
G36*
G01*
X65140000Y-50174999D02*
X65140000Y-51425001D01*
G75*
G02*
X64890001Y-51675000I-249999J0D01*
G01*
X64089999Y-51675000D01*
G75*
G02*
X63840000Y-51425001I0J249999D01*
G01*
X63840000Y-50174999D01*
G75*
G02*
X64089999Y-49925000I249999J0D01*
G01*
X64890001Y-49925000D01*
G75*
G02*
X65140000Y-50174999I0J-249999D01*
G01*
G37*
G36*
G01*
X68240000Y-50174999D02*
X68240000Y-51425001D01*
G75*
G02*
X67990001Y-51675000I-249999J0D01*
G01*
X67189999Y-51675000D01*
G75*
G02*
X66940000Y-51425001I0J249999D01*
G01*
X66940000Y-50174999D01*
G75*
G02*
X67189999Y-49925000I249999J0D01*
G01*
X67990001Y-49925000D01*
G75*
G02*
X68240000Y-50174999I0J-249999D01*
G01*
G37*
%TD*%
%TO.C,R2*%
G36*
G01*
X79640000Y-53965001D02*
X79640000Y-52714999D01*
G75*
G02*
X79889999Y-52465000I249999J0D01*
G01*
X80690001Y-52465000D01*
G75*
G02*
X80940000Y-52714999I0J-249999D01*
G01*
X80940000Y-53965001D01*
G75*
G02*
X80690001Y-54215000I-249999J0D01*
G01*
X79889999Y-54215000D01*
G75*
G02*
X79640000Y-53965001I0J249999D01*
G01*
G37*
G36*
G01*
X76540000Y-53965001D02*
X76540000Y-52714999D01*
G75*
G02*
X76789999Y-52465000I249999J0D01*
G01*
X77590001Y-52465000D01*
G75*
G02*
X77840000Y-52714999I0J-249999D01*
G01*
X77840000Y-53965001D01*
G75*
G02*
X77590001Y-54215000I-249999J0D01*
G01*
X76789999Y-54215000D01*
G75*
G02*
X76540000Y-53965001I0J249999D01*
G01*
G37*
%TD*%
%TO.C,R1*%
G36*
G01*
X71490000Y-74304999D02*
X71490000Y-75555001D01*
G75*
G02*
X71240001Y-75805000I-249999J0D01*
G01*
X70439999Y-75805000D01*
G75*
G02*
X70190000Y-75555001I0J249999D01*
G01*
X70190000Y-74304999D01*
G75*
G02*
X70439999Y-74055000I249999J0D01*
G01*
X71240001Y-74055000D01*
G75*
G02*
X71490000Y-74304999I0J-249999D01*
G01*
G37*
G36*
G01*
X74590000Y-74304999D02*
X74590000Y-75555001D01*
G75*
G02*
X74340001Y-75805000I-249999J0D01*
G01*
X73539999Y-75805000D01*
G75*
G02*
X73290000Y-75555001I0J249999D01*
G01*
X73290000Y-74304999D01*
G75*
G02*
X73539999Y-74055000I249999J0D01*
G01*
X74340001Y-74055000D01*
G75*
G02*
X74590000Y-74304999I0J-249999D01*
G01*
G37*
%TD*%
%TO.C,D3*%
G36*
G01*
X65590000Y-55429999D02*
X65590000Y-56330001D01*
G75*
G02*
X65340001Y-56580000I-249999J0D01*
G01*
X64689999Y-56580000D01*
G75*
G02*
X64440000Y-56330001I0J249999D01*
G01*
X64440000Y-55429999D01*
G75*
G02*
X64689999Y-55180000I249999J0D01*
G01*
X65340001Y-55180000D01*
G75*
G02*
X65590000Y-55429999I0J-249999D01*
G01*
G37*
G36*
G01*
X67640000Y-55429999D02*
X67640000Y-56330001D01*
G75*
G02*
X67390001Y-56580000I-249999J0D01*
G01*
X66739999Y-56580000D01*
G75*
G02*
X66490000Y-56330001I0J249999D01*
G01*
X66490000Y-55429999D01*
G75*
G02*
X66739999Y-55180000I249999J0D01*
G01*
X67390001Y-55180000D01*
G75*
G02*
X67640000Y-55429999I0J-249999D01*
G01*
G37*
%TD*%
D12*
%TO.C,D2*%
X64770000Y-74040000D03*
X64770000Y-70740000D03*
%TD*%
%TO.C,D1*%
X81915000Y-68835000D03*
X81915000Y-72135000D03*
%TD*%
%TO.C,C8*%
G36*
G01*
X82565003Y-63870000D02*
X81264997Y-63870000D01*
G75*
G02*
X81015000Y-63620003I0J249997D01*
G01*
X81015000Y-62794997D01*
G75*
G02*
X81264997Y-62545000I249997J0D01*
G01*
X82565003Y-62545000D01*
G75*
G02*
X82815000Y-62794997I0J-249997D01*
G01*
X82815000Y-63620003D01*
G75*
G02*
X82565003Y-63870000I-249997J0D01*
G01*
G37*
G36*
G01*
X82565003Y-66995000D02*
X81264997Y-66995000D01*
G75*
G02*
X81015000Y-66745003I0J249997D01*
G01*
X81015000Y-65919997D01*
G75*
G02*
X81264997Y-65670000I249997J0D01*
G01*
X82565003Y-65670000D01*
G75*
G02*
X82815000Y-65919997I0J-249997D01*
G01*
X82815000Y-66745003D01*
G75*
G02*
X82565003Y-66995000I-249997J0D01*
G01*
G37*
%TD*%
%TO.C,C7*%
G36*
G01*
X65420003Y-66410000D02*
X64119997Y-66410000D01*
G75*
G02*
X63870000Y-66160003I0J249997D01*
G01*
X63870000Y-65334997D01*
G75*
G02*
X64119997Y-65085000I249997J0D01*
G01*
X65420003Y-65085000D01*
G75*
G02*
X65670000Y-65334997I0J-249997D01*
G01*
X65670000Y-66160003D01*
G75*
G02*
X65420003Y-66410000I-249997J0D01*
G01*
G37*
G36*
G01*
X65420003Y-69535000D02*
X64119997Y-69535000D01*
G75*
G02*
X63870000Y-69285003I0J249997D01*
G01*
X63870000Y-68459997D01*
G75*
G02*
X64119997Y-68210000I249997J0D01*
G01*
X65420003Y-68210000D01*
G75*
G02*
X65670000Y-68459997I0J-249997D01*
G01*
X65670000Y-69285003D01*
G75*
G02*
X65420003Y-69535000I-249997J0D01*
G01*
G37*
%TD*%
%TO.C,C6*%
G36*
G01*
X79640000Y-56530003D02*
X79640000Y-55229997D01*
G75*
G02*
X79889997Y-54980000I249997J0D01*
G01*
X80715003Y-54980000D01*
G75*
G02*
X80965000Y-55229997I0J-249997D01*
G01*
X80965000Y-56530003D01*
G75*
G02*
X80715003Y-56780000I-249997J0D01*
G01*
X79889997Y-56780000D01*
G75*
G02*
X79640000Y-56530003I0J249997D01*
G01*
G37*
G36*
G01*
X76515000Y-56530003D02*
X76515000Y-55229997D01*
G75*
G02*
X76764997Y-54980000I249997J0D01*
G01*
X77590003Y-54980000D01*
G75*
G02*
X77840000Y-55229997I0J-249997D01*
G01*
X77840000Y-56530003D01*
G75*
G02*
X77590003Y-56780000I-249997J0D01*
G01*
X76764997Y-56780000D01*
G75*
G02*
X76515000Y-56530003I0J249997D01*
G01*
G37*
%TD*%
M02*
