%TF.GenerationSoftware,KiCad,Pcbnew,5.1.10*%
%TF.CreationDate,2021-09-10T11:26:47+02:00*%
%TF.ProjectId,PeltierSwitchingMainBoard_control,50656c74-6965-4725-9377-69746368696e,rev?*%
%TF.SameCoordinates,Original*%
%TF.FileFunction,Copper,L1,Top*%
%TF.FilePolarity,Positive*%
%FSLAX46Y46*%
G04 Gerber Fmt 4.6, Leading zero omitted, Abs format (unit mm)*
G04 Created by KiCad (PCBNEW 5.1.10) date 2021-09-10 11:26:47*
%MOMM*%
%LPD*%
G01*
G04 APERTURE LIST*
%TA.AperFunction,EtchedComponent*%
%ADD10C,0.100000*%
%TD*%
%TA.AperFunction,ComponentPad*%
%ADD11O,1.700000X1.700000*%
%TD*%
%TA.AperFunction,ComponentPad*%
%ADD12R,1.700000X1.700000*%
%TD*%
%TA.AperFunction,SMDPad,CuDef*%
%ADD13R,1.000000X2.500000*%
%TD*%
%TA.AperFunction,SMDPad,CuDef*%
%ADD14R,1.750000X3.450000*%
%TD*%
%TA.AperFunction,SMDPad,CuDef*%
%ADD15C,2.000000*%
%TD*%
%TA.AperFunction,SMDPad,CuDef*%
%ADD16R,1.200000X0.900000*%
%TD*%
%TA.AperFunction,ViaPad*%
%ADD17C,0.800000*%
%TD*%
%TA.AperFunction,Conductor*%
%ADD18C,0.250000*%
%TD*%
%TA.AperFunction,Conductor*%
%ADD19C,0.254000*%
%TD*%
%TA.AperFunction,Conductor*%
%ADD20C,0.100000*%
%TD*%
G04 APERTURE END LIST*
D10*
%TO.C,J3*%
G36*
X80605000Y-40910000D02*
G01*
X82605000Y-40910000D01*
X82605000Y-44910000D01*
X80605000Y-44910000D01*
X80605000Y-40910000D01*
G37*
X80605000Y-40910000D02*
X82605000Y-40910000D01*
X82605000Y-44910000D01*
X80605000Y-44910000D01*
X80605000Y-40910000D01*
G36*
X65605000Y-40910000D02*
G01*
X67605000Y-40910000D01*
X67605000Y-44910000D01*
X65605000Y-44910000D01*
X65605000Y-40910000D01*
G37*
X65605000Y-40910000D02*
X67605000Y-40910000D01*
X67605000Y-44910000D01*
X65605000Y-44910000D01*
X65605000Y-40910000D01*
%TD*%
D11*
%TO.P,J4,14*%
%TO.N,GND*%
X86614000Y-77216000D03*
%TO.P,J4,13*%
%TO.N,+12V*%
X86614000Y-74676000D03*
%TO.P,J4,12*%
%TO.N,/VSense*%
X86614000Y-72136000D03*
%TO.P,J4,11*%
%TO.N,+12V*%
X86614000Y-69596000D03*
%TO.P,J4,10*%
%TO.N,/BHS*%
X86614000Y-67056000D03*
%TO.P,J4,9*%
%TO.N,/BLS*%
X86614000Y-64516000D03*
%TO.P,J4,8*%
%TO.N,/BLO*%
X86614000Y-61976000D03*
%TO.P,J4,7*%
%TO.N,/BHO*%
X86614000Y-59436000D03*
%TO.P,J4,6*%
%TO.N,/BHB*%
X86614000Y-56896000D03*
%TO.P,J4,5*%
%TO.N,/ALS*%
X86614000Y-54356000D03*
%TO.P,J4,4*%
%TO.N,/ALO*%
X86614000Y-51816000D03*
%TO.P,J4,3*%
%TO.N,/AHO*%
X86614000Y-49276000D03*
%TO.P,J4,2*%
%TO.N,/AHS*%
X86614000Y-46736000D03*
D12*
%TO.P,J4,1*%
%TO.N,/AHB*%
X86614000Y-44196000D03*
%TD*%
D13*
%TO.P,J3,6*%
%TO.N,/VSense*%
X69105000Y-46910000D03*
%TO.P,J3,5*%
%TO.N,/IN-*%
X71105000Y-46910000D03*
%TO.P,J3,4*%
%TO.N,/IN+*%
X73105000Y-46910000D03*
%TO.P,J3,3*%
%TO.N,GND*%
X75105000Y-46910000D03*
%TO.P,J3,2*%
%TO.N,/Disable*%
X77105000Y-46910000D03*
%TO.P,J3,1*%
%TO.N,/HEN*%
X79105000Y-46910000D03*
D14*
%TO.P,J3,7*%
%TO.N,N/C*%
X81605000Y-42910000D03*
X66605000Y-42910000D03*
%TD*%
%TO.P,U1,20*%
%TO.N,/BHO*%
%TA.AperFunction,SMDPad,CuDef*%
G36*
G01*
X68095000Y-63685000D02*
X67795000Y-63685000D01*
G75*
G02*
X67645000Y-63535000I0J150000D01*
G01*
X67645000Y-61785000D01*
G75*
G02*
X67795000Y-61635000I150000J0D01*
G01*
X68095000Y-61635000D01*
G75*
G02*
X68245000Y-61785000I0J-150000D01*
G01*
X68245000Y-63535000D01*
G75*
G02*
X68095000Y-63685000I-150000J0D01*
G01*
G37*
%TD.AperFunction*%
%TO.P,U1,19*%
%TO.N,/BHS*%
%TA.AperFunction,SMDPad,CuDef*%
G36*
G01*
X69365000Y-63685000D02*
X69065000Y-63685000D01*
G75*
G02*
X68915000Y-63535000I0J150000D01*
G01*
X68915000Y-61785000D01*
G75*
G02*
X69065000Y-61635000I150000J0D01*
G01*
X69365000Y-61635000D01*
G75*
G02*
X69515000Y-61785000I0J-150000D01*
G01*
X69515000Y-63535000D01*
G75*
G02*
X69365000Y-63685000I-150000J0D01*
G01*
G37*
%TD.AperFunction*%
%TO.P,U1,18*%
%TO.N,/BLO*%
%TA.AperFunction,SMDPad,CuDef*%
G36*
G01*
X70635000Y-63685000D02*
X70335000Y-63685000D01*
G75*
G02*
X70185000Y-63535000I0J150000D01*
G01*
X70185000Y-61785000D01*
G75*
G02*
X70335000Y-61635000I150000J0D01*
G01*
X70635000Y-61635000D01*
G75*
G02*
X70785000Y-61785000I0J-150000D01*
G01*
X70785000Y-63535000D01*
G75*
G02*
X70635000Y-63685000I-150000J0D01*
G01*
G37*
%TD.AperFunction*%
%TO.P,U1,17*%
%TO.N,/BLS*%
%TA.AperFunction,SMDPad,CuDef*%
G36*
G01*
X71905000Y-63685000D02*
X71605000Y-63685000D01*
G75*
G02*
X71455000Y-63535000I0J150000D01*
G01*
X71455000Y-61785000D01*
G75*
G02*
X71605000Y-61635000I150000J0D01*
G01*
X71905000Y-61635000D01*
G75*
G02*
X72055000Y-61785000I0J-150000D01*
G01*
X72055000Y-63535000D01*
G75*
G02*
X71905000Y-63685000I-150000J0D01*
G01*
G37*
%TD.AperFunction*%
%TO.P,U1,16*%
%TO.N,+12V*%
%TA.AperFunction,SMDPad,CuDef*%
G36*
G01*
X73175000Y-63685000D02*
X72875000Y-63685000D01*
G75*
G02*
X72725000Y-63535000I0J150000D01*
G01*
X72725000Y-61785000D01*
G75*
G02*
X72875000Y-61635000I150000J0D01*
G01*
X73175000Y-61635000D01*
G75*
G02*
X73325000Y-61785000I0J-150000D01*
G01*
X73325000Y-63535000D01*
G75*
G02*
X73175000Y-63685000I-150000J0D01*
G01*
G37*
%TD.AperFunction*%
%TO.P,U1,15*%
%TA.AperFunction,SMDPad,CuDef*%
G36*
G01*
X74445000Y-63685000D02*
X74145000Y-63685000D01*
G75*
G02*
X73995000Y-63535000I0J150000D01*
G01*
X73995000Y-61785000D01*
G75*
G02*
X74145000Y-61635000I150000J0D01*
G01*
X74445000Y-61635000D01*
G75*
G02*
X74595000Y-61785000I0J-150000D01*
G01*
X74595000Y-63535000D01*
G75*
G02*
X74445000Y-63685000I-150000J0D01*
G01*
G37*
%TD.AperFunction*%
%TO.P,U1,14*%
%TO.N,/ALS*%
%TA.AperFunction,SMDPad,CuDef*%
G36*
G01*
X75715000Y-63685000D02*
X75415000Y-63685000D01*
G75*
G02*
X75265000Y-63535000I0J150000D01*
G01*
X75265000Y-61785000D01*
G75*
G02*
X75415000Y-61635000I150000J0D01*
G01*
X75715000Y-61635000D01*
G75*
G02*
X75865000Y-61785000I0J-150000D01*
G01*
X75865000Y-63535000D01*
G75*
G02*
X75715000Y-63685000I-150000J0D01*
G01*
G37*
%TD.AperFunction*%
%TO.P,U1,13*%
%TO.N,/ALO*%
%TA.AperFunction,SMDPad,CuDef*%
G36*
G01*
X76985000Y-63685000D02*
X76685000Y-63685000D01*
G75*
G02*
X76535000Y-63535000I0J150000D01*
G01*
X76535000Y-61785000D01*
G75*
G02*
X76685000Y-61635000I150000J0D01*
G01*
X76985000Y-61635000D01*
G75*
G02*
X77135000Y-61785000I0J-150000D01*
G01*
X77135000Y-63535000D01*
G75*
G02*
X76985000Y-63685000I-150000J0D01*
G01*
G37*
%TD.AperFunction*%
%TO.P,U1,12*%
%TO.N,/AHS*%
%TA.AperFunction,SMDPad,CuDef*%
G36*
G01*
X78255000Y-63685000D02*
X77955000Y-63685000D01*
G75*
G02*
X77805000Y-63535000I0J150000D01*
G01*
X77805000Y-61785000D01*
G75*
G02*
X77955000Y-61635000I150000J0D01*
G01*
X78255000Y-61635000D01*
G75*
G02*
X78405000Y-61785000I0J-150000D01*
G01*
X78405000Y-63535000D01*
G75*
G02*
X78255000Y-63685000I-150000J0D01*
G01*
G37*
%TD.AperFunction*%
%TO.P,U1,11*%
%TO.N,/AHO*%
%TA.AperFunction,SMDPad,CuDef*%
G36*
G01*
X79525000Y-63685000D02*
X79225000Y-63685000D01*
G75*
G02*
X79075000Y-63535000I0J150000D01*
G01*
X79075000Y-61785000D01*
G75*
G02*
X79225000Y-61635000I150000J0D01*
G01*
X79525000Y-61635000D01*
G75*
G02*
X79675000Y-61785000I0J-150000D01*
G01*
X79675000Y-63535000D01*
G75*
G02*
X79525000Y-63685000I-150000J0D01*
G01*
G37*
%TD.AperFunction*%
%TO.P,U1,10*%
%TO.N,/AHB*%
%TA.AperFunction,SMDPad,CuDef*%
G36*
G01*
X79525000Y-72985000D02*
X79225000Y-72985000D01*
G75*
G02*
X79075000Y-72835000I0J150000D01*
G01*
X79075000Y-71085000D01*
G75*
G02*
X79225000Y-70935000I150000J0D01*
G01*
X79525000Y-70935000D01*
G75*
G02*
X79675000Y-71085000I0J-150000D01*
G01*
X79675000Y-72835000D01*
G75*
G02*
X79525000Y-72985000I-150000J0D01*
G01*
G37*
%TD.AperFunction*%
%TO.P,U1,9*%
%TO.N,Net-(R6-Pad1)*%
%TA.AperFunction,SMDPad,CuDef*%
G36*
G01*
X78255000Y-72985000D02*
X77955000Y-72985000D01*
G75*
G02*
X77805000Y-72835000I0J150000D01*
G01*
X77805000Y-71085000D01*
G75*
G02*
X77955000Y-70935000I150000J0D01*
G01*
X78255000Y-70935000D01*
G75*
G02*
X78405000Y-71085000I0J-150000D01*
G01*
X78405000Y-72835000D01*
G75*
G02*
X78255000Y-72985000I-150000J0D01*
G01*
G37*
%TD.AperFunction*%
%TO.P,U1,8*%
%TO.N,Net-(R5-Pad1)*%
%TA.AperFunction,SMDPad,CuDef*%
G36*
G01*
X76985000Y-72985000D02*
X76685000Y-72985000D01*
G75*
G02*
X76535000Y-72835000I0J150000D01*
G01*
X76535000Y-71085000D01*
G75*
G02*
X76685000Y-70935000I150000J0D01*
G01*
X76985000Y-70935000D01*
G75*
G02*
X77135000Y-71085000I0J-150000D01*
G01*
X77135000Y-72835000D01*
G75*
G02*
X76985000Y-72985000I-150000J0D01*
G01*
G37*
%TD.AperFunction*%
%TO.P,U1,7*%
%TO.N,/IN-*%
%TA.AperFunction,SMDPad,CuDef*%
G36*
G01*
X75715000Y-72985000D02*
X75415000Y-72985000D01*
G75*
G02*
X75265000Y-72835000I0J150000D01*
G01*
X75265000Y-71085000D01*
G75*
G02*
X75415000Y-70935000I150000J0D01*
G01*
X75715000Y-70935000D01*
G75*
G02*
X75865000Y-71085000I0J-150000D01*
G01*
X75865000Y-72835000D01*
G75*
G02*
X75715000Y-72985000I-150000J0D01*
G01*
G37*
%TD.AperFunction*%
%TO.P,U1,6*%
%TO.N,/IN+*%
%TA.AperFunction,SMDPad,CuDef*%
G36*
G01*
X74445000Y-72985000D02*
X74145000Y-72985000D01*
G75*
G02*
X73995000Y-72835000I0J150000D01*
G01*
X73995000Y-71085000D01*
G75*
G02*
X74145000Y-70935000I150000J0D01*
G01*
X74445000Y-70935000D01*
G75*
G02*
X74595000Y-71085000I0J-150000D01*
G01*
X74595000Y-72835000D01*
G75*
G02*
X74445000Y-72985000I-150000J0D01*
G01*
G37*
%TD.AperFunction*%
%TO.P,U1,5*%
%TO.N,/OUT*%
%TA.AperFunction,SMDPad,CuDef*%
G36*
G01*
X73175000Y-72985000D02*
X72875000Y-72985000D01*
G75*
G02*
X72725000Y-72835000I0J150000D01*
G01*
X72725000Y-71085000D01*
G75*
G02*
X72875000Y-70935000I150000J0D01*
G01*
X73175000Y-70935000D01*
G75*
G02*
X73325000Y-71085000I0J-150000D01*
G01*
X73325000Y-72835000D01*
G75*
G02*
X73175000Y-72985000I-150000J0D01*
G01*
G37*
%TD.AperFunction*%
%TO.P,U1,4*%
%TO.N,GND*%
%TA.AperFunction,SMDPad,CuDef*%
G36*
G01*
X71905000Y-72985000D02*
X71605000Y-72985000D01*
G75*
G02*
X71455000Y-72835000I0J150000D01*
G01*
X71455000Y-71085000D01*
G75*
G02*
X71605000Y-70935000I150000J0D01*
G01*
X71905000Y-70935000D01*
G75*
G02*
X72055000Y-71085000I0J-150000D01*
G01*
X72055000Y-72835000D01*
G75*
G02*
X71905000Y-72985000I-150000J0D01*
G01*
G37*
%TD.AperFunction*%
%TO.P,U1,3*%
%TO.N,/Disable*%
%TA.AperFunction,SMDPad,CuDef*%
G36*
G01*
X70635000Y-72985000D02*
X70335000Y-72985000D01*
G75*
G02*
X70185000Y-72835000I0J150000D01*
G01*
X70185000Y-71085000D01*
G75*
G02*
X70335000Y-70935000I150000J0D01*
G01*
X70635000Y-70935000D01*
G75*
G02*
X70785000Y-71085000I0J-150000D01*
G01*
X70785000Y-72835000D01*
G75*
G02*
X70635000Y-72985000I-150000J0D01*
G01*
G37*
%TD.AperFunction*%
%TO.P,U1,2*%
%TO.N,/HEN*%
%TA.AperFunction,SMDPad,CuDef*%
G36*
G01*
X69365000Y-72985000D02*
X69065000Y-72985000D01*
G75*
G02*
X68915000Y-72835000I0J150000D01*
G01*
X68915000Y-71085000D01*
G75*
G02*
X69065000Y-70935000I150000J0D01*
G01*
X69365000Y-70935000D01*
G75*
G02*
X69515000Y-71085000I0J-150000D01*
G01*
X69515000Y-72835000D01*
G75*
G02*
X69365000Y-72985000I-150000J0D01*
G01*
G37*
%TD.AperFunction*%
%TO.P,U1,1*%
%TO.N,/BHB*%
%TA.AperFunction,SMDPad,CuDef*%
G36*
G01*
X68095000Y-72985000D02*
X67795000Y-72985000D01*
G75*
G02*
X67645000Y-72835000I0J150000D01*
G01*
X67645000Y-71085000D01*
G75*
G02*
X67795000Y-70935000I150000J0D01*
G01*
X68095000Y-70935000D01*
G75*
G02*
X68245000Y-71085000I0J-150000D01*
G01*
X68245000Y-72835000D01*
G75*
G02*
X68095000Y-72985000I-150000J0D01*
G01*
G37*
%TD.AperFunction*%
%TD*%
D15*
%TO.P,OUT,1*%
%TO.N,/OUT*%
X73025000Y-79375000D03*
%TD*%
%TO.P,VSense,1*%
%TO.N,/VSense*%
X83058000Y-77978000D03*
%TD*%
%TO.P,BHB,1*%
%TO.N,/BHB*%
X65405000Y-77470000D03*
%TD*%
%TO.P,AHB,1*%
%TO.N,/AHB*%
X68580000Y-79375000D03*
%TD*%
%TO.P,AHO,1*%
%TO.N,/AHO*%
X80645000Y-59055000D03*
%TD*%
%TO.P,ALO,1*%
%TO.N,/ALO*%
X76835000Y-59055000D03*
%TD*%
%TO.P,BLO,1*%
%TO.N,/BLO*%
X70485000Y-59055000D03*
%TD*%
%TO.P,BHO,1*%
%TO.N,/BHO*%
X64135000Y-62230000D03*
%TD*%
%TO.P,R7,2*%
%TO.N,Net-(D3-Pad2)*%
%TA.AperFunction,SMDPad,CuDef*%
G36*
G01*
X65140000Y-52714999D02*
X65140000Y-53965001D01*
G75*
G02*
X64890001Y-54215000I-249999J0D01*
G01*
X64089999Y-54215000D01*
G75*
G02*
X63840000Y-53965001I0J249999D01*
G01*
X63840000Y-52714999D01*
G75*
G02*
X64089999Y-52465000I249999J0D01*
G01*
X64890001Y-52465000D01*
G75*
G02*
X65140000Y-52714999I0J-249999D01*
G01*
G37*
%TD.AperFunction*%
%TO.P,R7,1*%
%TO.N,+12V*%
%TA.AperFunction,SMDPad,CuDef*%
G36*
G01*
X68240000Y-52714999D02*
X68240000Y-53965001D01*
G75*
G02*
X67990001Y-54215000I-249999J0D01*
G01*
X67189999Y-54215000D01*
G75*
G02*
X66940000Y-53965001I0J249999D01*
G01*
X66940000Y-52714999D01*
G75*
G02*
X67189999Y-52465000I249999J0D01*
G01*
X67990001Y-52465000D01*
G75*
G02*
X68240000Y-52714999I0J-249999D01*
G01*
G37*
%TD.AperFunction*%
%TD*%
%TO.P,R6,2*%
%TO.N,GND*%
%TA.AperFunction,SMDPad,CuDef*%
G36*
G01*
X79005000Y-76825001D02*
X79005000Y-75574999D01*
G75*
G02*
X79254999Y-75325000I249999J0D01*
G01*
X80055001Y-75325000D01*
G75*
G02*
X80305000Y-75574999I0J-249999D01*
G01*
X80305000Y-76825001D01*
G75*
G02*
X80055001Y-77075000I-249999J0D01*
G01*
X79254999Y-77075000D01*
G75*
G02*
X79005000Y-76825001I0J249999D01*
G01*
G37*
%TD.AperFunction*%
%TO.P,R6,1*%
%TO.N,Net-(R6-Pad1)*%
%TA.AperFunction,SMDPad,CuDef*%
G36*
G01*
X75905000Y-76825001D02*
X75905000Y-75574999D01*
G75*
G02*
X76154999Y-75325000I249999J0D01*
G01*
X76955001Y-75325000D01*
G75*
G02*
X77205000Y-75574999I0J-249999D01*
G01*
X77205000Y-76825001D01*
G75*
G02*
X76955001Y-77075000I-249999J0D01*
G01*
X76154999Y-77075000D01*
G75*
G02*
X75905000Y-76825001I0J249999D01*
G01*
G37*
%TD.AperFunction*%
%TD*%
%TO.P,R5,2*%
%TO.N,GND*%
%TA.AperFunction,SMDPad,CuDef*%
G36*
G01*
X79005000Y-80000001D02*
X79005000Y-78749999D01*
G75*
G02*
X79254999Y-78500000I249999J0D01*
G01*
X80055001Y-78500000D01*
G75*
G02*
X80305000Y-78749999I0J-249999D01*
G01*
X80305000Y-80000001D01*
G75*
G02*
X80055001Y-80250000I-249999J0D01*
G01*
X79254999Y-80250000D01*
G75*
G02*
X79005000Y-80000001I0J249999D01*
G01*
G37*
%TD.AperFunction*%
%TO.P,R5,1*%
%TO.N,Net-(R5-Pad1)*%
%TA.AperFunction,SMDPad,CuDef*%
G36*
G01*
X75905000Y-80000001D02*
X75905000Y-78749999D01*
G75*
G02*
X76154999Y-78500000I249999J0D01*
G01*
X76955001Y-78500000D01*
G75*
G02*
X77205000Y-78749999I0J-249999D01*
G01*
X77205000Y-80000001D01*
G75*
G02*
X76955001Y-80250000I-249999J0D01*
G01*
X76154999Y-80250000D01*
G75*
G02*
X75905000Y-80000001I0J249999D01*
G01*
G37*
%TD.AperFunction*%
%TD*%
%TO.P,R4,2*%
%TO.N,GND*%
%TA.AperFunction,SMDPad,CuDef*%
G36*
G01*
X79640000Y-51425001D02*
X79640000Y-50174999D01*
G75*
G02*
X79889999Y-49925000I249999J0D01*
G01*
X80690001Y-49925000D01*
G75*
G02*
X80940000Y-50174999I0J-249999D01*
G01*
X80940000Y-51425001D01*
G75*
G02*
X80690001Y-51675000I-249999J0D01*
G01*
X79889999Y-51675000D01*
G75*
G02*
X79640000Y-51425001I0J249999D01*
G01*
G37*
%TD.AperFunction*%
%TO.P,R4,1*%
%TO.N,/Disable*%
%TA.AperFunction,SMDPad,CuDef*%
G36*
G01*
X76540000Y-51425001D02*
X76540000Y-50174999D01*
G75*
G02*
X76789999Y-49925000I249999J0D01*
G01*
X77590001Y-49925000D01*
G75*
G02*
X77840000Y-50174999I0J-249999D01*
G01*
X77840000Y-51425001D01*
G75*
G02*
X77590001Y-51675000I-249999J0D01*
G01*
X76789999Y-51675000D01*
G75*
G02*
X76540000Y-51425001I0J249999D01*
G01*
G37*
%TD.AperFunction*%
%TD*%
%TO.P,R3,2*%
%TO.N,/HEN*%
%TA.AperFunction,SMDPad,CuDef*%
G36*
G01*
X65140000Y-50174999D02*
X65140000Y-51425001D01*
G75*
G02*
X64890001Y-51675000I-249999J0D01*
G01*
X64089999Y-51675000D01*
G75*
G02*
X63840000Y-51425001I0J249999D01*
G01*
X63840000Y-50174999D01*
G75*
G02*
X64089999Y-49925000I249999J0D01*
G01*
X64890001Y-49925000D01*
G75*
G02*
X65140000Y-50174999I0J-249999D01*
G01*
G37*
%TD.AperFunction*%
%TO.P,R3,1*%
%TO.N,+12V*%
%TA.AperFunction,SMDPad,CuDef*%
G36*
G01*
X68240000Y-50174999D02*
X68240000Y-51425001D01*
G75*
G02*
X67990001Y-51675000I-249999J0D01*
G01*
X67189999Y-51675000D01*
G75*
G02*
X66940000Y-51425001I0J249999D01*
G01*
X66940000Y-50174999D01*
G75*
G02*
X67189999Y-49925000I249999J0D01*
G01*
X67990001Y-49925000D01*
G75*
G02*
X68240000Y-50174999I0J-249999D01*
G01*
G37*
%TD.AperFunction*%
%TD*%
%TO.P,R2,2*%
%TO.N,GND*%
%TA.AperFunction,SMDPad,CuDef*%
G36*
G01*
X79640000Y-53965001D02*
X79640000Y-52714999D01*
G75*
G02*
X79889999Y-52465000I249999J0D01*
G01*
X80690001Y-52465000D01*
G75*
G02*
X80940000Y-52714999I0J-249999D01*
G01*
X80940000Y-53965001D01*
G75*
G02*
X80690001Y-54215000I-249999J0D01*
G01*
X79889999Y-54215000D01*
G75*
G02*
X79640000Y-53965001I0J249999D01*
G01*
G37*
%TD.AperFunction*%
%TO.P,R2,1*%
%TO.N,/IN-*%
%TA.AperFunction,SMDPad,CuDef*%
G36*
G01*
X76540000Y-53965001D02*
X76540000Y-52714999D01*
G75*
G02*
X76789999Y-52465000I249999J0D01*
G01*
X77590001Y-52465000D01*
G75*
G02*
X77840000Y-52714999I0J-249999D01*
G01*
X77840000Y-53965001D01*
G75*
G02*
X77590001Y-54215000I-249999J0D01*
G01*
X76789999Y-54215000D01*
G75*
G02*
X76540000Y-53965001I0J249999D01*
G01*
G37*
%TD.AperFunction*%
%TD*%
%TO.P,R1,2*%
%TO.N,GND*%
%TA.AperFunction,SMDPad,CuDef*%
G36*
G01*
X71490000Y-74304999D02*
X71490000Y-75555001D01*
G75*
G02*
X71240001Y-75805000I-249999J0D01*
G01*
X70439999Y-75805000D01*
G75*
G02*
X70190000Y-75555001I0J249999D01*
G01*
X70190000Y-74304999D01*
G75*
G02*
X70439999Y-74055000I249999J0D01*
G01*
X71240001Y-74055000D01*
G75*
G02*
X71490000Y-74304999I0J-249999D01*
G01*
G37*
%TD.AperFunction*%
%TO.P,R1,1*%
%TO.N,/IN+*%
%TA.AperFunction,SMDPad,CuDef*%
G36*
G01*
X74590000Y-74304999D02*
X74590000Y-75555001D01*
G75*
G02*
X74340001Y-75805000I-249999J0D01*
G01*
X73539999Y-75805000D01*
G75*
G02*
X73290000Y-75555001I0J249999D01*
G01*
X73290000Y-74304999D01*
G75*
G02*
X73539999Y-74055000I249999J0D01*
G01*
X74340001Y-74055000D01*
G75*
G02*
X74590000Y-74304999I0J-249999D01*
G01*
G37*
%TD.AperFunction*%
%TD*%
%TO.P,D3,2*%
%TO.N,Net-(D3-Pad2)*%
%TA.AperFunction,SMDPad,CuDef*%
G36*
G01*
X65590000Y-55429999D02*
X65590000Y-56330001D01*
G75*
G02*
X65340001Y-56580000I-249999J0D01*
G01*
X64689999Y-56580000D01*
G75*
G02*
X64440000Y-56330001I0J249999D01*
G01*
X64440000Y-55429999D01*
G75*
G02*
X64689999Y-55180000I249999J0D01*
G01*
X65340001Y-55180000D01*
G75*
G02*
X65590000Y-55429999I0J-249999D01*
G01*
G37*
%TD.AperFunction*%
%TO.P,D3,1*%
%TO.N,GND*%
%TA.AperFunction,SMDPad,CuDef*%
G36*
G01*
X67640000Y-55429999D02*
X67640000Y-56330001D01*
G75*
G02*
X67390001Y-56580000I-249999J0D01*
G01*
X66739999Y-56580000D01*
G75*
G02*
X66490000Y-56330001I0J249999D01*
G01*
X66490000Y-55429999D01*
G75*
G02*
X66739999Y-55180000I249999J0D01*
G01*
X67390001Y-55180000D01*
G75*
G02*
X67640000Y-55429999I0J-249999D01*
G01*
G37*
%TD.AperFunction*%
%TD*%
D16*
%TO.P,D2,2*%
%TO.N,+12V*%
X64770000Y-74040000D03*
%TO.P,D2,1*%
%TO.N,/BHB*%
X64770000Y-70740000D03*
%TD*%
%TO.P,D1,2*%
%TO.N,+12V*%
X81915000Y-68835000D03*
%TO.P,D1,1*%
%TO.N,/AHB*%
X81915000Y-72135000D03*
%TD*%
%TO.P,C8,2*%
%TO.N,/AHS*%
%TA.AperFunction,SMDPad,CuDef*%
G36*
G01*
X82565003Y-63870000D02*
X81264997Y-63870000D01*
G75*
G02*
X81015000Y-63620003I0J249997D01*
G01*
X81015000Y-62794997D01*
G75*
G02*
X81264997Y-62545000I249997J0D01*
G01*
X82565003Y-62545000D01*
G75*
G02*
X82815000Y-62794997I0J-249997D01*
G01*
X82815000Y-63620003D01*
G75*
G02*
X82565003Y-63870000I-249997J0D01*
G01*
G37*
%TD.AperFunction*%
%TO.P,C8,1*%
%TO.N,/AHB*%
%TA.AperFunction,SMDPad,CuDef*%
G36*
G01*
X82565003Y-66995000D02*
X81264997Y-66995000D01*
G75*
G02*
X81015000Y-66745003I0J249997D01*
G01*
X81015000Y-65919997D01*
G75*
G02*
X81264997Y-65670000I249997J0D01*
G01*
X82565003Y-65670000D01*
G75*
G02*
X82815000Y-65919997I0J-249997D01*
G01*
X82815000Y-66745003D01*
G75*
G02*
X82565003Y-66995000I-249997J0D01*
G01*
G37*
%TD.AperFunction*%
%TD*%
%TO.P,C7,2*%
%TO.N,/BHS*%
%TA.AperFunction,SMDPad,CuDef*%
G36*
G01*
X65420003Y-66410000D02*
X64119997Y-66410000D01*
G75*
G02*
X63870000Y-66160003I0J249997D01*
G01*
X63870000Y-65334997D01*
G75*
G02*
X64119997Y-65085000I249997J0D01*
G01*
X65420003Y-65085000D01*
G75*
G02*
X65670000Y-65334997I0J-249997D01*
G01*
X65670000Y-66160003D01*
G75*
G02*
X65420003Y-66410000I-249997J0D01*
G01*
G37*
%TD.AperFunction*%
%TO.P,C7,1*%
%TO.N,/BHB*%
%TA.AperFunction,SMDPad,CuDef*%
G36*
G01*
X65420003Y-69535000D02*
X64119997Y-69535000D01*
G75*
G02*
X63870000Y-69285003I0J249997D01*
G01*
X63870000Y-68459997D01*
G75*
G02*
X64119997Y-68210000I249997J0D01*
G01*
X65420003Y-68210000D01*
G75*
G02*
X65670000Y-68459997I0J-249997D01*
G01*
X65670000Y-69285003D01*
G75*
G02*
X65420003Y-69535000I-249997J0D01*
G01*
G37*
%TD.AperFunction*%
%TD*%
%TO.P,C6,2*%
%TO.N,GND*%
%TA.AperFunction,SMDPad,CuDef*%
G36*
G01*
X79640000Y-56530003D02*
X79640000Y-55229997D01*
G75*
G02*
X79889997Y-54980000I249997J0D01*
G01*
X80715003Y-54980000D01*
G75*
G02*
X80965000Y-55229997I0J-249997D01*
G01*
X80965000Y-56530003D01*
G75*
G02*
X80715003Y-56780000I-249997J0D01*
G01*
X79889997Y-56780000D01*
G75*
G02*
X79640000Y-56530003I0J249997D01*
G01*
G37*
%TD.AperFunction*%
%TO.P,C6,1*%
%TO.N,+12V*%
%TA.AperFunction,SMDPad,CuDef*%
G36*
G01*
X76515000Y-56530003D02*
X76515000Y-55229997D01*
G75*
G02*
X76764997Y-54980000I249997J0D01*
G01*
X77590003Y-54980000D01*
G75*
G02*
X77840000Y-55229997I0J-249997D01*
G01*
X77840000Y-56530003D01*
G75*
G02*
X77590003Y-56780000I-249997J0D01*
G01*
X76764997Y-56780000D01*
G75*
G02*
X76515000Y-56530003I0J249997D01*
G01*
G37*
%TD.AperFunction*%
%TD*%
D17*
%TO.N,GND*%
X71755000Y-77470000D03*
X80302516Y-55880000D03*
X83835602Y-71813139D03*
X79375000Y-76200000D03*
X75105000Y-49217270D03*
X80290000Y-50800000D03*
X68453000Y-55245000D03*
X72390000Y-51308000D03*
%TO.N,+12V*%
X80645000Y-73025000D03*
X83185000Y-74295006D03*
X81915000Y-70485000D03*
X81915000Y-67855740D03*
X76835000Y-65405000D03*
X64045000Y-59055000D03*
X69215000Y-60960000D03*
X71755000Y-60960000D03*
X83820000Y-66802000D03*
%TO.N,/BHS*%
X69215000Y-62660010D03*
X80627093Y-71120000D03*
%TO.N,/BHB*%
X64770000Y-68872500D03*
X67945000Y-73660000D03*
X84384965Y-69849992D03*
%TO.N,/AHS*%
X81915000Y-63207500D03*
X84059835Y-54370165D03*
%TO.N,/AHB*%
X78105199Y-78195009D03*
X81280000Y-75655010D03*
%TO.N,/VSense*%
X81614581Y-53578504D03*
%TO.N,/IN-*%
X75565000Y-69850000D03*
X75565000Y-53340000D03*
%TO.N,/IN+*%
X74295000Y-69850000D03*
X73025000Y-49275998D03*
%TO.N,/Disable*%
X77190000Y-50800000D03*
X73660000Y-68580000D03*
%TO.N,/HEN*%
X79375000Y-46990000D03*
X69195469Y-70017914D03*
X69850000Y-51180998D03*
%TO.N,/BLS*%
X83185010Y-64770000D03*
X71170908Y-68098355D03*
X72389998Y-65405000D03*
%TO.N,/BLO*%
X81915000Y-64619990D03*
X74840000Y-64770000D03*
X74385000Y-57150000D03*
%TO.N,/BHO*%
X67945000Y-62660000D03*
X84384959Y-62865000D03*
X78740000Y-67945000D03*
X70485000Y-69215000D03*
X83516340Y-68793660D03*
%TO.N,/ALS*%
X78740000Y-49530000D03*
X83910000Y-52070000D03*
%TO.N,/ALO*%
X81825000Y-56515000D03*
%TO.N,/AHO*%
X81915000Y-48895000D03*
%TD*%
D18*
%TO.N,GND*%
X71755000Y-74015000D02*
X71755000Y-71960000D01*
X70840000Y-74930000D02*
X71755000Y-74015000D01*
X80290000Y-55867500D02*
X80302500Y-55880000D01*
X80290000Y-50800000D02*
X80290000Y-55867500D01*
X70840000Y-76555000D02*
X71755000Y-77470000D01*
X70840000Y-74930000D02*
X70840000Y-76555000D01*
X79655000Y-76200000D02*
X79655000Y-79375000D01*
X80302500Y-55880000D02*
X80302516Y-55880000D01*
X84106860Y-71813139D02*
X83835602Y-71813139D01*
X79655000Y-76200000D02*
X79375000Y-76200000D01*
X82807993Y-76380011D02*
X84235601Y-74952403D01*
X84235601Y-72213138D02*
X83835602Y-71813139D01*
X79655000Y-76200000D02*
X79835011Y-76380011D01*
X84235601Y-74952403D02*
X84235601Y-72213138D01*
X79835011Y-76380011D02*
X82807993Y-76380011D01*
X75105000Y-49217270D02*
X75105000Y-46910000D01*
X67065000Y-55880000D02*
X67818000Y-55880000D01*
X67818000Y-55880000D02*
X68453000Y-55245000D01*
X73014270Y-51308000D02*
X72390000Y-51308000D01*
X75105000Y-49217270D02*
X73014270Y-51308000D01*
X79909000Y-79629000D02*
X79655000Y-79375000D01*
X84328000Y-79629000D02*
X79909000Y-79629000D01*
X86684999Y-77272001D02*
X84328000Y-79629000D01*
X86684999Y-77105000D02*
X86684999Y-77272001D01*
%TO.N,+12V*%
X86684999Y-69485000D02*
X86434999Y-69485000D01*
X67590000Y-50800000D02*
X67590000Y-53340000D01*
X70130000Y-55880000D02*
X77177500Y-55880000D01*
X67590000Y-53340000D02*
X70130000Y-55880000D01*
X74295000Y-58762500D02*
X74295000Y-62660000D01*
X77177500Y-55880000D02*
X74295000Y-58762500D01*
X73025000Y-62660000D02*
X74295000Y-62660000D01*
X64920000Y-74040000D02*
X64770000Y-74040000D01*
X72030530Y-66130002D02*
X65620000Y-72540532D01*
X73325000Y-65543006D02*
X72738004Y-66130002D01*
X73325000Y-62960000D02*
X73325000Y-65543006D01*
X65620000Y-72540532D02*
X65620000Y-73340000D01*
X72738004Y-66130002D02*
X72030530Y-66130002D01*
X65620000Y-73340000D02*
X64920000Y-74040000D01*
X73025000Y-62660000D02*
X73325000Y-62960000D01*
X81914994Y-73025000D02*
X83185000Y-74295006D01*
X80645000Y-73025000D02*
X81914994Y-73025000D01*
X81915000Y-68835000D02*
X81915000Y-70485000D01*
X81915000Y-68835000D02*
X81915000Y-67855740D01*
X75139996Y-65543006D02*
X73325000Y-65543006D01*
X75278002Y-65405000D02*
X75139996Y-65543006D01*
X76835000Y-65405000D02*
X75278002Y-65405000D01*
X67310000Y-59055000D02*
X69215000Y-60960000D01*
X64045000Y-59055000D02*
X67310000Y-59055000D01*
X73025000Y-62230000D02*
X73025000Y-62660000D01*
X71755000Y-60960000D02*
X73025000Y-62230000D01*
X83820000Y-66802000D02*
X83820000Y-67056000D01*
%TO.N,/BHS*%
X69215000Y-63086768D02*
X69215000Y-62660000D01*
X66554268Y-65747500D02*
X69215000Y-63086768D01*
X64770000Y-65747500D02*
X66554268Y-65747500D01*
X69215000Y-62660000D02*
X69215000Y-62660010D01*
X84708587Y-70575002D02*
X82898002Y-70575002D01*
X86684999Y-66945000D02*
X86684999Y-67361153D01*
X85109989Y-68936163D02*
X85109989Y-70173600D01*
X80717095Y-71210002D02*
X80627093Y-71120000D01*
X82263002Y-71210002D02*
X80717095Y-71210002D01*
X82898002Y-70575002D02*
X82263002Y-71210002D01*
X86684999Y-67361153D02*
X85109989Y-68936163D01*
X85109989Y-70173600D02*
X84708587Y-70575002D01*
%TO.N,/BHB*%
X64770000Y-70740000D02*
X64770000Y-68872500D01*
X67945000Y-73660000D02*
X67945000Y-71960000D01*
X67945000Y-74930000D02*
X67945000Y-73660000D01*
X65405000Y-77470000D02*
X67945000Y-74930000D01*
X85109989Y-56860010D02*
X85109989Y-68299752D01*
X85184999Y-56785000D02*
X85109989Y-56860010D01*
X84384965Y-69024776D02*
X84384965Y-69849992D01*
X85109989Y-68299752D02*
X84384965Y-69024776D01*
X86684999Y-56785000D02*
X85184999Y-56785000D01*
%TO.N,/AHS*%
X84059835Y-53804480D02*
X84059835Y-54370165D01*
X83185000Y-52929645D02*
X84059835Y-53804480D01*
X86684999Y-46625000D02*
X83185000Y-50124999D01*
X83185000Y-50124999D02*
X83185000Y-52929645D01*
X78105000Y-63685000D02*
X78105000Y-62660000D01*
X78555000Y-64135000D02*
X78105000Y-63685000D01*
X80987500Y-64135000D02*
X78555000Y-64135000D01*
X81915000Y-63207500D02*
X80987500Y-64135000D01*
%TO.N,/AHB*%
X79550000Y-72135000D02*
X79375000Y-71960000D01*
X81915000Y-72135000D02*
X79550000Y-72135000D01*
X81915000Y-66332500D02*
X82815000Y-66332500D01*
X82734989Y-53116045D02*
X82734989Y-49938599D01*
X83910011Y-65237489D02*
X83910011Y-64422009D01*
X82815000Y-66332500D02*
X83910011Y-65237489D01*
X83334834Y-49338755D02*
X83334834Y-46185165D01*
X85434999Y-44085000D02*
X86684999Y-44085000D01*
X82734989Y-49938599D02*
X83334834Y-49338755D01*
X83334834Y-46185165D02*
X85434999Y-44085000D01*
X83334834Y-53715889D02*
X82734989Y-53116045D01*
X83334834Y-63846832D02*
X83334834Y-53715889D01*
X83910011Y-64422009D02*
X83334834Y-63846832D01*
X69905001Y-80700001D02*
X77068189Y-80700001D01*
X77068189Y-80700001D02*
X78105199Y-79662991D01*
X78105199Y-79662991D02*
X78105199Y-78195009D01*
X68580000Y-79375000D02*
X69905001Y-80700001D01*
X79375000Y-73750010D02*
X81280000Y-75655010D01*
X79375000Y-71960000D02*
X79375000Y-73750010D01*
X81015000Y-66332500D02*
X80552901Y-66794599D01*
X80552901Y-69486190D02*
X79902092Y-70136999D01*
X79902092Y-70136999D02*
X79902092Y-71468001D01*
X79902092Y-71468001D02*
X80569091Y-72135000D01*
X81915000Y-66332500D02*
X81015000Y-66332500D01*
X80552901Y-66794599D02*
X80552901Y-69486190D01*
X80569091Y-72135000D02*
X81915000Y-72135000D01*
%TO.N,Net-(D3-Pad2)*%
X64490000Y-55355000D02*
X65015000Y-55880000D01*
X64490000Y-53340000D02*
X64490000Y-55355000D01*
%TO.N,/VSense*%
X79798528Y-44307843D02*
X81189998Y-45699313D01*
X81189998Y-45699313D02*
X81189998Y-49878002D01*
X81614581Y-50302585D02*
X81614581Y-53578504D01*
X69105000Y-46910000D02*
X69105000Y-45410000D01*
X70207157Y-44307843D02*
X79798528Y-44307843D01*
X69105000Y-45410000D02*
X70207157Y-44307843D01*
X81189998Y-49878002D02*
X81614581Y-50302585D01*
X85886162Y-73239990D02*
X86684999Y-73239990D01*
X85109989Y-74016163D02*
X85886162Y-73239990D01*
X86684999Y-73239990D02*
X86684999Y-72025000D01*
X85109989Y-74890011D02*
X85109989Y-74016163D01*
X83058000Y-76942000D02*
X85109989Y-74890011D01*
X83058000Y-77978000D02*
X83058000Y-76942000D01*
%TO.N,/IN-*%
X75565000Y-71960000D02*
X75565000Y-69850000D01*
X75565000Y-53340000D02*
X77190000Y-53340000D01*
X71105000Y-51625149D02*
X72819851Y-53340000D01*
X71105000Y-46910000D02*
X71105000Y-51625149D01*
X72819851Y-53340000D02*
X77190000Y-53340000D01*
%TO.N,/IN+*%
X74295000Y-74575000D02*
X73940000Y-74930000D01*
X74295000Y-71960000D02*
X74295000Y-74575000D01*
X74295000Y-71960000D02*
X74295000Y-69850000D01*
X73105000Y-49195998D02*
X73025000Y-49275998D01*
X73105000Y-46910000D02*
X73105000Y-49195998D01*
%TO.N,/Disable*%
X77190000Y-46995000D02*
X77105000Y-46910000D01*
X77190000Y-50800000D02*
X77190000Y-46995000D01*
X70485000Y-70924415D02*
X72829415Y-68580000D01*
X70485000Y-71960000D02*
X70485000Y-70924415D01*
X72829415Y-68580000D02*
X73660000Y-68580000D01*
%TO.N,/HEN*%
X79295000Y-46910000D02*
X79375000Y-46990000D01*
X79105000Y-46910000D02*
X79295000Y-46910000D01*
X69215000Y-70037445D02*
X69195469Y-70017914D01*
X69215000Y-71960000D02*
X69215000Y-70037445D01*
X68180003Y-49511001D02*
X69850000Y-51180998D01*
X64490000Y-50800000D02*
X65778999Y-49511001D01*
X65778999Y-49511001D02*
X68180003Y-49511001D01*
%TO.N,/BLS*%
X71755000Y-62660000D02*
X71755000Y-64770002D01*
X71755000Y-64770002D02*
X72389998Y-65405000D01*
X71406060Y-68098355D02*
X71170908Y-68098355D01*
X72829415Y-66675000D02*
X71406060Y-68098355D01*
X76109860Y-66675000D02*
X72829415Y-66675000D01*
X76204847Y-66769987D02*
X76109860Y-66675000D01*
X79601823Y-66769987D02*
X76204847Y-66769987D01*
X82610020Y-65344990D02*
X81026820Y-65344990D01*
X81026820Y-65344990D02*
X79601823Y-66769987D01*
X83185010Y-64770000D02*
X82610020Y-65344990D01*
%TO.N,/BLO*%
X70485000Y-59055000D02*
X70485000Y-62660000D01*
X75828222Y-64619990D02*
X75678212Y-64770000D01*
X81915000Y-64619990D02*
X75828222Y-64619990D01*
X75678212Y-64770000D02*
X74840000Y-64770000D01*
X70485000Y-57785000D02*
X70485000Y-59055000D01*
X71120000Y-57150000D02*
X70485000Y-57785000D01*
X74385000Y-57150000D02*
X71120000Y-57150000D01*
%TO.N,/BHO*%
X64565000Y-62660000D02*
X64135000Y-62230000D01*
X67945000Y-62660000D02*
X64565000Y-62660000D01*
X72110024Y-68030801D02*
X72110024Y-68662980D01*
X76108449Y-67310000D02*
X72830825Y-67310000D01*
X76743449Y-67945000D02*
X76108449Y-67310000D01*
X71558004Y-69215000D02*
X70485000Y-69215000D01*
X72110024Y-68662980D02*
X71558004Y-69215000D01*
X72830825Y-67310000D02*
X72110024Y-68030801D01*
X78740000Y-67945000D02*
X76743449Y-67945000D01*
X84582000Y-67728000D02*
X83516340Y-68793660D01*
X84582000Y-63062041D02*
X84582000Y-67728000D01*
X84384959Y-62865000D02*
X84582000Y-63062041D01*
%TO.N,/ALS*%
X78103590Y-57150000D02*
X78740000Y-56513590D01*
X75265000Y-58663998D02*
X76778998Y-57150000D01*
X75265000Y-62360000D02*
X75265000Y-58663998D01*
X76778998Y-57150000D02*
X78103590Y-57150000D01*
X75565000Y-62660000D02*
X75265000Y-62360000D01*
X78740000Y-56513590D02*
X78740000Y-49530000D01*
X83910000Y-52970001D02*
X83910000Y-52070000D01*
X85184999Y-54245000D02*
X83910000Y-52970001D01*
X86684999Y-54245000D02*
X85184999Y-54245000D01*
%TO.N,/ALO*%
X78784990Y-57105010D02*
X76835000Y-59055000D01*
X81234990Y-57105010D02*
X78784990Y-57105010D01*
X81825000Y-56515000D02*
X81234990Y-57105010D01*
X76835000Y-59055000D02*
X76835000Y-62660000D01*
%TO.N,/AHO*%
X79375000Y-60325000D02*
X80645000Y-59055000D01*
X79375000Y-62660000D02*
X79375000Y-60325000D01*
X82640001Y-53657468D02*
X82284978Y-53302445D01*
X82284978Y-53302445D02*
X82284978Y-49264978D01*
X80645000Y-59055000D02*
X82640001Y-57059999D01*
X82284978Y-49264978D02*
X81915000Y-48895000D01*
X82640001Y-57059999D02*
X82640001Y-53657468D01*
%TO.N,Net-(R5-Pad1)*%
X76835000Y-72985000D02*
X76835000Y-71960000D01*
X75579990Y-74240010D02*
X76835000Y-72985000D01*
X75579990Y-78399990D02*
X75579990Y-74240010D01*
X76555000Y-79375000D02*
X75579990Y-78399990D01*
%TO.N,Net-(R6-Pad1)*%
X78105000Y-73775000D02*
X78105000Y-71960000D01*
X76555000Y-75325000D02*
X78105000Y-73775000D01*
X76555000Y-76200000D02*
X76555000Y-75325000D01*
%TO.N,/OUT*%
X72725000Y-79075000D02*
X73025000Y-79375000D01*
X72725000Y-72260000D02*
X72725000Y-79075000D01*
X73025000Y-71960000D02*
X72725000Y-72260000D01*
%TD*%
D19*
%TO.N,+12V*%
X86724545Y-37528909D02*
X87075208Y-37634780D01*
X87398625Y-37806744D01*
X87682484Y-38038254D01*
X87915965Y-38320486D01*
X88090183Y-38642695D01*
X88198502Y-38992614D01*
X88240000Y-39387443D01*
X88240001Y-79342711D01*
X88201091Y-79739545D01*
X88095220Y-80090206D01*
X87923257Y-80413623D01*
X87691748Y-80697482D01*
X87409514Y-80930965D01*
X87087304Y-81105184D01*
X86737385Y-81213502D01*
X86342557Y-81255000D01*
X77589915Y-81255000D01*
X77608190Y-81240002D01*
X77631993Y-81210999D01*
X78458428Y-80384564D01*
X78516595Y-80493387D01*
X78627038Y-80627962D01*
X78761613Y-80738405D01*
X78915149Y-80820472D01*
X79081745Y-80871008D01*
X79254999Y-80888072D01*
X80055001Y-80888072D01*
X80228255Y-80871008D01*
X80394851Y-80820472D01*
X80548387Y-80738405D01*
X80682962Y-80627962D01*
X80793405Y-80493387D01*
X80849201Y-80389000D01*
X84290678Y-80389000D01*
X84328000Y-80392676D01*
X84365322Y-80389000D01*
X84365333Y-80389000D01*
X84476986Y-80378003D01*
X84620247Y-80334546D01*
X84752276Y-80263974D01*
X84868001Y-80169001D01*
X84891804Y-80139997D01*
X86353521Y-78678280D01*
X86467740Y-78701000D01*
X86760260Y-78701000D01*
X87047158Y-78643932D01*
X87317411Y-78531990D01*
X87560632Y-78369475D01*
X87767475Y-78162632D01*
X87929990Y-77919411D01*
X88041932Y-77649158D01*
X88099000Y-77362260D01*
X88099000Y-77069740D01*
X88041932Y-76782842D01*
X87929990Y-76512589D01*
X87767475Y-76269368D01*
X87560632Y-76062525D01*
X87378466Y-75940805D01*
X87495355Y-75871178D01*
X87711588Y-75676269D01*
X87885641Y-75442920D01*
X88010825Y-75180099D01*
X88055476Y-75032890D01*
X87934155Y-74803000D01*
X86741000Y-74803000D01*
X86741000Y-74823000D01*
X86487000Y-74823000D01*
X86487000Y-74803000D01*
X86467000Y-74803000D01*
X86467000Y-74549000D01*
X86487000Y-74549000D01*
X86487000Y-74529000D01*
X86741000Y-74529000D01*
X86741000Y-74549000D01*
X87934155Y-74549000D01*
X88055476Y-74319110D01*
X88010825Y-74171901D01*
X87885641Y-73909080D01*
X87711588Y-73675731D01*
X87495355Y-73480822D01*
X87419794Y-73435813D01*
X87434002Y-73388976D01*
X87435572Y-73373037D01*
X87560632Y-73289475D01*
X87767475Y-73082632D01*
X87929990Y-72839411D01*
X88041932Y-72569158D01*
X88099000Y-72282260D01*
X88099000Y-71989740D01*
X88041932Y-71702842D01*
X87929990Y-71432589D01*
X87767475Y-71189368D01*
X87560632Y-70982525D01*
X87378466Y-70860805D01*
X87495355Y-70791178D01*
X87711588Y-70596269D01*
X87885641Y-70362920D01*
X88010825Y-70100099D01*
X88055476Y-69952890D01*
X87934155Y-69723000D01*
X86741000Y-69723000D01*
X86741000Y-69743000D01*
X86487000Y-69743000D01*
X86487000Y-69723000D01*
X86467000Y-69723000D01*
X86467000Y-69469000D01*
X86487000Y-69469000D01*
X86487000Y-69449000D01*
X86741000Y-69449000D01*
X86741000Y-69469000D01*
X87934155Y-69469000D01*
X88055476Y-69239110D01*
X88010825Y-69091901D01*
X87885641Y-68829080D01*
X87711588Y-68595731D01*
X87495355Y-68400822D01*
X87378466Y-68331195D01*
X87560632Y-68209475D01*
X87767475Y-68002632D01*
X87929990Y-67759411D01*
X88041932Y-67489158D01*
X88099000Y-67202260D01*
X88099000Y-66909740D01*
X88041932Y-66622842D01*
X87929990Y-66352589D01*
X87767475Y-66109368D01*
X87560632Y-65902525D01*
X87386240Y-65786000D01*
X87560632Y-65669475D01*
X87767475Y-65462632D01*
X87929990Y-65219411D01*
X88041932Y-64949158D01*
X88099000Y-64662260D01*
X88099000Y-64369740D01*
X88041932Y-64082842D01*
X87929990Y-63812589D01*
X87767475Y-63569368D01*
X87560632Y-63362525D01*
X87386240Y-63246000D01*
X87560632Y-63129475D01*
X87767475Y-62922632D01*
X87929990Y-62679411D01*
X88041932Y-62409158D01*
X88099000Y-62122260D01*
X88099000Y-61829740D01*
X88041932Y-61542842D01*
X87929990Y-61272589D01*
X87767475Y-61029368D01*
X87560632Y-60822525D01*
X87386240Y-60706000D01*
X87560632Y-60589475D01*
X87767475Y-60382632D01*
X87929990Y-60139411D01*
X88041932Y-59869158D01*
X88099000Y-59582260D01*
X88099000Y-59289740D01*
X88041932Y-59002842D01*
X87929990Y-58732589D01*
X87767475Y-58489368D01*
X87560632Y-58282525D01*
X87386240Y-58166000D01*
X87560632Y-58049475D01*
X87767475Y-57842632D01*
X87929990Y-57599411D01*
X88041932Y-57329158D01*
X88099000Y-57042260D01*
X88099000Y-56749740D01*
X88041932Y-56462842D01*
X87929990Y-56192589D01*
X87767475Y-55949368D01*
X87560632Y-55742525D01*
X87386240Y-55626000D01*
X87560632Y-55509475D01*
X87767475Y-55302632D01*
X87929990Y-55059411D01*
X88041932Y-54789158D01*
X88099000Y-54502260D01*
X88099000Y-54209740D01*
X88041932Y-53922842D01*
X87929990Y-53652589D01*
X87767475Y-53409368D01*
X87560632Y-53202525D01*
X87386240Y-53086000D01*
X87560632Y-52969475D01*
X87767475Y-52762632D01*
X87929990Y-52519411D01*
X88041932Y-52249158D01*
X88099000Y-51962260D01*
X88099000Y-51669740D01*
X88041932Y-51382842D01*
X87929990Y-51112589D01*
X87767475Y-50869368D01*
X87560632Y-50662525D01*
X87386240Y-50546000D01*
X87560632Y-50429475D01*
X87767475Y-50222632D01*
X87929990Y-49979411D01*
X88041932Y-49709158D01*
X88099000Y-49422260D01*
X88099000Y-49129740D01*
X88041932Y-48842842D01*
X87929990Y-48572589D01*
X87767475Y-48329368D01*
X87560632Y-48122525D01*
X87386240Y-48006000D01*
X87560632Y-47889475D01*
X87767475Y-47682632D01*
X87929990Y-47439411D01*
X88041932Y-47169158D01*
X88099000Y-46882260D01*
X88099000Y-46589740D01*
X88041932Y-46302842D01*
X87929990Y-46032589D01*
X87767475Y-45789368D01*
X87635620Y-45657513D01*
X87708180Y-45635502D01*
X87818494Y-45576537D01*
X87915185Y-45497185D01*
X87994537Y-45400494D01*
X88053502Y-45290180D01*
X88089812Y-45170482D01*
X88102072Y-45046000D01*
X88102072Y-43346000D01*
X88089812Y-43221518D01*
X88053502Y-43101820D01*
X87994537Y-42991506D01*
X87915185Y-42894815D01*
X87818494Y-42815463D01*
X87708180Y-42756498D01*
X87588482Y-42720188D01*
X87464000Y-42707928D01*
X85764000Y-42707928D01*
X85639518Y-42720188D01*
X85519820Y-42756498D01*
X85409506Y-42815463D01*
X85312815Y-42894815D01*
X85233463Y-42991506D01*
X85174498Y-43101820D01*
X85138188Y-43221518D01*
X85125928Y-43346000D01*
X85125928Y-43388447D01*
X85010723Y-43450026D01*
X84894998Y-43544999D01*
X84871200Y-43573997D01*
X83197306Y-45247892D01*
X83203541Y-45236361D01*
X83234608Y-45179850D01*
X83235335Y-45177558D01*
X83236476Y-45175448D01*
X83255524Y-45113916D01*
X83275031Y-45052420D01*
X83275299Y-45050032D01*
X83276009Y-45047738D01*
X83282746Y-44983634D01*
X83289933Y-44919564D01*
X83289965Y-44914950D01*
X83289983Y-44914782D01*
X83289968Y-44914614D01*
X83290000Y-44910000D01*
X83290000Y-40910000D01*
X83283710Y-40845855D01*
X83277867Y-40781644D01*
X83277188Y-40779338D01*
X83276954Y-40776949D01*
X83258334Y-40715277D01*
X83240121Y-40653394D01*
X83239008Y-40651264D01*
X83238314Y-40648967D01*
X83208084Y-40592114D01*
X83178184Y-40534919D01*
X83176677Y-40533045D01*
X83175551Y-40530927D01*
X83134843Y-40481014D01*
X83094414Y-40430731D01*
X83092573Y-40429187D01*
X83091056Y-40427326D01*
X83041384Y-40386234D01*
X82992002Y-40344797D01*
X82989898Y-40343640D01*
X82988047Y-40342109D01*
X82931361Y-40311459D01*
X82874850Y-40280392D01*
X82872558Y-40279665D01*
X82870448Y-40278524D01*
X82808916Y-40259476D01*
X82747420Y-40239969D01*
X82745032Y-40239701D01*
X82742738Y-40238991D01*
X82678634Y-40232254D01*
X82614564Y-40225067D01*
X82609950Y-40225035D01*
X82609782Y-40225017D01*
X82609614Y-40225032D01*
X82605000Y-40225000D01*
X80605000Y-40225000D01*
X80540855Y-40231290D01*
X80476644Y-40237133D01*
X80474338Y-40237812D01*
X80471949Y-40238046D01*
X80410277Y-40256666D01*
X80348394Y-40274879D01*
X80346264Y-40275992D01*
X80343967Y-40276686D01*
X80287114Y-40306916D01*
X80229919Y-40336816D01*
X80228045Y-40338323D01*
X80225927Y-40339449D01*
X80176014Y-40380157D01*
X80125731Y-40420586D01*
X80124187Y-40422427D01*
X80122326Y-40423944D01*
X80081234Y-40473616D01*
X80039797Y-40522998D01*
X80038640Y-40525102D01*
X80037109Y-40526953D01*
X80006459Y-40583639D01*
X79975392Y-40640150D01*
X79974665Y-40642442D01*
X79973524Y-40644552D01*
X79954476Y-40706084D01*
X79934969Y-40767580D01*
X79934701Y-40769968D01*
X79933991Y-40772262D01*
X79927254Y-40836366D01*
X79920067Y-40900436D01*
X79920035Y-40905050D01*
X79920017Y-40905218D01*
X79920032Y-40905386D01*
X79920000Y-40910000D01*
X79920000Y-43556130D01*
X79835861Y-43547843D01*
X79835850Y-43547843D01*
X79798528Y-43544167D01*
X79761206Y-43547843D01*
X70244479Y-43547843D01*
X70207156Y-43544167D01*
X70169833Y-43547843D01*
X70169824Y-43547843D01*
X70058171Y-43558840D01*
X69914910Y-43602297D01*
X69782881Y-43672869D01*
X69782879Y-43672870D01*
X69782880Y-43672870D01*
X69696153Y-43744044D01*
X69696149Y-43744048D01*
X69667156Y-43767842D01*
X69643362Y-43796835D01*
X68593998Y-44846201D01*
X68565000Y-44869999D01*
X68541202Y-44898997D01*
X68541201Y-44898998D01*
X68470026Y-44985724D01*
X68437078Y-45047365D01*
X68360820Y-45070498D01*
X68250751Y-45129332D01*
X68255524Y-45113916D01*
X68275031Y-45052420D01*
X68275299Y-45050032D01*
X68276009Y-45047738D01*
X68282746Y-44983634D01*
X68289933Y-44919564D01*
X68289965Y-44914950D01*
X68289983Y-44914782D01*
X68289968Y-44914614D01*
X68290000Y-44910000D01*
X68290000Y-40910000D01*
X68283710Y-40845855D01*
X68277867Y-40781644D01*
X68277188Y-40779338D01*
X68276954Y-40776949D01*
X68258334Y-40715277D01*
X68240121Y-40653394D01*
X68239008Y-40651264D01*
X68238314Y-40648967D01*
X68208084Y-40592114D01*
X68178184Y-40534919D01*
X68176677Y-40533045D01*
X68175551Y-40530927D01*
X68134843Y-40481014D01*
X68094414Y-40430731D01*
X68092573Y-40429187D01*
X68091056Y-40427326D01*
X68041384Y-40386234D01*
X67992002Y-40344797D01*
X67989898Y-40343640D01*
X67988047Y-40342109D01*
X67931361Y-40311459D01*
X67874850Y-40280392D01*
X67872558Y-40279665D01*
X67870448Y-40278524D01*
X67808916Y-40259476D01*
X67747420Y-40239969D01*
X67745032Y-40239701D01*
X67742738Y-40238991D01*
X67678634Y-40232254D01*
X67614564Y-40225067D01*
X67609950Y-40225035D01*
X67609782Y-40225017D01*
X67609614Y-40225032D01*
X67605000Y-40225000D01*
X65605000Y-40225000D01*
X65540855Y-40231290D01*
X65476644Y-40237133D01*
X65474338Y-40237812D01*
X65471949Y-40238046D01*
X65410277Y-40256666D01*
X65348394Y-40274879D01*
X65346264Y-40275992D01*
X65343967Y-40276686D01*
X65287114Y-40306916D01*
X65229919Y-40336816D01*
X65228045Y-40338323D01*
X65225927Y-40339449D01*
X65176014Y-40380157D01*
X65125731Y-40420586D01*
X65124187Y-40422427D01*
X65122326Y-40423944D01*
X65081234Y-40473616D01*
X65039797Y-40522998D01*
X65038640Y-40525102D01*
X65037109Y-40526953D01*
X65006459Y-40583639D01*
X64975392Y-40640150D01*
X64974665Y-40642442D01*
X64973524Y-40644552D01*
X64954476Y-40706084D01*
X64934969Y-40767580D01*
X64934701Y-40769968D01*
X64933991Y-40772262D01*
X64927254Y-40836366D01*
X64920067Y-40900436D01*
X64920035Y-40905050D01*
X64920017Y-40905218D01*
X64920032Y-40905386D01*
X64920000Y-40910000D01*
X64920000Y-44910000D01*
X64926290Y-44974145D01*
X64932133Y-45038356D01*
X64932812Y-45040662D01*
X64933046Y-45043051D01*
X64951666Y-45104723D01*
X64969879Y-45166606D01*
X64970992Y-45168736D01*
X64971686Y-45171033D01*
X65001916Y-45227886D01*
X65031816Y-45285081D01*
X65033323Y-45286955D01*
X65034449Y-45289073D01*
X65075157Y-45338986D01*
X65115586Y-45389269D01*
X65117427Y-45390813D01*
X65118944Y-45392674D01*
X65168616Y-45433766D01*
X65217998Y-45475203D01*
X65220102Y-45476360D01*
X65221953Y-45477891D01*
X65278639Y-45508541D01*
X65335150Y-45539608D01*
X65337442Y-45540335D01*
X65339552Y-45541476D01*
X65401084Y-45560524D01*
X65462580Y-45580031D01*
X65464968Y-45580299D01*
X65467262Y-45581009D01*
X65531366Y-45587746D01*
X65595436Y-45594933D01*
X65600050Y-45594965D01*
X65600218Y-45594983D01*
X65600386Y-45594968D01*
X65605000Y-45595000D01*
X67605000Y-45595000D01*
X67669145Y-45588710D01*
X67733356Y-45582867D01*
X67735662Y-45582188D01*
X67738051Y-45581954D01*
X67799723Y-45563334D01*
X67861606Y-45545121D01*
X67863736Y-45544008D01*
X67866033Y-45543314D01*
X67922886Y-45513084D01*
X67980081Y-45483184D01*
X67981955Y-45481677D01*
X67984073Y-45480551D01*
X67999738Y-45467775D01*
X67979188Y-45535518D01*
X67966928Y-45660000D01*
X67966928Y-48160000D01*
X67979188Y-48284482D01*
X68015498Y-48404180D01*
X68074463Y-48514494D01*
X68153815Y-48611185D01*
X68250506Y-48690537D01*
X68360820Y-48749502D01*
X68480518Y-48785812D01*
X68605000Y-48798072D01*
X69605000Y-48798072D01*
X69729482Y-48785812D01*
X69849180Y-48749502D01*
X69959494Y-48690537D01*
X70056185Y-48611185D01*
X70105000Y-48551704D01*
X70153815Y-48611185D01*
X70250506Y-48690537D01*
X70345000Y-48741046D01*
X70345001Y-50266963D01*
X70340256Y-50263793D01*
X70151898Y-50185772D01*
X69951939Y-50145998D01*
X69889802Y-50145998D01*
X68743806Y-49000003D01*
X68720004Y-48971000D01*
X68604279Y-48876027D01*
X68472250Y-48805455D01*
X68328989Y-48761998D01*
X68217336Y-48751001D01*
X68217325Y-48751001D01*
X68180003Y-48747325D01*
X68142681Y-48751001D01*
X65816322Y-48751001D01*
X65778999Y-48747325D01*
X65741676Y-48751001D01*
X65741666Y-48751001D01*
X65630013Y-48761998D01*
X65486752Y-48805455D01*
X65354723Y-48876027D01*
X65238998Y-48971000D01*
X65215200Y-48999998D01*
X64924839Y-49290359D01*
X64890001Y-49286928D01*
X64089999Y-49286928D01*
X63916745Y-49303992D01*
X63750149Y-49354528D01*
X63596613Y-49436595D01*
X63462038Y-49547038D01*
X63351595Y-49681613D01*
X63269528Y-49835149D01*
X63218992Y-50001745D01*
X63201928Y-50174999D01*
X63201928Y-51425001D01*
X63218992Y-51598255D01*
X63269528Y-51764851D01*
X63351595Y-51918387D01*
X63462038Y-52052962D01*
X63482799Y-52070000D01*
X63462038Y-52087038D01*
X63351595Y-52221613D01*
X63269528Y-52375149D01*
X63218992Y-52541745D01*
X63201928Y-52714999D01*
X63201928Y-53965001D01*
X63218992Y-54138255D01*
X63269528Y-54304851D01*
X63351595Y-54458387D01*
X63462038Y-54592962D01*
X63596613Y-54703405D01*
X63730001Y-54774702D01*
X63730001Y-55317668D01*
X63726324Y-55355000D01*
X63730001Y-55392333D01*
X63740998Y-55503986D01*
X63754015Y-55546898D01*
X63784454Y-55647246D01*
X63801928Y-55679937D01*
X63801928Y-56330001D01*
X63818992Y-56503255D01*
X63869528Y-56669851D01*
X63951595Y-56823387D01*
X64062038Y-56957962D01*
X64196613Y-57068405D01*
X64350149Y-57150472D01*
X64516745Y-57201008D01*
X64689999Y-57218072D01*
X65340001Y-57218072D01*
X65513255Y-57201008D01*
X65679851Y-57150472D01*
X65833387Y-57068405D01*
X65967962Y-56957962D01*
X66040000Y-56870184D01*
X66112038Y-56957962D01*
X66246613Y-57068405D01*
X66400149Y-57150472D01*
X66566745Y-57201008D01*
X66739999Y-57218072D01*
X67390001Y-57218072D01*
X67563255Y-57201008D01*
X67729851Y-57150472D01*
X67883387Y-57068405D01*
X68017962Y-56957962D01*
X68128405Y-56823387D01*
X68210472Y-56669851D01*
X68261008Y-56503255D01*
X68261400Y-56499280D01*
X68358001Y-56420001D01*
X68381803Y-56390998D01*
X68492801Y-56280000D01*
X68554939Y-56280000D01*
X68754898Y-56240226D01*
X68943256Y-56162205D01*
X69112774Y-56048937D01*
X69256937Y-55904774D01*
X69370205Y-55735256D01*
X69448226Y-55546898D01*
X69488000Y-55346939D01*
X69488000Y-55143061D01*
X69448226Y-54943102D01*
X69370205Y-54754744D01*
X69256937Y-54585226D01*
X69112774Y-54441063D01*
X68943256Y-54327795D01*
X68869953Y-54297432D01*
X68878072Y-54215000D01*
X68875000Y-53625750D01*
X68716250Y-53467000D01*
X67717000Y-53467000D01*
X67717000Y-53487000D01*
X67463000Y-53487000D01*
X67463000Y-53467000D01*
X66463750Y-53467000D01*
X66305000Y-53625750D01*
X66301928Y-54215000D01*
X66314188Y-54339482D01*
X66350498Y-54459180D01*
X66409463Y-54569494D01*
X66433913Y-54599286D01*
X66400149Y-54609528D01*
X66246613Y-54691595D01*
X66112038Y-54802038D01*
X66040000Y-54889816D01*
X65967962Y-54802038D01*
X65833387Y-54691595D01*
X65679851Y-54609528D01*
X65539345Y-54566906D01*
X65628405Y-54458387D01*
X65710472Y-54304851D01*
X65761008Y-54138255D01*
X65778072Y-53965001D01*
X65778072Y-52714999D01*
X65761008Y-52541745D01*
X65710472Y-52375149D01*
X65628405Y-52221613D01*
X65517962Y-52087038D01*
X65497201Y-52070000D01*
X65517962Y-52052962D01*
X65628405Y-51918387D01*
X65710472Y-51764851D01*
X65737727Y-51675000D01*
X66301928Y-51675000D01*
X66314188Y-51799482D01*
X66350498Y-51919180D01*
X66409463Y-52029494D01*
X66442705Y-52070000D01*
X66409463Y-52110506D01*
X66350498Y-52220820D01*
X66314188Y-52340518D01*
X66301928Y-52465000D01*
X66305000Y-53054250D01*
X66463750Y-53213000D01*
X67463000Y-53213000D01*
X67463000Y-50927000D01*
X66463750Y-50927000D01*
X66305000Y-51085750D01*
X66301928Y-51675000D01*
X65737727Y-51675000D01*
X65761008Y-51598255D01*
X65778072Y-51425001D01*
X65778072Y-50586730D01*
X66093801Y-50271001D01*
X66303732Y-50271001D01*
X66305000Y-50514250D01*
X66463750Y-50673000D01*
X67463000Y-50673000D01*
X67463000Y-50653000D01*
X67717000Y-50653000D01*
X67717000Y-50673000D01*
X67737000Y-50673000D01*
X67737000Y-50927000D01*
X67717000Y-50927000D01*
X67717000Y-53213000D01*
X68716250Y-53213000D01*
X68875000Y-53054250D01*
X68878072Y-52465000D01*
X68865812Y-52340518D01*
X68829502Y-52220820D01*
X68770537Y-52110506D01*
X68737295Y-52070000D01*
X68770537Y-52029494D01*
X68829502Y-51919180D01*
X68865812Y-51799482D01*
X68878072Y-51675000D01*
X68877355Y-51537410D01*
X68932795Y-51671254D01*
X69046063Y-51840772D01*
X69190226Y-51984935D01*
X69359744Y-52098203D01*
X69548102Y-52176224D01*
X69748061Y-52215998D01*
X69951939Y-52215998D01*
X70151898Y-52176224D01*
X70340256Y-52098203D01*
X70455087Y-52021476D01*
X70470026Y-52049425D01*
X70521329Y-52111937D01*
X70565000Y-52165150D01*
X70593998Y-52188948D01*
X72256052Y-53851003D01*
X72279850Y-53880001D01*
X72308848Y-53903799D01*
X72395575Y-53974974D01*
X72527604Y-54045546D01*
X72670865Y-54089003D01*
X72819851Y-54103677D01*
X72857184Y-54100000D01*
X74861289Y-54100000D01*
X74905226Y-54143937D01*
X75074744Y-54257205D01*
X75263102Y-54335226D01*
X75463061Y-54375000D01*
X75666939Y-54375000D01*
X75866898Y-54335226D01*
X75966258Y-54294070D01*
X75969528Y-54304851D01*
X76051595Y-54458387D01*
X76091050Y-54506464D01*
X76063815Y-54528815D01*
X75984463Y-54625506D01*
X75925498Y-54735820D01*
X75889188Y-54855518D01*
X75876928Y-54980000D01*
X75880000Y-55594250D01*
X76038750Y-55753000D01*
X77050500Y-55753000D01*
X77050500Y-55733000D01*
X77304500Y-55733000D01*
X77304500Y-55753000D01*
X77324500Y-55753000D01*
X77324500Y-56007000D01*
X77304500Y-56007000D01*
X77304500Y-56027000D01*
X77050500Y-56027000D01*
X77050500Y-56007000D01*
X76038750Y-56007000D01*
X75880000Y-56165750D01*
X75876928Y-56780000D01*
X75889188Y-56904482D01*
X75903275Y-56950921D01*
X75364618Y-57489578D01*
X75380226Y-57451898D01*
X75420000Y-57251939D01*
X75420000Y-57048061D01*
X75380226Y-56848102D01*
X75302205Y-56659744D01*
X75188937Y-56490226D01*
X75044774Y-56346063D01*
X74875256Y-56232795D01*
X74686898Y-56154774D01*
X74486939Y-56115000D01*
X74283061Y-56115000D01*
X74083102Y-56154774D01*
X73894744Y-56232795D01*
X73725226Y-56346063D01*
X73681289Y-56390000D01*
X71157333Y-56390000D01*
X71120000Y-56386323D01*
X71082667Y-56390000D01*
X70971014Y-56400997D01*
X70827753Y-56444454D01*
X70695724Y-56515026D01*
X70579999Y-56609999D01*
X70556200Y-56638998D01*
X69974002Y-57221197D01*
X69944999Y-57244999D01*
X69891214Y-57310537D01*
X69850026Y-57360724D01*
X69806451Y-57442246D01*
X69779454Y-57492754D01*
X69750040Y-57589719D01*
X69710537Y-57606082D01*
X69442748Y-57785013D01*
X69215013Y-58012748D01*
X69036082Y-58280537D01*
X68912832Y-58578088D01*
X68850000Y-58893967D01*
X68850000Y-59216033D01*
X68912832Y-59531912D01*
X69036082Y-59829463D01*
X69215013Y-60097252D01*
X69442748Y-60324987D01*
X69710537Y-60503918D01*
X69725000Y-60509909D01*
X69725001Y-61088142D01*
X69666582Y-61056916D01*
X69518745Y-61012071D01*
X69365000Y-60996928D01*
X69065000Y-60996928D01*
X68911255Y-61012071D01*
X68763418Y-61056916D01*
X68627171Y-61129742D01*
X68580000Y-61168454D01*
X68532829Y-61129742D01*
X68396582Y-61056916D01*
X68248745Y-61012071D01*
X68095000Y-60996928D01*
X67795000Y-60996928D01*
X67641255Y-61012071D01*
X67493418Y-61056916D01*
X67357171Y-61129742D01*
X67237749Y-61227749D01*
X67139742Y-61347171D01*
X67066916Y-61483418D01*
X67022071Y-61631255D01*
X67006928Y-61785000D01*
X67006928Y-61900000D01*
X65736391Y-61900000D01*
X65707168Y-61753088D01*
X65583918Y-61455537D01*
X65404987Y-61187748D01*
X65177252Y-60960013D01*
X64909463Y-60781082D01*
X64611912Y-60657832D01*
X64296033Y-60595000D01*
X63973967Y-60595000D01*
X63658088Y-60657832D01*
X63360537Y-60781082D01*
X63092748Y-60960013D01*
X62865013Y-61187748D01*
X62763000Y-61340421D01*
X62763000Y-39402279D01*
X62801909Y-39005455D01*
X62907780Y-38654792D01*
X63079744Y-38331375D01*
X63311254Y-38047516D01*
X63593486Y-37814035D01*
X63915695Y-37639817D01*
X64265614Y-37531498D01*
X64660443Y-37490000D01*
X86327721Y-37490000D01*
X86724545Y-37528909D01*
%TA.AperFunction,Conductor*%
D20*
G36*
X86724545Y-37528909D02*
G01*
X87075208Y-37634780D01*
X87398625Y-37806744D01*
X87682484Y-38038254D01*
X87915965Y-38320486D01*
X88090183Y-38642695D01*
X88198502Y-38992614D01*
X88240000Y-39387443D01*
X88240001Y-79342711D01*
X88201091Y-79739545D01*
X88095220Y-80090206D01*
X87923257Y-80413623D01*
X87691748Y-80697482D01*
X87409514Y-80930965D01*
X87087304Y-81105184D01*
X86737385Y-81213502D01*
X86342557Y-81255000D01*
X77589915Y-81255000D01*
X77608190Y-81240002D01*
X77631993Y-81210999D01*
X78458428Y-80384564D01*
X78516595Y-80493387D01*
X78627038Y-80627962D01*
X78761613Y-80738405D01*
X78915149Y-80820472D01*
X79081745Y-80871008D01*
X79254999Y-80888072D01*
X80055001Y-80888072D01*
X80228255Y-80871008D01*
X80394851Y-80820472D01*
X80548387Y-80738405D01*
X80682962Y-80627962D01*
X80793405Y-80493387D01*
X80849201Y-80389000D01*
X84290678Y-80389000D01*
X84328000Y-80392676D01*
X84365322Y-80389000D01*
X84365333Y-80389000D01*
X84476986Y-80378003D01*
X84620247Y-80334546D01*
X84752276Y-80263974D01*
X84868001Y-80169001D01*
X84891804Y-80139997D01*
X86353521Y-78678280D01*
X86467740Y-78701000D01*
X86760260Y-78701000D01*
X87047158Y-78643932D01*
X87317411Y-78531990D01*
X87560632Y-78369475D01*
X87767475Y-78162632D01*
X87929990Y-77919411D01*
X88041932Y-77649158D01*
X88099000Y-77362260D01*
X88099000Y-77069740D01*
X88041932Y-76782842D01*
X87929990Y-76512589D01*
X87767475Y-76269368D01*
X87560632Y-76062525D01*
X87378466Y-75940805D01*
X87495355Y-75871178D01*
X87711588Y-75676269D01*
X87885641Y-75442920D01*
X88010825Y-75180099D01*
X88055476Y-75032890D01*
X87934155Y-74803000D01*
X86741000Y-74803000D01*
X86741000Y-74823000D01*
X86487000Y-74823000D01*
X86487000Y-74803000D01*
X86467000Y-74803000D01*
X86467000Y-74549000D01*
X86487000Y-74549000D01*
X86487000Y-74529000D01*
X86741000Y-74529000D01*
X86741000Y-74549000D01*
X87934155Y-74549000D01*
X88055476Y-74319110D01*
X88010825Y-74171901D01*
X87885641Y-73909080D01*
X87711588Y-73675731D01*
X87495355Y-73480822D01*
X87419794Y-73435813D01*
X87434002Y-73388976D01*
X87435572Y-73373037D01*
X87560632Y-73289475D01*
X87767475Y-73082632D01*
X87929990Y-72839411D01*
X88041932Y-72569158D01*
X88099000Y-72282260D01*
X88099000Y-71989740D01*
X88041932Y-71702842D01*
X87929990Y-71432589D01*
X87767475Y-71189368D01*
X87560632Y-70982525D01*
X87378466Y-70860805D01*
X87495355Y-70791178D01*
X87711588Y-70596269D01*
X87885641Y-70362920D01*
X88010825Y-70100099D01*
X88055476Y-69952890D01*
X87934155Y-69723000D01*
X86741000Y-69723000D01*
X86741000Y-69743000D01*
X86487000Y-69743000D01*
X86487000Y-69723000D01*
X86467000Y-69723000D01*
X86467000Y-69469000D01*
X86487000Y-69469000D01*
X86487000Y-69449000D01*
X86741000Y-69449000D01*
X86741000Y-69469000D01*
X87934155Y-69469000D01*
X88055476Y-69239110D01*
X88010825Y-69091901D01*
X87885641Y-68829080D01*
X87711588Y-68595731D01*
X87495355Y-68400822D01*
X87378466Y-68331195D01*
X87560632Y-68209475D01*
X87767475Y-68002632D01*
X87929990Y-67759411D01*
X88041932Y-67489158D01*
X88099000Y-67202260D01*
X88099000Y-66909740D01*
X88041932Y-66622842D01*
X87929990Y-66352589D01*
X87767475Y-66109368D01*
X87560632Y-65902525D01*
X87386240Y-65786000D01*
X87560632Y-65669475D01*
X87767475Y-65462632D01*
X87929990Y-65219411D01*
X88041932Y-64949158D01*
X88099000Y-64662260D01*
X88099000Y-64369740D01*
X88041932Y-64082842D01*
X87929990Y-63812589D01*
X87767475Y-63569368D01*
X87560632Y-63362525D01*
X87386240Y-63246000D01*
X87560632Y-63129475D01*
X87767475Y-62922632D01*
X87929990Y-62679411D01*
X88041932Y-62409158D01*
X88099000Y-62122260D01*
X88099000Y-61829740D01*
X88041932Y-61542842D01*
X87929990Y-61272589D01*
X87767475Y-61029368D01*
X87560632Y-60822525D01*
X87386240Y-60706000D01*
X87560632Y-60589475D01*
X87767475Y-60382632D01*
X87929990Y-60139411D01*
X88041932Y-59869158D01*
X88099000Y-59582260D01*
X88099000Y-59289740D01*
X88041932Y-59002842D01*
X87929990Y-58732589D01*
X87767475Y-58489368D01*
X87560632Y-58282525D01*
X87386240Y-58166000D01*
X87560632Y-58049475D01*
X87767475Y-57842632D01*
X87929990Y-57599411D01*
X88041932Y-57329158D01*
X88099000Y-57042260D01*
X88099000Y-56749740D01*
X88041932Y-56462842D01*
X87929990Y-56192589D01*
X87767475Y-55949368D01*
X87560632Y-55742525D01*
X87386240Y-55626000D01*
X87560632Y-55509475D01*
X87767475Y-55302632D01*
X87929990Y-55059411D01*
X88041932Y-54789158D01*
X88099000Y-54502260D01*
X88099000Y-54209740D01*
X88041932Y-53922842D01*
X87929990Y-53652589D01*
X87767475Y-53409368D01*
X87560632Y-53202525D01*
X87386240Y-53086000D01*
X87560632Y-52969475D01*
X87767475Y-52762632D01*
X87929990Y-52519411D01*
X88041932Y-52249158D01*
X88099000Y-51962260D01*
X88099000Y-51669740D01*
X88041932Y-51382842D01*
X87929990Y-51112589D01*
X87767475Y-50869368D01*
X87560632Y-50662525D01*
X87386240Y-50546000D01*
X87560632Y-50429475D01*
X87767475Y-50222632D01*
X87929990Y-49979411D01*
X88041932Y-49709158D01*
X88099000Y-49422260D01*
X88099000Y-49129740D01*
X88041932Y-48842842D01*
X87929990Y-48572589D01*
X87767475Y-48329368D01*
X87560632Y-48122525D01*
X87386240Y-48006000D01*
X87560632Y-47889475D01*
X87767475Y-47682632D01*
X87929990Y-47439411D01*
X88041932Y-47169158D01*
X88099000Y-46882260D01*
X88099000Y-46589740D01*
X88041932Y-46302842D01*
X87929990Y-46032589D01*
X87767475Y-45789368D01*
X87635620Y-45657513D01*
X87708180Y-45635502D01*
X87818494Y-45576537D01*
X87915185Y-45497185D01*
X87994537Y-45400494D01*
X88053502Y-45290180D01*
X88089812Y-45170482D01*
X88102072Y-45046000D01*
X88102072Y-43346000D01*
X88089812Y-43221518D01*
X88053502Y-43101820D01*
X87994537Y-42991506D01*
X87915185Y-42894815D01*
X87818494Y-42815463D01*
X87708180Y-42756498D01*
X87588482Y-42720188D01*
X87464000Y-42707928D01*
X85764000Y-42707928D01*
X85639518Y-42720188D01*
X85519820Y-42756498D01*
X85409506Y-42815463D01*
X85312815Y-42894815D01*
X85233463Y-42991506D01*
X85174498Y-43101820D01*
X85138188Y-43221518D01*
X85125928Y-43346000D01*
X85125928Y-43388447D01*
X85010723Y-43450026D01*
X84894998Y-43544999D01*
X84871200Y-43573997D01*
X83197306Y-45247892D01*
X83203541Y-45236361D01*
X83234608Y-45179850D01*
X83235335Y-45177558D01*
X83236476Y-45175448D01*
X83255524Y-45113916D01*
X83275031Y-45052420D01*
X83275299Y-45050032D01*
X83276009Y-45047738D01*
X83282746Y-44983634D01*
X83289933Y-44919564D01*
X83289965Y-44914950D01*
X83289983Y-44914782D01*
X83289968Y-44914614D01*
X83290000Y-44910000D01*
X83290000Y-40910000D01*
X83283710Y-40845855D01*
X83277867Y-40781644D01*
X83277188Y-40779338D01*
X83276954Y-40776949D01*
X83258334Y-40715277D01*
X83240121Y-40653394D01*
X83239008Y-40651264D01*
X83238314Y-40648967D01*
X83208084Y-40592114D01*
X83178184Y-40534919D01*
X83176677Y-40533045D01*
X83175551Y-40530927D01*
X83134843Y-40481014D01*
X83094414Y-40430731D01*
X83092573Y-40429187D01*
X83091056Y-40427326D01*
X83041384Y-40386234D01*
X82992002Y-40344797D01*
X82989898Y-40343640D01*
X82988047Y-40342109D01*
X82931361Y-40311459D01*
X82874850Y-40280392D01*
X82872558Y-40279665D01*
X82870448Y-40278524D01*
X82808916Y-40259476D01*
X82747420Y-40239969D01*
X82745032Y-40239701D01*
X82742738Y-40238991D01*
X82678634Y-40232254D01*
X82614564Y-40225067D01*
X82609950Y-40225035D01*
X82609782Y-40225017D01*
X82609614Y-40225032D01*
X82605000Y-40225000D01*
X80605000Y-40225000D01*
X80540855Y-40231290D01*
X80476644Y-40237133D01*
X80474338Y-40237812D01*
X80471949Y-40238046D01*
X80410277Y-40256666D01*
X80348394Y-40274879D01*
X80346264Y-40275992D01*
X80343967Y-40276686D01*
X80287114Y-40306916D01*
X80229919Y-40336816D01*
X80228045Y-40338323D01*
X80225927Y-40339449D01*
X80176014Y-40380157D01*
X80125731Y-40420586D01*
X80124187Y-40422427D01*
X80122326Y-40423944D01*
X80081234Y-40473616D01*
X80039797Y-40522998D01*
X80038640Y-40525102D01*
X80037109Y-40526953D01*
X80006459Y-40583639D01*
X79975392Y-40640150D01*
X79974665Y-40642442D01*
X79973524Y-40644552D01*
X79954476Y-40706084D01*
X79934969Y-40767580D01*
X79934701Y-40769968D01*
X79933991Y-40772262D01*
X79927254Y-40836366D01*
X79920067Y-40900436D01*
X79920035Y-40905050D01*
X79920017Y-40905218D01*
X79920032Y-40905386D01*
X79920000Y-40910000D01*
X79920000Y-43556130D01*
X79835861Y-43547843D01*
X79835850Y-43547843D01*
X79798528Y-43544167D01*
X79761206Y-43547843D01*
X70244479Y-43547843D01*
X70207156Y-43544167D01*
X70169833Y-43547843D01*
X70169824Y-43547843D01*
X70058171Y-43558840D01*
X69914910Y-43602297D01*
X69782881Y-43672869D01*
X69782879Y-43672870D01*
X69782880Y-43672870D01*
X69696153Y-43744044D01*
X69696149Y-43744048D01*
X69667156Y-43767842D01*
X69643362Y-43796835D01*
X68593998Y-44846201D01*
X68565000Y-44869999D01*
X68541202Y-44898997D01*
X68541201Y-44898998D01*
X68470026Y-44985724D01*
X68437078Y-45047365D01*
X68360820Y-45070498D01*
X68250751Y-45129332D01*
X68255524Y-45113916D01*
X68275031Y-45052420D01*
X68275299Y-45050032D01*
X68276009Y-45047738D01*
X68282746Y-44983634D01*
X68289933Y-44919564D01*
X68289965Y-44914950D01*
X68289983Y-44914782D01*
X68289968Y-44914614D01*
X68290000Y-44910000D01*
X68290000Y-40910000D01*
X68283710Y-40845855D01*
X68277867Y-40781644D01*
X68277188Y-40779338D01*
X68276954Y-40776949D01*
X68258334Y-40715277D01*
X68240121Y-40653394D01*
X68239008Y-40651264D01*
X68238314Y-40648967D01*
X68208084Y-40592114D01*
X68178184Y-40534919D01*
X68176677Y-40533045D01*
X68175551Y-40530927D01*
X68134843Y-40481014D01*
X68094414Y-40430731D01*
X68092573Y-40429187D01*
X68091056Y-40427326D01*
X68041384Y-40386234D01*
X67992002Y-40344797D01*
X67989898Y-40343640D01*
X67988047Y-40342109D01*
X67931361Y-40311459D01*
X67874850Y-40280392D01*
X67872558Y-40279665D01*
X67870448Y-40278524D01*
X67808916Y-40259476D01*
X67747420Y-40239969D01*
X67745032Y-40239701D01*
X67742738Y-40238991D01*
X67678634Y-40232254D01*
X67614564Y-40225067D01*
X67609950Y-40225035D01*
X67609782Y-40225017D01*
X67609614Y-40225032D01*
X67605000Y-40225000D01*
X65605000Y-40225000D01*
X65540855Y-40231290D01*
X65476644Y-40237133D01*
X65474338Y-40237812D01*
X65471949Y-40238046D01*
X65410277Y-40256666D01*
X65348394Y-40274879D01*
X65346264Y-40275992D01*
X65343967Y-40276686D01*
X65287114Y-40306916D01*
X65229919Y-40336816D01*
X65228045Y-40338323D01*
X65225927Y-40339449D01*
X65176014Y-40380157D01*
X65125731Y-40420586D01*
X65124187Y-40422427D01*
X65122326Y-40423944D01*
X65081234Y-40473616D01*
X65039797Y-40522998D01*
X65038640Y-40525102D01*
X65037109Y-40526953D01*
X65006459Y-40583639D01*
X64975392Y-40640150D01*
X64974665Y-40642442D01*
X64973524Y-40644552D01*
X64954476Y-40706084D01*
X64934969Y-40767580D01*
X64934701Y-40769968D01*
X64933991Y-40772262D01*
X64927254Y-40836366D01*
X64920067Y-40900436D01*
X64920035Y-40905050D01*
X64920017Y-40905218D01*
X64920032Y-40905386D01*
X64920000Y-40910000D01*
X64920000Y-44910000D01*
X64926290Y-44974145D01*
X64932133Y-45038356D01*
X64932812Y-45040662D01*
X64933046Y-45043051D01*
X64951666Y-45104723D01*
X64969879Y-45166606D01*
X64970992Y-45168736D01*
X64971686Y-45171033D01*
X65001916Y-45227886D01*
X65031816Y-45285081D01*
X65033323Y-45286955D01*
X65034449Y-45289073D01*
X65075157Y-45338986D01*
X65115586Y-45389269D01*
X65117427Y-45390813D01*
X65118944Y-45392674D01*
X65168616Y-45433766D01*
X65217998Y-45475203D01*
X65220102Y-45476360D01*
X65221953Y-45477891D01*
X65278639Y-45508541D01*
X65335150Y-45539608D01*
X65337442Y-45540335D01*
X65339552Y-45541476D01*
X65401084Y-45560524D01*
X65462580Y-45580031D01*
X65464968Y-45580299D01*
X65467262Y-45581009D01*
X65531366Y-45587746D01*
X65595436Y-45594933D01*
X65600050Y-45594965D01*
X65600218Y-45594983D01*
X65600386Y-45594968D01*
X65605000Y-45595000D01*
X67605000Y-45595000D01*
X67669145Y-45588710D01*
X67733356Y-45582867D01*
X67735662Y-45582188D01*
X67738051Y-45581954D01*
X67799723Y-45563334D01*
X67861606Y-45545121D01*
X67863736Y-45544008D01*
X67866033Y-45543314D01*
X67922886Y-45513084D01*
X67980081Y-45483184D01*
X67981955Y-45481677D01*
X67984073Y-45480551D01*
X67999738Y-45467775D01*
X67979188Y-45535518D01*
X67966928Y-45660000D01*
X67966928Y-48160000D01*
X67979188Y-48284482D01*
X68015498Y-48404180D01*
X68074463Y-48514494D01*
X68153815Y-48611185D01*
X68250506Y-48690537D01*
X68360820Y-48749502D01*
X68480518Y-48785812D01*
X68605000Y-48798072D01*
X69605000Y-48798072D01*
X69729482Y-48785812D01*
X69849180Y-48749502D01*
X69959494Y-48690537D01*
X70056185Y-48611185D01*
X70105000Y-48551704D01*
X70153815Y-48611185D01*
X70250506Y-48690537D01*
X70345000Y-48741046D01*
X70345001Y-50266963D01*
X70340256Y-50263793D01*
X70151898Y-50185772D01*
X69951939Y-50145998D01*
X69889802Y-50145998D01*
X68743806Y-49000003D01*
X68720004Y-48971000D01*
X68604279Y-48876027D01*
X68472250Y-48805455D01*
X68328989Y-48761998D01*
X68217336Y-48751001D01*
X68217325Y-48751001D01*
X68180003Y-48747325D01*
X68142681Y-48751001D01*
X65816322Y-48751001D01*
X65778999Y-48747325D01*
X65741676Y-48751001D01*
X65741666Y-48751001D01*
X65630013Y-48761998D01*
X65486752Y-48805455D01*
X65354723Y-48876027D01*
X65238998Y-48971000D01*
X65215200Y-48999998D01*
X64924839Y-49290359D01*
X64890001Y-49286928D01*
X64089999Y-49286928D01*
X63916745Y-49303992D01*
X63750149Y-49354528D01*
X63596613Y-49436595D01*
X63462038Y-49547038D01*
X63351595Y-49681613D01*
X63269528Y-49835149D01*
X63218992Y-50001745D01*
X63201928Y-50174999D01*
X63201928Y-51425001D01*
X63218992Y-51598255D01*
X63269528Y-51764851D01*
X63351595Y-51918387D01*
X63462038Y-52052962D01*
X63482799Y-52070000D01*
X63462038Y-52087038D01*
X63351595Y-52221613D01*
X63269528Y-52375149D01*
X63218992Y-52541745D01*
X63201928Y-52714999D01*
X63201928Y-53965001D01*
X63218992Y-54138255D01*
X63269528Y-54304851D01*
X63351595Y-54458387D01*
X63462038Y-54592962D01*
X63596613Y-54703405D01*
X63730001Y-54774702D01*
X63730001Y-55317668D01*
X63726324Y-55355000D01*
X63730001Y-55392333D01*
X63740998Y-55503986D01*
X63754015Y-55546898D01*
X63784454Y-55647246D01*
X63801928Y-55679937D01*
X63801928Y-56330001D01*
X63818992Y-56503255D01*
X63869528Y-56669851D01*
X63951595Y-56823387D01*
X64062038Y-56957962D01*
X64196613Y-57068405D01*
X64350149Y-57150472D01*
X64516745Y-57201008D01*
X64689999Y-57218072D01*
X65340001Y-57218072D01*
X65513255Y-57201008D01*
X65679851Y-57150472D01*
X65833387Y-57068405D01*
X65967962Y-56957962D01*
X66040000Y-56870184D01*
X66112038Y-56957962D01*
X66246613Y-57068405D01*
X66400149Y-57150472D01*
X66566745Y-57201008D01*
X66739999Y-57218072D01*
X67390001Y-57218072D01*
X67563255Y-57201008D01*
X67729851Y-57150472D01*
X67883387Y-57068405D01*
X68017962Y-56957962D01*
X68128405Y-56823387D01*
X68210472Y-56669851D01*
X68261008Y-56503255D01*
X68261400Y-56499280D01*
X68358001Y-56420001D01*
X68381803Y-56390998D01*
X68492801Y-56280000D01*
X68554939Y-56280000D01*
X68754898Y-56240226D01*
X68943256Y-56162205D01*
X69112774Y-56048937D01*
X69256937Y-55904774D01*
X69370205Y-55735256D01*
X69448226Y-55546898D01*
X69488000Y-55346939D01*
X69488000Y-55143061D01*
X69448226Y-54943102D01*
X69370205Y-54754744D01*
X69256937Y-54585226D01*
X69112774Y-54441063D01*
X68943256Y-54327795D01*
X68869953Y-54297432D01*
X68878072Y-54215000D01*
X68875000Y-53625750D01*
X68716250Y-53467000D01*
X67717000Y-53467000D01*
X67717000Y-53487000D01*
X67463000Y-53487000D01*
X67463000Y-53467000D01*
X66463750Y-53467000D01*
X66305000Y-53625750D01*
X66301928Y-54215000D01*
X66314188Y-54339482D01*
X66350498Y-54459180D01*
X66409463Y-54569494D01*
X66433913Y-54599286D01*
X66400149Y-54609528D01*
X66246613Y-54691595D01*
X66112038Y-54802038D01*
X66040000Y-54889816D01*
X65967962Y-54802038D01*
X65833387Y-54691595D01*
X65679851Y-54609528D01*
X65539345Y-54566906D01*
X65628405Y-54458387D01*
X65710472Y-54304851D01*
X65761008Y-54138255D01*
X65778072Y-53965001D01*
X65778072Y-52714999D01*
X65761008Y-52541745D01*
X65710472Y-52375149D01*
X65628405Y-52221613D01*
X65517962Y-52087038D01*
X65497201Y-52070000D01*
X65517962Y-52052962D01*
X65628405Y-51918387D01*
X65710472Y-51764851D01*
X65737727Y-51675000D01*
X66301928Y-51675000D01*
X66314188Y-51799482D01*
X66350498Y-51919180D01*
X66409463Y-52029494D01*
X66442705Y-52070000D01*
X66409463Y-52110506D01*
X66350498Y-52220820D01*
X66314188Y-52340518D01*
X66301928Y-52465000D01*
X66305000Y-53054250D01*
X66463750Y-53213000D01*
X67463000Y-53213000D01*
X67463000Y-50927000D01*
X66463750Y-50927000D01*
X66305000Y-51085750D01*
X66301928Y-51675000D01*
X65737727Y-51675000D01*
X65761008Y-51598255D01*
X65778072Y-51425001D01*
X65778072Y-50586730D01*
X66093801Y-50271001D01*
X66303732Y-50271001D01*
X66305000Y-50514250D01*
X66463750Y-50673000D01*
X67463000Y-50673000D01*
X67463000Y-50653000D01*
X67717000Y-50653000D01*
X67717000Y-50673000D01*
X67737000Y-50673000D01*
X67737000Y-50927000D01*
X67717000Y-50927000D01*
X67717000Y-53213000D01*
X68716250Y-53213000D01*
X68875000Y-53054250D01*
X68878072Y-52465000D01*
X68865812Y-52340518D01*
X68829502Y-52220820D01*
X68770537Y-52110506D01*
X68737295Y-52070000D01*
X68770537Y-52029494D01*
X68829502Y-51919180D01*
X68865812Y-51799482D01*
X68878072Y-51675000D01*
X68877355Y-51537410D01*
X68932795Y-51671254D01*
X69046063Y-51840772D01*
X69190226Y-51984935D01*
X69359744Y-52098203D01*
X69548102Y-52176224D01*
X69748061Y-52215998D01*
X69951939Y-52215998D01*
X70151898Y-52176224D01*
X70340256Y-52098203D01*
X70455087Y-52021476D01*
X70470026Y-52049425D01*
X70521329Y-52111937D01*
X70565000Y-52165150D01*
X70593998Y-52188948D01*
X72256052Y-53851003D01*
X72279850Y-53880001D01*
X72308848Y-53903799D01*
X72395575Y-53974974D01*
X72527604Y-54045546D01*
X72670865Y-54089003D01*
X72819851Y-54103677D01*
X72857184Y-54100000D01*
X74861289Y-54100000D01*
X74905226Y-54143937D01*
X75074744Y-54257205D01*
X75263102Y-54335226D01*
X75463061Y-54375000D01*
X75666939Y-54375000D01*
X75866898Y-54335226D01*
X75966258Y-54294070D01*
X75969528Y-54304851D01*
X76051595Y-54458387D01*
X76091050Y-54506464D01*
X76063815Y-54528815D01*
X75984463Y-54625506D01*
X75925498Y-54735820D01*
X75889188Y-54855518D01*
X75876928Y-54980000D01*
X75880000Y-55594250D01*
X76038750Y-55753000D01*
X77050500Y-55753000D01*
X77050500Y-55733000D01*
X77304500Y-55733000D01*
X77304500Y-55753000D01*
X77324500Y-55753000D01*
X77324500Y-56007000D01*
X77304500Y-56007000D01*
X77304500Y-56027000D01*
X77050500Y-56027000D01*
X77050500Y-56007000D01*
X76038750Y-56007000D01*
X75880000Y-56165750D01*
X75876928Y-56780000D01*
X75889188Y-56904482D01*
X75903275Y-56950921D01*
X75364618Y-57489578D01*
X75380226Y-57451898D01*
X75420000Y-57251939D01*
X75420000Y-57048061D01*
X75380226Y-56848102D01*
X75302205Y-56659744D01*
X75188937Y-56490226D01*
X75044774Y-56346063D01*
X74875256Y-56232795D01*
X74686898Y-56154774D01*
X74486939Y-56115000D01*
X74283061Y-56115000D01*
X74083102Y-56154774D01*
X73894744Y-56232795D01*
X73725226Y-56346063D01*
X73681289Y-56390000D01*
X71157333Y-56390000D01*
X71120000Y-56386323D01*
X71082667Y-56390000D01*
X70971014Y-56400997D01*
X70827753Y-56444454D01*
X70695724Y-56515026D01*
X70579999Y-56609999D01*
X70556200Y-56638998D01*
X69974002Y-57221197D01*
X69944999Y-57244999D01*
X69891214Y-57310537D01*
X69850026Y-57360724D01*
X69806451Y-57442246D01*
X69779454Y-57492754D01*
X69750040Y-57589719D01*
X69710537Y-57606082D01*
X69442748Y-57785013D01*
X69215013Y-58012748D01*
X69036082Y-58280537D01*
X68912832Y-58578088D01*
X68850000Y-58893967D01*
X68850000Y-59216033D01*
X68912832Y-59531912D01*
X69036082Y-59829463D01*
X69215013Y-60097252D01*
X69442748Y-60324987D01*
X69710537Y-60503918D01*
X69725000Y-60509909D01*
X69725001Y-61088142D01*
X69666582Y-61056916D01*
X69518745Y-61012071D01*
X69365000Y-60996928D01*
X69065000Y-60996928D01*
X68911255Y-61012071D01*
X68763418Y-61056916D01*
X68627171Y-61129742D01*
X68580000Y-61168454D01*
X68532829Y-61129742D01*
X68396582Y-61056916D01*
X68248745Y-61012071D01*
X68095000Y-60996928D01*
X67795000Y-60996928D01*
X67641255Y-61012071D01*
X67493418Y-61056916D01*
X67357171Y-61129742D01*
X67237749Y-61227749D01*
X67139742Y-61347171D01*
X67066916Y-61483418D01*
X67022071Y-61631255D01*
X67006928Y-61785000D01*
X67006928Y-61900000D01*
X65736391Y-61900000D01*
X65707168Y-61753088D01*
X65583918Y-61455537D01*
X65404987Y-61187748D01*
X65177252Y-60960013D01*
X64909463Y-60781082D01*
X64611912Y-60657832D01*
X64296033Y-60595000D01*
X63973967Y-60595000D01*
X63658088Y-60657832D01*
X63360537Y-60781082D01*
X63092748Y-60960013D01*
X62865013Y-61187748D01*
X62763000Y-61340421D01*
X62763000Y-39402279D01*
X62801909Y-39005455D01*
X62907780Y-38654792D01*
X63079744Y-38331375D01*
X63311254Y-38047516D01*
X63593486Y-37814035D01*
X63915695Y-37639817D01*
X64265614Y-37531498D01*
X64660443Y-37490000D01*
X86327721Y-37490000D01*
X86724545Y-37528909D01*
G37*
%TD.AperFunction*%
D19*
X62865013Y-63272252D02*
X63092748Y-63499987D01*
X63360537Y-63678918D01*
X63658088Y-63802168D01*
X63973967Y-63865000D01*
X64296033Y-63865000D01*
X64611912Y-63802168D01*
X64909463Y-63678918D01*
X65177252Y-63499987D01*
X65257239Y-63420000D01*
X67006928Y-63420000D01*
X67006928Y-63535000D01*
X67022071Y-63688745D01*
X67066916Y-63836582D01*
X67139742Y-63972829D01*
X67191306Y-64035660D01*
X66239467Y-64987500D01*
X66236384Y-64987500D01*
X66158405Y-64841612D01*
X66047963Y-64707037D01*
X65913388Y-64596595D01*
X65759852Y-64514528D01*
X65593257Y-64463992D01*
X65420003Y-64446928D01*
X64119997Y-64446928D01*
X63946743Y-64463992D01*
X63780148Y-64514528D01*
X63626612Y-64596595D01*
X63492037Y-64707037D01*
X63381595Y-64841612D01*
X63299528Y-64995148D01*
X63248992Y-65161743D01*
X63231928Y-65334997D01*
X63231928Y-66160003D01*
X63248992Y-66333257D01*
X63299528Y-66499852D01*
X63381595Y-66653388D01*
X63492037Y-66787963D01*
X63626612Y-66898405D01*
X63780148Y-66980472D01*
X63946743Y-67031008D01*
X64119997Y-67048072D01*
X65420003Y-67048072D01*
X65593257Y-67031008D01*
X65759852Y-66980472D01*
X65913388Y-66898405D01*
X66047963Y-66787963D01*
X66158405Y-66653388D01*
X66236384Y-66507500D01*
X66516946Y-66507500D01*
X66554268Y-66511176D01*
X66591590Y-66507500D01*
X66591601Y-66507500D01*
X66703254Y-66496503D01*
X66846515Y-66453046D01*
X66978544Y-66382474D01*
X67094269Y-66287501D01*
X67118072Y-66258497D01*
X69054529Y-64322041D01*
X69065000Y-64323072D01*
X69365000Y-64323072D01*
X69518745Y-64307929D01*
X69666582Y-64263084D01*
X69802829Y-64190258D01*
X69850000Y-64151546D01*
X69897171Y-64190258D01*
X70033418Y-64263084D01*
X70181255Y-64307929D01*
X70335000Y-64323072D01*
X70635000Y-64323072D01*
X70788745Y-64307929D01*
X70936582Y-64263084D01*
X70995001Y-64231858D01*
X70995001Y-64732670D01*
X70991324Y-64770002D01*
X70995001Y-64807335D01*
X71003998Y-64898676D01*
X71005998Y-64918987D01*
X71049454Y-65062248D01*
X71120026Y-65194278D01*
X71191200Y-65281003D01*
X71215000Y-65310003D01*
X71243996Y-65333799D01*
X71354998Y-65444801D01*
X71354998Y-65506939D01*
X71394772Y-65706898D01*
X71472793Y-65895256D01*
X71586061Y-66064774D01*
X71730224Y-66208937D01*
X71899742Y-66322205D01*
X72046584Y-66383029D01*
X71350761Y-67078853D01*
X71272847Y-67063355D01*
X71068969Y-67063355D01*
X70869010Y-67103129D01*
X70680652Y-67181150D01*
X70511134Y-67294418D01*
X70366971Y-67438581D01*
X70253703Y-67608099D01*
X70175682Y-67796457D01*
X70135908Y-67996416D01*
X70135908Y-68200294D01*
X70143080Y-68236352D01*
X69994744Y-68297795D01*
X69825226Y-68411063D01*
X69681063Y-68555226D01*
X69567795Y-68724744D01*
X69489774Y-68913102D01*
X69469095Y-69017064D01*
X69297408Y-68982914D01*
X69093530Y-68982914D01*
X68893571Y-69022688D01*
X68705213Y-69100709D01*
X68535695Y-69213977D01*
X68391532Y-69358140D01*
X68278264Y-69527658D01*
X68200243Y-69716016D01*
X68160469Y-69915975D01*
X68160469Y-70119853D01*
X68197703Y-70307044D01*
X68095000Y-70296928D01*
X67795000Y-70296928D01*
X67641255Y-70312071D01*
X67493418Y-70356916D01*
X67357171Y-70429742D01*
X67237749Y-70527749D01*
X67139742Y-70647171D01*
X67066916Y-70783418D01*
X67022071Y-70931255D01*
X67006928Y-71085000D01*
X67006928Y-72835000D01*
X67022071Y-72988745D01*
X67061620Y-73119122D01*
X67027795Y-73169744D01*
X66949774Y-73358102D01*
X66910000Y-73558061D01*
X66910000Y-73761939D01*
X66949774Y-73961898D01*
X67027795Y-74150256D01*
X67141063Y-74319774D01*
X67185000Y-74363711D01*
X67185000Y-74615197D01*
X65896375Y-75903823D01*
X65881912Y-75897832D01*
X65566033Y-75835000D01*
X65243967Y-75835000D01*
X64928088Y-75897832D01*
X64630537Y-76021082D01*
X64362748Y-76200013D01*
X64135013Y-76427748D01*
X63956082Y-76695537D01*
X63832832Y-76993088D01*
X63770000Y-77308967D01*
X63770000Y-77631033D01*
X63832832Y-77946912D01*
X63956082Y-78244463D01*
X64135013Y-78512252D01*
X64362748Y-78739987D01*
X64630537Y-78918918D01*
X64928088Y-79042168D01*
X65243967Y-79105000D01*
X65566033Y-79105000D01*
X65881912Y-79042168D01*
X66179463Y-78918918D01*
X66447252Y-78739987D01*
X66674987Y-78512252D01*
X66853918Y-78244463D01*
X66977168Y-77946912D01*
X67040000Y-77631033D01*
X67040000Y-77308967D01*
X66977168Y-76993088D01*
X66971177Y-76978625D01*
X68456009Y-75493794D01*
X68485001Y-75470001D01*
X68508795Y-75441008D01*
X68508799Y-75441004D01*
X68579973Y-75354277D01*
X68579974Y-75354276D01*
X68650546Y-75222247D01*
X68694003Y-75078986D01*
X68705000Y-74967333D01*
X68705000Y-74967324D01*
X68708676Y-74930001D01*
X68705000Y-74892678D01*
X68705000Y-74363711D01*
X68748937Y-74319774D01*
X68862205Y-74150256D01*
X68940226Y-73961898D01*
X68980000Y-73761939D01*
X68980000Y-73614700D01*
X69065000Y-73623072D01*
X69365000Y-73623072D01*
X69518745Y-73607929D01*
X69666582Y-73563084D01*
X69802829Y-73490258D01*
X69850000Y-73451546D01*
X69897171Y-73490258D01*
X69993300Y-73541640D01*
X69946613Y-73566595D01*
X69812038Y-73677038D01*
X69701595Y-73811613D01*
X69619528Y-73965149D01*
X69568992Y-74131745D01*
X69551928Y-74304999D01*
X69551928Y-75555001D01*
X69568992Y-75728255D01*
X69619528Y-75894851D01*
X69701595Y-76048387D01*
X69812038Y-76182962D01*
X69946613Y-76293405D01*
X70080001Y-76364703D01*
X70080001Y-76517668D01*
X70076324Y-76555000D01*
X70080001Y-76592333D01*
X70089622Y-76690010D01*
X70090998Y-76703985D01*
X70134454Y-76847246D01*
X70205026Y-76979276D01*
X70259559Y-77045724D01*
X70300000Y-77095001D01*
X70328998Y-77118799D01*
X70720000Y-77509802D01*
X70720000Y-77571939D01*
X70759774Y-77771898D01*
X70837795Y-77960256D01*
X70951063Y-78129774D01*
X71095226Y-78273937D01*
X71264744Y-78387205D01*
X71453102Y-78465226D01*
X71641460Y-78502692D01*
X71576082Y-78600537D01*
X71452832Y-78898088D01*
X71390000Y-79213967D01*
X71390000Y-79536033D01*
X71452832Y-79851912D01*
X71489320Y-79940001D01*
X70219804Y-79940001D01*
X70146177Y-79866375D01*
X70152168Y-79851912D01*
X70215000Y-79536033D01*
X70215000Y-79213967D01*
X70152168Y-78898088D01*
X70028918Y-78600537D01*
X69849987Y-78332748D01*
X69622252Y-78105013D01*
X69354463Y-77926082D01*
X69056912Y-77802832D01*
X68741033Y-77740000D01*
X68418967Y-77740000D01*
X68103088Y-77802832D01*
X67805537Y-77926082D01*
X67537748Y-78105013D01*
X67310013Y-78332748D01*
X67131082Y-78600537D01*
X67007832Y-78898088D01*
X66945000Y-79213967D01*
X66945000Y-79536033D01*
X67007832Y-79851912D01*
X67131082Y-80149463D01*
X67310013Y-80417252D01*
X67537748Y-80644987D01*
X67805537Y-80823918D01*
X68103088Y-80947168D01*
X68418967Y-81010000D01*
X68741033Y-81010000D01*
X69056912Y-80947168D01*
X69071375Y-80941177D01*
X69341206Y-81211009D01*
X69365000Y-81240002D01*
X69383275Y-81255000D01*
X64675279Y-81255000D01*
X64278455Y-81216091D01*
X63927794Y-81110220D01*
X63604377Y-80938257D01*
X63320518Y-80706748D01*
X63087035Y-80424514D01*
X62912816Y-80102304D01*
X62804498Y-79752385D01*
X62763000Y-79357557D01*
X62763000Y-74490000D01*
X63531928Y-74490000D01*
X63544188Y-74614482D01*
X63580498Y-74734180D01*
X63639463Y-74844494D01*
X63718815Y-74941185D01*
X63815506Y-75020537D01*
X63925820Y-75079502D01*
X64045518Y-75115812D01*
X64170000Y-75128072D01*
X64484250Y-75125000D01*
X64643000Y-74966250D01*
X64643000Y-74167000D01*
X64897000Y-74167000D01*
X64897000Y-74966250D01*
X65055750Y-75125000D01*
X65370000Y-75128072D01*
X65494482Y-75115812D01*
X65614180Y-75079502D01*
X65724494Y-75020537D01*
X65821185Y-74941185D01*
X65900537Y-74844494D01*
X65959502Y-74734180D01*
X65995812Y-74614482D01*
X66008072Y-74490000D01*
X66005000Y-74325750D01*
X65846250Y-74167000D01*
X64897000Y-74167000D01*
X64643000Y-74167000D01*
X63693750Y-74167000D01*
X63535000Y-74325750D01*
X63531928Y-74490000D01*
X62763000Y-74490000D01*
X62763000Y-73590000D01*
X63531928Y-73590000D01*
X63535000Y-73754250D01*
X63693750Y-73913000D01*
X64643000Y-73913000D01*
X64643000Y-73113750D01*
X64897000Y-73113750D01*
X64897000Y-73913000D01*
X65846250Y-73913000D01*
X66005000Y-73754250D01*
X66008072Y-73590000D01*
X65995812Y-73465518D01*
X65959502Y-73345820D01*
X65900537Y-73235506D01*
X65821185Y-73138815D01*
X65724494Y-73059463D01*
X65614180Y-73000498D01*
X65494482Y-72964188D01*
X65370000Y-72951928D01*
X65055750Y-72955000D01*
X64897000Y-73113750D01*
X64643000Y-73113750D01*
X64484250Y-72955000D01*
X64170000Y-72951928D01*
X64045518Y-72964188D01*
X63925820Y-73000498D01*
X63815506Y-73059463D01*
X63718815Y-73138815D01*
X63639463Y-73235506D01*
X63580498Y-73345820D01*
X63544188Y-73465518D01*
X63531928Y-73590000D01*
X62763000Y-73590000D01*
X62763000Y-68459997D01*
X63231928Y-68459997D01*
X63231928Y-69285003D01*
X63248992Y-69458257D01*
X63299528Y-69624852D01*
X63381595Y-69778388D01*
X63492037Y-69912963D01*
X63602887Y-70003934D01*
X63580498Y-70045820D01*
X63544188Y-70165518D01*
X63531928Y-70290000D01*
X63531928Y-71190000D01*
X63544188Y-71314482D01*
X63580498Y-71434180D01*
X63639463Y-71544494D01*
X63718815Y-71641185D01*
X63815506Y-71720537D01*
X63925820Y-71779502D01*
X64045518Y-71815812D01*
X64170000Y-71828072D01*
X65370000Y-71828072D01*
X65494482Y-71815812D01*
X65614180Y-71779502D01*
X65724494Y-71720537D01*
X65821185Y-71641185D01*
X65900537Y-71544494D01*
X65959502Y-71434180D01*
X65995812Y-71314482D01*
X66008072Y-71190000D01*
X66008072Y-70290000D01*
X65995812Y-70165518D01*
X65959502Y-70045820D01*
X65937113Y-70003934D01*
X66047963Y-69912963D01*
X66158405Y-69778388D01*
X66240472Y-69624852D01*
X66291008Y-69458257D01*
X66308072Y-69285003D01*
X66308072Y-68459997D01*
X66291008Y-68286743D01*
X66240472Y-68120148D01*
X66158405Y-67966612D01*
X66047963Y-67832037D01*
X65913388Y-67721595D01*
X65759852Y-67639528D01*
X65593257Y-67588992D01*
X65420003Y-67571928D01*
X64119997Y-67571928D01*
X63946743Y-67588992D01*
X63780148Y-67639528D01*
X63626612Y-67721595D01*
X63492037Y-67832037D01*
X63381595Y-67966612D01*
X63299528Y-68120148D01*
X63248992Y-68286743D01*
X63231928Y-68459997D01*
X62763000Y-68459997D01*
X62763000Y-63119579D01*
X62865013Y-63272252D01*
%TA.AperFunction,Conductor*%
D20*
G36*
X62865013Y-63272252D02*
G01*
X63092748Y-63499987D01*
X63360537Y-63678918D01*
X63658088Y-63802168D01*
X63973967Y-63865000D01*
X64296033Y-63865000D01*
X64611912Y-63802168D01*
X64909463Y-63678918D01*
X65177252Y-63499987D01*
X65257239Y-63420000D01*
X67006928Y-63420000D01*
X67006928Y-63535000D01*
X67022071Y-63688745D01*
X67066916Y-63836582D01*
X67139742Y-63972829D01*
X67191306Y-64035660D01*
X66239467Y-64987500D01*
X66236384Y-64987500D01*
X66158405Y-64841612D01*
X66047963Y-64707037D01*
X65913388Y-64596595D01*
X65759852Y-64514528D01*
X65593257Y-64463992D01*
X65420003Y-64446928D01*
X64119997Y-64446928D01*
X63946743Y-64463992D01*
X63780148Y-64514528D01*
X63626612Y-64596595D01*
X63492037Y-64707037D01*
X63381595Y-64841612D01*
X63299528Y-64995148D01*
X63248992Y-65161743D01*
X63231928Y-65334997D01*
X63231928Y-66160003D01*
X63248992Y-66333257D01*
X63299528Y-66499852D01*
X63381595Y-66653388D01*
X63492037Y-66787963D01*
X63626612Y-66898405D01*
X63780148Y-66980472D01*
X63946743Y-67031008D01*
X64119997Y-67048072D01*
X65420003Y-67048072D01*
X65593257Y-67031008D01*
X65759852Y-66980472D01*
X65913388Y-66898405D01*
X66047963Y-66787963D01*
X66158405Y-66653388D01*
X66236384Y-66507500D01*
X66516946Y-66507500D01*
X66554268Y-66511176D01*
X66591590Y-66507500D01*
X66591601Y-66507500D01*
X66703254Y-66496503D01*
X66846515Y-66453046D01*
X66978544Y-66382474D01*
X67094269Y-66287501D01*
X67118072Y-66258497D01*
X69054529Y-64322041D01*
X69065000Y-64323072D01*
X69365000Y-64323072D01*
X69518745Y-64307929D01*
X69666582Y-64263084D01*
X69802829Y-64190258D01*
X69850000Y-64151546D01*
X69897171Y-64190258D01*
X70033418Y-64263084D01*
X70181255Y-64307929D01*
X70335000Y-64323072D01*
X70635000Y-64323072D01*
X70788745Y-64307929D01*
X70936582Y-64263084D01*
X70995001Y-64231858D01*
X70995001Y-64732670D01*
X70991324Y-64770002D01*
X70995001Y-64807335D01*
X71003998Y-64898676D01*
X71005998Y-64918987D01*
X71049454Y-65062248D01*
X71120026Y-65194278D01*
X71191200Y-65281003D01*
X71215000Y-65310003D01*
X71243996Y-65333799D01*
X71354998Y-65444801D01*
X71354998Y-65506939D01*
X71394772Y-65706898D01*
X71472793Y-65895256D01*
X71586061Y-66064774D01*
X71730224Y-66208937D01*
X71899742Y-66322205D01*
X72046584Y-66383029D01*
X71350761Y-67078853D01*
X71272847Y-67063355D01*
X71068969Y-67063355D01*
X70869010Y-67103129D01*
X70680652Y-67181150D01*
X70511134Y-67294418D01*
X70366971Y-67438581D01*
X70253703Y-67608099D01*
X70175682Y-67796457D01*
X70135908Y-67996416D01*
X70135908Y-68200294D01*
X70143080Y-68236352D01*
X69994744Y-68297795D01*
X69825226Y-68411063D01*
X69681063Y-68555226D01*
X69567795Y-68724744D01*
X69489774Y-68913102D01*
X69469095Y-69017064D01*
X69297408Y-68982914D01*
X69093530Y-68982914D01*
X68893571Y-69022688D01*
X68705213Y-69100709D01*
X68535695Y-69213977D01*
X68391532Y-69358140D01*
X68278264Y-69527658D01*
X68200243Y-69716016D01*
X68160469Y-69915975D01*
X68160469Y-70119853D01*
X68197703Y-70307044D01*
X68095000Y-70296928D01*
X67795000Y-70296928D01*
X67641255Y-70312071D01*
X67493418Y-70356916D01*
X67357171Y-70429742D01*
X67237749Y-70527749D01*
X67139742Y-70647171D01*
X67066916Y-70783418D01*
X67022071Y-70931255D01*
X67006928Y-71085000D01*
X67006928Y-72835000D01*
X67022071Y-72988745D01*
X67061620Y-73119122D01*
X67027795Y-73169744D01*
X66949774Y-73358102D01*
X66910000Y-73558061D01*
X66910000Y-73761939D01*
X66949774Y-73961898D01*
X67027795Y-74150256D01*
X67141063Y-74319774D01*
X67185000Y-74363711D01*
X67185000Y-74615197D01*
X65896375Y-75903823D01*
X65881912Y-75897832D01*
X65566033Y-75835000D01*
X65243967Y-75835000D01*
X64928088Y-75897832D01*
X64630537Y-76021082D01*
X64362748Y-76200013D01*
X64135013Y-76427748D01*
X63956082Y-76695537D01*
X63832832Y-76993088D01*
X63770000Y-77308967D01*
X63770000Y-77631033D01*
X63832832Y-77946912D01*
X63956082Y-78244463D01*
X64135013Y-78512252D01*
X64362748Y-78739987D01*
X64630537Y-78918918D01*
X64928088Y-79042168D01*
X65243967Y-79105000D01*
X65566033Y-79105000D01*
X65881912Y-79042168D01*
X66179463Y-78918918D01*
X66447252Y-78739987D01*
X66674987Y-78512252D01*
X66853918Y-78244463D01*
X66977168Y-77946912D01*
X67040000Y-77631033D01*
X67040000Y-77308967D01*
X66977168Y-76993088D01*
X66971177Y-76978625D01*
X68456009Y-75493794D01*
X68485001Y-75470001D01*
X68508795Y-75441008D01*
X68508799Y-75441004D01*
X68579973Y-75354277D01*
X68579974Y-75354276D01*
X68650546Y-75222247D01*
X68694003Y-75078986D01*
X68705000Y-74967333D01*
X68705000Y-74967324D01*
X68708676Y-74930001D01*
X68705000Y-74892678D01*
X68705000Y-74363711D01*
X68748937Y-74319774D01*
X68862205Y-74150256D01*
X68940226Y-73961898D01*
X68980000Y-73761939D01*
X68980000Y-73614700D01*
X69065000Y-73623072D01*
X69365000Y-73623072D01*
X69518745Y-73607929D01*
X69666582Y-73563084D01*
X69802829Y-73490258D01*
X69850000Y-73451546D01*
X69897171Y-73490258D01*
X69993300Y-73541640D01*
X69946613Y-73566595D01*
X69812038Y-73677038D01*
X69701595Y-73811613D01*
X69619528Y-73965149D01*
X69568992Y-74131745D01*
X69551928Y-74304999D01*
X69551928Y-75555001D01*
X69568992Y-75728255D01*
X69619528Y-75894851D01*
X69701595Y-76048387D01*
X69812038Y-76182962D01*
X69946613Y-76293405D01*
X70080001Y-76364703D01*
X70080001Y-76517668D01*
X70076324Y-76555000D01*
X70080001Y-76592333D01*
X70089622Y-76690010D01*
X70090998Y-76703985D01*
X70134454Y-76847246D01*
X70205026Y-76979276D01*
X70259559Y-77045724D01*
X70300000Y-77095001D01*
X70328998Y-77118799D01*
X70720000Y-77509802D01*
X70720000Y-77571939D01*
X70759774Y-77771898D01*
X70837795Y-77960256D01*
X70951063Y-78129774D01*
X71095226Y-78273937D01*
X71264744Y-78387205D01*
X71453102Y-78465226D01*
X71641460Y-78502692D01*
X71576082Y-78600537D01*
X71452832Y-78898088D01*
X71390000Y-79213967D01*
X71390000Y-79536033D01*
X71452832Y-79851912D01*
X71489320Y-79940001D01*
X70219804Y-79940001D01*
X70146177Y-79866375D01*
X70152168Y-79851912D01*
X70215000Y-79536033D01*
X70215000Y-79213967D01*
X70152168Y-78898088D01*
X70028918Y-78600537D01*
X69849987Y-78332748D01*
X69622252Y-78105013D01*
X69354463Y-77926082D01*
X69056912Y-77802832D01*
X68741033Y-77740000D01*
X68418967Y-77740000D01*
X68103088Y-77802832D01*
X67805537Y-77926082D01*
X67537748Y-78105013D01*
X67310013Y-78332748D01*
X67131082Y-78600537D01*
X67007832Y-78898088D01*
X66945000Y-79213967D01*
X66945000Y-79536033D01*
X67007832Y-79851912D01*
X67131082Y-80149463D01*
X67310013Y-80417252D01*
X67537748Y-80644987D01*
X67805537Y-80823918D01*
X68103088Y-80947168D01*
X68418967Y-81010000D01*
X68741033Y-81010000D01*
X69056912Y-80947168D01*
X69071375Y-80941177D01*
X69341206Y-81211009D01*
X69365000Y-81240002D01*
X69383275Y-81255000D01*
X64675279Y-81255000D01*
X64278455Y-81216091D01*
X63927794Y-81110220D01*
X63604377Y-80938257D01*
X63320518Y-80706748D01*
X63087035Y-80424514D01*
X62912816Y-80102304D01*
X62804498Y-79752385D01*
X62763000Y-79357557D01*
X62763000Y-74490000D01*
X63531928Y-74490000D01*
X63544188Y-74614482D01*
X63580498Y-74734180D01*
X63639463Y-74844494D01*
X63718815Y-74941185D01*
X63815506Y-75020537D01*
X63925820Y-75079502D01*
X64045518Y-75115812D01*
X64170000Y-75128072D01*
X64484250Y-75125000D01*
X64643000Y-74966250D01*
X64643000Y-74167000D01*
X64897000Y-74167000D01*
X64897000Y-74966250D01*
X65055750Y-75125000D01*
X65370000Y-75128072D01*
X65494482Y-75115812D01*
X65614180Y-75079502D01*
X65724494Y-75020537D01*
X65821185Y-74941185D01*
X65900537Y-74844494D01*
X65959502Y-74734180D01*
X65995812Y-74614482D01*
X66008072Y-74490000D01*
X66005000Y-74325750D01*
X65846250Y-74167000D01*
X64897000Y-74167000D01*
X64643000Y-74167000D01*
X63693750Y-74167000D01*
X63535000Y-74325750D01*
X63531928Y-74490000D01*
X62763000Y-74490000D01*
X62763000Y-73590000D01*
X63531928Y-73590000D01*
X63535000Y-73754250D01*
X63693750Y-73913000D01*
X64643000Y-73913000D01*
X64643000Y-73113750D01*
X64897000Y-73113750D01*
X64897000Y-73913000D01*
X65846250Y-73913000D01*
X66005000Y-73754250D01*
X66008072Y-73590000D01*
X65995812Y-73465518D01*
X65959502Y-73345820D01*
X65900537Y-73235506D01*
X65821185Y-73138815D01*
X65724494Y-73059463D01*
X65614180Y-73000498D01*
X65494482Y-72964188D01*
X65370000Y-72951928D01*
X65055750Y-72955000D01*
X64897000Y-73113750D01*
X64643000Y-73113750D01*
X64484250Y-72955000D01*
X64170000Y-72951928D01*
X64045518Y-72964188D01*
X63925820Y-73000498D01*
X63815506Y-73059463D01*
X63718815Y-73138815D01*
X63639463Y-73235506D01*
X63580498Y-73345820D01*
X63544188Y-73465518D01*
X63531928Y-73590000D01*
X62763000Y-73590000D01*
X62763000Y-68459997D01*
X63231928Y-68459997D01*
X63231928Y-69285003D01*
X63248992Y-69458257D01*
X63299528Y-69624852D01*
X63381595Y-69778388D01*
X63492037Y-69912963D01*
X63602887Y-70003934D01*
X63580498Y-70045820D01*
X63544188Y-70165518D01*
X63531928Y-70290000D01*
X63531928Y-71190000D01*
X63544188Y-71314482D01*
X63580498Y-71434180D01*
X63639463Y-71544494D01*
X63718815Y-71641185D01*
X63815506Y-71720537D01*
X63925820Y-71779502D01*
X64045518Y-71815812D01*
X64170000Y-71828072D01*
X65370000Y-71828072D01*
X65494482Y-71815812D01*
X65614180Y-71779502D01*
X65724494Y-71720537D01*
X65821185Y-71641185D01*
X65900537Y-71544494D01*
X65959502Y-71434180D01*
X65995812Y-71314482D01*
X66008072Y-71190000D01*
X66008072Y-70290000D01*
X65995812Y-70165518D01*
X65959502Y-70045820D01*
X65937113Y-70003934D01*
X66047963Y-69912963D01*
X66158405Y-69778388D01*
X66240472Y-69624852D01*
X66291008Y-69458257D01*
X66308072Y-69285003D01*
X66308072Y-68459997D01*
X66291008Y-68286743D01*
X66240472Y-68120148D01*
X66158405Y-67966612D01*
X66047963Y-67832037D01*
X65913388Y-67721595D01*
X65759852Y-67639528D01*
X65593257Y-67588992D01*
X65420003Y-67571928D01*
X64119997Y-67571928D01*
X63946743Y-67588992D01*
X63780148Y-67639528D01*
X63626612Y-67721595D01*
X63492037Y-67832037D01*
X63381595Y-67966612D01*
X63299528Y-68120148D01*
X63248992Y-68286743D01*
X63231928Y-68459997D01*
X62763000Y-68459997D01*
X62763000Y-63119579D01*
X62865013Y-63272252D01*
G37*
%TD.AperFunction*%
D19*
X83175828Y-72617076D02*
X83345346Y-72730344D01*
X83475602Y-72784298D01*
X83475601Y-74637601D01*
X82493192Y-75620011D01*
X82315000Y-75620011D01*
X82315000Y-75553071D01*
X82275226Y-75353112D01*
X82197205Y-75164754D01*
X82083937Y-74995236D01*
X81939774Y-74851073D01*
X81770256Y-74737805D01*
X81581898Y-74659784D01*
X81381939Y-74620010D01*
X81319802Y-74620010D01*
X80135000Y-73435209D01*
X80135000Y-73327976D01*
X80180258Y-73272829D01*
X80253084Y-73136582D01*
X80297929Y-72988745D01*
X80307162Y-72895000D01*
X80531767Y-72895000D01*
X80569090Y-72898676D01*
X80606413Y-72895000D01*
X80760680Y-72895000D01*
X80784463Y-72939494D01*
X80863815Y-73036185D01*
X80960506Y-73115537D01*
X81070820Y-73174502D01*
X81190518Y-73210812D01*
X81315000Y-73223072D01*
X82515000Y-73223072D01*
X82639482Y-73210812D01*
X82759180Y-73174502D01*
X82869494Y-73115537D01*
X82966185Y-73036185D01*
X83045537Y-72939494D01*
X83104502Y-72829180D01*
X83140812Y-72709482D01*
X83152236Y-72593484D01*
X83175828Y-72617076D01*
%TA.AperFunction,Conductor*%
D20*
G36*
X83175828Y-72617076D02*
G01*
X83345346Y-72730344D01*
X83475602Y-72784298D01*
X83475601Y-74637601D01*
X82493192Y-75620011D01*
X82315000Y-75620011D01*
X82315000Y-75553071D01*
X82275226Y-75353112D01*
X82197205Y-75164754D01*
X82083937Y-74995236D01*
X81939774Y-74851073D01*
X81770256Y-74737805D01*
X81581898Y-74659784D01*
X81381939Y-74620010D01*
X81319802Y-74620010D01*
X80135000Y-73435209D01*
X80135000Y-73327976D01*
X80180258Y-73272829D01*
X80253084Y-73136582D01*
X80297929Y-72988745D01*
X80307162Y-72895000D01*
X80531767Y-72895000D01*
X80569090Y-72898676D01*
X80606413Y-72895000D01*
X80760680Y-72895000D01*
X80784463Y-72939494D01*
X80863815Y-73036185D01*
X80960506Y-73115537D01*
X81070820Y-73174502D01*
X81190518Y-73210812D01*
X81315000Y-73223072D01*
X82515000Y-73223072D01*
X82639482Y-73210812D01*
X82759180Y-73174502D01*
X82869494Y-73115537D01*
X82966185Y-73036185D01*
X83045537Y-72939494D01*
X83104502Y-72829180D01*
X83140812Y-72709482D01*
X83152236Y-72593484D01*
X83175828Y-72617076D01*
G37*
%TD.AperFunction*%
D19*
X83822001Y-67413197D02*
X83476539Y-67758660D01*
X83414401Y-67758660D01*
X83214442Y-67798434D01*
X83026084Y-67876455D01*
X82954541Y-67924259D01*
X82869494Y-67854463D01*
X82759180Y-67795498D01*
X82639482Y-67759188D01*
X82515000Y-67746928D01*
X82200750Y-67750000D01*
X82042000Y-67908750D01*
X82042000Y-68708000D01*
X82062000Y-68708000D01*
X82062000Y-68962000D01*
X82042000Y-68962000D01*
X82042000Y-69761250D01*
X82200750Y-69920000D01*
X82505620Y-69922980D01*
X82473726Y-69940028D01*
X82358001Y-70035001D01*
X82334202Y-70064000D01*
X81948201Y-70450002D01*
X81420806Y-70450002D01*
X81286867Y-70316063D01*
X81117349Y-70202795D01*
X80971508Y-70142385D01*
X81063903Y-70049990D01*
X81092902Y-70026191D01*
X81131897Y-69978676D01*
X81187875Y-69910467D01*
X81188085Y-69910074D01*
X81190518Y-69910812D01*
X81315000Y-69923072D01*
X81629250Y-69920000D01*
X81788000Y-69761250D01*
X81788000Y-68962000D01*
X81768000Y-68962000D01*
X81768000Y-68708000D01*
X81788000Y-68708000D01*
X81788000Y-67908750D01*
X81629250Y-67750000D01*
X81315000Y-67746928D01*
X81312901Y-67747135D01*
X81312901Y-67633072D01*
X82565003Y-67633072D01*
X82738257Y-67616008D01*
X82904852Y-67565472D01*
X83058388Y-67483405D01*
X83192963Y-67372963D01*
X83303405Y-67238388D01*
X83385472Y-67084852D01*
X83436008Y-66918257D01*
X83450425Y-66771876D01*
X83822001Y-66400301D01*
X83822001Y-67413197D01*
%TA.AperFunction,Conductor*%
D20*
G36*
X83822001Y-67413197D02*
G01*
X83476539Y-67758660D01*
X83414401Y-67758660D01*
X83214442Y-67798434D01*
X83026084Y-67876455D01*
X82954541Y-67924259D01*
X82869494Y-67854463D01*
X82759180Y-67795498D01*
X82639482Y-67759188D01*
X82515000Y-67746928D01*
X82200750Y-67750000D01*
X82042000Y-67908750D01*
X82042000Y-68708000D01*
X82062000Y-68708000D01*
X82062000Y-68962000D01*
X82042000Y-68962000D01*
X82042000Y-69761250D01*
X82200750Y-69920000D01*
X82505620Y-69922980D01*
X82473726Y-69940028D01*
X82358001Y-70035001D01*
X82334202Y-70064000D01*
X81948201Y-70450002D01*
X81420806Y-70450002D01*
X81286867Y-70316063D01*
X81117349Y-70202795D01*
X80971508Y-70142385D01*
X81063903Y-70049990D01*
X81092902Y-70026191D01*
X81131897Y-69978676D01*
X81187875Y-69910467D01*
X81188085Y-69910074D01*
X81190518Y-69910812D01*
X81315000Y-69923072D01*
X81629250Y-69920000D01*
X81788000Y-69761250D01*
X81788000Y-68962000D01*
X81768000Y-68962000D01*
X81768000Y-68708000D01*
X81788000Y-68708000D01*
X81788000Y-67908750D01*
X81629250Y-67750000D01*
X81315000Y-67746928D01*
X81312901Y-67747135D01*
X81312901Y-67633072D01*
X82565003Y-67633072D01*
X82738257Y-67616008D01*
X82904852Y-67565472D01*
X83058388Y-67483405D01*
X83192963Y-67372963D01*
X83303405Y-67238388D01*
X83385472Y-67084852D01*
X83436008Y-66918257D01*
X83450425Y-66771876D01*
X83822001Y-66400301D01*
X83822001Y-67413197D01*
G37*
%TD.AperFunction*%
D19*
X73725226Y-57953937D02*
X73894744Y-58067205D01*
X74083102Y-58145226D01*
X74283061Y-58185000D01*
X74486939Y-58185000D01*
X74686898Y-58145226D01*
X74718228Y-58132249D01*
X74701202Y-58152995D01*
X74701201Y-58152996D01*
X74630026Y-58239722D01*
X74559454Y-58371752D01*
X74556649Y-58381000D01*
X74515998Y-58515012D01*
X74505001Y-58626665D01*
X74501324Y-58663998D01*
X74505001Y-58701330D01*
X74505000Y-61075750D01*
X74422000Y-61158750D01*
X74422000Y-62533000D01*
X74442000Y-62533000D01*
X74442000Y-62787000D01*
X74422000Y-62787000D01*
X74422000Y-62807000D01*
X74168000Y-62807000D01*
X74168000Y-62787000D01*
X73152000Y-62787000D01*
X73152000Y-64161250D01*
X73310750Y-64320000D01*
X73325000Y-64323072D01*
X73449482Y-64310812D01*
X73569180Y-64274502D01*
X73660000Y-64225957D01*
X73750820Y-64274502D01*
X73870518Y-64310812D01*
X73908381Y-64314541D01*
X73844774Y-64468102D01*
X73805000Y-64668061D01*
X73805000Y-64871939D01*
X73844774Y-65071898D01*
X73922795Y-65260256D01*
X74036063Y-65429774D01*
X74180226Y-65573937D01*
X74349744Y-65687205D01*
X74538102Y-65765226D01*
X74738061Y-65805000D01*
X74941939Y-65805000D01*
X75141898Y-65765226D01*
X75330256Y-65687205D01*
X75499774Y-65573937D01*
X75543711Y-65530000D01*
X75640890Y-65530000D01*
X75678212Y-65533676D01*
X75715534Y-65530000D01*
X75715545Y-65530000D01*
X75827198Y-65519003D01*
X75970459Y-65475546D01*
X76102488Y-65404974D01*
X76132931Y-65379990D01*
X79917018Y-65379990D01*
X79287022Y-66009987D01*
X76477938Y-66009987D01*
X76402107Y-65969454D01*
X76258846Y-65925997D01*
X76147193Y-65915000D01*
X76147182Y-65915000D01*
X76109860Y-65911324D01*
X76072538Y-65915000D01*
X73294011Y-65915000D01*
X73307203Y-65895256D01*
X73385224Y-65706898D01*
X73424998Y-65506939D01*
X73424998Y-65303061D01*
X73385224Y-65103102D01*
X73307203Y-64914744D01*
X73193935Y-64745226D01*
X73049772Y-64601063D01*
X72880254Y-64487795D01*
X72691896Y-64409774D01*
X72515000Y-64374587D01*
X72515000Y-64284870D01*
X72600518Y-64310812D01*
X72725000Y-64323072D01*
X72739250Y-64320000D01*
X72898000Y-64161250D01*
X72898000Y-62787000D01*
X72878000Y-62787000D01*
X72878000Y-62533000D01*
X72898000Y-62533000D01*
X72898000Y-61158750D01*
X73152000Y-61158750D01*
X73152000Y-62533000D01*
X74168000Y-62533000D01*
X74168000Y-61158750D01*
X74009250Y-61000000D01*
X73995000Y-60996928D01*
X73870518Y-61009188D01*
X73750820Y-61045498D01*
X73660000Y-61094043D01*
X73569180Y-61045498D01*
X73449482Y-61009188D01*
X73325000Y-60996928D01*
X73310750Y-61000000D01*
X73152000Y-61158750D01*
X72898000Y-61158750D01*
X72739250Y-61000000D01*
X72725000Y-60996928D01*
X72600518Y-61009188D01*
X72480820Y-61045498D01*
X72370506Y-61104463D01*
X72340936Y-61128730D01*
X72206582Y-61056916D01*
X72058745Y-61012071D01*
X71905000Y-60996928D01*
X71605000Y-60996928D01*
X71451255Y-61012071D01*
X71303418Y-61056916D01*
X71245000Y-61088141D01*
X71245000Y-60509909D01*
X71259463Y-60503918D01*
X71527252Y-60324987D01*
X71754987Y-60097252D01*
X71933918Y-59829463D01*
X72057168Y-59531912D01*
X72120000Y-59216033D01*
X72120000Y-58893967D01*
X72057168Y-58578088D01*
X71933918Y-58280537D01*
X71754987Y-58012748D01*
X71652239Y-57910000D01*
X73681289Y-57910000D01*
X73725226Y-57953937D01*
%TA.AperFunction,Conductor*%
D20*
G36*
X73725226Y-57953937D02*
G01*
X73894744Y-58067205D01*
X74083102Y-58145226D01*
X74283061Y-58185000D01*
X74486939Y-58185000D01*
X74686898Y-58145226D01*
X74718228Y-58132249D01*
X74701202Y-58152995D01*
X74701201Y-58152996D01*
X74630026Y-58239722D01*
X74559454Y-58371752D01*
X74556649Y-58381000D01*
X74515998Y-58515012D01*
X74505001Y-58626665D01*
X74501324Y-58663998D01*
X74505001Y-58701330D01*
X74505000Y-61075750D01*
X74422000Y-61158750D01*
X74422000Y-62533000D01*
X74442000Y-62533000D01*
X74442000Y-62787000D01*
X74422000Y-62787000D01*
X74422000Y-62807000D01*
X74168000Y-62807000D01*
X74168000Y-62787000D01*
X73152000Y-62787000D01*
X73152000Y-64161250D01*
X73310750Y-64320000D01*
X73325000Y-64323072D01*
X73449482Y-64310812D01*
X73569180Y-64274502D01*
X73660000Y-64225957D01*
X73750820Y-64274502D01*
X73870518Y-64310812D01*
X73908381Y-64314541D01*
X73844774Y-64468102D01*
X73805000Y-64668061D01*
X73805000Y-64871939D01*
X73844774Y-65071898D01*
X73922795Y-65260256D01*
X74036063Y-65429774D01*
X74180226Y-65573937D01*
X74349744Y-65687205D01*
X74538102Y-65765226D01*
X74738061Y-65805000D01*
X74941939Y-65805000D01*
X75141898Y-65765226D01*
X75330256Y-65687205D01*
X75499774Y-65573937D01*
X75543711Y-65530000D01*
X75640890Y-65530000D01*
X75678212Y-65533676D01*
X75715534Y-65530000D01*
X75715545Y-65530000D01*
X75827198Y-65519003D01*
X75970459Y-65475546D01*
X76102488Y-65404974D01*
X76132931Y-65379990D01*
X79917018Y-65379990D01*
X79287022Y-66009987D01*
X76477938Y-66009987D01*
X76402107Y-65969454D01*
X76258846Y-65925997D01*
X76147193Y-65915000D01*
X76147182Y-65915000D01*
X76109860Y-65911324D01*
X76072538Y-65915000D01*
X73294011Y-65915000D01*
X73307203Y-65895256D01*
X73385224Y-65706898D01*
X73424998Y-65506939D01*
X73424998Y-65303061D01*
X73385224Y-65103102D01*
X73307203Y-64914744D01*
X73193935Y-64745226D01*
X73049772Y-64601063D01*
X72880254Y-64487795D01*
X72691896Y-64409774D01*
X72515000Y-64374587D01*
X72515000Y-64284870D01*
X72600518Y-64310812D01*
X72725000Y-64323072D01*
X72739250Y-64320000D01*
X72898000Y-64161250D01*
X72898000Y-62787000D01*
X72878000Y-62787000D01*
X72878000Y-62533000D01*
X72898000Y-62533000D01*
X72898000Y-61158750D01*
X73152000Y-61158750D01*
X73152000Y-62533000D01*
X74168000Y-62533000D01*
X74168000Y-61158750D01*
X74009250Y-61000000D01*
X73995000Y-60996928D01*
X73870518Y-61009188D01*
X73750820Y-61045498D01*
X73660000Y-61094043D01*
X73569180Y-61045498D01*
X73449482Y-61009188D01*
X73325000Y-60996928D01*
X73310750Y-61000000D01*
X73152000Y-61158750D01*
X72898000Y-61158750D01*
X72739250Y-61000000D01*
X72725000Y-60996928D01*
X72600518Y-61009188D01*
X72480820Y-61045498D01*
X72370506Y-61104463D01*
X72340936Y-61128730D01*
X72206582Y-61056916D01*
X72058745Y-61012071D01*
X71905000Y-60996928D01*
X71605000Y-60996928D01*
X71451255Y-61012071D01*
X71303418Y-61056916D01*
X71245000Y-61088141D01*
X71245000Y-60509909D01*
X71259463Y-60503918D01*
X71527252Y-60324987D01*
X71754987Y-60097252D01*
X71933918Y-59829463D01*
X72057168Y-59531912D01*
X72120000Y-59216033D01*
X72120000Y-58893967D01*
X72057168Y-58578088D01*
X71933918Y-58280537D01*
X71754987Y-58012748D01*
X71652239Y-57910000D01*
X73681289Y-57910000D01*
X73725226Y-57953937D01*
G37*
%TD.AperFunction*%
%TD*%
M02*
