%TF.GenerationSoftware,KiCad,Pcbnew,5.1.10*%
%TF.CreationDate,2021-09-10T11:26:47+02:00*%
%TF.ProjectId,PeltierSwitchingMainBoard_control,50656c74-6965-4725-9377-69746368696e,rev?*%
%TF.SameCoordinates,Original*%
%TF.FileFunction,Legend,Bot*%
%TF.FilePolarity,Positive*%
%FSLAX46Y46*%
G04 Gerber Fmt 4.6, Leading zero omitted, Abs format (unit mm)*
G04 Created by KiCad (PCBNEW 5.1.10) date 2021-09-10 11:26:47*
%MOMM*%
%LPD*%
G01*
G04 APERTURE LIST*
%ADD10C,0.100000*%
%ADD11C,0.170000*%
G04 APERTURE END LIST*
D10*
X78922666Y-52199750D02*
X78222666Y-52287250D01*
X78222666Y-52453916D01*
X78256000Y-52549750D01*
X78322666Y-52608083D01*
X78389333Y-52633083D01*
X78522666Y-52649750D01*
X78622666Y-52637250D01*
X78756000Y-52587250D01*
X78822666Y-52545583D01*
X78889333Y-52470583D01*
X78922666Y-52366416D01*
X78922666Y-52199750D01*
X78889333Y-53170583D02*
X78922666Y-53099750D01*
X78922666Y-52966416D01*
X78889333Y-52903916D01*
X78822666Y-52878916D01*
X78556000Y-52912250D01*
X78489333Y-52953916D01*
X78456000Y-53024750D01*
X78456000Y-53158083D01*
X78489333Y-53220583D01*
X78556000Y-53245583D01*
X78622666Y-53237250D01*
X78689333Y-52895583D01*
X78889333Y-53470583D02*
X78922666Y-53533083D01*
X78922666Y-53666416D01*
X78889333Y-53737250D01*
X78822666Y-53778916D01*
X78789333Y-53783083D01*
X78722666Y-53758083D01*
X78689333Y-53695583D01*
X78689333Y-53595583D01*
X78656000Y-53533083D01*
X78589333Y-53508083D01*
X78556000Y-53512250D01*
X78489333Y-53553916D01*
X78456000Y-53624750D01*
X78456000Y-53724750D01*
X78489333Y-53787250D01*
X78922666Y-54066416D02*
X78456000Y-54124750D01*
X78222666Y-54153916D02*
X78256000Y-54116416D01*
X78289333Y-54145583D01*
X78256000Y-54183083D01*
X78222666Y-54153916D01*
X78289333Y-54145583D01*
X78456000Y-54758083D02*
X79022666Y-54687250D01*
X79089333Y-54645583D01*
X79122666Y-54608083D01*
X79156000Y-54537250D01*
X79156000Y-54437250D01*
X79122666Y-54374750D01*
X78889333Y-54703916D02*
X78922666Y-54633083D01*
X78922666Y-54499750D01*
X78889333Y-54437250D01*
X78856000Y-54408083D01*
X78789333Y-54383083D01*
X78589333Y-54408083D01*
X78522666Y-54449750D01*
X78489333Y-54487250D01*
X78456000Y-54558083D01*
X78456000Y-54691416D01*
X78489333Y-54753916D01*
X78456000Y-55091416D02*
X78922666Y-55033083D01*
X78522666Y-55083083D02*
X78489333Y-55120583D01*
X78456000Y-55191416D01*
X78456000Y-55291416D01*
X78489333Y-55353916D01*
X78556000Y-55378916D01*
X78922666Y-55333083D01*
X78889333Y-55937250D02*
X78922666Y-55866416D01*
X78922666Y-55733083D01*
X78889333Y-55670583D01*
X78822666Y-55645583D01*
X78556000Y-55678916D01*
X78489333Y-55720583D01*
X78456000Y-55791416D01*
X78456000Y-55924750D01*
X78489333Y-55987250D01*
X78556000Y-56012250D01*
X78622666Y-56003916D01*
X78689333Y-55662250D01*
X78922666Y-56566416D02*
X78222666Y-56653916D01*
X78889333Y-56570583D02*
X78922666Y-56499750D01*
X78922666Y-56366416D01*
X78889333Y-56303916D01*
X78856000Y-56274750D01*
X78789333Y-56249750D01*
X78589333Y-56274750D01*
X78522666Y-56316416D01*
X78489333Y-56353916D01*
X78456000Y-56424750D01*
X78456000Y-56558083D01*
X78489333Y-56620583D01*
X78922666Y-57433083D02*
X78222666Y-57520583D01*
X78489333Y-57487250D02*
X78456000Y-57558083D01*
X78456000Y-57691416D01*
X78489333Y-57753916D01*
X78522666Y-57783083D01*
X78589333Y-57808083D01*
X78789333Y-57783083D01*
X78856000Y-57741416D01*
X78889333Y-57703916D01*
X78922666Y-57633083D01*
X78922666Y-57499750D01*
X78889333Y-57437250D01*
X78456000Y-58058083D02*
X78922666Y-58166416D01*
X78456000Y-58391416D02*
X78922666Y-58166416D01*
X79089333Y-58078916D01*
X79122666Y-58041416D01*
X79156000Y-57970583D01*
X78556000Y-59412250D02*
X78589333Y-59508083D01*
X78622666Y-59537250D01*
X78689333Y-59562250D01*
X78789333Y-59549750D01*
X78856000Y-59508083D01*
X78889333Y-59470583D01*
X78922666Y-59399750D01*
X78922666Y-59133083D01*
X78222666Y-59220583D01*
X78222666Y-59453916D01*
X78256000Y-59516416D01*
X78289333Y-59545583D01*
X78356000Y-59570583D01*
X78422666Y-59562250D01*
X78489333Y-59520583D01*
X78522666Y-59483083D01*
X78556000Y-59412250D01*
X78556000Y-59178916D01*
X78889333Y-60103916D02*
X78922666Y-60033083D01*
X78922666Y-59899750D01*
X78889333Y-59837250D01*
X78822666Y-59812250D01*
X78556000Y-59845583D01*
X78489333Y-59887250D01*
X78456000Y-59958083D01*
X78456000Y-60091416D01*
X78489333Y-60153916D01*
X78556000Y-60178916D01*
X78622666Y-60170583D01*
X78689333Y-59828916D01*
X78456000Y-60491416D02*
X78922666Y-60433083D01*
X78522666Y-60483083D02*
X78489333Y-60520583D01*
X78456000Y-60591416D01*
X78456000Y-60691416D01*
X78489333Y-60753916D01*
X78556000Y-60778916D01*
X78922666Y-60733083D01*
X78922666Y-61166416D02*
X78889333Y-61103916D01*
X78856000Y-61074750D01*
X78789333Y-61049750D01*
X78589333Y-61074750D01*
X78522666Y-61116416D01*
X78489333Y-61153916D01*
X78456000Y-61224750D01*
X78456000Y-61324750D01*
X78489333Y-61387250D01*
X78522666Y-61416416D01*
X78589333Y-61441416D01*
X78789333Y-61416416D01*
X78856000Y-61374750D01*
X78889333Y-61337250D01*
X78922666Y-61266416D01*
X78922666Y-61166416D01*
X78922666Y-61699750D02*
X78456000Y-61758083D01*
X78222666Y-61787250D02*
X78256000Y-61749750D01*
X78289333Y-61778916D01*
X78256000Y-61816416D01*
X78222666Y-61787250D01*
X78289333Y-61778916D01*
X78456000Y-61991416D02*
X78456000Y-62258083D01*
X78222666Y-62120583D02*
X78822666Y-62045583D01*
X78889333Y-62070583D01*
X78922666Y-62133083D01*
X78922666Y-62199750D01*
X78222666Y-62953916D02*
X78222666Y-63353916D01*
X78922666Y-63066416D02*
X78222666Y-63153916D01*
X78922666Y-63799750D02*
X78556000Y-63845583D01*
X78489333Y-63820583D01*
X78456000Y-63758083D01*
X78456000Y-63624750D01*
X78489333Y-63553916D01*
X78889333Y-63803916D02*
X78922666Y-63733083D01*
X78922666Y-63566416D01*
X78889333Y-63503916D01*
X78822666Y-63478916D01*
X78756000Y-63487250D01*
X78689333Y-63528916D01*
X78656000Y-63599750D01*
X78656000Y-63766416D01*
X78622666Y-63837250D01*
X78922666Y-64133083D02*
X78456000Y-64191416D01*
X78589333Y-64174750D02*
X78522666Y-64216416D01*
X78489333Y-64253916D01*
X78456000Y-64324750D01*
X78456000Y-64391416D01*
X78922666Y-64566416D02*
X78456000Y-64624750D01*
X78589333Y-64608083D02*
X78522666Y-64649750D01*
X78489333Y-64687250D01*
X78456000Y-64758083D01*
X78456000Y-64824750D01*
X78922666Y-65299750D02*
X78556000Y-65345583D01*
X78489333Y-65320583D01*
X78456000Y-65258083D01*
X78456000Y-65124750D01*
X78489333Y-65053916D01*
X78889333Y-65303916D02*
X78922666Y-65233083D01*
X78922666Y-65066416D01*
X78889333Y-65003916D01*
X78822666Y-64978916D01*
X78756000Y-64987250D01*
X78689333Y-65028916D01*
X78656000Y-65099750D01*
X78656000Y-65266416D01*
X78622666Y-65337250D01*
X78922666Y-65933083D02*
X78222666Y-66020583D01*
X78889333Y-65937250D02*
X78922666Y-65866416D01*
X78922666Y-65733083D01*
X78889333Y-65670583D01*
X78856000Y-65641416D01*
X78789333Y-65616416D01*
X78589333Y-65641416D01*
X78522666Y-65683083D01*
X78489333Y-65720583D01*
X78456000Y-65791416D01*
X78456000Y-65924750D01*
X78489333Y-65987250D01*
X78889333Y-66537250D02*
X78922666Y-66466416D01*
X78922666Y-66333083D01*
X78889333Y-66270583D01*
X78822666Y-66245583D01*
X78556000Y-66278916D01*
X78489333Y-66320583D01*
X78456000Y-66391416D01*
X78456000Y-66524750D01*
X78489333Y-66587250D01*
X78556000Y-66612250D01*
X78622666Y-66603916D01*
X78689333Y-66262250D01*
X80339333Y-53849750D02*
X80306000Y-53820583D01*
X80206000Y-53766416D01*
X80139333Y-53741416D01*
X80039333Y-53720583D01*
X79872666Y-53708083D01*
X79739333Y-53724750D01*
X79572666Y-53778916D01*
X79472666Y-53824750D01*
X79406000Y-53866416D01*
X79306000Y-53945583D01*
X79272666Y-53983083D01*
X80072666Y-54449750D02*
X79706000Y-54495583D01*
X79639333Y-54470583D01*
X79606000Y-54408083D01*
X79606000Y-54274750D01*
X79639333Y-54203916D01*
X80039333Y-54453916D02*
X80072666Y-54383083D01*
X80072666Y-54216416D01*
X80039333Y-54153916D01*
X79972666Y-54128916D01*
X79906000Y-54137250D01*
X79839333Y-54178916D01*
X79806000Y-54249750D01*
X79806000Y-54416416D01*
X79772666Y-54487250D01*
X80072666Y-54883083D02*
X80039333Y-54820583D01*
X79972666Y-54795583D01*
X79372666Y-54870583D01*
X80072666Y-55149750D02*
X79606000Y-55208083D01*
X79372666Y-55237250D02*
X79406000Y-55199750D01*
X79439333Y-55228916D01*
X79406000Y-55266416D01*
X79372666Y-55237250D01*
X79439333Y-55228916D01*
X80072666Y-55783083D02*
X79706000Y-55828916D01*
X79639333Y-55803916D01*
X79606000Y-55741416D01*
X79606000Y-55608083D01*
X79639333Y-55537250D01*
X80039333Y-55787250D02*
X80072666Y-55716416D01*
X80072666Y-55549750D01*
X80039333Y-55487250D01*
X79972666Y-55462250D01*
X79906000Y-55470583D01*
X79839333Y-55512250D01*
X79806000Y-55583083D01*
X79806000Y-55749750D01*
X79772666Y-55820583D01*
X80039333Y-56087250D02*
X80072666Y-56149750D01*
X80072666Y-56283083D01*
X80039333Y-56353916D01*
X79972666Y-56395583D01*
X79939333Y-56399750D01*
X79872666Y-56374750D01*
X79839333Y-56312250D01*
X79839333Y-56212250D01*
X79806000Y-56149750D01*
X79739333Y-56124750D01*
X79706000Y-56128916D01*
X79639333Y-56170583D01*
X79606000Y-56241416D01*
X79606000Y-56341416D01*
X79639333Y-56403916D01*
X80072666Y-57216416D02*
X79372666Y-57303916D01*
X79639333Y-57270583D02*
X79606000Y-57341416D01*
X79606000Y-57474750D01*
X79639333Y-57537250D01*
X79672666Y-57566416D01*
X79739333Y-57591416D01*
X79939333Y-57566416D01*
X80006000Y-57524750D01*
X80039333Y-57487250D01*
X80072666Y-57416416D01*
X80072666Y-57283083D01*
X80039333Y-57220583D01*
X80039333Y-58120583D02*
X80072666Y-58049750D01*
X80072666Y-57916416D01*
X80039333Y-57853916D01*
X79972666Y-57828916D01*
X79706000Y-57862250D01*
X79639333Y-57903916D01*
X79606000Y-57974750D01*
X79606000Y-58108083D01*
X79639333Y-58170583D01*
X79706000Y-58195583D01*
X79772666Y-58187250D01*
X79839333Y-57845583D01*
X80072666Y-58449750D02*
X79372666Y-58537250D01*
X79639333Y-58503916D02*
X79606000Y-58574750D01*
X79606000Y-58708083D01*
X79639333Y-58770583D01*
X79672666Y-58799750D01*
X79739333Y-58824750D01*
X79939333Y-58799750D01*
X80006000Y-58758083D01*
X80039333Y-58720583D01*
X80072666Y-58649750D01*
X80072666Y-58516416D01*
X80039333Y-58453916D01*
X80039333Y-59353916D02*
X80072666Y-59283083D01*
X80072666Y-59149750D01*
X80039333Y-59087250D01*
X79972666Y-59062250D01*
X79706000Y-59095583D01*
X79639333Y-59137250D01*
X79606000Y-59208083D01*
X79606000Y-59341416D01*
X79639333Y-59403916D01*
X79706000Y-59428916D01*
X79772666Y-59420583D01*
X79839333Y-59078916D01*
X79606000Y-59741416D02*
X80072666Y-59683083D01*
X79672666Y-59733083D02*
X79639333Y-59770583D01*
X79606000Y-59841416D01*
X79606000Y-59941416D01*
X79639333Y-60003916D01*
X79706000Y-60028916D01*
X80072666Y-59983083D01*
X80072666Y-60416416D02*
X80039333Y-60353916D01*
X79972666Y-60328916D01*
X79372666Y-60403916D01*
X80039333Y-60953916D02*
X80072666Y-60883083D01*
X80072666Y-60749750D01*
X80039333Y-60687250D01*
X79972666Y-60662250D01*
X79706000Y-60695583D01*
X79639333Y-60737250D01*
X79606000Y-60808083D01*
X79606000Y-60941416D01*
X79639333Y-61003916D01*
X79706000Y-61028916D01*
X79772666Y-61020583D01*
X79839333Y-60678916D01*
X80072666Y-61283083D02*
X79372666Y-61370583D01*
X79639333Y-61337250D02*
X79606000Y-61408083D01*
X79606000Y-61541416D01*
X79639333Y-61603916D01*
X79672666Y-61633083D01*
X79739333Y-61658083D01*
X79939333Y-61633083D01*
X80006000Y-61591416D01*
X80039333Y-61553916D01*
X80072666Y-61483083D01*
X80072666Y-61349750D01*
X80039333Y-61287250D01*
X80072666Y-61916416D02*
X79606000Y-61974750D01*
X79739333Y-61958083D02*
X79672666Y-61999750D01*
X79639333Y-62037250D01*
X79606000Y-62108083D01*
X79606000Y-62174750D01*
X80072666Y-62349750D02*
X79606000Y-62408083D01*
X79372666Y-62437250D02*
X79406000Y-62399750D01*
X79439333Y-62428916D01*
X79406000Y-62466416D01*
X79372666Y-62437250D01*
X79439333Y-62428916D01*
X80039333Y-62987250D02*
X80072666Y-62916416D01*
X80072666Y-62783083D01*
X80039333Y-62720583D01*
X80006000Y-62691416D01*
X79939333Y-62666416D01*
X79739333Y-62691416D01*
X79672666Y-62733083D01*
X79639333Y-62770583D01*
X79606000Y-62841416D01*
X79606000Y-62974750D01*
X79639333Y-63037250D01*
X80072666Y-63383083D02*
X80039333Y-63320583D01*
X80006000Y-63291416D01*
X79939333Y-63266416D01*
X79739333Y-63291416D01*
X79672666Y-63333083D01*
X79639333Y-63370583D01*
X79606000Y-63441416D01*
X79606000Y-63541416D01*
X79639333Y-63603916D01*
X79672666Y-63633083D01*
X79739333Y-63658083D01*
X79939333Y-63633083D01*
X80006000Y-63591416D01*
X80039333Y-63553916D01*
X80072666Y-63483083D01*
X80072666Y-63383083D01*
X80072666Y-64016416D02*
X80039333Y-63953916D01*
X79972666Y-63928916D01*
X79372666Y-64003916D01*
X80072666Y-64383083D02*
X80039333Y-64320583D01*
X80006000Y-64291416D01*
X79939333Y-64266416D01*
X79739333Y-64291416D01*
X79672666Y-64333083D01*
X79639333Y-64370583D01*
X79606000Y-64441416D01*
X79606000Y-64541416D01*
X79639333Y-64603916D01*
X79672666Y-64633083D01*
X79739333Y-64658083D01*
X79939333Y-64633083D01*
X80006000Y-64591416D01*
X80039333Y-64553916D01*
X80072666Y-64483083D01*
X80072666Y-64383083D01*
X80339333Y-64816416D02*
X80306000Y-64853916D01*
X80206000Y-64933083D01*
X80139333Y-64974750D01*
X80039333Y-65020583D01*
X79872666Y-65074750D01*
X79739333Y-65091416D01*
X79572666Y-65078916D01*
X79472666Y-65058083D01*
X79406000Y-65033083D01*
X79306000Y-64978916D01*
X79272666Y-64949750D01*
X81222666Y-50216416D02*
X80522666Y-50303916D01*
X81222666Y-50516416D02*
X80856000Y-50562250D01*
X80789333Y-50537250D01*
X80756000Y-50474750D01*
X80756000Y-50374750D01*
X80789333Y-50303916D01*
X80822666Y-50266416D01*
X80756000Y-50808083D02*
X80756000Y-51074750D01*
X80522666Y-50937250D02*
X81122666Y-50862250D01*
X81189333Y-50887250D01*
X81222666Y-50949750D01*
X81222666Y-51016416D01*
X80756000Y-51208083D02*
X80756000Y-51474750D01*
X80522666Y-51337250D02*
X81122666Y-51262250D01*
X81189333Y-51287250D01*
X81222666Y-51349750D01*
X81222666Y-51416416D01*
X80756000Y-51708083D02*
X81456000Y-51620583D01*
X80789333Y-51703916D02*
X80756000Y-51774750D01*
X80756000Y-51908083D01*
X80789333Y-51970583D01*
X80822666Y-51999750D01*
X80889333Y-52024750D01*
X81089333Y-51999750D01*
X81156000Y-51958083D01*
X81189333Y-51920583D01*
X81222666Y-51849750D01*
X81222666Y-51716416D01*
X81189333Y-51653916D01*
X81189333Y-52253916D02*
X81222666Y-52316416D01*
X81222666Y-52449750D01*
X81189333Y-52520583D01*
X81122666Y-52562250D01*
X81089333Y-52566416D01*
X81022666Y-52541416D01*
X80989333Y-52478916D01*
X80989333Y-52378916D01*
X80956000Y-52316416D01*
X80889333Y-52291416D01*
X80856000Y-52295583D01*
X80789333Y-52337250D01*
X80756000Y-52408083D01*
X80756000Y-52508083D01*
X80789333Y-52570583D01*
X81156000Y-52858083D02*
X81189333Y-52887250D01*
X81222666Y-52849750D01*
X81189333Y-52820583D01*
X81156000Y-52858083D01*
X81222666Y-52849750D01*
X80789333Y-52903916D02*
X80822666Y-52933083D01*
X80856000Y-52895583D01*
X80822666Y-52866416D01*
X80789333Y-52903916D01*
X80856000Y-52895583D01*
X80489333Y-53774750D02*
X81389333Y-53062250D01*
X80489333Y-54508083D02*
X81389333Y-53795583D01*
X80756000Y-55008083D02*
X81322666Y-54937250D01*
X81389333Y-54895583D01*
X81422666Y-54858083D01*
X81456000Y-54787250D01*
X81456000Y-54687250D01*
X81422666Y-54624750D01*
X81189333Y-54953916D02*
X81222666Y-54883083D01*
X81222666Y-54749750D01*
X81189333Y-54687250D01*
X81156000Y-54658083D01*
X81089333Y-54633083D01*
X80889333Y-54658083D01*
X80822666Y-54699750D01*
X80789333Y-54737250D01*
X80756000Y-54808083D01*
X80756000Y-54941416D01*
X80789333Y-55003916D01*
X81222666Y-55283083D02*
X80756000Y-55341416D01*
X80522666Y-55370583D02*
X80556000Y-55333083D01*
X80589333Y-55362250D01*
X80556000Y-55399750D01*
X80522666Y-55370583D01*
X80589333Y-55362250D01*
X80756000Y-55574750D02*
X80756000Y-55841416D01*
X80522666Y-55703916D02*
X81122666Y-55628916D01*
X81189333Y-55653916D01*
X81222666Y-55716416D01*
X81222666Y-55783083D01*
X81222666Y-56016416D02*
X80522666Y-56103916D01*
X81222666Y-56316416D02*
X80856000Y-56362250D01*
X80789333Y-56337250D01*
X80756000Y-56274750D01*
X80756000Y-56174750D01*
X80789333Y-56103916D01*
X80822666Y-56066416D01*
X80756000Y-57008083D02*
X81222666Y-56949750D01*
X80756000Y-56708083D02*
X81122666Y-56662250D01*
X81189333Y-56687250D01*
X81222666Y-56749750D01*
X81222666Y-56849750D01*
X81189333Y-56920583D01*
X81156000Y-56958083D01*
X81222666Y-57283083D02*
X80522666Y-57370583D01*
X80789333Y-57337250D02*
X80756000Y-57408083D01*
X80756000Y-57541416D01*
X80789333Y-57603916D01*
X80822666Y-57633083D01*
X80889333Y-57658083D01*
X81089333Y-57633083D01*
X81156000Y-57591416D01*
X81189333Y-57553916D01*
X81222666Y-57483083D01*
X81222666Y-57349750D01*
X81189333Y-57287250D01*
X81156000Y-57924750D02*
X81189333Y-57953916D01*
X81222666Y-57916416D01*
X81189333Y-57887250D01*
X81156000Y-57924750D01*
X81222666Y-57916416D01*
X81189333Y-58553916D02*
X81222666Y-58483083D01*
X81222666Y-58349750D01*
X81189333Y-58287250D01*
X81156000Y-58258083D01*
X81089333Y-58233083D01*
X80889333Y-58258083D01*
X80822666Y-58299750D01*
X80789333Y-58337250D01*
X80756000Y-58408083D01*
X80756000Y-58541416D01*
X80789333Y-58603916D01*
X81222666Y-58949750D02*
X81189333Y-58887250D01*
X81156000Y-58858083D01*
X81089333Y-58833083D01*
X80889333Y-58858083D01*
X80822666Y-58899750D01*
X80789333Y-58937250D01*
X80756000Y-59008083D01*
X80756000Y-59108083D01*
X80789333Y-59170583D01*
X80822666Y-59199750D01*
X80889333Y-59224750D01*
X81089333Y-59199750D01*
X81156000Y-59158083D01*
X81189333Y-59120583D01*
X81222666Y-59049750D01*
X81222666Y-58949750D01*
X81222666Y-59483083D02*
X80756000Y-59541416D01*
X80822666Y-59533083D02*
X80789333Y-59570583D01*
X80756000Y-59641416D01*
X80756000Y-59741416D01*
X80789333Y-59803916D01*
X80856000Y-59828916D01*
X81222666Y-59783083D01*
X80856000Y-59828916D02*
X80789333Y-59870583D01*
X80756000Y-59941416D01*
X80756000Y-60041416D01*
X80789333Y-60103916D01*
X80856000Y-60128916D01*
X81222666Y-60083083D01*
X80489333Y-61008083D02*
X81389333Y-60295583D01*
X81222666Y-61149750D02*
X80522666Y-61237250D01*
X80789333Y-61203916D02*
X80756000Y-61274750D01*
X80756000Y-61408083D01*
X80789333Y-61470583D01*
X80822666Y-61499750D01*
X80889333Y-61524750D01*
X81089333Y-61499750D01*
X81156000Y-61458083D01*
X81189333Y-61420583D01*
X81222666Y-61349750D01*
X81222666Y-61216416D01*
X81189333Y-61153916D01*
X81189333Y-62053916D02*
X81222666Y-61983083D01*
X81222666Y-61849750D01*
X81189333Y-61787250D01*
X81122666Y-61762250D01*
X80856000Y-61795583D01*
X80789333Y-61837250D01*
X80756000Y-61908083D01*
X80756000Y-62041416D01*
X80789333Y-62103916D01*
X80856000Y-62128916D01*
X80922666Y-62120583D01*
X80989333Y-61778916D01*
X81222666Y-62383083D02*
X80522666Y-62470583D01*
X80789333Y-62437250D02*
X80756000Y-62508083D01*
X80756000Y-62641416D01*
X80789333Y-62703916D01*
X80822666Y-62733083D01*
X80889333Y-62758083D01*
X81089333Y-62733083D01*
X81156000Y-62691416D01*
X81189333Y-62653916D01*
X81222666Y-62583083D01*
X81222666Y-62449750D01*
X81189333Y-62387250D01*
X81189333Y-63287250D02*
X81222666Y-63216416D01*
X81222666Y-63083083D01*
X81189333Y-63020583D01*
X81122666Y-62995583D01*
X80856000Y-63028916D01*
X80789333Y-63070583D01*
X80756000Y-63141416D01*
X80756000Y-63274750D01*
X80789333Y-63337250D01*
X80856000Y-63362250D01*
X80922666Y-63353916D01*
X80989333Y-63012250D01*
X80756000Y-63674750D02*
X81222666Y-63616416D01*
X80822666Y-63666416D02*
X80789333Y-63703916D01*
X80756000Y-63774750D01*
X80756000Y-63874750D01*
X80789333Y-63937250D01*
X80856000Y-63962250D01*
X81222666Y-63916416D01*
X81222666Y-64349750D02*
X81189333Y-64287250D01*
X81122666Y-64262250D01*
X80522666Y-64337250D01*
X81189333Y-64887250D02*
X81222666Y-64816416D01*
X81222666Y-64683083D01*
X81189333Y-64620583D01*
X81122666Y-64595583D01*
X80856000Y-64628916D01*
X80789333Y-64670583D01*
X80756000Y-64741416D01*
X80756000Y-64874750D01*
X80789333Y-64937250D01*
X80856000Y-64962250D01*
X80922666Y-64953916D01*
X80989333Y-64612250D01*
X81222666Y-65216416D02*
X80522666Y-65303916D01*
X80789333Y-65270583D02*
X80756000Y-65341416D01*
X80756000Y-65474750D01*
X80789333Y-65537250D01*
X80822666Y-65566416D01*
X80889333Y-65591416D01*
X81089333Y-65566416D01*
X81156000Y-65524750D01*
X81189333Y-65487250D01*
X81222666Y-65416416D01*
X81222666Y-65283083D01*
X81189333Y-65220583D01*
X81222666Y-65849750D02*
X80756000Y-65908083D01*
X80889333Y-65891416D02*
X80822666Y-65933083D01*
X80789333Y-65970583D01*
X80756000Y-66041416D01*
X80756000Y-66108083D01*
X81222666Y-66283083D02*
X80756000Y-66341416D01*
X80522666Y-66370583D02*
X80556000Y-66333083D01*
X80589333Y-66362250D01*
X80556000Y-66399750D01*
X80522666Y-66370583D01*
X80589333Y-66362250D01*
X81189333Y-66920583D02*
X81222666Y-66849750D01*
X81222666Y-66716416D01*
X81189333Y-66653916D01*
X81156000Y-66624750D01*
X81089333Y-66599750D01*
X80889333Y-66624750D01*
X80822666Y-66666416D01*
X80789333Y-66703916D01*
X80756000Y-66774750D01*
X80756000Y-66908083D01*
X80789333Y-66970583D01*
X81222666Y-67316416D02*
X81189333Y-67253916D01*
X81156000Y-67224750D01*
X81089333Y-67199750D01*
X80889333Y-67224750D01*
X80822666Y-67266416D01*
X80789333Y-67303916D01*
X80756000Y-67374750D01*
X80756000Y-67474750D01*
X80789333Y-67537250D01*
X80822666Y-67566416D01*
X80889333Y-67591416D01*
X81089333Y-67566416D01*
X81156000Y-67524750D01*
X81189333Y-67487250D01*
X81222666Y-67416416D01*
X81222666Y-67316416D01*
X81222666Y-67949750D02*
X81189333Y-67887250D01*
X81122666Y-67862250D01*
X80522666Y-67937250D01*
X81222666Y-68316416D02*
X81189333Y-68253916D01*
X81156000Y-68224750D01*
X81089333Y-68199750D01*
X80889333Y-68224750D01*
X80822666Y-68266416D01*
X80789333Y-68303916D01*
X80756000Y-68374750D01*
X80756000Y-68474750D01*
X80789333Y-68537250D01*
X80822666Y-68566416D01*
X80889333Y-68591416D01*
X81089333Y-68566416D01*
X81156000Y-68524750D01*
X81189333Y-68487250D01*
X81222666Y-68416416D01*
X81222666Y-68316416D01*
D11*
X69541285Y-45756571D02*
X69598428Y-45928000D01*
X69655571Y-45985142D01*
X69769857Y-46042285D01*
X69941285Y-46042285D01*
X70055571Y-45985142D01*
X70112714Y-45928000D01*
X70169857Y-45813714D01*
X70169857Y-45356571D01*
X68969857Y-45356571D01*
X68969857Y-45756571D01*
X69027000Y-45870857D01*
X69084142Y-45928000D01*
X69198428Y-45985142D01*
X69312714Y-45985142D01*
X69427000Y-45928000D01*
X69484142Y-45870857D01*
X69541285Y-45756571D01*
X69541285Y-45356571D01*
X70112714Y-47013714D02*
X70169857Y-46899428D01*
X70169857Y-46670857D01*
X70112714Y-46556571D01*
X69998428Y-46499428D01*
X69541285Y-46499428D01*
X69427000Y-46556571D01*
X69369857Y-46670857D01*
X69369857Y-46899428D01*
X69427000Y-47013714D01*
X69541285Y-47070857D01*
X69655571Y-47070857D01*
X69769857Y-46499428D01*
X70112714Y-48042285D02*
X70169857Y-47928000D01*
X70169857Y-47699428D01*
X70112714Y-47585142D01*
X69998428Y-47528000D01*
X69541285Y-47528000D01*
X69427000Y-47585142D01*
X69369857Y-47699428D01*
X69369857Y-47928000D01*
X69427000Y-48042285D01*
X69541285Y-48099428D01*
X69655571Y-48099428D01*
X69769857Y-47528000D01*
X70169857Y-48613714D02*
X69369857Y-48613714D01*
X69598428Y-48613714D02*
X69484142Y-48670857D01*
X69427000Y-48728000D01*
X69369857Y-48842285D01*
X69369857Y-48956571D01*
X68969857Y-50099428D02*
X68969857Y-50785142D01*
X70169857Y-50442285D02*
X68969857Y-50442285D01*
X70169857Y-51185142D02*
X68969857Y-51185142D01*
X70169857Y-51699428D02*
X69541285Y-51699428D01*
X69427000Y-51642285D01*
X69369857Y-51528000D01*
X69369857Y-51356571D01*
X69427000Y-51242285D01*
X69484142Y-51185142D01*
X70112714Y-52728000D02*
X70169857Y-52613714D01*
X70169857Y-52385142D01*
X70112714Y-52270857D01*
X69998428Y-52213714D01*
X69541285Y-52213714D01*
X69427000Y-52270857D01*
X69369857Y-52385142D01*
X69369857Y-52613714D01*
X69427000Y-52728000D01*
X69541285Y-52785142D01*
X69655571Y-52785142D01*
X69769857Y-52213714D01*
X70169857Y-53299428D02*
X69369857Y-53299428D01*
X69598428Y-53299428D02*
X69484142Y-53356571D01*
X69427000Y-53413714D01*
X69369857Y-53528000D01*
X69369857Y-53642285D01*
X70169857Y-54042285D02*
X69369857Y-54042285D01*
X69484142Y-54042285D02*
X69427000Y-54099428D01*
X69369857Y-54213714D01*
X69369857Y-54385142D01*
X69427000Y-54499428D01*
X69541285Y-54556571D01*
X70169857Y-54556571D01*
X69541285Y-54556571D02*
X69427000Y-54613714D01*
X69369857Y-54728000D01*
X69369857Y-54899428D01*
X69427000Y-55013714D01*
X69541285Y-55070857D01*
X70169857Y-55070857D01*
X70169857Y-55813714D02*
X70112714Y-55699428D01*
X70055571Y-55642285D01*
X69941285Y-55585142D01*
X69598428Y-55585142D01*
X69484142Y-55642285D01*
X69427000Y-55699428D01*
X69369857Y-55813714D01*
X69369857Y-55985142D01*
X69427000Y-56099428D01*
X69484142Y-56156571D01*
X69598428Y-56213714D01*
X69941285Y-56213714D01*
X70055571Y-56156571D01*
X70112714Y-56099428D01*
X70169857Y-55985142D01*
X70169857Y-55813714D01*
X70169857Y-56728000D02*
X69369857Y-56728000D01*
X69598428Y-56728000D02*
X69484142Y-56785142D01*
X69427000Y-56842285D01*
X69369857Y-56956571D01*
X69369857Y-57070857D01*
X70112714Y-57928000D02*
X70169857Y-57813714D01*
X70169857Y-57585142D01*
X70112714Y-57470857D01*
X69998428Y-57413714D01*
X69541285Y-57413714D01*
X69427000Y-57470857D01*
X69369857Y-57585142D01*
X69369857Y-57813714D01*
X69427000Y-57928000D01*
X69541285Y-57985142D01*
X69655571Y-57985142D01*
X69769857Y-57413714D01*
X69369857Y-59013714D02*
X70341285Y-59013714D01*
X70455571Y-58956571D01*
X70512714Y-58899428D01*
X70569857Y-58785142D01*
X70569857Y-58613714D01*
X70512714Y-58499428D01*
X70112714Y-59013714D02*
X70169857Y-58899428D01*
X70169857Y-58670857D01*
X70112714Y-58556571D01*
X70055571Y-58499428D01*
X69941285Y-58442285D01*
X69598428Y-58442285D01*
X69484142Y-58499428D01*
X69427000Y-58556571D01*
X69369857Y-58670857D01*
X69369857Y-58899428D01*
X69427000Y-59013714D01*
X69369857Y-60099428D02*
X70169857Y-60099428D01*
X69369857Y-59585142D02*
X69998428Y-59585142D01*
X70112714Y-59642285D01*
X70169857Y-59756571D01*
X70169857Y-59928000D01*
X70112714Y-60042285D01*
X70055571Y-60099428D01*
X70169857Y-60842285D02*
X70112714Y-60728000D01*
X69998428Y-60670857D01*
X68969857Y-60670857D01*
X70169857Y-61813714D02*
X69541285Y-61813714D01*
X69427000Y-61756571D01*
X69369857Y-61642285D01*
X69369857Y-61413714D01*
X69427000Y-61299428D01*
X70112714Y-61813714D02*
X70169857Y-61699428D01*
X70169857Y-61413714D01*
X70112714Y-61299428D01*
X69998428Y-61242285D01*
X69884142Y-61242285D01*
X69769857Y-61299428D01*
X69712714Y-61413714D01*
X69712714Y-61699428D01*
X69655571Y-61813714D01*
X69369857Y-62213714D02*
X69369857Y-62670857D01*
X68969857Y-62385142D02*
X69998428Y-62385142D01*
X70112714Y-62442285D01*
X70169857Y-62556571D01*
X70169857Y-62670857D01*
X70169857Y-63070857D02*
X69369857Y-63070857D01*
X68969857Y-63070857D02*
X69027000Y-63013714D01*
X69084142Y-63070857D01*
X69027000Y-63128000D01*
X68969857Y-63070857D01*
X69084142Y-63070857D01*
X70169857Y-63813714D02*
X70112714Y-63699428D01*
X70055571Y-63642285D01*
X69941285Y-63585142D01*
X69598428Y-63585142D01*
X69484142Y-63642285D01*
X69427000Y-63699428D01*
X69369857Y-63813714D01*
X69369857Y-63985142D01*
X69427000Y-64099428D01*
X69484142Y-64156571D01*
X69598428Y-64213714D01*
X69941285Y-64213714D01*
X70055571Y-64156571D01*
X70112714Y-64099428D01*
X70169857Y-63985142D01*
X70169857Y-63813714D01*
X69369857Y-64728000D02*
X70169857Y-64728000D01*
X69484142Y-64728000D02*
X69427000Y-64785142D01*
X69369857Y-64899428D01*
X69369857Y-65070857D01*
X69427000Y-65185142D01*
X69541285Y-65242285D01*
X70169857Y-65242285D01*
X70112714Y-66670857D02*
X70169857Y-66842285D01*
X70169857Y-67128000D01*
X70112714Y-67242285D01*
X70055571Y-67299428D01*
X69941285Y-67356571D01*
X69827000Y-67356571D01*
X69712714Y-67299428D01*
X69655571Y-67242285D01*
X69598428Y-67128000D01*
X69541285Y-66899428D01*
X69484142Y-66785142D01*
X69427000Y-66728000D01*
X69312714Y-66670857D01*
X69198428Y-66670857D01*
X69084142Y-66728000D01*
X69027000Y-66785142D01*
X68969857Y-66899428D01*
X68969857Y-67185142D01*
X69027000Y-67356571D01*
X69369857Y-67756571D02*
X70169857Y-68042285D01*
X69369857Y-68328000D02*
X70169857Y-68042285D01*
X70455571Y-67928000D01*
X70512714Y-67870857D01*
X70569857Y-67756571D01*
X70112714Y-68728000D02*
X70169857Y-68842285D01*
X70169857Y-69070857D01*
X70112714Y-69185142D01*
X69998428Y-69242285D01*
X69941285Y-69242285D01*
X69827000Y-69185142D01*
X69769857Y-69070857D01*
X69769857Y-68899428D01*
X69712714Y-68785142D01*
X69598428Y-68728000D01*
X69541285Y-68728000D01*
X69427000Y-68785142D01*
X69369857Y-68899428D01*
X69369857Y-69070857D01*
X69427000Y-69185142D01*
X69369857Y-69585142D02*
X69369857Y-70042285D01*
X68969857Y-69756571D02*
X69998428Y-69756571D01*
X70112714Y-69813714D01*
X70169857Y-69928000D01*
X70169857Y-70042285D01*
X70112714Y-70899428D02*
X70169857Y-70785142D01*
X70169857Y-70556571D01*
X70112714Y-70442285D01*
X69998428Y-70385142D01*
X69541285Y-70385142D01*
X69427000Y-70442285D01*
X69369857Y-70556571D01*
X69369857Y-70785142D01*
X69427000Y-70899428D01*
X69541285Y-70956571D01*
X69655571Y-70956571D01*
X69769857Y-70385142D01*
X70169857Y-71470857D02*
X69369857Y-71470857D01*
X69484142Y-71470857D02*
X69427000Y-71528000D01*
X69369857Y-71642285D01*
X69369857Y-71813714D01*
X69427000Y-71928000D01*
X69541285Y-71985142D01*
X70169857Y-71985142D01*
X69541285Y-71985142D02*
X69427000Y-72042285D01*
X69369857Y-72156571D01*
X69369857Y-72328000D01*
X69427000Y-72442285D01*
X69541285Y-72499428D01*
X70169857Y-72499428D01*
X72139857Y-48070857D02*
X71339857Y-48070857D01*
X71454142Y-48070857D02*
X71397000Y-48128000D01*
X71339857Y-48242285D01*
X71339857Y-48413714D01*
X71397000Y-48528000D01*
X71511285Y-48585142D01*
X72139857Y-48585142D01*
X71511285Y-48585142D02*
X71397000Y-48642285D01*
X71339857Y-48756571D01*
X71339857Y-48928000D01*
X71397000Y-49042285D01*
X71511285Y-49099428D01*
X72139857Y-49099428D01*
X72139857Y-50185142D02*
X71511285Y-50185142D01*
X71397000Y-50128000D01*
X71339857Y-50013714D01*
X71339857Y-49785142D01*
X71397000Y-49670857D01*
X72082714Y-50185142D02*
X72139857Y-50070857D01*
X72139857Y-49785142D01*
X72082714Y-49670857D01*
X71968428Y-49613714D01*
X71854142Y-49613714D01*
X71739857Y-49670857D01*
X71682714Y-49785142D01*
X71682714Y-50070857D01*
X71625571Y-50185142D01*
X72139857Y-50756571D02*
X71339857Y-50756571D01*
X70939857Y-50756571D02*
X70997000Y-50699428D01*
X71054142Y-50756571D01*
X70997000Y-50813714D01*
X70939857Y-50756571D01*
X71054142Y-50756571D01*
X71339857Y-51328000D02*
X72139857Y-51328000D01*
X71454142Y-51328000D02*
X71397000Y-51385142D01*
X71339857Y-51499428D01*
X71339857Y-51670857D01*
X71397000Y-51785142D01*
X71511285Y-51842285D01*
X72139857Y-51842285D01*
X72139857Y-53328000D02*
X70939857Y-53328000D01*
X71397000Y-53328000D02*
X71339857Y-53442285D01*
X71339857Y-53670857D01*
X71397000Y-53785142D01*
X71454142Y-53842285D01*
X71568428Y-53899428D01*
X71911285Y-53899428D01*
X72025571Y-53842285D01*
X72082714Y-53785142D01*
X72139857Y-53670857D01*
X72139857Y-53442285D01*
X72082714Y-53328000D01*
X72139857Y-54585142D02*
X72082714Y-54470857D01*
X72025571Y-54413714D01*
X71911285Y-54356571D01*
X71568428Y-54356571D01*
X71454142Y-54413714D01*
X71397000Y-54470857D01*
X71339857Y-54585142D01*
X71339857Y-54756571D01*
X71397000Y-54870857D01*
X71454142Y-54928000D01*
X71568428Y-54985142D01*
X71911285Y-54985142D01*
X72025571Y-54928000D01*
X72082714Y-54870857D01*
X72139857Y-54756571D01*
X72139857Y-54585142D01*
X72139857Y-56013714D02*
X71511285Y-56013714D01*
X71397000Y-55956571D01*
X71339857Y-55842285D01*
X71339857Y-55613714D01*
X71397000Y-55499428D01*
X72082714Y-56013714D02*
X72139857Y-55899428D01*
X72139857Y-55613714D01*
X72082714Y-55499428D01*
X71968428Y-55442285D01*
X71854142Y-55442285D01*
X71739857Y-55499428D01*
X71682714Y-55613714D01*
X71682714Y-55899428D01*
X71625571Y-56013714D01*
X72139857Y-56585142D02*
X71339857Y-56585142D01*
X71568428Y-56585142D02*
X71454142Y-56642285D01*
X71397000Y-56699428D01*
X71339857Y-56813714D01*
X71339857Y-56928000D01*
X72139857Y-57842285D02*
X70939857Y-57842285D01*
X72082714Y-57842285D02*
X72139857Y-57728000D01*
X72139857Y-57499428D01*
X72082714Y-57385142D01*
X72025571Y-57328000D01*
X71911285Y-57270857D01*
X71568428Y-57270857D01*
X71454142Y-57328000D01*
X71397000Y-57385142D01*
X71339857Y-57499428D01*
X71339857Y-57728000D01*
X71397000Y-57842285D01*
X72597000Y-59670857D02*
X72539857Y-59613714D01*
X72368428Y-59499428D01*
X72254142Y-59442285D01*
X72082714Y-59385142D01*
X71797000Y-59328000D01*
X71568428Y-59328000D01*
X71282714Y-59385142D01*
X71111285Y-59442285D01*
X70997000Y-59499428D01*
X70825571Y-59613714D01*
X70768428Y-59670857D01*
X72082714Y-60642285D02*
X72139857Y-60528000D01*
X72139857Y-60299428D01*
X72082714Y-60185142D01*
X72025571Y-60128000D01*
X71911285Y-60070857D01*
X71568428Y-60070857D01*
X71454142Y-60128000D01*
X71397000Y-60185142D01*
X71339857Y-60299428D01*
X71339857Y-60528000D01*
X71397000Y-60642285D01*
X72139857Y-61328000D02*
X72082714Y-61213714D01*
X72025571Y-61156571D01*
X71911285Y-61099428D01*
X71568428Y-61099428D01*
X71454142Y-61156571D01*
X71397000Y-61213714D01*
X71339857Y-61328000D01*
X71339857Y-61499428D01*
X71397000Y-61613714D01*
X71454142Y-61670857D01*
X71568428Y-61728000D01*
X71911285Y-61728000D01*
X72025571Y-61670857D01*
X72082714Y-61613714D01*
X72139857Y-61499428D01*
X72139857Y-61328000D01*
X71339857Y-62242285D02*
X72139857Y-62242285D01*
X71454142Y-62242285D02*
X71397000Y-62299428D01*
X71339857Y-62413714D01*
X71339857Y-62585142D01*
X71397000Y-62699428D01*
X71511285Y-62756571D01*
X72139857Y-62756571D01*
X71339857Y-63156571D02*
X71339857Y-63613714D01*
X70939857Y-63328000D02*
X71968428Y-63328000D01*
X72082714Y-63385142D01*
X72139857Y-63499428D01*
X72139857Y-63613714D01*
X72139857Y-64013714D02*
X71339857Y-64013714D01*
X71568428Y-64013714D02*
X71454142Y-64070857D01*
X71397000Y-64128000D01*
X71339857Y-64242285D01*
X71339857Y-64356571D01*
X72139857Y-64928000D02*
X72082714Y-64813714D01*
X72025571Y-64756571D01*
X71911285Y-64699428D01*
X71568428Y-64699428D01*
X71454142Y-64756571D01*
X71397000Y-64813714D01*
X71339857Y-64928000D01*
X71339857Y-65099428D01*
X71397000Y-65213714D01*
X71454142Y-65270857D01*
X71568428Y-65328000D01*
X71911285Y-65328000D01*
X72025571Y-65270857D01*
X72082714Y-65213714D01*
X72139857Y-65099428D01*
X72139857Y-64928000D01*
X72139857Y-66013714D02*
X72082714Y-65899428D01*
X71968428Y-65842285D01*
X70939857Y-65842285D01*
X72597000Y-66356571D02*
X72539857Y-66413714D01*
X72368428Y-66528000D01*
X72254142Y-66585142D01*
X72082714Y-66642285D01*
X71797000Y-66699428D01*
X71568428Y-66699428D01*
X71282714Y-66642285D01*
X71111285Y-66585142D01*
X70997000Y-66528000D01*
X70825571Y-66413714D01*
X70768428Y-66356571D01*
X70939857Y-68013714D02*
X72139857Y-68413714D01*
X70939857Y-68813714D01*
X72139857Y-69842285D02*
X72139857Y-69156571D01*
X72139857Y-69499428D02*
X70939857Y-69499428D01*
X71111285Y-69385142D01*
X71225571Y-69270857D01*
X71282714Y-69156571D01*
M02*
