%TF.GenerationSoftware,KiCad,Pcbnew,(5.1.10)-1*%
%TF.CreationDate,2021-10-15T09:25:45+02:00*%
%TF.ProjectId,BTS-MainBoard-Control,4254532d-4d61-4696-9e42-6f6172642d43,rev?*%
%TF.SameCoordinates,Original*%
%TF.FileFunction,Legend,Top*%
%TF.FilePolarity,Positive*%
%FSLAX46Y46*%
G04 Gerber Fmt 4.6, Leading zero omitted, Abs format (unit mm)*
G04 Created by KiCad (PCBNEW (5.1.10)-1) date 2021-10-15 09:25:45*
%MOMM*%
%LPD*%
G01*
G04 APERTURE LIST*
%ADD10C,0.100000*%
%ADD11C,0.120000*%
%ADD12C,0.150000*%
%ADD13C,0.010000*%
G04 APERTURE END LIST*
D10*
X63944571Y-67536190D02*
X63944571Y-67036190D01*
X64182666Y-67536190D02*
X64182666Y-67036190D01*
X64468380Y-67536190D01*
X64468380Y-67036190D01*
X64706476Y-67345714D02*
X65087428Y-67345714D01*
X64896952Y-67536190D02*
X64896952Y-67155238D01*
X64960571Y-63472190D02*
X64960571Y-62972190D01*
X65198666Y-63472190D02*
X65198666Y-62972190D01*
X65484380Y-63472190D01*
X65484380Y-62972190D01*
X65722476Y-63281714D02*
X66103428Y-63281714D01*
X71572571Y-53050285D02*
X71405904Y-53050285D01*
X71405904Y-53312190D02*
X71405904Y-52812190D01*
X71644000Y-52812190D01*
X72048761Y-53312190D02*
X72048761Y-53050285D01*
X72024952Y-53002666D01*
X71977333Y-52978857D01*
X71882095Y-52978857D01*
X71834476Y-53002666D01*
X72048761Y-53288380D02*
X72001142Y-53312190D01*
X71882095Y-53312190D01*
X71834476Y-53288380D01*
X71810666Y-53240761D01*
X71810666Y-53193142D01*
X71834476Y-53145523D01*
X71882095Y-53121714D01*
X72001142Y-53121714D01*
X72048761Y-53097904D01*
X72286857Y-52978857D02*
X72286857Y-53312190D01*
X72286857Y-53026476D02*
X72310666Y-53002666D01*
X72358285Y-52978857D01*
X72429714Y-52978857D01*
X72477333Y-53002666D01*
X72501142Y-53050285D01*
X72501142Y-53312190D01*
X72667809Y-52812190D02*
X72953523Y-52812190D01*
X72810666Y-53312190D02*
X72810666Y-52812190D01*
X73120190Y-53312190D02*
X73120190Y-52978857D01*
X73120190Y-53074095D02*
X73144000Y-53026476D01*
X73167809Y-53002666D01*
X73215428Y-52978857D01*
X73263047Y-52978857D01*
X73429714Y-53312190D02*
X73429714Y-52978857D01*
X73429714Y-52812190D02*
X73405904Y-52836000D01*
X73429714Y-52859809D01*
X73453523Y-52836000D01*
X73429714Y-52812190D01*
X73429714Y-52859809D01*
X73882095Y-52978857D02*
X73882095Y-53383619D01*
X73858285Y-53431238D01*
X73834476Y-53455047D01*
X73786857Y-53478857D01*
X73715428Y-53478857D01*
X73667809Y-53455047D01*
X73882095Y-53288380D02*
X73834476Y-53312190D01*
X73739238Y-53312190D01*
X73691619Y-53288380D01*
X73667809Y-53264571D01*
X73644000Y-53216952D01*
X73644000Y-53074095D01*
X73667809Y-53026476D01*
X73691619Y-53002666D01*
X73739238Y-52978857D01*
X73834476Y-52978857D01*
X73882095Y-53002666D01*
X81157047Y-51137333D02*
X81395142Y-51137333D01*
X81109428Y-51280190D02*
X81276095Y-50780190D01*
X81442761Y-51280190D01*
X81609428Y-51280190D02*
X81609428Y-50780190D01*
X81609428Y-51018285D02*
X81895142Y-51018285D01*
X81895142Y-51280190D02*
X81895142Y-50780190D01*
X82299904Y-51018285D02*
X82371333Y-51042095D01*
X82395142Y-51065904D01*
X82418952Y-51113523D01*
X82418952Y-51184952D01*
X82395142Y-51232571D01*
X82371333Y-51256380D01*
X82323714Y-51280190D01*
X82133238Y-51280190D01*
X82133238Y-50780190D01*
X82299904Y-50780190D01*
X82347523Y-50804000D01*
X82371333Y-50827809D01*
X82395142Y-50875428D01*
X82395142Y-50923047D01*
X82371333Y-50970666D01*
X82347523Y-50994476D01*
X82299904Y-51018285D01*
X82133238Y-51018285D01*
X76573142Y-58249333D02*
X76811238Y-58249333D01*
X76525523Y-58392190D02*
X76692190Y-57892190D01*
X76858857Y-58392190D01*
X77025523Y-58392190D02*
X77025523Y-57892190D01*
X77025523Y-58130285D02*
X77311238Y-58130285D01*
X77311238Y-58392190D02*
X77311238Y-57892190D01*
X77644571Y-57892190D02*
X77739809Y-57892190D01*
X77787428Y-57916000D01*
X77835047Y-57963619D01*
X77858857Y-58058857D01*
X77858857Y-58225523D01*
X77835047Y-58320761D01*
X77787428Y-58368380D01*
X77739809Y-58392190D01*
X77644571Y-58392190D01*
X77596952Y-58368380D01*
X77549333Y-58320761D01*
X77525523Y-58225523D01*
X77525523Y-58058857D01*
X77549333Y-57963619D01*
X77596952Y-57916000D01*
X77644571Y-57892190D01*
X83089809Y-60670285D02*
X83161238Y-60694095D01*
X83185047Y-60717904D01*
X83208857Y-60765523D01*
X83208857Y-60836952D01*
X83185047Y-60884571D01*
X83161238Y-60908380D01*
X83113619Y-60932190D01*
X82923142Y-60932190D01*
X82923142Y-60432190D01*
X83089809Y-60432190D01*
X83137428Y-60456000D01*
X83161238Y-60479809D01*
X83185047Y-60527428D01*
X83185047Y-60575047D01*
X83161238Y-60622666D01*
X83137428Y-60646476D01*
X83089809Y-60670285D01*
X82923142Y-60670285D01*
X83423142Y-60932190D02*
X83423142Y-60432190D01*
X83423142Y-60670285D02*
X83708857Y-60670285D01*
X83708857Y-60932190D02*
X83708857Y-60432190D01*
X84113619Y-60670285D02*
X84185047Y-60694095D01*
X84208857Y-60717904D01*
X84232666Y-60765523D01*
X84232666Y-60836952D01*
X84208857Y-60884571D01*
X84185047Y-60908380D01*
X84137428Y-60932190D01*
X83946952Y-60932190D01*
X83946952Y-60432190D01*
X84113619Y-60432190D01*
X84161238Y-60456000D01*
X84185047Y-60479809D01*
X84208857Y-60527428D01*
X84208857Y-60575047D01*
X84185047Y-60622666D01*
X84161238Y-60646476D01*
X84113619Y-60670285D01*
X83946952Y-60670285D01*
X81204666Y-62313333D02*
X81442761Y-62313333D01*
X81157047Y-62456190D02*
X81323714Y-61956190D01*
X81490380Y-62456190D01*
X81895142Y-62456190D02*
X81657047Y-62456190D01*
X81657047Y-61956190D01*
X82157047Y-61956190D02*
X82252285Y-61956190D01*
X82299904Y-61980000D01*
X82347523Y-62027619D01*
X82371333Y-62122857D01*
X82371333Y-62289523D01*
X82347523Y-62384761D01*
X82299904Y-62432380D01*
X82252285Y-62456190D01*
X82157047Y-62456190D01*
X82109428Y-62432380D01*
X82061809Y-62384761D01*
X82038000Y-62289523D01*
X82038000Y-62122857D01*
X82061809Y-62027619D01*
X82109428Y-61980000D01*
X82157047Y-61956190D01*
X80537904Y-65242285D02*
X80609333Y-65266095D01*
X80633142Y-65289904D01*
X80656952Y-65337523D01*
X80656952Y-65408952D01*
X80633142Y-65456571D01*
X80609333Y-65480380D01*
X80561714Y-65504190D01*
X80371238Y-65504190D01*
X80371238Y-65004190D01*
X80537904Y-65004190D01*
X80585523Y-65028000D01*
X80609333Y-65051809D01*
X80633142Y-65099428D01*
X80633142Y-65147047D01*
X80609333Y-65194666D01*
X80585523Y-65218476D01*
X80537904Y-65242285D01*
X80371238Y-65242285D01*
X80871238Y-65504190D02*
X80871238Y-65004190D01*
X80871238Y-65242285D02*
X81156952Y-65242285D01*
X81156952Y-65504190D02*
X81156952Y-65004190D01*
X81490285Y-65004190D02*
X81585523Y-65004190D01*
X81633142Y-65028000D01*
X81680761Y-65075619D01*
X81704571Y-65170857D01*
X81704571Y-65337523D01*
X81680761Y-65432761D01*
X81633142Y-65480380D01*
X81585523Y-65504190D01*
X81490285Y-65504190D01*
X81442666Y-65480380D01*
X81395047Y-65432761D01*
X81371238Y-65337523D01*
X81371238Y-65170857D01*
X81395047Y-65075619D01*
X81442666Y-65028000D01*
X81490285Y-65004190D01*
X81288095Y-73132190D02*
X81454761Y-73632190D01*
X81621428Y-73132190D01*
X81764285Y-73608380D02*
X81835714Y-73632190D01*
X81954761Y-73632190D01*
X82002380Y-73608380D01*
X82026190Y-73584571D01*
X82050000Y-73536952D01*
X82050000Y-73489333D01*
X82026190Y-73441714D01*
X82002380Y-73417904D01*
X81954761Y-73394095D01*
X81859523Y-73370285D01*
X81811904Y-73346476D01*
X81788095Y-73322666D01*
X81764285Y-73275047D01*
X81764285Y-73227428D01*
X81788095Y-73179809D01*
X81811904Y-73156000D01*
X81859523Y-73132190D01*
X81978571Y-73132190D01*
X82050000Y-73156000D01*
X82454761Y-73608380D02*
X82407142Y-73632190D01*
X82311904Y-73632190D01*
X82264285Y-73608380D01*
X82240476Y-73560761D01*
X82240476Y-73370285D01*
X82264285Y-73322666D01*
X82311904Y-73298857D01*
X82407142Y-73298857D01*
X82454761Y-73322666D01*
X82478571Y-73370285D01*
X82478571Y-73417904D01*
X82240476Y-73465523D01*
X82692857Y-73298857D02*
X82692857Y-73632190D01*
X82692857Y-73346476D02*
X82716666Y-73322666D01*
X82764285Y-73298857D01*
X82835714Y-73298857D01*
X82883333Y-73322666D01*
X82907142Y-73370285D01*
X82907142Y-73632190D01*
X83121428Y-73608380D02*
X83169047Y-73632190D01*
X83264285Y-73632190D01*
X83311904Y-73608380D01*
X83335714Y-73560761D01*
X83335714Y-73536952D01*
X83311904Y-73489333D01*
X83264285Y-73465523D01*
X83192857Y-73465523D01*
X83145238Y-73441714D01*
X83121428Y-73394095D01*
X83121428Y-73370285D01*
X83145238Y-73322666D01*
X83192857Y-73298857D01*
X83264285Y-73298857D01*
X83311904Y-73322666D01*
X83740476Y-73608380D02*
X83692857Y-73632190D01*
X83597619Y-73632190D01*
X83550000Y-73608380D01*
X83526190Y-73560761D01*
X83526190Y-73370285D01*
X83550000Y-73322666D01*
X83597619Y-73298857D01*
X83692857Y-73298857D01*
X83740476Y-73322666D01*
X83764285Y-73370285D01*
X83764285Y-73417904D01*
X83526190Y-73465523D01*
X76025428Y-70830285D02*
X76096857Y-70854095D01*
X76120666Y-70877904D01*
X76144476Y-70925523D01*
X76144476Y-70996952D01*
X76120666Y-71044571D01*
X76096857Y-71068380D01*
X76049238Y-71092190D01*
X75858761Y-71092190D01*
X75858761Y-70592190D01*
X76025428Y-70592190D01*
X76073047Y-70616000D01*
X76096857Y-70639809D01*
X76120666Y-70687428D01*
X76120666Y-70735047D01*
X76096857Y-70782666D01*
X76073047Y-70806476D01*
X76025428Y-70830285D01*
X75858761Y-70830285D01*
X76596857Y-71092190D02*
X76358761Y-71092190D01*
X76358761Y-70592190D01*
X76858761Y-70592190D02*
X76954000Y-70592190D01*
X77001619Y-70616000D01*
X77049238Y-70663619D01*
X77073047Y-70758857D01*
X77073047Y-70925523D01*
X77049238Y-71020761D01*
X77001619Y-71068380D01*
X76954000Y-71092190D01*
X76858761Y-71092190D01*
X76811142Y-71068380D01*
X76763523Y-71020761D01*
X76739714Y-70925523D01*
X76739714Y-70758857D01*
X76763523Y-70663619D01*
X76811142Y-70616000D01*
X76858761Y-70592190D01*
G36*
X74041000Y-80391000D02*
G01*
X72263000Y-80391000D01*
X72263000Y-78740000D01*
X74041000Y-78740000D01*
X74041000Y-80391000D01*
G37*
X74041000Y-80391000D02*
X72263000Y-80391000D01*
X72263000Y-78740000D01*
X74041000Y-78740000D01*
X74041000Y-80391000D01*
G36*
X81788000Y-80391000D02*
G01*
X80010000Y-80391000D01*
X80010000Y-78740000D01*
X81788000Y-78740000D01*
X81788000Y-80391000D01*
G37*
X81788000Y-80391000D02*
X80010000Y-80391000D01*
X80010000Y-78740000D01*
X81788000Y-78740000D01*
X81788000Y-80391000D01*
D11*
X75616000Y-79167000D02*
X75582666Y-79200333D01*
X75482666Y-79233666D01*
X75416000Y-79233666D01*
X75316000Y-79200333D01*
X75249333Y-79133666D01*
X75216000Y-79067000D01*
X75182666Y-78933666D01*
X75182666Y-78833666D01*
X75216000Y-78700333D01*
X75249333Y-78633666D01*
X75316000Y-78567000D01*
X75416000Y-78533666D01*
X75482666Y-78533666D01*
X75582666Y-78567000D01*
X75616000Y-78600333D01*
X76016000Y-79233666D02*
X75949333Y-79200333D01*
X75916000Y-79167000D01*
X75882666Y-79100333D01*
X75882666Y-78900333D01*
X75916000Y-78833666D01*
X75949333Y-78800333D01*
X76016000Y-78767000D01*
X76116000Y-78767000D01*
X76182666Y-78800333D01*
X76216000Y-78833666D01*
X76249333Y-78900333D01*
X76249333Y-79100333D01*
X76216000Y-79167000D01*
X76182666Y-79200333D01*
X76116000Y-79233666D01*
X76016000Y-79233666D01*
X76549333Y-78767000D02*
X76549333Y-79233666D01*
X76549333Y-78833666D02*
X76582666Y-78800333D01*
X76649333Y-78767000D01*
X76749333Y-78767000D01*
X76816000Y-78800333D01*
X76849333Y-78867000D01*
X76849333Y-79233666D01*
X77082666Y-78767000D02*
X77349333Y-78767000D01*
X77182666Y-78533666D02*
X77182666Y-79133666D01*
X77216000Y-79200333D01*
X77282666Y-79233666D01*
X77349333Y-79233666D01*
X77582666Y-79233666D02*
X77582666Y-78767000D01*
X77582666Y-78900333D02*
X77616000Y-78833666D01*
X77649333Y-78800333D01*
X77716000Y-78767000D01*
X77782666Y-78767000D01*
X78116000Y-79233666D02*
X78049333Y-79200333D01*
X78016000Y-79167000D01*
X77982666Y-79100333D01*
X77982666Y-78900333D01*
X78016000Y-78833666D01*
X78049333Y-78800333D01*
X78116000Y-78767000D01*
X78216000Y-78767000D01*
X78282666Y-78800333D01*
X78316000Y-78833666D01*
X78349333Y-78900333D01*
X78349333Y-79100333D01*
X78316000Y-79167000D01*
X78282666Y-79200333D01*
X78216000Y-79233666D01*
X78116000Y-79233666D01*
X78749333Y-79233666D02*
X78682666Y-79200333D01*
X78649333Y-79133666D01*
X78649333Y-78533666D01*
X74499333Y-80403666D02*
X74499333Y-79703666D01*
X74499333Y-79970333D02*
X74566000Y-79937000D01*
X74699333Y-79937000D01*
X74766000Y-79970333D01*
X74799333Y-80003666D01*
X74832666Y-80070333D01*
X74832666Y-80270333D01*
X74799333Y-80337000D01*
X74766000Y-80370333D01*
X74699333Y-80403666D01*
X74566000Y-80403666D01*
X74499333Y-80370333D01*
X75232666Y-80403666D02*
X75166000Y-80370333D01*
X75132666Y-80337000D01*
X75099333Y-80270333D01*
X75099333Y-80070333D01*
X75132666Y-80003666D01*
X75166000Y-79970333D01*
X75232666Y-79937000D01*
X75332666Y-79937000D01*
X75399333Y-79970333D01*
X75432666Y-80003666D01*
X75466000Y-80070333D01*
X75466000Y-80270333D01*
X75432666Y-80337000D01*
X75399333Y-80370333D01*
X75332666Y-80403666D01*
X75232666Y-80403666D01*
X76066000Y-80403666D02*
X76066000Y-80037000D01*
X76032666Y-79970333D01*
X75966000Y-79937000D01*
X75832666Y-79937000D01*
X75766000Y-79970333D01*
X76066000Y-80370333D02*
X75999333Y-80403666D01*
X75832666Y-80403666D01*
X75766000Y-80370333D01*
X75732666Y-80303666D01*
X75732666Y-80237000D01*
X75766000Y-80170333D01*
X75832666Y-80137000D01*
X75999333Y-80137000D01*
X76066000Y-80103666D01*
X76399333Y-80403666D02*
X76399333Y-79937000D01*
X76399333Y-80070333D02*
X76432666Y-80003666D01*
X76466000Y-79970333D01*
X76532666Y-79937000D01*
X76599333Y-79937000D01*
X77132666Y-80403666D02*
X77132666Y-79703666D01*
X77132666Y-80370333D02*
X77066000Y-80403666D01*
X76932666Y-80403666D01*
X76866000Y-80370333D01*
X76832666Y-80337000D01*
X76799333Y-80270333D01*
X76799333Y-80070333D01*
X76832666Y-80003666D01*
X76866000Y-79970333D01*
X76932666Y-79937000D01*
X77066000Y-79937000D01*
X77132666Y-79970333D01*
X77899333Y-79703666D02*
X78132666Y-80403666D01*
X78366000Y-79703666D01*
X78966000Y-80403666D02*
X78566000Y-80403666D01*
X78766000Y-80403666D02*
X78766000Y-79703666D01*
X78699333Y-79803666D01*
X78632666Y-79870333D01*
X78566000Y-79903666D01*
X79266000Y-80337000D02*
X79299333Y-80370333D01*
X79266000Y-80403666D01*
X79232666Y-80370333D01*
X79266000Y-80337000D01*
X79266000Y-80403666D01*
X79966000Y-80403666D02*
X79566000Y-80403666D01*
X79766000Y-80403666D02*
X79766000Y-79703666D01*
X79699333Y-79803666D01*
X79632666Y-79870333D01*
X79566000Y-79903666D01*
D12*
X64070666Y-54194666D02*
X63370666Y-54194666D01*
X63370666Y-53928000D01*
X63404000Y-53861333D01*
X63437333Y-53828000D01*
X63504000Y-53794666D01*
X63604000Y-53794666D01*
X63670666Y-53828000D01*
X63704000Y-53861333D01*
X63737333Y-53928000D01*
X63737333Y-54194666D01*
X63370666Y-53361333D02*
X63370666Y-53228000D01*
X63404000Y-53161333D01*
X63470666Y-53094666D01*
X63604000Y-53061333D01*
X63837333Y-53061333D01*
X63970666Y-53094666D01*
X64037333Y-53161333D01*
X64070666Y-53228000D01*
X64070666Y-53361333D01*
X64037333Y-53428000D01*
X63970666Y-53494666D01*
X63837333Y-53528000D01*
X63604000Y-53528000D01*
X63470666Y-53494666D01*
X63404000Y-53428000D01*
X63370666Y-53361333D01*
X63370666Y-52828000D02*
X64070666Y-52661333D01*
X63570666Y-52528000D01*
X64070666Y-52394666D01*
X63370666Y-52228000D01*
X63704000Y-51961333D02*
X63704000Y-51728000D01*
X64070666Y-51628000D02*
X64070666Y-51961333D01*
X63370666Y-51961333D01*
X63370666Y-51628000D01*
X64070666Y-50928000D02*
X63737333Y-51161333D01*
X64070666Y-51328000D02*
X63370666Y-51328000D01*
X63370666Y-51061333D01*
X63404000Y-50994666D01*
X63437333Y-50961333D01*
X63504000Y-50928000D01*
X63604000Y-50928000D01*
X63670666Y-50961333D01*
X63704000Y-50994666D01*
X63737333Y-51061333D01*
X63737333Y-51328000D01*
D13*
%TO.C,REF\u002A\u002A*%
G36*
X65281360Y-78406468D02*
G01*
X65316592Y-78423874D01*
X65360040Y-78454206D01*
X65391706Y-78487283D01*
X65413394Y-78528817D01*
X65426903Y-78584522D01*
X65434038Y-78660111D01*
X65436600Y-78761296D01*
X65436750Y-78804797D01*
X65436312Y-78900135D01*
X65434496Y-78968271D01*
X65430545Y-79015418D01*
X65423702Y-79047790D01*
X65413211Y-79071600D01*
X65402296Y-79087843D01*
X65332619Y-79156952D01*
X65250566Y-79198521D01*
X65162050Y-79211023D01*
X65072981Y-79192934D01*
X65044763Y-79180142D01*
X64977210Y-79144931D01*
X64977210Y-79696700D01*
X65026512Y-79671205D01*
X65091473Y-79651480D01*
X65171320Y-79646427D01*
X65251052Y-79655756D01*
X65311265Y-79676714D01*
X65361208Y-79716627D01*
X65403881Y-79773741D01*
X65407090Y-79779605D01*
X65420622Y-79807227D01*
X65430505Y-79835068D01*
X65437309Y-79868794D01*
X65441601Y-79914071D01*
X65443951Y-79976562D01*
X65444928Y-80061935D01*
X65445105Y-80158010D01*
X65445105Y-80464526D01*
X65261289Y-80464526D01*
X65261289Y-79899339D01*
X65209875Y-79856077D01*
X65156466Y-79821472D01*
X65105888Y-79815180D01*
X65055030Y-79831372D01*
X65027925Y-79847227D01*
X65007751Y-79869810D01*
X64993403Y-79903940D01*
X64983776Y-79954434D01*
X64977763Y-80026111D01*
X64974260Y-80123788D01*
X64973026Y-80188802D01*
X64968855Y-80456171D01*
X64881125Y-80461222D01*
X64793394Y-80466273D01*
X64793394Y-78807101D01*
X64977210Y-78807101D01*
X64981896Y-78899600D01*
X64997688Y-78963809D01*
X65027183Y-79003759D01*
X65072980Y-79023480D01*
X65119250Y-79027421D01*
X65171628Y-79022892D01*
X65206390Y-79005069D01*
X65228128Y-78981519D01*
X65245240Y-78956189D01*
X65255427Y-78927969D01*
X65259960Y-78888431D01*
X65260109Y-78829142D01*
X65258584Y-78779498D01*
X65255081Y-78704710D01*
X65249867Y-78655611D01*
X65241087Y-78624467D01*
X65226886Y-78603545D01*
X65213484Y-78591452D01*
X65157487Y-78565081D01*
X65091211Y-78560822D01*
X65053156Y-78569906D01*
X65015477Y-78602196D01*
X64990519Y-78665006D01*
X64978422Y-78757894D01*
X64977210Y-78807101D01*
X64793394Y-78807101D01*
X64793394Y-78392421D01*
X64885302Y-78392421D01*
X64940483Y-78394603D01*
X64968952Y-78402351D01*
X64977206Y-78417468D01*
X64977210Y-78417916D01*
X64981040Y-78432720D01*
X64997933Y-78431039D01*
X65031519Y-78414772D01*
X65109778Y-78389887D01*
X65197827Y-78387271D01*
X65281360Y-78406468D01*
G37*
X65281360Y-78406468D02*
X65316592Y-78423874D01*
X65360040Y-78454206D01*
X65391706Y-78487283D01*
X65413394Y-78528817D01*
X65426903Y-78584522D01*
X65434038Y-78660111D01*
X65436600Y-78761296D01*
X65436750Y-78804797D01*
X65436312Y-78900135D01*
X65434496Y-78968271D01*
X65430545Y-79015418D01*
X65423702Y-79047790D01*
X65413211Y-79071600D01*
X65402296Y-79087843D01*
X65332619Y-79156952D01*
X65250566Y-79198521D01*
X65162050Y-79211023D01*
X65072981Y-79192934D01*
X65044763Y-79180142D01*
X64977210Y-79144931D01*
X64977210Y-79696700D01*
X65026512Y-79671205D01*
X65091473Y-79651480D01*
X65171320Y-79646427D01*
X65251052Y-79655756D01*
X65311265Y-79676714D01*
X65361208Y-79716627D01*
X65403881Y-79773741D01*
X65407090Y-79779605D01*
X65420622Y-79807227D01*
X65430505Y-79835068D01*
X65437309Y-79868794D01*
X65441601Y-79914071D01*
X65443951Y-79976562D01*
X65444928Y-80061935D01*
X65445105Y-80158010D01*
X65445105Y-80464526D01*
X65261289Y-80464526D01*
X65261289Y-79899339D01*
X65209875Y-79856077D01*
X65156466Y-79821472D01*
X65105888Y-79815180D01*
X65055030Y-79831372D01*
X65027925Y-79847227D01*
X65007751Y-79869810D01*
X64993403Y-79903940D01*
X64983776Y-79954434D01*
X64977763Y-80026111D01*
X64974260Y-80123788D01*
X64973026Y-80188802D01*
X64968855Y-80456171D01*
X64881125Y-80461222D01*
X64793394Y-80466273D01*
X64793394Y-78807101D01*
X64977210Y-78807101D01*
X64981896Y-78899600D01*
X64997688Y-78963809D01*
X65027183Y-79003759D01*
X65072980Y-79023480D01*
X65119250Y-79027421D01*
X65171628Y-79022892D01*
X65206390Y-79005069D01*
X65228128Y-78981519D01*
X65245240Y-78956189D01*
X65255427Y-78927969D01*
X65259960Y-78888431D01*
X65260109Y-78829142D01*
X65258584Y-78779498D01*
X65255081Y-78704710D01*
X65249867Y-78655611D01*
X65241087Y-78624467D01*
X65226886Y-78603545D01*
X65213484Y-78591452D01*
X65157487Y-78565081D01*
X65091211Y-78560822D01*
X65053156Y-78569906D01*
X65015477Y-78602196D01*
X64990519Y-78665006D01*
X64978422Y-78757894D01*
X64977210Y-78807101D01*
X64793394Y-78807101D01*
X64793394Y-78392421D01*
X64885302Y-78392421D01*
X64940483Y-78394603D01*
X64968952Y-78402351D01*
X64977206Y-78417468D01*
X64977210Y-78417916D01*
X64981040Y-78432720D01*
X64997933Y-78431039D01*
X65031519Y-78414772D01*
X65109778Y-78389887D01*
X65197827Y-78387271D01*
X65281360Y-78406468D01*
G36*
X65978457Y-79652184D02*
G01*
X66057070Y-79673160D01*
X66116916Y-79711180D01*
X66159147Y-79760978D01*
X66172275Y-79782230D01*
X66181968Y-79804492D01*
X66188744Y-79832970D01*
X66193123Y-79872871D01*
X66195624Y-79929401D01*
X66196768Y-80007767D01*
X66197072Y-80113176D01*
X66197078Y-80141142D01*
X66197078Y-80464526D01*
X66116868Y-80464526D01*
X66065706Y-80460943D01*
X66027877Y-80451866D01*
X66018399Y-80446268D01*
X65992488Y-80436606D01*
X65966024Y-80446268D01*
X65922452Y-80458330D01*
X65859160Y-80463185D01*
X65789010Y-80461078D01*
X65724860Y-80452256D01*
X65687407Y-80440937D01*
X65614933Y-80394412D01*
X65569640Y-80329846D01*
X65549278Y-80244000D01*
X65549088Y-80241796D01*
X65550875Y-80203713D01*
X65712473Y-80203713D01*
X65726601Y-80247030D01*
X65749612Y-80271408D01*
X65795804Y-80289845D01*
X65856775Y-80297205D01*
X65918949Y-80293583D01*
X65968751Y-80279074D01*
X65982703Y-80269765D01*
X66007085Y-80226753D01*
X66013263Y-80177857D01*
X66013263Y-80113605D01*
X65920818Y-80113605D01*
X65832995Y-80120366D01*
X65766418Y-80139520D01*
X65725002Y-80169376D01*
X65712473Y-80203713D01*
X65550875Y-80203713D01*
X65553490Y-80148004D01*
X65584424Y-80073847D01*
X65642581Y-80017767D01*
X65650620Y-80012665D01*
X65685163Y-79996055D01*
X65727918Y-79985996D01*
X65787686Y-79981107D01*
X65858690Y-79979983D01*
X66013263Y-79979921D01*
X66013263Y-79915125D01*
X66006706Y-79864850D01*
X65989975Y-79831169D01*
X65988016Y-79829376D01*
X65950783Y-79814642D01*
X65894580Y-79808931D01*
X65832467Y-79811737D01*
X65777510Y-79822556D01*
X65744899Y-79838782D01*
X65727228Y-79851780D01*
X65708569Y-79854262D01*
X65682819Y-79843613D01*
X65643873Y-79817218D01*
X65585630Y-79772465D01*
X65580284Y-79768273D01*
X65583023Y-79752760D01*
X65605876Y-79726960D01*
X65640609Y-79698289D01*
X65678990Y-79674166D01*
X65691048Y-79668470D01*
X65735034Y-79657103D01*
X65799487Y-79648995D01*
X65871497Y-79645743D01*
X65874864Y-79645736D01*
X65978457Y-79652184D01*
G37*
X65978457Y-79652184D02*
X66057070Y-79673160D01*
X66116916Y-79711180D01*
X66159147Y-79760978D01*
X66172275Y-79782230D01*
X66181968Y-79804492D01*
X66188744Y-79832970D01*
X66193123Y-79872871D01*
X66195624Y-79929401D01*
X66196768Y-80007767D01*
X66197072Y-80113176D01*
X66197078Y-80141142D01*
X66197078Y-80464526D01*
X66116868Y-80464526D01*
X66065706Y-80460943D01*
X66027877Y-80451866D01*
X66018399Y-80446268D01*
X65992488Y-80436606D01*
X65966024Y-80446268D01*
X65922452Y-80458330D01*
X65859160Y-80463185D01*
X65789010Y-80461078D01*
X65724860Y-80452256D01*
X65687407Y-80440937D01*
X65614933Y-80394412D01*
X65569640Y-80329846D01*
X65549278Y-80244000D01*
X65549088Y-80241796D01*
X65550875Y-80203713D01*
X65712473Y-80203713D01*
X65726601Y-80247030D01*
X65749612Y-80271408D01*
X65795804Y-80289845D01*
X65856775Y-80297205D01*
X65918949Y-80293583D01*
X65968751Y-80279074D01*
X65982703Y-80269765D01*
X66007085Y-80226753D01*
X66013263Y-80177857D01*
X66013263Y-80113605D01*
X65920818Y-80113605D01*
X65832995Y-80120366D01*
X65766418Y-80139520D01*
X65725002Y-80169376D01*
X65712473Y-80203713D01*
X65550875Y-80203713D01*
X65553490Y-80148004D01*
X65584424Y-80073847D01*
X65642581Y-80017767D01*
X65650620Y-80012665D01*
X65685163Y-79996055D01*
X65727918Y-79985996D01*
X65787686Y-79981107D01*
X65858690Y-79979983D01*
X66013263Y-79979921D01*
X66013263Y-79915125D01*
X66006706Y-79864850D01*
X65989975Y-79831169D01*
X65988016Y-79829376D01*
X65950783Y-79814642D01*
X65894580Y-79808931D01*
X65832467Y-79811737D01*
X65777510Y-79822556D01*
X65744899Y-79838782D01*
X65727228Y-79851780D01*
X65708569Y-79854262D01*
X65682819Y-79843613D01*
X65643873Y-79817218D01*
X65585630Y-79772465D01*
X65580284Y-79768273D01*
X65583023Y-79752760D01*
X65605876Y-79726960D01*
X65640609Y-79698289D01*
X65678990Y-79674166D01*
X65691048Y-79668470D01*
X65735034Y-79657103D01*
X65799487Y-79648995D01*
X65871497Y-79645743D01*
X65874864Y-79645736D01*
X65978457Y-79652184D01*
G36*
X66497881Y-79647486D02*
G01*
X66522888Y-79654982D01*
X66530950Y-79671451D01*
X66531289Y-79678886D01*
X66532736Y-79699594D01*
X66542698Y-79702845D01*
X66569612Y-79688648D01*
X66585598Y-79678948D01*
X66636033Y-79658175D01*
X66696272Y-79647904D01*
X66759434Y-79647114D01*
X66818637Y-79654786D01*
X66867002Y-79669898D01*
X66897646Y-79691432D01*
X66903689Y-79718366D01*
X66900639Y-79725660D01*
X66878406Y-79755937D01*
X66843930Y-79793175D01*
X66837694Y-79799195D01*
X66804833Y-79826875D01*
X66776480Y-79835818D01*
X66736827Y-79829576D01*
X66720942Y-79825429D01*
X66671509Y-79815467D01*
X66636752Y-79819947D01*
X66607400Y-79835746D01*
X66580513Y-79856949D01*
X66560710Y-79883614D01*
X66546948Y-79920827D01*
X66538184Y-79973673D01*
X66533374Y-80047237D01*
X66531474Y-80146605D01*
X66531289Y-80206601D01*
X66531289Y-80464526D01*
X66364184Y-80464526D01*
X66364184Y-79645710D01*
X66447736Y-79645710D01*
X66497881Y-79647486D01*
G37*
X66497881Y-79647486D02*
X66522888Y-79654982D01*
X66530950Y-79671451D01*
X66531289Y-79678886D01*
X66532736Y-79699594D01*
X66542698Y-79702845D01*
X66569612Y-79688648D01*
X66585598Y-79678948D01*
X66636033Y-79658175D01*
X66696272Y-79647904D01*
X66759434Y-79647114D01*
X66818637Y-79654786D01*
X66867002Y-79669898D01*
X66897646Y-79691432D01*
X66903689Y-79718366D01*
X66900639Y-79725660D01*
X66878406Y-79755937D01*
X66843930Y-79793175D01*
X66837694Y-79799195D01*
X66804833Y-79826875D01*
X66776480Y-79835818D01*
X66736827Y-79829576D01*
X66720942Y-79825429D01*
X66671509Y-79815467D01*
X66636752Y-79819947D01*
X66607400Y-79835746D01*
X66580513Y-79856949D01*
X66560710Y-79883614D01*
X66546948Y-79920827D01*
X66538184Y-79973673D01*
X66533374Y-80047237D01*
X66531474Y-80146605D01*
X66531289Y-80206601D01*
X66531289Y-80464526D01*
X66364184Y-80464526D01*
X66364184Y-79645710D01*
X66447736Y-79645710D01*
X66497881Y-79647486D01*
G36*
X67550631Y-80464526D02*
G01*
X67458723Y-80464526D01*
X67405377Y-80462962D01*
X67377593Y-80456485D01*
X67367590Y-80442418D01*
X67366815Y-80432906D01*
X67365128Y-80413832D01*
X67354490Y-80410174D01*
X67326535Y-80421932D01*
X67304795Y-80432906D01*
X67221332Y-80458911D01*
X67130604Y-80460416D01*
X67056842Y-80441021D01*
X66988154Y-80394165D01*
X66935794Y-80325004D01*
X66907122Y-80243427D01*
X66906392Y-80238866D01*
X66902132Y-80189101D01*
X66900014Y-80117659D01*
X66900184Y-80063626D01*
X67082720Y-80063626D01*
X67086949Y-80135441D01*
X67096568Y-80194634D01*
X67109590Y-80228060D01*
X67158856Y-80273740D01*
X67217350Y-80290115D01*
X67277671Y-80276873D01*
X67329217Y-80237373D01*
X67348738Y-80210807D01*
X67360152Y-80179106D01*
X67365498Y-80132832D01*
X67366815Y-80063328D01*
X67364458Y-79994499D01*
X67358233Y-79934026D01*
X67349408Y-79893556D01*
X67347937Y-79889929D01*
X67312347Y-79846802D01*
X67260400Y-79823124D01*
X67202278Y-79819301D01*
X67148160Y-79835738D01*
X67108226Y-79872840D01*
X67104083Y-79880222D01*
X67091116Y-79925239D01*
X67084052Y-79989967D01*
X67082720Y-80063626D01*
X66900184Y-80063626D01*
X66900271Y-80036230D01*
X66901472Y-79992405D01*
X66909645Y-79883988D01*
X66926630Y-79802588D01*
X66954887Y-79742412D01*
X66996872Y-79697666D01*
X67037632Y-79671400D01*
X67094581Y-79652935D01*
X67165411Y-79646602D01*
X67237941Y-79651760D01*
X67299986Y-79667769D01*
X67332768Y-79686920D01*
X67366815Y-79717732D01*
X67366815Y-79328210D01*
X67550631Y-79328210D01*
X67550631Y-80464526D01*
G37*
X67550631Y-80464526D02*
X67458723Y-80464526D01*
X67405377Y-80462962D01*
X67377593Y-80456485D01*
X67367590Y-80442418D01*
X67366815Y-80432906D01*
X67365128Y-80413832D01*
X67354490Y-80410174D01*
X67326535Y-80421932D01*
X67304795Y-80432906D01*
X67221332Y-80458911D01*
X67130604Y-80460416D01*
X67056842Y-80441021D01*
X66988154Y-80394165D01*
X66935794Y-80325004D01*
X66907122Y-80243427D01*
X66906392Y-80238866D01*
X66902132Y-80189101D01*
X66900014Y-80117659D01*
X66900184Y-80063626D01*
X67082720Y-80063626D01*
X67086949Y-80135441D01*
X67096568Y-80194634D01*
X67109590Y-80228060D01*
X67158856Y-80273740D01*
X67217350Y-80290115D01*
X67277671Y-80276873D01*
X67329217Y-80237373D01*
X67348738Y-80210807D01*
X67360152Y-80179106D01*
X67365498Y-80132832D01*
X67366815Y-80063328D01*
X67364458Y-79994499D01*
X67358233Y-79934026D01*
X67349408Y-79893556D01*
X67347937Y-79889929D01*
X67312347Y-79846802D01*
X67260400Y-79823124D01*
X67202278Y-79819301D01*
X67148160Y-79835738D01*
X67108226Y-79872840D01*
X67104083Y-79880222D01*
X67091116Y-79925239D01*
X67084052Y-79989967D01*
X67082720Y-80063626D01*
X66900184Y-80063626D01*
X66900271Y-80036230D01*
X66901472Y-79992405D01*
X66909645Y-79883988D01*
X66926630Y-79802588D01*
X66954887Y-79742412D01*
X66996872Y-79697666D01*
X67037632Y-79671400D01*
X67094581Y-79652935D01*
X67165411Y-79646602D01*
X67237941Y-79651760D01*
X67299986Y-79667769D01*
X67332768Y-79686920D01*
X67366815Y-79717732D01*
X67366815Y-79328210D01*
X67550631Y-79328210D01*
X67550631Y-80464526D01*
G36*
X68192130Y-79649104D02*
G01*
X68258220Y-79654066D01*
X68344626Y-79913079D01*
X68431031Y-80172092D01*
X68458124Y-80080184D01*
X68474428Y-80023384D01*
X68495875Y-79946625D01*
X68519035Y-79862251D01*
X68531280Y-79816993D01*
X68577344Y-79645710D01*
X68767387Y-79645710D01*
X68710582Y-79825349D01*
X68682607Y-79913704D01*
X68648813Y-80020281D01*
X68613520Y-80131454D01*
X68582013Y-80230579D01*
X68510250Y-80456171D01*
X68355286Y-80466253D01*
X68313270Y-80327528D01*
X68287359Y-80241351D01*
X68259083Y-80146347D01*
X68234369Y-80062441D01*
X68233394Y-80059102D01*
X68214935Y-80002248D01*
X68198649Y-79963456D01*
X68187242Y-79948787D01*
X68184898Y-79950483D01*
X68176671Y-79973225D01*
X68161038Y-80021940D01*
X68139904Y-80090502D01*
X68115170Y-80172785D01*
X68101787Y-80218046D01*
X68029311Y-80464526D01*
X67875495Y-80464526D01*
X67752531Y-80076006D01*
X67717988Y-79967022D01*
X67686521Y-79868048D01*
X67659616Y-79783736D01*
X67638759Y-79718734D01*
X67625438Y-79677692D01*
X67621388Y-79665701D01*
X67624594Y-79653423D01*
X67649765Y-79648046D01*
X67702146Y-79648584D01*
X67710345Y-79648990D01*
X67807482Y-79654066D01*
X67871100Y-79888013D01*
X67894484Y-79973333D01*
X67915381Y-80048335D01*
X67931951Y-80106507D01*
X67942354Y-80141337D01*
X67944276Y-80147016D01*
X67952241Y-80140486D01*
X67968304Y-80106654D01*
X67990621Y-80050127D01*
X68017345Y-79975510D01*
X68039937Y-79908107D01*
X68126041Y-79644143D01*
X68192130Y-79649104D01*
G37*
X68192130Y-79649104D02*
X68258220Y-79654066D01*
X68344626Y-79913079D01*
X68431031Y-80172092D01*
X68458124Y-80080184D01*
X68474428Y-80023384D01*
X68495875Y-79946625D01*
X68519035Y-79862251D01*
X68531280Y-79816993D01*
X68577344Y-79645710D01*
X68767387Y-79645710D01*
X68710582Y-79825349D01*
X68682607Y-79913704D01*
X68648813Y-80020281D01*
X68613520Y-80131454D01*
X68582013Y-80230579D01*
X68510250Y-80456171D01*
X68355286Y-80466253D01*
X68313270Y-80327528D01*
X68287359Y-80241351D01*
X68259083Y-80146347D01*
X68234369Y-80062441D01*
X68233394Y-80059102D01*
X68214935Y-80002248D01*
X68198649Y-79963456D01*
X68187242Y-79948787D01*
X68184898Y-79950483D01*
X68176671Y-79973225D01*
X68161038Y-80021940D01*
X68139904Y-80090502D01*
X68115170Y-80172785D01*
X68101787Y-80218046D01*
X68029311Y-80464526D01*
X67875495Y-80464526D01*
X67752531Y-80076006D01*
X67717988Y-79967022D01*
X67686521Y-79868048D01*
X67659616Y-79783736D01*
X67638759Y-79718734D01*
X67625438Y-79677692D01*
X67621388Y-79665701D01*
X67624594Y-79653423D01*
X67649765Y-79648046D01*
X67702146Y-79648584D01*
X67710345Y-79648990D01*
X67807482Y-79654066D01*
X67871100Y-79888013D01*
X67894484Y-79973333D01*
X67915381Y-80048335D01*
X67931951Y-80106507D01*
X67942354Y-80141337D01*
X67944276Y-80147016D01*
X67952241Y-80140486D01*
X67968304Y-80106654D01*
X67990621Y-80050127D01*
X68017345Y-79975510D01*
X68039937Y-79908107D01*
X68126041Y-79644143D01*
X68192130Y-79649104D01*
G36*
X69197992Y-79650673D02*
G01*
X69268427Y-79667780D01*
X69288787Y-79676844D01*
X69328253Y-79700583D01*
X69358541Y-79727321D01*
X69380952Y-79761699D01*
X69396786Y-79808360D01*
X69407343Y-79871946D01*
X69413924Y-79957099D01*
X69417828Y-80068462D01*
X69419310Y-80142849D01*
X69424765Y-80464526D01*
X69331580Y-80464526D01*
X69275047Y-80462156D01*
X69245922Y-80454055D01*
X69238394Y-80440451D01*
X69234420Y-80425741D01*
X69216652Y-80428554D01*
X69192440Y-80440348D01*
X69131828Y-80458427D01*
X69053929Y-80463299D01*
X68971995Y-80455330D01*
X68899281Y-80434889D01*
X68892759Y-80432051D01*
X68826302Y-80385365D01*
X68782491Y-80320464D01*
X68762332Y-80244600D01*
X68763872Y-80217344D01*
X68928345Y-80217344D01*
X68942837Y-80254024D01*
X68985805Y-80280309D01*
X69055129Y-80294417D01*
X69092177Y-80296290D01*
X69153919Y-80291494D01*
X69194960Y-80272858D01*
X69204973Y-80264000D01*
X69232100Y-80215806D01*
X69238394Y-80172092D01*
X69238394Y-80113605D01*
X69156930Y-80113605D01*
X69062234Y-80118432D01*
X68995813Y-80133613D01*
X68953846Y-80160200D01*
X68944449Y-80172052D01*
X68928345Y-80217344D01*
X68763872Y-80217344D01*
X68766829Y-80165026D01*
X68796985Y-80088995D01*
X68838131Y-80037612D01*
X68863052Y-80015397D01*
X68887448Y-80000798D01*
X68919191Y-79991897D01*
X68966152Y-79986775D01*
X69036204Y-79983515D01*
X69063990Y-79982577D01*
X69238394Y-79976879D01*
X69238138Y-79924091D01*
X69231384Y-79868603D01*
X69206964Y-79835052D01*
X69157630Y-79813618D01*
X69156306Y-79813236D01*
X69086360Y-79804808D01*
X69017914Y-79815816D01*
X68967047Y-79842585D01*
X68946637Y-79855803D01*
X68924654Y-79853974D01*
X68890826Y-79834824D01*
X68870961Y-79821308D01*
X68832106Y-79792432D01*
X68808038Y-79770786D01*
X68804176Y-79764589D01*
X68820079Y-79732519D01*
X68867065Y-79694219D01*
X68887473Y-79681297D01*
X68946143Y-79659041D01*
X69025212Y-79646432D01*
X69113041Y-79643600D01*
X69197992Y-79650673D01*
G37*
X69197992Y-79650673D02*
X69268427Y-79667780D01*
X69288787Y-79676844D01*
X69328253Y-79700583D01*
X69358541Y-79727321D01*
X69380952Y-79761699D01*
X69396786Y-79808360D01*
X69407343Y-79871946D01*
X69413924Y-79957099D01*
X69417828Y-80068462D01*
X69419310Y-80142849D01*
X69424765Y-80464526D01*
X69331580Y-80464526D01*
X69275047Y-80462156D01*
X69245922Y-80454055D01*
X69238394Y-80440451D01*
X69234420Y-80425741D01*
X69216652Y-80428554D01*
X69192440Y-80440348D01*
X69131828Y-80458427D01*
X69053929Y-80463299D01*
X68971995Y-80455330D01*
X68899281Y-80434889D01*
X68892759Y-80432051D01*
X68826302Y-80385365D01*
X68782491Y-80320464D01*
X68762332Y-80244600D01*
X68763872Y-80217344D01*
X68928345Y-80217344D01*
X68942837Y-80254024D01*
X68985805Y-80280309D01*
X69055129Y-80294417D01*
X69092177Y-80296290D01*
X69153919Y-80291494D01*
X69194960Y-80272858D01*
X69204973Y-80264000D01*
X69232100Y-80215806D01*
X69238394Y-80172092D01*
X69238394Y-80113605D01*
X69156930Y-80113605D01*
X69062234Y-80118432D01*
X68995813Y-80133613D01*
X68953846Y-80160200D01*
X68944449Y-80172052D01*
X68928345Y-80217344D01*
X68763872Y-80217344D01*
X68766829Y-80165026D01*
X68796985Y-80088995D01*
X68838131Y-80037612D01*
X68863052Y-80015397D01*
X68887448Y-80000798D01*
X68919191Y-79991897D01*
X68966152Y-79986775D01*
X69036204Y-79983515D01*
X69063990Y-79982577D01*
X69238394Y-79976879D01*
X69238138Y-79924091D01*
X69231384Y-79868603D01*
X69206964Y-79835052D01*
X69157630Y-79813618D01*
X69156306Y-79813236D01*
X69086360Y-79804808D01*
X69017914Y-79815816D01*
X68967047Y-79842585D01*
X68946637Y-79855803D01*
X68924654Y-79853974D01*
X68890826Y-79834824D01*
X68870961Y-79821308D01*
X68832106Y-79792432D01*
X68808038Y-79770786D01*
X68804176Y-79764589D01*
X68820079Y-79732519D01*
X68867065Y-79694219D01*
X68887473Y-79681297D01*
X68946143Y-79659041D01*
X69025212Y-79646432D01*
X69113041Y-79643600D01*
X69197992Y-79650673D01*
G36*
X69991167Y-79645447D02*
G01*
X70055408Y-79658112D01*
X70091980Y-79676864D01*
X70130453Y-79708017D01*
X70075717Y-79777127D01*
X70041969Y-79818979D01*
X70019053Y-79839398D01*
X69996279Y-79842517D01*
X69962956Y-79832472D01*
X69947314Y-79826789D01*
X69883542Y-79818404D01*
X69825140Y-79836378D01*
X69782264Y-79876982D01*
X69775299Y-79889929D01*
X69767713Y-79924224D01*
X69761859Y-79987427D01*
X69758011Y-80075060D01*
X69756443Y-80182640D01*
X69756421Y-80197944D01*
X69756421Y-80464526D01*
X69572605Y-80464526D01*
X69572605Y-79645710D01*
X69664513Y-79645710D01*
X69717507Y-79647094D01*
X69745115Y-79653252D01*
X69755324Y-79667194D01*
X69756421Y-79680344D01*
X69756421Y-79714978D01*
X69800450Y-79680344D01*
X69850937Y-79656716D01*
X69918760Y-79645033D01*
X69991167Y-79645447D01*
G37*
X69991167Y-79645447D02*
X70055408Y-79658112D01*
X70091980Y-79676864D01*
X70130453Y-79708017D01*
X70075717Y-79777127D01*
X70041969Y-79818979D01*
X70019053Y-79839398D01*
X69996279Y-79842517D01*
X69962956Y-79832472D01*
X69947314Y-79826789D01*
X69883542Y-79818404D01*
X69825140Y-79836378D01*
X69782264Y-79876982D01*
X69775299Y-79889929D01*
X69767713Y-79924224D01*
X69761859Y-79987427D01*
X69758011Y-80075060D01*
X69756443Y-80182640D01*
X69756421Y-80197944D01*
X69756421Y-80464526D01*
X69572605Y-80464526D01*
X69572605Y-79645710D01*
X69664513Y-79645710D01*
X69717507Y-79647094D01*
X69745115Y-79653252D01*
X69755324Y-79667194D01*
X69756421Y-79680344D01*
X69756421Y-79714978D01*
X69800450Y-79680344D01*
X69850937Y-79656716D01*
X69918760Y-79645033D01*
X69991167Y-79645447D01*
G36*
X70519193Y-79650078D02*
G01*
X70599068Y-79670845D01*
X70665962Y-79713705D01*
X70698351Y-79745723D01*
X70751445Y-79821413D01*
X70781873Y-79909216D01*
X70792327Y-80017150D01*
X70792380Y-80025875D01*
X70792473Y-80113605D01*
X70287534Y-80113605D01*
X70298298Y-80159559D01*
X70317732Y-80201178D01*
X70351745Y-80244544D01*
X70358860Y-80251467D01*
X70420003Y-80288935D01*
X70489729Y-80295289D01*
X70569987Y-80270638D01*
X70583592Y-80264000D01*
X70625319Y-80243819D01*
X70653268Y-80232321D01*
X70658145Y-80231258D01*
X70675168Y-80241583D01*
X70707633Y-80266845D01*
X70724114Y-80280650D01*
X70758264Y-80312361D01*
X70769478Y-80333299D01*
X70761695Y-80352560D01*
X70757535Y-80357827D01*
X70729357Y-80380878D01*
X70682862Y-80408892D01*
X70650434Y-80425246D01*
X70558385Y-80454059D01*
X70456476Y-80463395D01*
X70359963Y-80452332D01*
X70332934Y-80444412D01*
X70249276Y-80399581D01*
X70187266Y-80330598D01*
X70146545Y-80236794D01*
X70126755Y-80117498D01*
X70124582Y-80055118D01*
X70130926Y-79964298D01*
X70291157Y-79964298D01*
X70306655Y-79971012D01*
X70348312Y-79976280D01*
X70408876Y-79979389D01*
X70449907Y-79979921D01*
X70523711Y-79979408D01*
X70570293Y-79977006D01*
X70595848Y-79971422D01*
X70606569Y-79961361D01*
X70608657Y-79946763D01*
X70594331Y-79901796D01*
X70558262Y-79857353D01*
X70510815Y-79823242D01*
X70463349Y-79809288D01*
X70398879Y-79821666D01*
X70343070Y-79857452D01*
X70304374Y-79909033D01*
X70291157Y-79964298D01*
X70130926Y-79964298D01*
X70133821Y-79922866D01*
X70162336Y-79817498D01*
X70210729Y-79738178D01*
X70279604Y-79684071D01*
X70369565Y-79654343D01*
X70418300Y-79648618D01*
X70519193Y-79650078D01*
G37*
X70519193Y-79650078D02*
X70599068Y-79670845D01*
X70665962Y-79713705D01*
X70698351Y-79745723D01*
X70751445Y-79821413D01*
X70781873Y-79909216D01*
X70792327Y-80017150D01*
X70792380Y-80025875D01*
X70792473Y-80113605D01*
X70287534Y-80113605D01*
X70298298Y-80159559D01*
X70317732Y-80201178D01*
X70351745Y-80244544D01*
X70358860Y-80251467D01*
X70420003Y-80288935D01*
X70489729Y-80295289D01*
X70569987Y-80270638D01*
X70583592Y-80264000D01*
X70625319Y-80243819D01*
X70653268Y-80232321D01*
X70658145Y-80231258D01*
X70675168Y-80241583D01*
X70707633Y-80266845D01*
X70724114Y-80280650D01*
X70758264Y-80312361D01*
X70769478Y-80333299D01*
X70761695Y-80352560D01*
X70757535Y-80357827D01*
X70729357Y-80380878D01*
X70682862Y-80408892D01*
X70650434Y-80425246D01*
X70558385Y-80454059D01*
X70456476Y-80463395D01*
X70359963Y-80452332D01*
X70332934Y-80444412D01*
X70249276Y-80399581D01*
X70187266Y-80330598D01*
X70146545Y-80236794D01*
X70126755Y-80117498D01*
X70124582Y-80055118D01*
X70130926Y-79964298D01*
X70291157Y-79964298D01*
X70306655Y-79971012D01*
X70348312Y-79976280D01*
X70408876Y-79979389D01*
X70449907Y-79979921D01*
X70523711Y-79979408D01*
X70570293Y-79977006D01*
X70595848Y-79971422D01*
X70606569Y-79961361D01*
X70608657Y-79946763D01*
X70594331Y-79901796D01*
X70558262Y-79857353D01*
X70510815Y-79823242D01*
X70463349Y-79809288D01*
X70398879Y-79821666D01*
X70343070Y-79857452D01*
X70304374Y-79909033D01*
X70291157Y-79964298D01*
X70130926Y-79964298D01*
X70133821Y-79922866D01*
X70162336Y-79817498D01*
X70210729Y-79738178D01*
X70279604Y-79684071D01*
X70369565Y-79654343D01*
X70418300Y-79648618D01*
X70519193Y-79650078D01*
G36*
X64444784Y-78401104D02*
G01*
X64532205Y-78439754D01*
X64598570Y-78504290D01*
X64643976Y-78594812D01*
X64668518Y-78711418D01*
X64670277Y-78729624D01*
X64671656Y-78857984D01*
X64653784Y-78970496D01*
X64617750Y-79061688D01*
X64598455Y-79091022D01*
X64531245Y-79153106D01*
X64445650Y-79193316D01*
X64349890Y-79210003D01*
X64252187Y-79201517D01*
X64177917Y-79175380D01*
X64114047Y-79131335D01*
X64061846Y-79073587D01*
X64060943Y-79072236D01*
X64039744Y-79036593D01*
X64025967Y-79000752D01*
X64017624Y-78955519D01*
X64012727Y-78891701D01*
X64010569Y-78839368D01*
X64009671Y-78791910D01*
X64176743Y-78791910D01*
X64178376Y-78839154D01*
X64184304Y-78902046D01*
X64194761Y-78942407D01*
X64213619Y-78971122D01*
X64231281Y-78987896D01*
X64293894Y-79023016D01*
X64359408Y-79027710D01*
X64420421Y-79002440D01*
X64450928Y-78974124D01*
X64472911Y-78945589D01*
X64485769Y-78918284D01*
X64491412Y-78882750D01*
X64491751Y-78829524D01*
X64490012Y-78780506D01*
X64486271Y-78710482D01*
X64480341Y-78665064D01*
X64469653Y-78635440D01*
X64451639Y-78612797D01*
X64437363Y-78599855D01*
X64377651Y-78565860D01*
X64313234Y-78564165D01*
X64259219Y-78584301D01*
X64213140Y-78626352D01*
X64185689Y-78695428D01*
X64176743Y-78791910D01*
X64009671Y-78791910D01*
X64008599Y-78735299D01*
X64011964Y-78657468D01*
X64022045Y-78598930D01*
X64040226Y-78552737D01*
X64067890Y-78511942D01*
X64078146Y-78499828D01*
X64142278Y-78439474D01*
X64211066Y-78404220D01*
X64295189Y-78389450D01*
X64336209Y-78388243D01*
X64444784Y-78401104D01*
G37*
X64444784Y-78401104D02*
X64532205Y-78439754D01*
X64598570Y-78504290D01*
X64643976Y-78594812D01*
X64668518Y-78711418D01*
X64670277Y-78729624D01*
X64671656Y-78857984D01*
X64653784Y-78970496D01*
X64617750Y-79061688D01*
X64598455Y-79091022D01*
X64531245Y-79153106D01*
X64445650Y-79193316D01*
X64349890Y-79210003D01*
X64252187Y-79201517D01*
X64177917Y-79175380D01*
X64114047Y-79131335D01*
X64061846Y-79073587D01*
X64060943Y-79072236D01*
X64039744Y-79036593D01*
X64025967Y-79000752D01*
X64017624Y-78955519D01*
X64012727Y-78891701D01*
X64010569Y-78839368D01*
X64009671Y-78791910D01*
X64176743Y-78791910D01*
X64178376Y-78839154D01*
X64184304Y-78902046D01*
X64194761Y-78942407D01*
X64213619Y-78971122D01*
X64231281Y-78987896D01*
X64293894Y-79023016D01*
X64359408Y-79027710D01*
X64420421Y-79002440D01*
X64450928Y-78974124D01*
X64472911Y-78945589D01*
X64485769Y-78918284D01*
X64491412Y-78882750D01*
X64491751Y-78829524D01*
X64490012Y-78780506D01*
X64486271Y-78710482D01*
X64480341Y-78665064D01*
X64469653Y-78635440D01*
X64451639Y-78612797D01*
X64437363Y-78599855D01*
X64377651Y-78565860D01*
X64313234Y-78564165D01*
X64259219Y-78584301D01*
X64213140Y-78626352D01*
X64185689Y-78695428D01*
X64176743Y-78791910D01*
X64009671Y-78791910D01*
X64008599Y-78735299D01*
X64011964Y-78657468D01*
X64022045Y-78598930D01*
X64040226Y-78552737D01*
X64067890Y-78511942D01*
X64078146Y-78499828D01*
X64142278Y-78439474D01*
X64211066Y-78404220D01*
X64295189Y-78389450D01*
X64336209Y-78388243D01*
X64444784Y-78401104D01*
G36*
X66015018Y-78411027D02*
G01*
X66031670Y-78418866D01*
X66089305Y-78461086D01*
X66143805Y-78522700D01*
X66184499Y-78590543D01*
X66196074Y-78621734D01*
X66206634Y-78677449D01*
X66212931Y-78744781D01*
X66213696Y-78772585D01*
X66213789Y-78860316D01*
X65708850Y-78860316D01*
X65719613Y-78906270D01*
X65746033Y-78960620D01*
X65792222Y-79007591D01*
X65847172Y-79037848D01*
X65882189Y-79044131D01*
X65929677Y-79036506D01*
X65986335Y-79017383D01*
X66005582Y-79008584D01*
X66076759Y-78973036D01*
X66137502Y-79019367D01*
X66172552Y-79050703D01*
X66191202Y-79076567D01*
X66192147Y-79084158D01*
X66175485Y-79102556D01*
X66138970Y-79130515D01*
X66105828Y-79152327D01*
X66016393Y-79191537D01*
X65916129Y-79209285D01*
X65816754Y-79204670D01*
X65737539Y-79180551D01*
X65655880Y-79128884D01*
X65597849Y-79060856D01*
X65561546Y-78972843D01*
X65545072Y-78861216D01*
X65543611Y-78810138D01*
X65549457Y-78693091D01*
X65550175Y-78689686D01*
X65717489Y-78689686D01*
X65722097Y-78700662D01*
X65741036Y-78706715D01*
X65780098Y-78709310D01*
X65845077Y-78709910D01*
X65870097Y-78709921D01*
X65946221Y-78709014D01*
X65994496Y-78705720D01*
X66020460Y-78699181D01*
X66029648Y-78688537D01*
X66029973Y-78685119D01*
X66019487Y-78657956D01*
X65993242Y-78619903D01*
X65981959Y-78606579D01*
X65940072Y-78568896D01*
X65896409Y-78554080D01*
X65872885Y-78552842D01*
X65809243Y-78568329D01*
X65755873Y-78609930D01*
X65722019Y-78670353D01*
X65721419Y-78672322D01*
X65717489Y-78689686D01*
X65550175Y-78689686D01*
X65568899Y-78600928D01*
X65603922Y-78527190D01*
X65646756Y-78474848D01*
X65725948Y-78418092D01*
X65819040Y-78387762D01*
X65918055Y-78385021D01*
X66015018Y-78411027D01*
G37*
X66015018Y-78411027D02*
X66031670Y-78418866D01*
X66089305Y-78461086D01*
X66143805Y-78522700D01*
X66184499Y-78590543D01*
X66196074Y-78621734D01*
X66206634Y-78677449D01*
X66212931Y-78744781D01*
X66213696Y-78772585D01*
X66213789Y-78860316D01*
X65708850Y-78860316D01*
X65719613Y-78906270D01*
X65746033Y-78960620D01*
X65792222Y-79007591D01*
X65847172Y-79037848D01*
X65882189Y-79044131D01*
X65929677Y-79036506D01*
X65986335Y-79017383D01*
X66005582Y-79008584D01*
X66076759Y-78973036D01*
X66137502Y-79019367D01*
X66172552Y-79050703D01*
X66191202Y-79076567D01*
X66192147Y-79084158D01*
X66175485Y-79102556D01*
X66138970Y-79130515D01*
X66105828Y-79152327D01*
X66016393Y-79191537D01*
X65916129Y-79209285D01*
X65816754Y-79204670D01*
X65737539Y-79180551D01*
X65655880Y-79128884D01*
X65597849Y-79060856D01*
X65561546Y-78972843D01*
X65545072Y-78861216D01*
X65543611Y-78810138D01*
X65549457Y-78693091D01*
X65550175Y-78689686D01*
X65717489Y-78689686D01*
X65722097Y-78700662D01*
X65741036Y-78706715D01*
X65780098Y-78709310D01*
X65845077Y-78709910D01*
X65870097Y-78709921D01*
X65946221Y-78709014D01*
X65994496Y-78705720D01*
X66020460Y-78699181D01*
X66029648Y-78688537D01*
X66029973Y-78685119D01*
X66019487Y-78657956D01*
X65993242Y-78619903D01*
X65981959Y-78606579D01*
X65940072Y-78568896D01*
X65896409Y-78554080D01*
X65872885Y-78552842D01*
X65809243Y-78568329D01*
X65755873Y-78609930D01*
X65722019Y-78670353D01*
X65721419Y-78672322D01*
X65717489Y-78689686D01*
X65550175Y-78689686D01*
X65568899Y-78600928D01*
X65603922Y-78527190D01*
X65646756Y-78474848D01*
X65725948Y-78418092D01*
X65819040Y-78387762D01*
X65918055Y-78385021D01*
X66015018Y-78411027D01*
G36*
X67836628Y-78389547D02*
G01*
X67899908Y-78401548D01*
X67965557Y-78426648D01*
X67972572Y-78429848D01*
X68022356Y-78456026D01*
X68056834Y-78480353D01*
X68067978Y-78495937D01*
X68057366Y-78521353D01*
X68031588Y-78558853D01*
X68020146Y-78572852D01*
X67972992Y-78627954D01*
X67912201Y-78592086D01*
X67854347Y-78568192D01*
X67787500Y-78555420D01*
X67723394Y-78554613D01*
X67673764Y-78566615D01*
X67661854Y-78574105D01*
X67639172Y-78608450D01*
X67636416Y-78648013D01*
X67653388Y-78678920D01*
X67663427Y-78684913D01*
X67693510Y-78692357D01*
X67746389Y-78701106D01*
X67811575Y-78709467D01*
X67823600Y-78710778D01*
X67928297Y-78728888D01*
X68004232Y-78759651D01*
X68054592Y-78805907D01*
X68082564Y-78870497D01*
X68091278Y-78949387D01*
X68079240Y-79039065D01*
X68040151Y-79109486D01*
X67973855Y-79160777D01*
X67880194Y-79193067D01*
X67776223Y-79205807D01*
X67691438Y-79205654D01*
X67622665Y-79194083D01*
X67575697Y-79178109D01*
X67516350Y-79150275D01*
X67461506Y-79117973D01*
X67442013Y-79103755D01*
X67391881Y-79062835D01*
X67512803Y-78940477D01*
X67581543Y-78985967D01*
X67650488Y-79020133D01*
X67724111Y-79038004D01*
X67794883Y-79039889D01*
X67855274Y-79026101D01*
X67897757Y-78996949D01*
X67911474Y-78972352D01*
X67909417Y-78932904D01*
X67875330Y-78902737D01*
X67809308Y-78881906D01*
X67736974Y-78872279D01*
X67625652Y-78853910D01*
X67542952Y-78819254D01*
X67487765Y-78767297D01*
X67458988Y-78697023D01*
X67455001Y-78613707D01*
X67474693Y-78526681D01*
X67519589Y-78460902D01*
X67590091Y-78416068D01*
X67686601Y-78391879D01*
X67758100Y-78387137D01*
X67836628Y-78389547D01*
G37*
X67836628Y-78389547D02*
X67899908Y-78401548D01*
X67965557Y-78426648D01*
X67972572Y-78429848D01*
X68022356Y-78456026D01*
X68056834Y-78480353D01*
X68067978Y-78495937D01*
X68057366Y-78521353D01*
X68031588Y-78558853D01*
X68020146Y-78572852D01*
X67972992Y-78627954D01*
X67912201Y-78592086D01*
X67854347Y-78568192D01*
X67787500Y-78555420D01*
X67723394Y-78554613D01*
X67673764Y-78566615D01*
X67661854Y-78574105D01*
X67639172Y-78608450D01*
X67636416Y-78648013D01*
X67653388Y-78678920D01*
X67663427Y-78684913D01*
X67693510Y-78692357D01*
X67746389Y-78701106D01*
X67811575Y-78709467D01*
X67823600Y-78710778D01*
X67928297Y-78728888D01*
X68004232Y-78759651D01*
X68054592Y-78805907D01*
X68082564Y-78870497D01*
X68091278Y-78949387D01*
X68079240Y-79039065D01*
X68040151Y-79109486D01*
X67973855Y-79160777D01*
X67880194Y-79193067D01*
X67776223Y-79205807D01*
X67691438Y-79205654D01*
X67622665Y-79194083D01*
X67575697Y-79178109D01*
X67516350Y-79150275D01*
X67461506Y-79117973D01*
X67442013Y-79103755D01*
X67391881Y-79062835D01*
X67512803Y-78940477D01*
X67581543Y-78985967D01*
X67650488Y-79020133D01*
X67724111Y-79038004D01*
X67794883Y-79039889D01*
X67855274Y-79026101D01*
X67897757Y-78996949D01*
X67911474Y-78972352D01*
X67909417Y-78932904D01*
X67875330Y-78902737D01*
X67809308Y-78881906D01*
X67736974Y-78872279D01*
X67625652Y-78853910D01*
X67542952Y-78819254D01*
X67487765Y-78767297D01*
X67458988Y-78697023D01*
X67455001Y-78613707D01*
X67474693Y-78526681D01*
X67519589Y-78460902D01*
X67590091Y-78416068D01*
X67686601Y-78391879D01*
X67758100Y-78387137D01*
X67836628Y-78389547D01*
G36*
X68629669Y-78402310D02*
G01*
X68714192Y-78448340D01*
X68780321Y-78521006D01*
X68811478Y-78580106D01*
X68824855Y-78632305D01*
X68833522Y-78706719D01*
X68837237Y-78792442D01*
X68835754Y-78878569D01*
X68828831Y-78954193D01*
X68820745Y-78994584D01*
X68793465Y-79049840D01*
X68746220Y-79108530D01*
X68689282Y-79159852D01*
X68632924Y-79193005D01*
X68631550Y-79193531D01*
X68561616Y-79208018D01*
X68478737Y-79208377D01*
X68399977Y-79195188D01*
X68369566Y-79184617D01*
X68291239Y-79140201D01*
X68235143Y-79082007D01*
X68198286Y-79004965D01*
X68177680Y-78904001D01*
X68173018Y-78851116D01*
X68173613Y-78784663D01*
X68352736Y-78784663D01*
X68358770Y-78881630D01*
X68376138Y-78955523D01*
X68403740Y-79002736D01*
X68423404Y-79016237D01*
X68473787Y-79025651D01*
X68533673Y-79022864D01*
X68585449Y-79009316D01*
X68599027Y-79001862D01*
X68634849Y-78958451D01*
X68658493Y-78892014D01*
X68668558Y-78811161D01*
X68663642Y-78724502D01*
X68652655Y-78672349D01*
X68621109Y-78611951D01*
X68571311Y-78574197D01*
X68511337Y-78561143D01*
X68449264Y-78574849D01*
X68401582Y-78608372D01*
X68376525Y-78636031D01*
X68361900Y-78663294D01*
X68354929Y-78700190D01*
X68352833Y-78756750D01*
X68352736Y-78784663D01*
X68173613Y-78784663D01*
X68174282Y-78709994D01*
X68197265Y-78594271D01*
X68241972Y-78503941D01*
X68308405Y-78439000D01*
X68396565Y-78399445D01*
X68415495Y-78394858D01*
X68529266Y-78384090D01*
X68629669Y-78402310D01*
G37*
X68629669Y-78402310D02*
X68714192Y-78448340D01*
X68780321Y-78521006D01*
X68811478Y-78580106D01*
X68824855Y-78632305D01*
X68833522Y-78706719D01*
X68837237Y-78792442D01*
X68835754Y-78878569D01*
X68828831Y-78954193D01*
X68820745Y-78994584D01*
X68793465Y-79049840D01*
X68746220Y-79108530D01*
X68689282Y-79159852D01*
X68632924Y-79193005D01*
X68631550Y-79193531D01*
X68561616Y-79208018D01*
X68478737Y-79208377D01*
X68399977Y-79195188D01*
X68369566Y-79184617D01*
X68291239Y-79140201D01*
X68235143Y-79082007D01*
X68198286Y-79004965D01*
X68177680Y-78904001D01*
X68173018Y-78851116D01*
X68173613Y-78784663D01*
X68352736Y-78784663D01*
X68358770Y-78881630D01*
X68376138Y-78955523D01*
X68403740Y-79002736D01*
X68423404Y-79016237D01*
X68473787Y-79025651D01*
X68533673Y-79022864D01*
X68585449Y-79009316D01*
X68599027Y-79001862D01*
X68634849Y-78958451D01*
X68658493Y-78892014D01*
X68668558Y-78811161D01*
X68663642Y-78724502D01*
X68652655Y-78672349D01*
X68621109Y-78611951D01*
X68571311Y-78574197D01*
X68511337Y-78561143D01*
X68449264Y-78574849D01*
X68401582Y-78608372D01*
X68376525Y-78636031D01*
X68361900Y-78663294D01*
X68354929Y-78700190D01*
X68352833Y-78756750D01*
X68352736Y-78784663D01*
X68173613Y-78784663D01*
X68174282Y-78709994D01*
X68197265Y-78594271D01*
X68241972Y-78503941D01*
X68308405Y-78439000D01*
X68396565Y-78399445D01*
X68415495Y-78394858D01*
X68529266Y-78384090D01*
X68629669Y-78402310D01*
G36*
X69138131Y-78652533D02*
G01*
X69139710Y-78775089D01*
X69145481Y-78868179D01*
X69156991Y-78935651D01*
X69175790Y-78981355D01*
X69203426Y-79009139D01*
X69241448Y-79022854D01*
X69288526Y-79026358D01*
X69337832Y-79022432D01*
X69375283Y-79008089D01*
X69402428Y-78979478D01*
X69420815Y-78932751D01*
X69431993Y-78864058D01*
X69437511Y-78769550D01*
X69438921Y-78652533D01*
X69438921Y-78392421D01*
X69622736Y-78392421D01*
X69622736Y-79194526D01*
X69530828Y-79194526D01*
X69475422Y-79192281D01*
X69446891Y-79184396D01*
X69438921Y-79169428D01*
X69434120Y-79156097D01*
X69415014Y-79158917D01*
X69376504Y-79177783D01*
X69288239Y-79206887D01*
X69194623Y-79204825D01*
X69104921Y-79173221D01*
X69062204Y-79148257D01*
X69029621Y-79121226D01*
X69005817Y-79087405D01*
X68989439Y-79042068D01*
X68979131Y-78980489D01*
X68973541Y-78897943D01*
X68971312Y-78789705D01*
X68971026Y-78706004D01*
X68971026Y-78392421D01*
X69138131Y-78392421D01*
X69138131Y-78652533D01*
G37*
X69138131Y-78652533D02*
X69139710Y-78775089D01*
X69145481Y-78868179D01*
X69156991Y-78935651D01*
X69175790Y-78981355D01*
X69203426Y-79009139D01*
X69241448Y-79022854D01*
X69288526Y-79026358D01*
X69337832Y-79022432D01*
X69375283Y-79008089D01*
X69402428Y-78979478D01*
X69420815Y-78932751D01*
X69431993Y-78864058D01*
X69437511Y-78769550D01*
X69438921Y-78652533D01*
X69438921Y-78392421D01*
X69622736Y-78392421D01*
X69622736Y-79194526D01*
X69530828Y-79194526D01*
X69475422Y-79192281D01*
X69446891Y-79184396D01*
X69438921Y-79169428D01*
X69434120Y-79156097D01*
X69415014Y-79158917D01*
X69376504Y-79177783D01*
X69288239Y-79206887D01*
X69194623Y-79204825D01*
X69104921Y-79173221D01*
X69062204Y-79148257D01*
X69029621Y-79121226D01*
X69005817Y-79087405D01*
X68989439Y-79042068D01*
X68979131Y-78980489D01*
X68973541Y-78897943D01*
X68971312Y-78789705D01*
X68971026Y-78706004D01*
X68971026Y-78392421D01*
X69138131Y-78392421D01*
X69138131Y-78652533D01*
G36*
X70764576Y-78399419D02*
G01*
X70861395Y-78440549D01*
X70891890Y-78460571D01*
X70930865Y-78491340D01*
X70955331Y-78515533D01*
X70959578Y-78523413D01*
X70947584Y-78540899D01*
X70916887Y-78570570D01*
X70892312Y-78591279D01*
X70825046Y-78645336D01*
X70771930Y-78600642D01*
X70730884Y-78571789D01*
X70690863Y-78561829D01*
X70645059Y-78564261D01*
X70572324Y-78582345D01*
X70522256Y-78619881D01*
X70491829Y-78680562D01*
X70478017Y-78768081D01*
X70478013Y-78768136D01*
X70479208Y-78865958D01*
X70497772Y-78937730D01*
X70534804Y-78986595D01*
X70560050Y-79003143D01*
X70627097Y-79023749D01*
X70698709Y-79023762D01*
X70761015Y-79003768D01*
X70775763Y-78994000D01*
X70812750Y-78969047D01*
X70841668Y-78964958D01*
X70872856Y-78983530D01*
X70907336Y-79016887D01*
X70961912Y-79073196D01*
X70901318Y-79123142D01*
X70807698Y-79179513D01*
X70702125Y-79207293D01*
X70591798Y-79205282D01*
X70519343Y-79186862D01*
X70434656Y-79141310D01*
X70366927Y-79069650D01*
X70336157Y-79019066D01*
X70311236Y-78946488D01*
X70298766Y-78854569D01*
X70298670Y-78754948D01*
X70310870Y-78659267D01*
X70335290Y-78579169D01*
X70339136Y-78570956D01*
X70396093Y-78490413D01*
X70473209Y-78431771D01*
X70564390Y-78396247D01*
X70663543Y-78385057D01*
X70764576Y-78399419D01*
G37*
X70764576Y-78399419D02*
X70861395Y-78440549D01*
X70891890Y-78460571D01*
X70930865Y-78491340D01*
X70955331Y-78515533D01*
X70959578Y-78523413D01*
X70947584Y-78540899D01*
X70916887Y-78570570D01*
X70892312Y-78591279D01*
X70825046Y-78645336D01*
X70771930Y-78600642D01*
X70730884Y-78571789D01*
X70690863Y-78561829D01*
X70645059Y-78564261D01*
X70572324Y-78582345D01*
X70522256Y-78619881D01*
X70491829Y-78680562D01*
X70478017Y-78768081D01*
X70478013Y-78768136D01*
X70479208Y-78865958D01*
X70497772Y-78937730D01*
X70534804Y-78986595D01*
X70560050Y-79003143D01*
X70627097Y-79023749D01*
X70698709Y-79023762D01*
X70761015Y-79003768D01*
X70775763Y-78994000D01*
X70812750Y-78969047D01*
X70841668Y-78964958D01*
X70872856Y-78983530D01*
X70907336Y-79016887D01*
X70961912Y-79073196D01*
X70901318Y-79123142D01*
X70807698Y-79179513D01*
X70702125Y-79207293D01*
X70591798Y-79205282D01*
X70519343Y-79186862D01*
X70434656Y-79141310D01*
X70366927Y-79069650D01*
X70336157Y-79019066D01*
X70311236Y-78946488D01*
X70298766Y-78854569D01*
X70298670Y-78754948D01*
X70310870Y-78659267D01*
X70335290Y-78579169D01*
X70339136Y-78570956D01*
X70396093Y-78490413D01*
X70473209Y-78431771D01*
X70564390Y-78396247D01*
X70663543Y-78385057D01*
X70764576Y-78399419D01*
G36*
X71376784Y-78389554D02*
G01*
X71419574Y-78399949D01*
X71501609Y-78438013D01*
X71571757Y-78496149D01*
X71620305Y-78565852D01*
X71626975Y-78581502D01*
X71636124Y-78622496D01*
X71642529Y-78683138D01*
X71644710Y-78744430D01*
X71644710Y-78860316D01*
X71402407Y-78860316D01*
X71302471Y-78860693D01*
X71232069Y-78862987D01*
X71187313Y-78868938D01*
X71164315Y-78880285D01*
X71159189Y-78898771D01*
X71168048Y-78926136D01*
X71183917Y-78958155D01*
X71228184Y-79011592D01*
X71289699Y-79038215D01*
X71364885Y-79037347D01*
X71450053Y-79008371D01*
X71523659Y-78972611D01*
X71584734Y-79020904D01*
X71645810Y-79069197D01*
X71588351Y-79122285D01*
X71511641Y-79172445D01*
X71417302Y-79202688D01*
X71315827Y-79211151D01*
X71217711Y-79195974D01*
X71201881Y-79190824D01*
X71115647Y-79145791D01*
X71051501Y-79078652D01*
X71008091Y-78987405D01*
X70984064Y-78870044D01*
X70983784Y-78867529D01*
X70981633Y-78739627D01*
X70990329Y-78693997D01*
X71160105Y-78693997D01*
X71175697Y-78701013D01*
X71218029Y-78706388D01*
X71280434Y-78709457D01*
X71319981Y-78709921D01*
X71393728Y-78709630D01*
X71439840Y-78707783D01*
X71464100Y-78702912D01*
X71472294Y-78693555D01*
X71470206Y-78678245D01*
X71468455Y-78672322D01*
X71438560Y-78616668D01*
X71391542Y-78571815D01*
X71350049Y-78552105D01*
X71294926Y-78553295D01*
X71239068Y-78577875D01*
X71192212Y-78618570D01*
X71164094Y-78668108D01*
X71160105Y-78693997D01*
X70990329Y-78693997D01*
X71003074Y-78627133D01*
X71045611Y-78532727D01*
X71106747Y-78459088D01*
X71183985Y-78408893D01*
X71274830Y-78384822D01*
X71376784Y-78389554D01*
G37*
X71376784Y-78389554D02*
X71419574Y-78399949D01*
X71501609Y-78438013D01*
X71571757Y-78496149D01*
X71620305Y-78565852D01*
X71626975Y-78581502D01*
X71636124Y-78622496D01*
X71642529Y-78683138D01*
X71644710Y-78744430D01*
X71644710Y-78860316D01*
X71402407Y-78860316D01*
X71302471Y-78860693D01*
X71232069Y-78862987D01*
X71187313Y-78868938D01*
X71164315Y-78880285D01*
X71159189Y-78898771D01*
X71168048Y-78926136D01*
X71183917Y-78958155D01*
X71228184Y-79011592D01*
X71289699Y-79038215D01*
X71364885Y-79037347D01*
X71450053Y-79008371D01*
X71523659Y-78972611D01*
X71584734Y-79020904D01*
X71645810Y-79069197D01*
X71588351Y-79122285D01*
X71511641Y-79172445D01*
X71417302Y-79202688D01*
X71315827Y-79211151D01*
X71217711Y-79195974D01*
X71201881Y-79190824D01*
X71115647Y-79145791D01*
X71051501Y-79078652D01*
X71008091Y-78987405D01*
X70984064Y-78870044D01*
X70983784Y-78867529D01*
X70981633Y-78739627D01*
X70990329Y-78693997D01*
X71160105Y-78693997D01*
X71175697Y-78701013D01*
X71218029Y-78706388D01*
X71280434Y-78709457D01*
X71319981Y-78709921D01*
X71393728Y-78709630D01*
X71439840Y-78707783D01*
X71464100Y-78702912D01*
X71472294Y-78693555D01*
X71470206Y-78678245D01*
X71468455Y-78672322D01*
X71438560Y-78616668D01*
X71391542Y-78571815D01*
X71350049Y-78552105D01*
X71294926Y-78553295D01*
X71239068Y-78577875D01*
X71192212Y-78618570D01*
X71164094Y-78668108D01*
X71160105Y-78693997D01*
X70990329Y-78693997D01*
X71003074Y-78627133D01*
X71045611Y-78532727D01*
X71106747Y-78459088D01*
X71183985Y-78408893D01*
X71274830Y-78384822D01*
X71376784Y-78389554D01*
G36*
X66815957Y-78406226D02*
G01*
X66857546Y-78426090D01*
X66897825Y-78454784D01*
X66928510Y-78487809D01*
X66950861Y-78529931D01*
X66966136Y-78585915D01*
X66975592Y-78660528D01*
X66980487Y-78758535D01*
X66982081Y-78884702D01*
X66982106Y-78897914D01*
X66982473Y-79194526D01*
X66798657Y-79194526D01*
X66798657Y-78921081D01*
X66798527Y-78819777D01*
X66797621Y-78746353D01*
X66795173Y-78695271D01*
X66790414Y-78660990D01*
X66782574Y-78637971D01*
X66770885Y-78620673D01*
X66754602Y-78603581D01*
X66697634Y-78566857D01*
X66635445Y-78560042D01*
X66576199Y-78583261D01*
X66555595Y-78600543D01*
X66540470Y-78616791D01*
X66529610Y-78634191D01*
X66522310Y-78658212D01*
X66517863Y-78694322D01*
X66515564Y-78747988D01*
X66514704Y-78824680D01*
X66514578Y-78918043D01*
X66514578Y-79194526D01*
X66330763Y-79194526D01*
X66330763Y-78392421D01*
X66422671Y-78392421D01*
X66477851Y-78394603D01*
X66506320Y-78402351D01*
X66514575Y-78417468D01*
X66514578Y-78417916D01*
X66518408Y-78432720D01*
X66535301Y-78431040D01*
X66568888Y-78414773D01*
X66645063Y-78390840D01*
X66732200Y-78388178D01*
X66815957Y-78406226D01*
G37*
X66815957Y-78406226D02*
X66857546Y-78426090D01*
X66897825Y-78454784D01*
X66928510Y-78487809D01*
X66950861Y-78529931D01*
X66966136Y-78585915D01*
X66975592Y-78660528D01*
X66980487Y-78758535D01*
X66982081Y-78884702D01*
X66982106Y-78897914D01*
X66982473Y-79194526D01*
X66798657Y-79194526D01*
X66798657Y-78921081D01*
X66798527Y-78819777D01*
X66797621Y-78746353D01*
X66795173Y-78695271D01*
X66790414Y-78660990D01*
X66782574Y-78637971D01*
X66770885Y-78620673D01*
X66754602Y-78603581D01*
X66697634Y-78566857D01*
X66635445Y-78560042D01*
X66576199Y-78583261D01*
X66555595Y-78600543D01*
X66540470Y-78616791D01*
X66529610Y-78634191D01*
X66522310Y-78658212D01*
X66517863Y-78694322D01*
X66515564Y-78747988D01*
X66514704Y-78824680D01*
X66514578Y-78918043D01*
X66514578Y-79194526D01*
X66330763Y-79194526D01*
X66330763Y-78392421D01*
X66422671Y-78392421D01*
X66477851Y-78394603D01*
X66506320Y-78402351D01*
X66514575Y-78417468D01*
X66514578Y-78417916D01*
X66518408Y-78432720D01*
X66535301Y-78431040D01*
X66568888Y-78414773D01*
X66645063Y-78390840D01*
X66732200Y-78388178D01*
X66815957Y-78406226D01*
G36*
X70209388Y-78391645D02*
G01*
X70266865Y-78409206D01*
X70303872Y-78431395D01*
X70315927Y-78448942D01*
X70312609Y-78469742D01*
X70291079Y-78502419D01*
X70272874Y-78525562D01*
X70235344Y-78567402D01*
X70207148Y-78585005D01*
X70183111Y-78583856D01*
X70111808Y-78565710D01*
X70059442Y-78566534D01*
X70016918Y-78587098D01*
X70002642Y-78599134D01*
X69956947Y-78641483D01*
X69956947Y-79194526D01*
X69773131Y-79194526D01*
X69773131Y-78392421D01*
X69865039Y-78392421D01*
X69920219Y-78394603D01*
X69948688Y-78402351D01*
X69956943Y-78417468D01*
X69956947Y-78417916D01*
X69960845Y-78433749D01*
X69978474Y-78431684D01*
X70002901Y-78420261D01*
X70053350Y-78399005D01*
X70094316Y-78386216D01*
X70147028Y-78382938D01*
X70209388Y-78391645D01*
G37*
X70209388Y-78391645D02*
X70266865Y-78409206D01*
X70303872Y-78431395D01*
X70315927Y-78448942D01*
X70312609Y-78469742D01*
X70291079Y-78502419D01*
X70272874Y-78525562D01*
X70235344Y-78567402D01*
X70207148Y-78585005D01*
X70183111Y-78583856D01*
X70111808Y-78565710D01*
X70059442Y-78566534D01*
X70016918Y-78587098D01*
X70002642Y-78599134D01*
X69956947Y-78641483D01*
X69956947Y-79194526D01*
X69773131Y-79194526D01*
X69773131Y-78392421D01*
X69865039Y-78392421D01*
X69920219Y-78394603D01*
X69948688Y-78402351D01*
X69956943Y-78417468D01*
X69956947Y-78417916D01*
X69960845Y-78433749D01*
X69978474Y-78431684D01*
X70002901Y-78420261D01*
X70053350Y-78399005D01*
X70094316Y-78386216D01*
X70147028Y-78382938D01*
X70209388Y-78391645D01*
G36*
X68318964Y-72852576D02*
G01*
X68394513Y-73253322D01*
X68952041Y-73483154D01*
X69286465Y-73255748D01*
X69380122Y-73192431D01*
X69464782Y-73135896D01*
X69536495Y-73088727D01*
X69591311Y-73053502D01*
X69625280Y-73032805D01*
X69634530Y-73028342D01*
X69651195Y-73039820D01*
X69686806Y-73071551D01*
X69737371Y-73119483D01*
X69798900Y-73179562D01*
X69867399Y-73247733D01*
X69938879Y-73319945D01*
X70009347Y-73392142D01*
X70074811Y-73460273D01*
X70131280Y-73520283D01*
X70174763Y-73568119D01*
X70201268Y-73599727D01*
X70207605Y-73610305D01*
X70198486Y-73629806D01*
X70172920Y-73672531D01*
X70133597Y-73734298D01*
X70083203Y-73810931D01*
X70024427Y-73898248D01*
X69990368Y-73948052D01*
X69928289Y-74038993D01*
X69873126Y-74121059D01*
X69827554Y-74190163D01*
X69794250Y-74242222D01*
X69775890Y-74273150D01*
X69773131Y-74279650D01*
X69779385Y-74298121D01*
X69796434Y-74341172D01*
X69821703Y-74402749D01*
X69852622Y-74476799D01*
X69886618Y-74557270D01*
X69921118Y-74638107D01*
X69953551Y-74713258D01*
X69981343Y-74776671D01*
X70001923Y-74822293D01*
X70012719Y-74844069D01*
X70013356Y-74844926D01*
X70030307Y-74849084D01*
X70075451Y-74858361D01*
X70144110Y-74871844D01*
X70231602Y-74888621D01*
X70333250Y-74907781D01*
X70392556Y-74918830D01*
X70501172Y-74939510D01*
X70599277Y-74959189D01*
X70681909Y-74976789D01*
X70744104Y-74991233D01*
X70780899Y-75001446D01*
X70788296Y-75004686D01*
X70795540Y-75026617D01*
X70801385Y-75076147D01*
X70805835Y-75147485D01*
X70808893Y-75234839D01*
X70810565Y-75332417D01*
X70810853Y-75434426D01*
X70809761Y-75535075D01*
X70807294Y-75628572D01*
X70803456Y-75709125D01*
X70798250Y-75770942D01*
X70791681Y-75808230D01*
X70787741Y-75815993D01*
X70764188Y-75825298D01*
X70714282Y-75838600D01*
X70644623Y-75854337D01*
X70561813Y-75870946D01*
X70532905Y-75876319D01*
X70393531Y-75901848D01*
X70283436Y-75922408D01*
X70198982Y-75938815D01*
X70136530Y-75951887D01*
X70092444Y-75962441D01*
X70063085Y-75971294D01*
X70044815Y-75979263D01*
X70033998Y-75987165D01*
X70032485Y-75988727D01*
X70017377Y-76013886D01*
X69994329Y-76062850D01*
X69965644Y-76129621D01*
X69933622Y-76208205D01*
X69900565Y-76292607D01*
X69868773Y-76376830D01*
X69840549Y-76454879D01*
X69818193Y-76520759D01*
X69804007Y-76568473D01*
X69800293Y-76592027D01*
X69800602Y-76592852D01*
X69813189Y-76612104D01*
X69841744Y-76654463D01*
X69883267Y-76715521D01*
X69934756Y-76790868D01*
X69993211Y-76876096D01*
X70009858Y-76900315D01*
X70069215Y-76988123D01*
X70121447Y-77068238D01*
X70163708Y-77136062D01*
X70193153Y-77186993D01*
X70206937Y-77216431D01*
X70207605Y-77220048D01*
X70196024Y-77239057D01*
X70164024Y-77276714D01*
X70115718Y-77328973D01*
X70055220Y-77391786D01*
X69986644Y-77461106D01*
X69914104Y-77532885D01*
X69841712Y-77603077D01*
X69773584Y-77667635D01*
X69713832Y-77722510D01*
X69666571Y-77763656D01*
X69635913Y-77787026D01*
X69627432Y-77790842D01*
X69607691Y-77781855D01*
X69567274Y-77757616D01*
X69512763Y-77722209D01*
X69470823Y-77693711D01*
X69394829Y-77641418D01*
X69304834Y-77579845D01*
X69214564Y-77518370D01*
X69166032Y-77485469D01*
X69001762Y-77374359D01*
X68863869Y-77448916D01*
X68801049Y-77481578D01*
X68747629Y-77506966D01*
X68711484Y-77521446D01*
X68702284Y-77523460D01*
X68691221Y-77508584D01*
X68669394Y-77466547D01*
X68638434Y-77401227D01*
X68599970Y-77316500D01*
X68555632Y-77216245D01*
X68507047Y-77104339D01*
X68455846Y-76984659D01*
X68403659Y-76861084D01*
X68352113Y-76737491D01*
X68302840Y-76617757D01*
X68257467Y-76505759D01*
X68217625Y-76405377D01*
X68184942Y-76320486D01*
X68161049Y-76254965D01*
X68147574Y-76212690D01*
X68145406Y-76198172D01*
X68162583Y-76179653D01*
X68200190Y-76149590D01*
X68250366Y-76114232D01*
X68254578Y-76111434D01*
X68384264Y-76007625D01*
X68488834Y-75886515D01*
X68567381Y-75751976D01*
X68618999Y-75607882D01*
X68642782Y-75458105D01*
X68637823Y-75306517D01*
X68603217Y-75156992D01*
X68538057Y-75013400D01*
X68518886Y-74981984D01*
X68419174Y-74855125D01*
X68301377Y-74753255D01*
X68169571Y-74676904D01*
X68027833Y-74626602D01*
X67880242Y-74602879D01*
X67730873Y-74606265D01*
X67583803Y-74637288D01*
X67443111Y-74696480D01*
X67312873Y-74784369D01*
X67272586Y-74820042D01*
X67170055Y-74931706D01*
X67095341Y-75049257D01*
X67044090Y-75181020D01*
X67015546Y-75311507D01*
X67008500Y-75458216D01*
X67031996Y-75605653D01*
X67083649Y-75748834D01*
X67161071Y-75882777D01*
X67261875Y-76002498D01*
X67383676Y-76103014D01*
X67399684Y-76113609D01*
X67450398Y-76148306D01*
X67488950Y-76178370D01*
X67507381Y-76197565D01*
X67507649Y-76198172D01*
X67503692Y-76218936D01*
X67488007Y-76266062D01*
X67462222Y-76335673D01*
X67427969Y-76423893D01*
X67386877Y-76526844D01*
X67340576Y-76640650D01*
X67290696Y-76761435D01*
X67238867Y-76885321D01*
X67186719Y-77008432D01*
X67135882Y-77126891D01*
X67087987Y-77236823D01*
X67044662Y-77334349D01*
X67007538Y-77415593D01*
X66978244Y-77476679D01*
X66958412Y-77513730D01*
X66950426Y-77523460D01*
X66926021Y-77515883D01*
X66880358Y-77495560D01*
X66821310Y-77466125D01*
X66788840Y-77448916D01*
X66650947Y-77374359D01*
X66486677Y-77485469D01*
X66402821Y-77542390D01*
X66311013Y-77605030D01*
X66224980Y-77664011D01*
X66181887Y-77693711D01*
X66121277Y-77734410D01*
X66069955Y-77766663D01*
X66034615Y-77786384D01*
X66023137Y-77790554D01*
X66006430Y-77779307D01*
X65969454Y-77747911D01*
X65915795Y-77699624D01*
X65849038Y-77637708D01*
X65772766Y-77565421D01*
X65724527Y-77519008D01*
X65640133Y-77436087D01*
X65567197Y-77361920D01*
X65508669Y-77299680D01*
X65467497Y-77252541D01*
X65446628Y-77223673D01*
X65444626Y-77217815D01*
X65453917Y-77195532D01*
X65479591Y-77150477D01*
X65518800Y-77087211D01*
X65568697Y-77010295D01*
X65626433Y-76924292D01*
X65642851Y-76900315D01*
X65702677Y-76813170D01*
X65756350Y-76734710D01*
X65800870Y-76669345D01*
X65833235Y-76621484D01*
X65850445Y-76595535D01*
X65852107Y-76592852D01*
X65849621Y-76572172D01*
X65836423Y-76526704D01*
X65814814Y-76462444D01*
X65787096Y-76385387D01*
X65755570Y-76301529D01*
X65722537Y-76216866D01*
X65690299Y-76137392D01*
X65661157Y-76069104D01*
X65637412Y-76017997D01*
X65621365Y-75990067D01*
X65620225Y-75988727D01*
X65610412Y-75980745D01*
X65593839Y-75972851D01*
X65566868Y-75964229D01*
X65525861Y-75954062D01*
X65467180Y-75941531D01*
X65387187Y-75925821D01*
X65282245Y-75906113D01*
X65148715Y-75881592D01*
X65119804Y-75876319D01*
X65034118Y-75859764D01*
X64959418Y-75843569D01*
X64902306Y-75829296D01*
X64869383Y-75818508D01*
X64864969Y-75815993D01*
X64857694Y-75793696D01*
X64851781Y-75743869D01*
X64847234Y-75672304D01*
X64844055Y-75584793D01*
X64842251Y-75487128D01*
X64841823Y-75385101D01*
X64842777Y-75284503D01*
X64845116Y-75191127D01*
X64848844Y-75110765D01*
X64853966Y-75049209D01*
X64860484Y-75012250D01*
X64864414Y-75004686D01*
X64886292Y-74997056D01*
X64936109Y-74984642D01*
X65008903Y-74968522D01*
X65099711Y-74949773D01*
X65203569Y-74929471D01*
X65260154Y-74918830D01*
X65367514Y-74898760D01*
X65463254Y-74880580D01*
X65542694Y-74865199D01*
X65601154Y-74853531D01*
X65633955Y-74846488D01*
X65639354Y-74844926D01*
X65648478Y-74827322D01*
X65667765Y-74784918D01*
X65694645Y-74723772D01*
X65726546Y-74649943D01*
X65760898Y-74569489D01*
X65795129Y-74488468D01*
X65826669Y-74412937D01*
X65852946Y-74348955D01*
X65871389Y-74302580D01*
X65879429Y-74279869D01*
X65879578Y-74278876D01*
X65870465Y-74260961D01*
X65844914Y-74219733D01*
X65805612Y-74159291D01*
X65755243Y-74083731D01*
X65696494Y-73997152D01*
X65662342Y-73947421D01*
X65600110Y-73856236D01*
X65544836Y-73773449D01*
X65499218Y-73703249D01*
X65465952Y-73649824D01*
X65447736Y-73617361D01*
X65445105Y-73610083D01*
X65456414Y-73593145D01*
X65487681Y-73556978D01*
X65534910Y-73505635D01*
X65594108Y-73443167D01*
X65661281Y-73373626D01*
X65732434Y-73301065D01*
X65803574Y-73229535D01*
X65870707Y-73163087D01*
X65929839Y-73105774D01*
X65976975Y-73061647D01*
X66008123Y-73034759D01*
X66018543Y-73028342D01*
X66035509Y-73037365D01*
X66076089Y-73062715D01*
X66136337Y-73101810D01*
X66212307Y-73152071D01*
X66300054Y-73210917D01*
X66366244Y-73255748D01*
X66700668Y-73483154D01*
X66979433Y-73368238D01*
X67258197Y-73253322D01*
X67333746Y-72852576D01*
X67409294Y-72451829D01*
X68243415Y-72451829D01*
X68318964Y-72852576D01*
G37*
X68318964Y-72852576D02*
X68394513Y-73253322D01*
X68952041Y-73483154D01*
X69286465Y-73255748D01*
X69380122Y-73192431D01*
X69464782Y-73135896D01*
X69536495Y-73088727D01*
X69591311Y-73053502D01*
X69625280Y-73032805D01*
X69634530Y-73028342D01*
X69651195Y-73039820D01*
X69686806Y-73071551D01*
X69737371Y-73119483D01*
X69798900Y-73179562D01*
X69867399Y-73247733D01*
X69938879Y-73319945D01*
X70009347Y-73392142D01*
X70074811Y-73460273D01*
X70131280Y-73520283D01*
X70174763Y-73568119D01*
X70201268Y-73599727D01*
X70207605Y-73610305D01*
X70198486Y-73629806D01*
X70172920Y-73672531D01*
X70133597Y-73734298D01*
X70083203Y-73810931D01*
X70024427Y-73898248D01*
X69990368Y-73948052D01*
X69928289Y-74038993D01*
X69873126Y-74121059D01*
X69827554Y-74190163D01*
X69794250Y-74242222D01*
X69775890Y-74273150D01*
X69773131Y-74279650D01*
X69779385Y-74298121D01*
X69796434Y-74341172D01*
X69821703Y-74402749D01*
X69852622Y-74476799D01*
X69886618Y-74557270D01*
X69921118Y-74638107D01*
X69953551Y-74713258D01*
X69981343Y-74776671D01*
X70001923Y-74822293D01*
X70012719Y-74844069D01*
X70013356Y-74844926D01*
X70030307Y-74849084D01*
X70075451Y-74858361D01*
X70144110Y-74871844D01*
X70231602Y-74888621D01*
X70333250Y-74907781D01*
X70392556Y-74918830D01*
X70501172Y-74939510D01*
X70599277Y-74959189D01*
X70681909Y-74976789D01*
X70744104Y-74991233D01*
X70780899Y-75001446D01*
X70788296Y-75004686D01*
X70795540Y-75026617D01*
X70801385Y-75076147D01*
X70805835Y-75147485D01*
X70808893Y-75234839D01*
X70810565Y-75332417D01*
X70810853Y-75434426D01*
X70809761Y-75535075D01*
X70807294Y-75628572D01*
X70803456Y-75709125D01*
X70798250Y-75770942D01*
X70791681Y-75808230D01*
X70787741Y-75815993D01*
X70764188Y-75825298D01*
X70714282Y-75838600D01*
X70644623Y-75854337D01*
X70561813Y-75870946D01*
X70532905Y-75876319D01*
X70393531Y-75901848D01*
X70283436Y-75922408D01*
X70198982Y-75938815D01*
X70136530Y-75951887D01*
X70092444Y-75962441D01*
X70063085Y-75971294D01*
X70044815Y-75979263D01*
X70033998Y-75987165D01*
X70032485Y-75988727D01*
X70017377Y-76013886D01*
X69994329Y-76062850D01*
X69965644Y-76129621D01*
X69933622Y-76208205D01*
X69900565Y-76292607D01*
X69868773Y-76376830D01*
X69840549Y-76454879D01*
X69818193Y-76520759D01*
X69804007Y-76568473D01*
X69800293Y-76592027D01*
X69800602Y-76592852D01*
X69813189Y-76612104D01*
X69841744Y-76654463D01*
X69883267Y-76715521D01*
X69934756Y-76790868D01*
X69993211Y-76876096D01*
X70009858Y-76900315D01*
X70069215Y-76988123D01*
X70121447Y-77068238D01*
X70163708Y-77136062D01*
X70193153Y-77186993D01*
X70206937Y-77216431D01*
X70207605Y-77220048D01*
X70196024Y-77239057D01*
X70164024Y-77276714D01*
X70115718Y-77328973D01*
X70055220Y-77391786D01*
X69986644Y-77461106D01*
X69914104Y-77532885D01*
X69841712Y-77603077D01*
X69773584Y-77667635D01*
X69713832Y-77722510D01*
X69666571Y-77763656D01*
X69635913Y-77787026D01*
X69627432Y-77790842D01*
X69607691Y-77781855D01*
X69567274Y-77757616D01*
X69512763Y-77722209D01*
X69470823Y-77693711D01*
X69394829Y-77641418D01*
X69304834Y-77579845D01*
X69214564Y-77518370D01*
X69166032Y-77485469D01*
X69001762Y-77374359D01*
X68863869Y-77448916D01*
X68801049Y-77481578D01*
X68747629Y-77506966D01*
X68711484Y-77521446D01*
X68702284Y-77523460D01*
X68691221Y-77508584D01*
X68669394Y-77466547D01*
X68638434Y-77401227D01*
X68599970Y-77316500D01*
X68555632Y-77216245D01*
X68507047Y-77104339D01*
X68455846Y-76984659D01*
X68403659Y-76861084D01*
X68352113Y-76737491D01*
X68302840Y-76617757D01*
X68257467Y-76505759D01*
X68217625Y-76405377D01*
X68184942Y-76320486D01*
X68161049Y-76254965D01*
X68147574Y-76212690D01*
X68145406Y-76198172D01*
X68162583Y-76179653D01*
X68200190Y-76149590D01*
X68250366Y-76114232D01*
X68254578Y-76111434D01*
X68384264Y-76007625D01*
X68488834Y-75886515D01*
X68567381Y-75751976D01*
X68618999Y-75607882D01*
X68642782Y-75458105D01*
X68637823Y-75306517D01*
X68603217Y-75156992D01*
X68538057Y-75013400D01*
X68518886Y-74981984D01*
X68419174Y-74855125D01*
X68301377Y-74753255D01*
X68169571Y-74676904D01*
X68027833Y-74626602D01*
X67880242Y-74602879D01*
X67730873Y-74606265D01*
X67583803Y-74637288D01*
X67443111Y-74696480D01*
X67312873Y-74784369D01*
X67272586Y-74820042D01*
X67170055Y-74931706D01*
X67095341Y-75049257D01*
X67044090Y-75181020D01*
X67015546Y-75311507D01*
X67008500Y-75458216D01*
X67031996Y-75605653D01*
X67083649Y-75748834D01*
X67161071Y-75882777D01*
X67261875Y-76002498D01*
X67383676Y-76103014D01*
X67399684Y-76113609D01*
X67450398Y-76148306D01*
X67488950Y-76178370D01*
X67507381Y-76197565D01*
X67507649Y-76198172D01*
X67503692Y-76218936D01*
X67488007Y-76266062D01*
X67462222Y-76335673D01*
X67427969Y-76423893D01*
X67386877Y-76526844D01*
X67340576Y-76640650D01*
X67290696Y-76761435D01*
X67238867Y-76885321D01*
X67186719Y-77008432D01*
X67135882Y-77126891D01*
X67087987Y-77236823D01*
X67044662Y-77334349D01*
X67007538Y-77415593D01*
X66978244Y-77476679D01*
X66958412Y-77513730D01*
X66950426Y-77523460D01*
X66926021Y-77515883D01*
X66880358Y-77495560D01*
X66821310Y-77466125D01*
X66788840Y-77448916D01*
X66650947Y-77374359D01*
X66486677Y-77485469D01*
X66402821Y-77542390D01*
X66311013Y-77605030D01*
X66224980Y-77664011D01*
X66181887Y-77693711D01*
X66121277Y-77734410D01*
X66069955Y-77766663D01*
X66034615Y-77786384D01*
X66023137Y-77790554D01*
X66006430Y-77779307D01*
X65969454Y-77747911D01*
X65915795Y-77699624D01*
X65849038Y-77637708D01*
X65772766Y-77565421D01*
X65724527Y-77519008D01*
X65640133Y-77436087D01*
X65567197Y-77361920D01*
X65508669Y-77299680D01*
X65467497Y-77252541D01*
X65446628Y-77223673D01*
X65444626Y-77217815D01*
X65453917Y-77195532D01*
X65479591Y-77150477D01*
X65518800Y-77087211D01*
X65568697Y-77010295D01*
X65626433Y-76924292D01*
X65642851Y-76900315D01*
X65702677Y-76813170D01*
X65756350Y-76734710D01*
X65800870Y-76669345D01*
X65833235Y-76621484D01*
X65850445Y-76595535D01*
X65852107Y-76592852D01*
X65849621Y-76572172D01*
X65836423Y-76526704D01*
X65814814Y-76462444D01*
X65787096Y-76385387D01*
X65755570Y-76301529D01*
X65722537Y-76216866D01*
X65690299Y-76137392D01*
X65661157Y-76069104D01*
X65637412Y-76017997D01*
X65621365Y-75990067D01*
X65620225Y-75988727D01*
X65610412Y-75980745D01*
X65593839Y-75972851D01*
X65566868Y-75964229D01*
X65525861Y-75954062D01*
X65467180Y-75941531D01*
X65387187Y-75925821D01*
X65282245Y-75906113D01*
X65148715Y-75881592D01*
X65119804Y-75876319D01*
X65034118Y-75859764D01*
X64959418Y-75843569D01*
X64902306Y-75829296D01*
X64869383Y-75818508D01*
X64864969Y-75815993D01*
X64857694Y-75793696D01*
X64851781Y-75743869D01*
X64847234Y-75672304D01*
X64844055Y-75584793D01*
X64842251Y-75487128D01*
X64841823Y-75385101D01*
X64842777Y-75284503D01*
X64845116Y-75191127D01*
X64848844Y-75110765D01*
X64853966Y-75049209D01*
X64860484Y-75012250D01*
X64864414Y-75004686D01*
X64886292Y-74997056D01*
X64936109Y-74984642D01*
X65008903Y-74968522D01*
X65099711Y-74949773D01*
X65203569Y-74929471D01*
X65260154Y-74918830D01*
X65367514Y-74898760D01*
X65463254Y-74880580D01*
X65542694Y-74865199D01*
X65601154Y-74853531D01*
X65633955Y-74846488D01*
X65639354Y-74844926D01*
X65648478Y-74827322D01*
X65667765Y-74784918D01*
X65694645Y-74723772D01*
X65726546Y-74649943D01*
X65760898Y-74569489D01*
X65795129Y-74488468D01*
X65826669Y-74412937D01*
X65852946Y-74348955D01*
X65871389Y-74302580D01*
X65879429Y-74279869D01*
X65879578Y-74278876D01*
X65870465Y-74260961D01*
X65844914Y-74219733D01*
X65805612Y-74159291D01*
X65755243Y-74083731D01*
X65696494Y-73997152D01*
X65662342Y-73947421D01*
X65600110Y-73856236D01*
X65544836Y-73773449D01*
X65499218Y-73703249D01*
X65465952Y-73649824D01*
X65447736Y-73617361D01*
X65445105Y-73610083D01*
X65456414Y-73593145D01*
X65487681Y-73556978D01*
X65534910Y-73505635D01*
X65594108Y-73443167D01*
X65661281Y-73373626D01*
X65732434Y-73301065D01*
X65803574Y-73229535D01*
X65870707Y-73163087D01*
X65929839Y-73105774D01*
X65976975Y-73061647D01*
X66008123Y-73034759D01*
X66018543Y-73028342D01*
X66035509Y-73037365D01*
X66076089Y-73062715D01*
X66136337Y-73101810D01*
X66212307Y-73152071D01*
X66300054Y-73210917D01*
X66366244Y-73255748D01*
X66700668Y-73483154D01*
X66979433Y-73368238D01*
X67258197Y-73253322D01*
X67333746Y-72852576D01*
X67409294Y-72451829D01*
X68243415Y-72451829D01*
X68318964Y-72852576D01*
D11*
%TO.C,U2*%
X72136000Y-63988000D02*
X68686000Y-63988000D01*
X72136000Y-63988000D02*
X74086000Y-63988000D01*
X72136000Y-69108000D02*
X70186000Y-69108000D01*
X72136000Y-69108000D02*
X74086000Y-69108000D01*
%TO.C,U1*%
X72136000Y-57892000D02*
X68686000Y-57892000D01*
X72136000Y-57892000D02*
X74086000Y-57892000D01*
X72136000Y-63012000D02*
X70186000Y-63012000D01*
X72136000Y-63012000D02*
X74086000Y-63012000D01*
%TO.C,TP10*%
X73090000Y-51816000D02*
G75*
G03*
X73090000Y-51816000I-700000J0D01*
G01*
%TO.C,TP9*%
X67756000Y-62738000D02*
G75*
G03*
X67756000Y-62738000I-700000J0D01*
G01*
%TO.C,TP8*%
X66740000Y-67056000D02*
G75*
G03*
X66740000Y-67056000I-700000J0D01*
G01*
%TO.C,TP7*%
X81980000Y-72136000D02*
G75*
G03*
X81980000Y-72136000I-700000J0D01*
G01*
%TO.C,TP6*%
X84266000Y-59436000D02*
G75*
G03*
X84266000Y-59436000I-700000J0D01*
G01*
%TO.C,TP5*%
X82488000Y-49784000D02*
G75*
G03*
X82488000Y-49784000I-700000J0D01*
G01*
%TO.C,TP4*%
X77916000Y-56896000D02*
G75*
G03*
X77916000Y-56896000I-700000J0D01*
G01*
%TO.C,TP3*%
X80710000Y-62230000D02*
G75*
G03*
X80710000Y-62230000I-700000J0D01*
G01*
%TO.C,TP2*%
X75376000Y-70866000D02*
G75*
G03*
X75376000Y-70866000I-700000J0D01*
G01*
%TO.C,TP1*%
X79948000Y-64516000D02*
G75*
G03*
X79948000Y-64516000I-700000J0D01*
G01*
%TO.C,Q3*%
X65296000Y-54620000D02*
X66756000Y-54620000D01*
X65296000Y-57780000D02*
X67456000Y-57780000D01*
X65296000Y-57780000D02*
X65296000Y-56850000D01*
X65296000Y-54620000D02*
X65296000Y-55550000D01*
%TO.C,Q2*%
X65280000Y-58364000D02*
X66740000Y-58364000D01*
X65280000Y-61524000D02*
X67440000Y-61524000D01*
X65280000Y-61524000D02*
X65280000Y-60594000D01*
X65280000Y-58364000D02*
X65280000Y-59294000D01*
%TO.C,R8*%
X78126000Y-50326936D02*
X78126000Y-51781064D01*
X76306000Y-50326936D02*
X76306000Y-51781064D01*
%TO.C,J4*%
X85284000Y-78546000D02*
X87944000Y-78546000D01*
X85284000Y-45466000D02*
X85284000Y-78546000D01*
X87944000Y-45466000D02*
X87944000Y-78546000D01*
X85284000Y-45466000D02*
X87944000Y-45466000D01*
X85284000Y-44196000D02*
X85284000Y-42866000D01*
X85284000Y-42866000D02*
X86614000Y-42866000D01*
%TO.C,J3*%
X83105000Y-39160000D02*
X83105000Y-47660000D01*
X81855000Y-37410000D02*
X83105000Y-39160000D01*
X66105000Y-37410000D02*
X81855000Y-37410000D01*
X65105000Y-38910000D02*
X66105000Y-37410000D01*
X65105000Y-47660000D02*
X65105000Y-38910000D01*
X68105000Y-47660000D02*
X65105000Y-47660000D01*
X68105000Y-48410000D02*
X68105000Y-47660000D01*
X80105000Y-48410000D02*
X68105000Y-48410000D01*
X80105000Y-47660000D02*
X80105000Y-48410000D01*
X83105000Y-47660000D02*
X80105000Y-47660000D01*
%TO.C,R7*%
X66767064Y-49382000D02*
X65312936Y-49382000D01*
X66767064Y-51202000D02*
X65312936Y-51202000D01*
%TO.C,D3*%
X67900000Y-51872000D02*
X65040000Y-51872000D01*
X67900000Y-53792000D02*
X67900000Y-51872000D01*
X65040000Y-53792000D02*
X67900000Y-53792000D01*
%TO.C,U2*%
D12*
X75946095Y-63968380D02*
X75946095Y-64777904D01*
X75993714Y-64873142D01*
X76041333Y-64920761D01*
X76136571Y-64968380D01*
X76327047Y-64968380D01*
X76422285Y-64920761D01*
X76469904Y-64873142D01*
X76517523Y-64777904D01*
X76517523Y-63968380D01*
X76946095Y-64063619D02*
X76993714Y-64016000D01*
X77088952Y-63968380D01*
X77327047Y-63968380D01*
X77422285Y-64016000D01*
X77469904Y-64063619D01*
X77517523Y-64158857D01*
X77517523Y-64254095D01*
X77469904Y-64396952D01*
X76898476Y-64968380D01*
X77517523Y-64968380D01*
%TO.C,U1*%
X71374095Y-56504380D02*
X71374095Y-57313904D01*
X71421714Y-57409142D01*
X71469333Y-57456761D01*
X71564571Y-57504380D01*
X71755047Y-57504380D01*
X71850285Y-57456761D01*
X71897904Y-57409142D01*
X71945523Y-57313904D01*
X71945523Y-56504380D01*
X72945523Y-57504380D02*
X72374095Y-57504380D01*
X72659809Y-57504380D02*
X72659809Y-56504380D01*
X72564571Y-56647238D01*
X72469333Y-56742476D01*
X72374095Y-56790095D01*
%TO.C,TP10*%
D10*
X71520952Y-50272190D02*
X71806666Y-50272190D01*
X71663809Y-50772190D02*
X71663809Y-50272190D01*
X71973333Y-50772190D02*
X71973333Y-50272190D01*
X72163809Y-50272190D01*
X72211428Y-50296000D01*
X72235238Y-50319809D01*
X72259047Y-50367428D01*
X72259047Y-50438857D01*
X72235238Y-50486476D01*
X72211428Y-50510285D01*
X72163809Y-50534095D01*
X71973333Y-50534095D01*
X72735238Y-50772190D02*
X72449523Y-50772190D01*
X72592380Y-50772190D02*
X72592380Y-50272190D01*
X72544761Y-50343619D01*
X72497142Y-50391238D01*
X72449523Y-50415047D01*
X73044761Y-50272190D02*
X73092380Y-50272190D01*
X73140000Y-50296000D01*
X73163809Y-50319809D01*
X73187619Y-50367428D01*
X73211428Y-50462666D01*
X73211428Y-50581714D01*
X73187619Y-50676952D01*
X73163809Y-50724571D01*
X73140000Y-50748380D01*
X73092380Y-50772190D01*
X73044761Y-50772190D01*
X72997142Y-50748380D01*
X72973333Y-50724571D01*
X72949523Y-50676952D01*
X72925714Y-50581714D01*
X72925714Y-50462666D01*
X72949523Y-50367428D01*
X72973333Y-50319809D01*
X72997142Y-50296000D01*
X73044761Y-50272190D01*
%TO.C,TP9*%
X64901047Y-62210190D02*
X65186761Y-62210190D01*
X65043904Y-62710190D02*
X65043904Y-62210190D01*
X65353428Y-62710190D02*
X65353428Y-62210190D01*
X65543904Y-62210190D01*
X65591523Y-62234000D01*
X65615333Y-62257809D01*
X65639142Y-62305428D01*
X65639142Y-62376857D01*
X65615333Y-62424476D01*
X65591523Y-62448285D01*
X65543904Y-62472095D01*
X65353428Y-62472095D01*
X65877238Y-62710190D02*
X65972476Y-62710190D01*
X66020095Y-62686380D01*
X66043904Y-62662571D01*
X66091523Y-62591142D01*
X66115333Y-62495904D01*
X66115333Y-62305428D01*
X66091523Y-62257809D01*
X66067714Y-62234000D01*
X66020095Y-62210190D01*
X65924857Y-62210190D01*
X65877238Y-62234000D01*
X65853428Y-62257809D01*
X65829619Y-62305428D01*
X65829619Y-62424476D01*
X65853428Y-62472095D01*
X65877238Y-62495904D01*
X65924857Y-62519714D01*
X66020095Y-62519714D01*
X66067714Y-62495904D01*
X66091523Y-62472095D01*
X66115333Y-62424476D01*
%TO.C,TP8*%
X63885047Y-66274190D02*
X64170761Y-66274190D01*
X64027904Y-66774190D02*
X64027904Y-66274190D01*
X64337428Y-66774190D02*
X64337428Y-66274190D01*
X64527904Y-66274190D01*
X64575523Y-66298000D01*
X64599333Y-66321809D01*
X64623142Y-66369428D01*
X64623142Y-66440857D01*
X64599333Y-66488476D01*
X64575523Y-66512285D01*
X64527904Y-66536095D01*
X64337428Y-66536095D01*
X64908857Y-66488476D02*
X64861238Y-66464666D01*
X64837428Y-66440857D01*
X64813619Y-66393238D01*
X64813619Y-66369428D01*
X64837428Y-66321809D01*
X64861238Y-66298000D01*
X64908857Y-66274190D01*
X65004095Y-66274190D01*
X65051714Y-66298000D01*
X65075523Y-66321809D01*
X65099333Y-66369428D01*
X65099333Y-66393238D01*
X65075523Y-66440857D01*
X65051714Y-66464666D01*
X65004095Y-66488476D01*
X64908857Y-66488476D01*
X64861238Y-66512285D01*
X64837428Y-66536095D01*
X64813619Y-66583714D01*
X64813619Y-66678952D01*
X64837428Y-66726571D01*
X64861238Y-66750380D01*
X64908857Y-66774190D01*
X65004095Y-66774190D01*
X65051714Y-66750380D01*
X65075523Y-66726571D01*
X65099333Y-66678952D01*
X65099333Y-66583714D01*
X65075523Y-66536095D01*
X65051714Y-66512285D01*
X65004095Y-66488476D01*
%TO.C,TP7*%
X80649047Y-70414190D02*
X80934761Y-70414190D01*
X80791904Y-70914190D02*
X80791904Y-70414190D01*
X81101428Y-70914190D02*
X81101428Y-70414190D01*
X81291904Y-70414190D01*
X81339523Y-70438000D01*
X81363333Y-70461809D01*
X81387142Y-70509428D01*
X81387142Y-70580857D01*
X81363333Y-70628476D01*
X81339523Y-70652285D01*
X81291904Y-70676095D01*
X81101428Y-70676095D01*
X81553809Y-70414190D02*
X81887142Y-70414190D01*
X81672857Y-70914190D01*
%TO.C,TP6*%
X82935047Y-57714190D02*
X83220761Y-57714190D01*
X83077904Y-58214190D02*
X83077904Y-57714190D01*
X83387428Y-58214190D02*
X83387428Y-57714190D01*
X83577904Y-57714190D01*
X83625523Y-57738000D01*
X83649333Y-57761809D01*
X83673142Y-57809428D01*
X83673142Y-57880857D01*
X83649333Y-57928476D01*
X83625523Y-57952285D01*
X83577904Y-57976095D01*
X83387428Y-57976095D01*
X84101714Y-57714190D02*
X84006476Y-57714190D01*
X83958857Y-57738000D01*
X83935047Y-57761809D01*
X83887428Y-57833238D01*
X83863619Y-57928476D01*
X83863619Y-58118952D01*
X83887428Y-58166571D01*
X83911238Y-58190380D01*
X83958857Y-58214190D01*
X84054095Y-58214190D01*
X84101714Y-58190380D01*
X84125523Y-58166571D01*
X84149333Y-58118952D01*
X84149333Y-57999904D01*
X84125523Y-57952285D01*
X84101714Y-57928476D01*
X84054095Y-57904666D01*
X83958857Y-57904666D01*
X83911238Y-57928476D01*
X83887428Y-57952285D01*
X83863619Y-57999904D01*
%TO.C,TP5*%
X81157047Y-48240190D02*
X81442761Y-48240190D01*
X81299904Y-48740190D02*
X81299904Y-48240190D01*
X81609428Y-48740190D02*
X81609428Y-48240190D01*
X81799904Y-48240190D01*
X81847523Y-48264000D01*
X81871333Y-48287809D01*
X81895142Y-48335428D01*
X81895142Y-48406857D01*
X81871333Y-48454476D01*
X81847523Y-48478285D01*
X81799904Y-48502095D01*
X81609428Y-48502095D01*
X82347523Y-48240190D02*
X82109428Y-48240190D01*
X82085619Y-48478285D01*
X82109428Y-48454476D01*
X82157047Y-48430666D01*
X82276095Y-48430666D01*
X82323714Y-48454476D01*
X82347523Y-48478285D01*
X82371333Y-48525904D01*
X82371333Y-48644952D01*
X82347523Y-48692571D01*
X82323714Y-48716380D01*
X82276095Y-48740190D01*
X82157047Y-48740190D01*
X82109428Y-48716380D01*
X82085619Y-48692571D01*
%TO.C,TP4*%
X76585047Y-55174190D02*
X76870761Y-55174190D01*
X76727904Y-55674190D02*
X76727904Y-55174190D01*
X77037428Y-55674190D02*
X77037428Y-55174190D01*
X77227904Y-55174190D01*
X77275523Y-55198000D01*
X77299333Y-55221809D01*
X77323142Y-55269428D01*
X77323142Y-55340857D01*
X77299333Y-55388476D01*
X77275523Y-55412285D01*
X77227904Y-55436095D01*
X77037428Y-55436095D01*
X77751714Y-55340857D02*
X77751714Y-55674190D01*
X77632666Y-55150380D02*
X77513619Y-55507523D01*
X77823142Y-55507523D01*
%TO.C,TP3*%
X79379047Y-60508190D02*
X79664761Y-60508190D01*
X79521904Y-61008190D02*
X79521904Y-60508190D01*
X79831428Y-61008190D02*
X79831428Y-60508190D01*
X80021904Y-60508190D01*
X80069523Y-60532000D01*
X80093333Y-60555809D01*
X80117142Y-60603428D01*
X80117142Y-60674857D01*
X80093333Y-60722476D01*
X80069523Y-60746285D01*
X80021904Y-60770095D01*
X79831428Y-60770095D01*
X80283809Y-60508190D02*
X80593333Y-60508190D01*
X80426666Y-60698666D01*
X80498095Y-60698666D01*
X80545714Y-60722476D01*
X80569523Y-60746285D01*
X80593333Y-60793904D01*
X80593333Y-60912952D01*
X80569523Y-60960571D01*
X80545714Y-60984380D01*
X80498095Y-61008190D01*
X80355238Y-61008190D01*
X80307619Y-60984380D01*
X80283809Y-60960571D01*
%TO.C,TP2*%
X72267047Y-70592190D02*
X72552761Y-70592190D01*
X72409904Y-71092190D02*
X72409904Y-70592190D01*
X72719428Y-71092190D02*
X72719428Y-70592190D01*
X72909904Y-70592190D01*
X72957523Y-70616000D01*
X72981333Y-70639809D01*
X73005142Y-70687428D01*
X73005142Y-70758857D01*
X72981333Y-70806476D01*
X72957523Y-70830285D01*
X72909904Y-70854095D01*
X72719428Y-70854095D01*
X73195619Y-70639809D02*
X73219428Y-70616000D01*
X73267047Y-70592190D01*
X73386095Y-70592190D01*
X73433714Y-70616000D01*
X73457523Y-70639809D01*
X73481333Y-70687428D01*
X73481333Y-70735047D01*
X73457523Y-70806476D01*
X73171809Y-71092190D01*
X73481333Y-71092190D01*
%TO.C,TP1*%
X80395047Y-64242190D02*
X80680761Y-64242190D01*
X80537904Y-64742190D02*
X80537904Y-64242190D01*
X80847428Y-64742190D02*
X80847428Y-64242190D01*
X81037904Y-64242190D01*
X81085523Y-64266000D01*
X81109333Y-64289809D01*
X81133142Y-64337428D01*
X81133142Y-64408857D01*
X81109333Y-64456476D01*
X81085523Y-64480285D01*
X81037904Y-64504095D01*
X80847428Y-64504095D01*
X81609333Y-64742190D02*
X81323619Y-64742190D01*
X81466476Y-64742190D02*
X81466476Y-64242190D01*
X81418857Y-64313619D01*
X81371238Y-64361238D01*
X81323619Y-64385047D01*
%TO.C,Q3*%
D12*
X64047619Y-56483238D02*
X64000000Y-56578476D01*
X63904761Y-56673714D01*
X63761904Y-56816571D01*
X63714285Y-56911809D01*
X63714285Y-57007047D01*
X63952380Y-56959428D02*
X63904761Y-57054666D01*
X63809523Y-57149904D01*
X63619047Y-57197523D01*
X63285714Y-57197523D01*
X63095238Y-57149904D01*
X63000000Y-57054666D01*
X62952380Y-56959428D01*
X62952380Y-56768952D01*
X63000000Y-56673714D01*
X63095238Y-56578476D01*
X63285714Y-56530857D01*
X63619047Y-56530857D01*
X63809523Y-56578476D01*
X63904761Y-56673714D01*
X63952380Y-56768952D01*
X63952380Y-56959428D01*
X62952380Y-56197523D02*
X62952380Y-55578476D01*
X63333333Y-55911809D01*
X63333333Y-55768952D01*
X63380952Y-55673714D01*
X63428571Y-55626095D01*
X63523809Y-55578476D01*
X63761904Y-55578476D01*
X63857142Y-55626095D01*
X63904761Y-55673714D01*
X63952380Y-55768952D01*
X63952380Y-56054666D01*
X63904761Y-56149904D01*
X63857142Y-56197523D01*
%TO.C,Q2*%
X64047619Y-60039238D02*
X64000000Y-60134476D01*
X63904761Y-60229714D01*
X63761904Y-60372571D01*
X63714285Y-60467809D01*
X63714285Y-60563047D01*
X63952380Y-60515428D02*
X63904761Y-60610666D01*
X63809523Y-60705904D01*
X63619047Y-60753523D01*
X63285714Y-60753523D01*
X63095238Y-60705904D01*
X63000000Y-60610666D01*
X62952380Y-60515428D01*
X62952380Y-60324952D01*
X63000000Y-60229714D01*
X63095238Y-60134476D01*
X63285714Y-60086857D01*
X63619047Y-60086857D01*
X63809523Y-60134476D01*
X63904761Y-60229714D01*
X63952380Y-60324952D01*
X63952380Y-60515428D01*
X63047619Y-59705904D02*
X63000000Y-59658285D01*
X62952380Y-59563047D01*
X62952380Y-59324952D01*
X63000000Y-59229714D01*
X63047619Y-59182095D01*
X63142857Y-59134476D01*
X63238095Y-59134476D01*
X63380952Y-59182095D01*
X63952380Y-59753523D01*
X63952380Y-59134476D01*
%TO.C,R8*%
X79488380Y-51220666D02*
X79012190Y-51554000D01*
X79488380Y-51792095D02*
X78488380Y-51792095D01*
X78488380Y-51411142D01*
X78536000Y-51315904D01*
X78583619Y-51268285D01*
X78678857Y-51220666D01*
X78821714Y-51220666D01*
X78916952Y-51268285D01*
X78964571Y-51315904D01*
X79012190Y-51411142D01*
X79012190Y-51792095D01*
X78916952Y-50649238D02*
X78869333Y-50744476D01*
X78821714Y-50792095D01*
X78726476Y-50839714D01*
X78678857Y-50839714D01*
X78583619Y-50792095D01*
X78536000Y-50744476D01*
X78488380Y-50649238D01*
X78488380Y-50458761D01*
X78536000Y-50363523D01*
X78583619Y-50315904D01*
X78678857Y-50268285D01*
X78726476Y-50268285D01*
X78821714Y-50315904D01*
X78869333Y-50363523D01*
X78916952Y-50458761D01*
X78916952Y-50649238D01*
X78964571Y-50744476D01*
X79012190Y-50792095D01*
X79107428Y-50839714D01*
X79297904Y-50839714D01*
X79393142Y-50792095D01*
X79440761Y-50744476D01*
X79488380Y-50649238D01*
X79488380Y-50458761D01*
X79440761Y-50363523D01*
X79393142Y-50315904D01*
X79297904Y-50268285D01*
X79107428Y-50268285D01*
X79012190Y-50315904D01*
X78964571Y-50363523D01*
X78916952Y-50458761D01*
%TO.C,J4*%
X86280666Y-41318380D02*
X86280666Y-42032666D01*
X86233047Y-42175523D01*
X86137809Y-42270761D01*
X85994952Y-42318380D01*
X85899714Y-42318380D01*
X87185428Y-41651714D02*
X87185428Y-42318380D01*
X86947333Y-41270761D02*
X86709238Y-41985047D01*
X87328285Y-41985047D01*
%TO.C,J3*%
X83867666Y-41108380D02*
X83867666Y-41822666D01*
X83820047Y-41965523D01*
X83724809Y-42060761D01*
X83581952Y-42108380D01*
X83486714Y-42108380D01*
X84248619Y-41108380D02*
X84867666Y-41108380D01*
X84534333Y-41489333D01*
X84677190Y-41489333D01*
X84772428Y-41536952D01*
X84820047Y-41584571D01*
X84867666Y-41679809D01*
X84867666Y-41917904D01*
X84820047Y-42013142D01*
X84772428Y-42060761D01*
X84677190Y-42108380D01*
X84391476Y-42108380D01*
X84296238Y-42060761D01*
X84248619Y-42013142D01*
%TO.C,R7*%
X70048380Y-50458666D02*
X69572190Y-50792000D01*
X70048380Y-51030095D02*
X69048380Y-51030095D01*
X69048380Y-50649142D01*
X69096000Y-50553904D01*
X69143619Y-50506285D01*
X69238857Y-50458666D01*
X69381714Y-50458666D01*
X69476952Y-50506285D01*
X69524571Y-50553904D01*
X69572190Y-50649142D01*
X69572190Y-51030095D01*
X69048380Y-50125333D02*
X69048380Y-49458666D01*
X70048380Y-49887238D01*
%TO.C,D3*%
X68857904Y-53284380D02*
X68857904Y-52284380D01*
X69096000Y-52284380D01*
X69238857Y-52332000D01*
X69334095Y-52427238D01*
X69381714Y-52522476D01*
X69429333Y-52712952D01*
X69429333Y-52855809D01*
X69381714Y-53046285D01*
X69334095Y-53141523D01*
X69238857Y-53236761D01*
X69096000Y-53284380D01*
X68857904Y-53284380D01*
X69762666Y-52284380D02*
X70381714Y-52284380D01*
X70048380Y-52665333D01*
X70191238Y-52665333D01*
X70286476Y-52712952D01*
X70334095Y-52760571D01*
X70381714Y-52855809D01*
X70381714Y-53093904D01*
X70334095Y-53189142D01*
X70286476Y-53236761D01*
X70191238Y-53284380D01*
X69905523Y-53284380D01*
X69810285Y-53236761D01*
X69762666Y-53189142D01*
%TD*%
M02*
