M48
; DRILL file {KiCad (5.1.10)-1} date 10/15/21 09:25:52
; FORMAT={-:-/ absolute / inch / decimal}
; #@! TF.CreationDate,2021-10-15T09:25:52+02:00
; #@! TF.GenerationSoftware,Kicad,Pcbnew,(5.1.10)-1
; #@! TF.FileFunction,Plated,1,2,PTH
FMAT,2
INCH
T1C0.0157
T2C0.0394
%
G90
G05
T1
X2.56Y-2.36
X2.63Y-2.17
X2.63Y-2.3226
X2.68Y-2.5121
X2.69Y-2.24
X2.72Y-1.85
X2.73Y-2.1
X2.74Y-2.55
X2.74Y-2.69
X2.7426Y-2.455
X2.7426Y-2.305
X2.8Y-1.79
X2.83Y-2.5121
X2.85Y-2.3085
X2.85Y-2.43
X2.8781Y-1.8469
X2.93Y-2.55
X2.9374Y-2.645
X2.9569Y-1.8469
X2.98Y-2.03
X3.0Y-2.33
X3.04Y-2.07
X3.07Y-2.37
X3.11Y-1.85
X3.14Y-2.14
X3.27Y-2.38
X3.3Y-2.61
X3.3Y-2.78
T2
X3.41Y-1.74
X3.41Y-1.84
X3.41Y-1.94
X3.41Y-2.04
X3.41Y-2.14
X3.41Y-2.24
X3.41Y-2.34
X3.41Y-2.44
X3.41Y-2.54
X3.41Y-2.64
X3.41Y-2.74
X3.41Y-2.84
X3.41Y-2.94
X3.41Y-3.04
T0
M30
