%TF.GenerationSoftware,KiCad,Pcbnew,5.1.10*%
%TF.CreationDate,2021-09-14T17:25:50+02:00*%
%TF.ProjectId,BTS-MainBoard-Control,4254532d-4d61-4696-9e42-6f6172642d43,rev?*%
%TF.SameCoordinates,Original*%
%TF.FileFunction,Legend,Bot*%
%TF.FilePolarity,Positive*%
%FSLAX46Y46*%
G04 Gerber Fmt 4.6, Leading zero omitted, Abs format (unit mm)*
G04 Created by KiCad (PCBNEW 5.1.10) date 2021-09-14 17:25:50*
%MOMM*%
%LPD*%
G01*
G04 APERTURE LIST*
%ADD10C,0.100000*%
%ADD11C,0.170000*%
%ADD12C,0.010000*%
%ADD13C,0.120000*%
%ADD14C,0.150000*%
G04 APERTURE END LIST*
D10*
X81716666Y-52453750D02*
X81016666Y-52541250D01*
X81016666Y-52707916D01*
X81050000Y-52803750D01*
X81116666Y-52862083D01*
X81183333Y-52887083D01*
X81316666Y-52903750D01*
X81416666Y-52891250D01*
X81550000Y-52841250D01*
X81616666Y-52799583D01*
X81683333Y-52724583D01*
X81716666Y-52620416D01*
X81716666Y-52453750D01*
X81683333Y-53424583D02*
X81716666Y-53353750D01*
X81716666Y-53220416D01*
X81683333Y-53157916D01*
X81616666Y-53132916D01*
X81350000Y-53166250D01*
X81283333Y-53207916D01*
X81250000Y-53278750D01*
X81250000Y-53412083D01*
X81283333Y-53474583D01*
X81350000Y-53499583D01*
X81416666Y-53491250D01*
X81483333Y-53149583D01*
X81683333Y-53724583D02*
X81716666Y-53787083D01*
X81716666Y-53920416D01*
X81683333Y-53991250D01*
X81616666Y-54032916D01*
X81583333Y-54037083D01*
X81516666Y-54012083D01*
X81483333Y-53949583D01*
X81483333Y-53849583D01*
X81450000Y-53787083D01*
X81383333Y-53762083D01*
X81350000Y-53766250D01*
X81283333Y-53807916D01*
X81250000Y-53878750D01*
X81250000Y-53978750D01*
X81283333Y-54041250D01*
X81716666Y-54320416D02*
X81250000Y-54378750D01*
X81016666Y-54407916D02*
X81050000Y-54370416D01*
X81083333Y-54399583D01*
X81050000Y-54437083D01*
X81016666Y-54407916D01*
X81083333Y-54399583D01*
X81250000Y-55012083D02*
X81816666Y-54941250D01*
X81883333Y-54899583D01*
X81916666Y-54862083D01*
X81950000Y-54791250D01*
X81950000Y-54691250D01*
X81916666Y-54628750D01*
X81683333Y-54957916D02*
X81716666Y-54887083D01*
X81716666Y-54753750D01*
X81683333Y-54691250D01*
X81650000Y-54662083D01*
X81583333Y-54637083D01*
X81383333Y-54662083D01*
X81316666Y-54703750D01*
X81283333Y-54741250D01*
X81250000Y-54812083D01*
X81250000Y-54945416D01*
X81283333Y-55007916D01*
X81250000Y-55345416D02*
X81716666Y-55287083D01*
X81316666Y-55337083D02*
X81283333Y-55374583D01*
X81250000Y-55445416D01*
X81250000Y-55545416D01*
X81283333Y-55607916D01*
X81350000Y-55632916D01*
X81716666Y-55587083D01*
X81683333Y-56191250D02*
X81716666Y-56120416D01*
X81716666Y-55987083D01*
X81683333Y-55924583D01*
X81616666Y-55899583D01*
X81350000Y-55932916D01*
X81283333Y-55974583D01*
X81250000Y-56045416D01*
X81250000Y-56178750D01*
X81283333Y-56241250D01*
X81350000Y-56266250D01*
X81416666Y-56257916D01*
X81483333Y-55916250D01*
X81716666Y-56820416D02*
X81016666Y-56907916D01*
X81683333Y-56824583D02*
X81716666Y-56753750D01*
X81716666Y-56620416D01*
X81683333Y-56557916D01*
X81650000Y-56528750D01*
X81583333Y-56503750D01*
X81383333Y-56528750D01*
X81316666Y-56570416D01*
X81283333Y-56607916D01*
X81250000Y-56678750D01*
X81250000Y-56812083D01*
X81283333Y-56874583D01*
X81716666Y-57687083D02*
X81016666Y-57774583D01*
X81283333Y-57741250D02*
X81250000Y-57812083D01*
X81250000Y-57945416D01*
X81283333Y-58007916D01*
X81316666Y-58037083D01*
X81383333Y-58062083D01*
X81583333Y-58037083D01*
X81650000Y-57995416D01*
X81683333Y-57957916D01*
X81716666Y-57887083D01*
X81716666Y-57753750D01*
X81683333Y-57691250D01*
X81250000Y-58312083D02*
X81716666Y-58420416D01*
X81250000Y-58645416D02*
X81716666Y-58420416D01*
X81883333Y-58332916D01*
X81916666Y-58295416D01*
X81950000Y-58224583D01*
X81350000Y-59666250D02*
X81383333Y-59762083D01*
X81416666Y-59791250D01*
X81483333Y-59816250D01*
X81583333Y-59803750D01*
X81650000Y-59762083D01*
X81683333Y-59724583D01*
X81716666Y-59653750D01*
X81716666Y-59387083D01*
X81016666Y-59474583D01*
X81016666Y-59707916D01*
X81050000Y-59770416D01*
X81083333Y-59799583D01*
X81150000Y-59824583D01*
X81216666Y-59816250D01*
X81283333Y-59774583D01*
X81316666Y-59737083D01*
X81350000Y-59666250D01*
X81350000Y-59432916D01*
X81683333Y-60357916D02*
X81716666Y-60287083D01*
X81716666Y-60153750D01*
X81683333Y-60091250D01*
X81616666Y-60066250D01*
X81350000Y-60099583D01*
X81283333Y-60141250D01*
X81250000Y-60212083D01*
X81250000Y-60345416D01*
X81283333Y-60407916D01*
X81350000Y-60432916D01*
X81416666Y-60424583D01*
X81483333Y-60082916D01*
X81250000Y-60745416D02*
X81716666Y-60687083D01*
X81316666Y-60737083D02*
X81283333Y-60774583D01*
X81250000Y-60845416D01*
X81250000Y-60945416D01*
X81283333Y-61007916D01*
X81350000Y-61032916D01*
X81716666Y-60987083D01*
X81716666Y-61420416D02*
X81683333Y-61357916D01*
X81650000Y-61328750D01*
X81583333Y-61303750D01*
X81383333Y-61328750D01*
X81316666Y-61370416D01*
X81283333Y-61407916D01*
X81250000Y-61478750D01*
X81250000Y-61578750D01*
X81283333Y-61641250D01*
X81316666Y-61670416D01*
X81383333Y-61695416D01*
X81583333Y-61670416D01*
X81650000Y-61628750D01*
X81683333Y-61591250D01*
X81716666Y-61520416D01*
X81716666Y-61420416D01*
X81716666Y-61953750D02*
X81250000Y-62012083D01*
X81016666Y-62041250D02*
X81050000Y-62003750D01*
X81083333Y-62032916D01*
X81050000Y-62070416D01*
X81016666Y-62041250D01*
X81083333Y-62032916D01*
X81250000Y-62245416D02*
X81250000Y-62512083D01*
X81016666Y-62374583D02*
X81616666Y-62299583D01*
X81683333Y-62324583D01*
X81716666Y-62387083D01*
X81716666Y-62453750D01*
X81016666Y-63207916D02*
X81016666Y-63607916D01*
X81716666Y-63320416D02*
X81016666Y-63407916D01*
X81716666Y-64053750D02*
X81350000Y-64099583D01*
X81283333Y-64074583D01*
X81250000Y-64012083D01*
X81250000Y-63878750D01*
X81283333Y-63807916D01*
X81683333Y-64057916D02*
X81716666Y-63987083D01*
X81716666Y-63820416D01*
X81683333Y-63757916D01*
X81616666Y-63732916D01*
X81550000Y-63741250D01*
X81483333Y-63782916D01*
X81450000Y-63853750D01*
X81450000Y-64020416D01*
X81416666Y-64091250D01*
X81716666Y-64387083D02*
X81250000Y-64445416D01*
X81383333Y-64428750D02*
X81316666Y-64470416D01*
X81283333Y-64507916D01*
X81250000Y-64578750D01*
X81250000Y-64645416D01*
X81716666Y-64820416D02*
X81250000Y-64878750D01*
X81383333Y-64862083D02*
X81316666Y-64903750D01*
X81283333Y-64941250D01*
X81250000Y-65012083D01*
X81250000Y-65078750D01*
X81716666Y-65553750D02*
X81350000Y-65599583D01*
X81283333Y-65574583D01*
X81250000Y-65512083D01*
X81250000Y-65378750D01*
X81283333Y-65307916D01*
X81683333Y-65557916D02*
X81716666Y-65487083D01*
X81716666Y-65320416D01*
X81683333Y-65257916D01*
X81616666Y-65232916D01*
X81550000Y-65241250D01*
X81483333Y-65282916D01*
X81450000Y-65353750D01*
X81450000Y-65520416D01*
X81416666Y-65591250D01*
X81716666Y-66187083D02*
X81016666Y-66274583D01*
X81683333Y-66191250D02*
X81716666Y-66120416D01*
X81716666Y-65987083D01*
X81683333Y-65924583D01*
X81650000Y-65895416D01*
X81583333Y-65870416D01*
X81383333Y-65895416D01*
X81316666Y-65937083D01*
X81283333Y-65974583D01*
X81250000Y-66045416D01*
X81250000Y-66178750D01*
X81283333Y-66241250D01*
X81683333Y-66791250D02*
X81716666Y-66720416D01*
X81716666Y-66587083D01*
X81683333Y-66524583D01*
X81616666Y-66499583D01*
X81350000Y-66532916D01*
X81283333Y-66574583D01*
X81250000Y-66645416D01*
X81250000Y-66778750D01*
X81283333Y-66841250D01*
X81350000Y-66866250D01*
X81416666Y-66857916D01*
X81483333Y-66516250D01*
X83133333Y-54103750D02*
X83100000Y-54074583D01*
X83000000Y-54020416D01*
X82933333Y-53995416D01*
X82833333Y-53974583D01*
X82666666Y-53962083D01*
X82533333Y-53978750D01*
X82366666Y-54032916D01*
X82266666Y-54078750D01*
X82200000Y-54120416D01*
X82100000Y-54199583D01*
X82066666Y-54237083D01*
X82866666Y-54703750D02*
X82500000Y-54749583D01*
X82433333Y-54724583D01*
X82400000Y-54662083D01*
X82400000Y-54528750D01*
X82433333Y-54457916D01*
X82833333Y-54707916D02*
X82866666Y-54637083D01*
X82866666Y-54470416D01*
X82833333Y-54407916D01*
X82766666Y-54382916D01*
X82700000Y-54391250D01*
X82633333Y-54432916D01*
X82600000Y-54503750D01*
X82600000Y-54670416D01*
X82566666Y-54741250D01*
X82866666Y-55137083D02*
X82833333Y-55074583D01*
X82766666Y-55049583D01*
X82166666Y-55124583D01*
X82866666Y-55403750D02*
X82400000Y-55462083D01*
X82166666Y-55491250D02*
X82200000Y-55453750D01*
X82233333Y-55482916D01*
X82200000Y-55520416D01*
X82166666Y-55491250D01*
X82233333Y-55482916D01*
X82866666Y-56037083D02*
X82500000Y-56082916D01*
X82433333Y-56057916D01*
X82400000Y-55995416D01*
X82400000Y-55862083D01*
X82433333Y-55791250D01*
X82833333Y-56041250D02*
X82866666Y-55970416D01*
X82866666Y-55803750D01*
X82833333Y-55741250D01*
X82766666Y-55716250D01*
X82700000Y-55724583D01*
X82633333Y-55766250D01*
X82600000Y-55837083D01*
X82600000Y-56003750D01*
X82566666Y-56074583D01*
X82833333Y-56341250D02*
X82866666Y-56403750D01*
X82866666Y-56537083D01*
X82833333Y-56607916D01*
X82766666Y-56649583D01*
X82733333Y-56653750D01*
X82666666Y-56628750D01*
X82633333Y-56566250D01*
X82633333Y-56466250D01*
X82600000Y-56403750D01*
X82533333Y-56378750D01*
X82500000Y-56382916D01*
X82433333Y-56424583D01*
X82400000Y-56495416D01*
X82400000Y-56595416D01*
X82433333Y-56657916D01*
X82866666Y-57470416D02*
X82166666Y-57557916D01*
X82433333Y-57524583D02*
X82400000Y-57595416D01*
X82400000Y-57728750D01*
X82433333Y-57791250D01*
X82466666Y-57820416D01*
X82533333Y-57845416D01*
X82733333Y-57820416D01*
X82800000Y-57778750D01*
X82833333Y-57741250D01*
X82866666Y-57670416D01*
X82866666Y-57537083D01*
X82833333Y-57474583D01*
X82833333Y-58374583D02*
X82866666Y-58303750D01*
X82866666Y-58170416D01*
X82833333Y-58107916D01*
X82766666Y-58082916D01*
X82500000Y-58116250D01*
X82433333Y-58157916D01*
X82400000Y-58228750D01*
X82400000Y-58362083D01*
X82433333Y-58424583D01*
X82500000Y-58449583D01*
X82566666Y-58441250D01*
X82633333Y-58099583D01*
X82866666Y-58703750D02*
X82166666Y-58791250D01*
X82433333Y-58757916D02*
X82400000Y-58828750D01*
X82400000Y-58962083D01*
X82433333Y-59024583D01*
X82466666Y-59053750D01*
X82533333Y-59078750D01*
X82733333Y-59053750D01*
X82800000Y-59012083D01*
X82833333Y-58974583D01*
X82866666Y-58903750D01*
X82866666Y-58770416D01*
X82833333Y-58707916D01*
X82833333Y-59607916D02*
X82866666Y-59537083D01*
X82866666Y-59403750D01*
X82833333Y-59341250D01*
X82766666Y-59316250D01*
X82500000Y-59349583D01*
X82433333Y-59391250D01*
X82400000Y-59462083D01*
X82400000Y-59595416D01*
X82433333Y-59657916D01*
X82500000Y-59682916D01*
X82566666Y-59674583D01*
X82633333Y-59332916D01*
X82400000Y-59995416D02*
X82866666Y-59937083D01*
X82466666Y-59987083D02*
X82433333Y-60024583D01*
X82400000Y-60095416D01*
X82400000Y-60195416D01*
X82433333Y-60257916D01*
X82500000Y-60282916D01*
X82866666Y-60237083D01*
X82866666Y-60670416D02*
X82833333Y-60607916D01*
X82766666Y-60582916D01*
X82166666Y-60657916D01*
X82833333Y-61207916D02*
X82866666Y-61137083D01*
X82866666Y-61003750D01*
X82833333Y-60941250D01*
X82766666Y-60916250D01*
X82500000Y-60949583D01*
X82433333Y-60991250D01*
X82400000Y-61062083D01*
X82400000Y-61195416D01*
X82433333Y-61257916D01*
X82500000Y-61282916D01*
X82566666Y-61274583D01*
X82633333Y-60932916D01*
X82866666Y-61537083D02*
X82166666Y-61624583D01*
X82433333Y-61591250D02*
X82400000Y-61662083D01*
X82400000Y-61795416D01*
X82433333Y-61857916D01*
X82466666Y-61887083D01*
X82533333Y-61912083D01*
X82733333Y-61887083D01*
X82800000Y-61845416D01*
X82833333Y-61807916D01*
X82866666Y-61737083D01*
X82866666Y-61603750D01*
X82833333Y-61541250D01*
X82866666Y-62170416D02*
X82400000Y-62228750D01*
X82533333Y-62212083D02*
X82466666Y-62253750D01*
X82433333Y-62291250D01*
X82400000Y-62362083D01*
X82400000Y-62428750D01*
X82866666Y-62603750D02*
X82400000Y-62662083D01*
X82166666Y-62691250D02*
X82200000Y-62653750D01*
X82233333Y-62682916D01*
X82200000Y-62720416D01*
X82166666Y-62691250D01*
X82233333Y-62682916D01*
X82833333Y-63241250D02*
X82866666Y-63170416D01*
X82866666Y-63037083D01*
X82833333Y-62974583D01*
X82800000Y-62945416D01*
X82733333Y-62920416D01*
X82533333Y-62945416D01*
X82466666Y-62987083D01*
X82433333Y-63024583D01*
X82400000Y-63095416D01*
X82400000Y-63228750D01*
X82433333Y-63291250D01*
X82866666Y-63637083D02*
X82833333Y-63574583D01*
X82800000Y-63545416D01*
X82733333Y-63520416D01*
X82533333Y-63545416D01*
X82466666Y-63587083D01*
X82433333Y-63624583D01*
X82400000Y-63695416D01*
X82400000Y-63795416D01*
X82433333Y-63857916D01*
X82466666Y-63887083D01*
X82533333Y-63912083D01*
X82733333Y-63887083D01*
X82800000Y-63845416D01*
X82833333Y-63807916D01*
X82866666Y-63737083D01*
X82866666Y-63637083D01*
X82866666Y-64270416D02*
X82833333Y-64207916D01*
X82766666Y-64182916D01*
X82166666Y-64257916D01*
X82866666Y-64637083D02*
X82833333Y-64574583D01*
X82800000Y-64545416D01*
X82733333Y-64520416D01*
X82533333Y-64545416D01*
X82466666Y-64587083D01*
X82433333Y-64624583D01*
X82400000Y-64695416D01*
X82400000Y-64795416D01*
X82433333Y-64857916D01*
X82466666Y-64887083D01*
X82533333Y-64912083D01*
X82733333Y-64887083D01*
X82800000Y-64845416D01*
X82833333Y-64807916D01*
X82866666Y-64737083D01*
X82866666Y-64637083D01*
X83133333Y-65070416D02*
X83100000Y-65107916D01*
X83000000Y-65187083D01*
X82933333Y-65228750D01*
X82833333Y-65274583D01*
X82666666Y-65328750D01*
X82533333Y-65345416D01*
X82366666Y-65332916D01*
X82266666Y-65312083D01*
X82200000Y-65287083D01*
X82100000Y-65232916D01*
X82066666Y-65203750D01*
X84016666Y-50470416D02*
X83316666Y-50557916D01*
X84016666Y-50770416D02*
X83650000Y-50816250D01*
X83583333Y-50791250D01*
X83550000Y-50728750D01*
X83550000Y-50628750D01*
X83583333Y-50557916D01*
X83616666Y-50520416D01*
X83550000Y-51062083D02*
X83550000Y-51328750D01*
X83316666Y-51191250D02*
X83916666Y-51116250D01*
X83983333Y-51141250D01*
X84016666Y-51203750D01*
X84016666Y-51270416D01*
X83550000Y-51462083D02*
X83550000Y-51728750D01*
X83316666Y-51591250D02*
X83916666Y-51516250D01*
X83983333Y-51541250D01*
X84016666Y-51603750D01*
X84016666Y-51670416D01*
X83550000Y-51962083D02*
X84250000Y-51874583D01*
X83583333Y-51957916D02*
X83550000Y-52028750D01*
X83550000Y-52162083D01*
X83583333Y-52224583D01*
X83616666Y-52253750D01*
X83683333Y-52278750D01*
X83883333Y-52253750D01*
X83950000Y-52212083D01*
X83983333Y-52174583D01*
X84016666Y-52103750D01*
X84016666Y-51970416D01*
X83983333Y-51907916D01*
X83983333Y-52507916D02*
X84016666Y-52570416D01*
X84016666Y-52703750D01*
X83983333Y-52774583D01*
X83916666Y-52816250D01*
X83883333Y-52820416D01*
X83816666Y-52795416D01*
X83783333Y-52732916D01*
X83783333Y-52632916D01*
X83750000Y-52570416D01*
X83683333Y-52545416D01*
X83650000Y-52549583D01*
X83583333Y-52591250D01*
X83550000Y-52662083D01*
X83550000Y-52762083D01*
X83583333Y-52824583D01*
X83950000Y-53112083D02*
X83983333Y-53141250D01*
X84016666Y-53103750D01*
X83983333Y-53074583D01*
X83950000Y-53112083D01*
X84016666Y-53103750D01*
X83583333Y-53157916D02*
X83616666Y-53187083D01*
X83650000Y-53149583D01*
X83616666Y-53120416D01*
X83583333Y-53157916D01*
X83650000Y-53149583D01*
X83283333Y-54028750D02*
X84183333Y-53316250D01*
X83283333Y-54762083D02*
X84183333Y-54049583D01*
X83550000Y-55262083D02*
X84116666Y-55191250D01*
X84183333Y-55149583D01*
X84216666Y-55112083D01*
X84250000Y-55041250D01*
X84250000Y-54941250D01*
X84216666Y-54878750D01*
X83983333Y-55207916D02*
X84016666Y-55137083D01*
X84016666Y-55003750D01*
X83983333Y-54941250D01*
X83950000Y-54912083D01*
X83883333Y-54887083D01*
X83683333Y-54912083D01*
X83616666Y-54953750D01*
X83583333Y-54991250D01*
X83550000Y-55062083D01*
X83550000Y-55195416D01*
X83583333Y-55257916D01*
X84016666Y-55537083D02*
X83550000Y-55595416D01*
X83316666Y-55624583D02*
X83350000Y-55587083D01*
X83383333Y-55616250D01*
X83350000Y-55653750D01*
X83316666Y-55624583D01*
X83383333Y-55616250D01*
X83550000Y-55828750D02*
X83550000Y-56095416D01*
X83316666Y-55957916D02*
X83916666Y-55882916D01*
X83983333Y-55907916D01*
X84016666Y-55970416D01*
X84016666Y-56037083D01*
X84016666Y-56270416D02*
X83316666Y-56357916D01*
X84016666Y-56570416D02*
X83650000Y-56616250D01*
X83583333Y-56591250D01*
X83550000Y-56528750D01*
X83550000Y-56428750D01*
X83583333Y-56357916D01*
X83616666Y-56320416D01*
X83550000Y-57262083D02*
X84016666Y-57203750D01*
X83550000Y-56962083D02*
X83916666Y-56916250D01*
X83983333Y-56941250D01*
X84016666Y-57003750D01*
X84016666Y-57103750D01*
X83983333Y-57174583D01*
X83950000Y-57212083D01*
X84016666Y-57537083D02*
X83316666Y-57624583D01*
X83583333Y-57591250D02*
X83550000Y-57662083D01*
X83550000Y-57795416D01*
X83583333Y-57857916D01*
X83616666Y-57887083D01*
X83683333Y-57912083D01*
X83883333Y-57887083D01*
X83950000Y-57845416D01*
X83983333Y-57807916D01*
X84016666Y-57737083D01*
X84016666Y-57603750D01*
X83983333Y-57541250D01*
X83950000Y-58178750D02*
X83983333Y-58207916D01*
X84016666Y-58170416D01*
X83983333Y-58141250D01*
X83950000Y-58178750D01*
X84016666Y-58170416D01*
X83983333Y-58807916D02*
X84016666Y-58737083D01*
X84016666Y-58603750D01*
X83983333Y-58541250D01*
X83950000Y-58512083D01*
X83883333Y-58487083D01*
X83683333Y-58512083D01*
X83616666Y-58553750D01*
X83583333Y-58591250D01*
X83550000Y-58662083D01*
X83550000Y-58795416D01*
X83583333Y-58857916D01*
X84016666Y-59203750D02*
X83983333Y-59141250D01*
X83950000Y-59112083D01*
X83883333Y-59087083D01*
X83683333Y-59112083D01*
X83616666Y-59153750D01*
X83583333Y-59191250D01*
X83550000Y-59262083D01*
X83550000Y-59362083D01*
X83583333Y-59424583D01*
X83616666Y-59453750D01*
X83683333Y-59478750D01*
X83883333Y-59453750D01*
X83950000Y-59412083D01*
X83983333Y-59374583D01*
X84016666Y-59303750D01*
X84016666Y-59203750D01*
X84016666Y-59737083D02*
X83550000Y-59795416D01*
X83616666Y-59787083D02*
X83583333Y-59824583D01*
X83550000Y-59895416D01*
X83550000Y-59995416D01*
X83583333Y-60057916D01*
X83650000Y-60082916D01*
X84016666Y-60037083D01*
X83650000Y-60082916D02*
X83583333Y-60124583D01*
X83550000Y-60195416D01*
X83550000Y-60295416D01*
X83583333Y-60357916D01*
X83650000Y-60382916D01*
X84016666Y-60337083D01*
X83283333Y-61262083D02*
X84183333Y-60549583D01*
X84016666Y-61403750D02*
X83316666Y-61491250D01*
X83583333Y-61457916D02*
X83550000Y-61528750D01*
X83550000Y-61662083D01*
X83583333Y-61724583D01*
X83616666Y-61753750D01*
X83683333Y-61778750D01*
X83883333Y-61753750D01*
X83950000Y-61712083D01*
X83983333Y-61674583D01*
X84016666Y-61603750D01*
X84016666Y-61470416D01*
X83983333Y-61407916D01*
X83983333Y-62307916D02*
X84016666Y-62237083D01*
X84016666Y-62103750D01*
X83983333Y-62041250D01*
X83916666Y-62016250D01*
X83650000Y-62049583D01*
X83583333Y-62091250D01*
X83550000Y-62162083D01*
X83550000Y-62295416D01*
X83583333Y-62357916D01*
X83650000Y-62382916D01*
X83716666Y-62374583D01*
X83783333Y-62032916D01*
X84016666Y-62637083D02*
X83316666Y-62724583D01*
X83583333Y-62691250D02*
X83550000Y-62762083D01*
X83550000Y-62895416D01*
X83583333Y-62957916D01*
X83616666Y-62987083D01*
X83683333Y-63012083D01*
X83883333Y-62987083D01*
X83950000Y-62945416D01*
X83983333Y-62907916D01*
X84016666Y-62837083D01*
X84016666Y-62703750D01*
X83983333Y-62641250D01*
X83983333Y-63541250D02*
X84016666Y-63470416D01*
X84016666Y-63337083D01*
X83983333Y-63274583D01*
X83916666Y-63249583D01*
X83650000Y-63282916D01*
X83583333Y-63324583D01*
X83550000Y-63395416D01*
X83550000Y-63528750D01*
X83583333Y-63591250D01*
X83650000Y-63616250D01*
X83716666Y-63607916D01*
X83783333Y-63266250D01*
X83550000Y-63928750D02*
X84016666Y-63870416D01*
X83616666Y-63920416D02*
X83583333Y-63957916D01*
X83550000Y-64028750D01*
X83550000Y-64128750D01*
X83583333Y-64191250D01*
X83650000Y-64216250D01*
X84016666Y-64170416D01*
X84016666Y-64603750D02*
X83983333Y-64541250D01*
X83916666Y-64516250D01*
X83316666Y-64591250D01*
X83983333Y-65141250D02*
X84016666Y-65070416D01*
X84016666Y-64937083D01*
X83983333Y-64874583D01*
X83916666Y-64849583D01*
X83650000Y-64882916D01*
X83583333Y-64924583D01*
X83550000Y-64995416D01*
X83550000Y-65128750D01*
X83583333Y-65191250D01*
X83650000Y-65216250D01*
X83716666Y-65207916D01*
X83783333Y-64866250D01*
X84016666Y-65470416D02*
X83316666Y-65557916D01*
X83583333Y-65524583D02*
X83550000Y-65595416D01*
X83550000Y-65728750D01*
X83583333Y-65791250D01*
X83616666Y-65820416D01*
X83683333Y-65845416D01*
X83883333Y-65820416D01*
X83950000Y-65778750D01*
X83983333Y-65741250D01*
X84016666Y-65670416D01*
X84016666Y-65537083D01*
X83983333Y-65474583D01*
X84016666Y-66103750D02*
X83550000Y-66162083D01*
X83683333Y-66145416D02*
X83616666Y-66187083D01*
X83583333Y-66224583D01*
X83550000Y-66295416D01*
X83550000Y-66362083D01*
X84016666Y-66537083D02*
X83550000Y-66595416D01*
X83316666Y-66624583D02*
X83350000Y-66587083D01*
X83383333Y-66616250D01*
X83350000Y-66653750D01*
X83316666Y-66624583D01*
X83383333Y-66616250D01*
X83983333Y-67174583D02*
X84016666Y-67103750D01*
X84016666Y-66970416D01*
X83983333Y-66907916D01*
X83950000Y-66878750D01*
X83883333Y-66853750D01*
X83683333Y-66878750D01*
X83616666Y-66920416D01*
X83583333Y-66957916D01*
X83550000Y-67028750D01*
X83550000Y-67162083D01*
X83583333Y-67224583D01*
X84016666Y-67570416D02*
X83983333Y-67507916D01*
X83950000Y-67478750D01*
X83883333Y-67453750D01*
X83683333Y-67478750D01*
X83616666Y-67520416D01*
X83583333Y-67557916D01*
X83550000Y-67628750D01*
X83550000Y-67728750D01*
X83583333Y-67791250D01*
X83616666Y-67820416D01*
X83683333Y-67845416D01*
X83883333Y-67820416D01*
X83950000Y-67778750D01*
X83983333Y-67741250D01*
X84016666Y-67670416D01*
X84016666Y-67570416D01*
X84016666Y-68203750D02*
X83983333Y-68141250D01*
X83916666Y-68116250D01*
X83316666Y-68191250D01*
X84016666Y-68570416D02*
X83983333Y-68507916D01*
X83950000Y-68478750D01*
X83883333Y-68453750D01*
X83683333Y-68478750D01*
X83616666Y-68520416D01*
X83583333Y-68557916D01*
X83550000Y-68628750D01*
X83550000Y-68728750D01*
X83583333Y-68791250D01*
X83616666Y-68820416D01*
X83683333Y-68845416D01*
X83883333Y-68820416D01*
X83950000Y-68778750D01*
X83983333Y-68741250D01*
X84016666Y-68670416D01*
X84016666Y-68570416D01*
D11*
X67509285Y-45756571D02*
X67566428Y-45928000D01*
X67623571Y-45985142D01*
X67737857Y-46042285D01*
X67909285Y-46042285D01*
X68023571Y-45985142D01*
X68080714Y-45928000D01*
X68137857Y-45813714D01*
X68137857Y-45356571D01*
X66937857Y-45356571D01*
X66937857Y-45756571D01*
X66995000Y-45870857D01*
X67052142Y-45928000D01*
X67166428Y-45985142D01*
X67280714Y-45985142D01*
X67395000Y-45928000D01*
X67452142Y-45870857D01*
X67509285Y-45756571D01*
X67509285Y-45356571D01*
X68080714Y-47013714D02*
X68137857Y-46899428D01*
X68137857Y-46670857D01*
X68080714Y-46556571D01*
X67966428Y-46499428D01*
X67509285Y-46499428D01*
X67395000Y-46556571D01*
X67337857Y-46670857D01*
X67337857Y-46899428D01*
X67395000Y-47013714D01*
X67509285Y-47070857D01*
X67623571Y-47070857D01*
X67737857Y-46499428D01*
X68080714Y-48042285D02*
X68137857Y-47928000D01*
X68137857Y-47699428D01*
X68080714Y-47585142D01*
X67966428Y-47528000D01*
X67509285Y-47528000D01*
X67395000Y-47585142D01*
X67337857Y-47699428D01*
X67337857Y-47928000D01*
X67395000Y-48042285D01*
X67509285Y-48099428D01*
X67623571Y-48099428D01*
X67737857Y-47528000D01*
X68137857Y-48613714D02*
X67337857Y-48613714D01*
X67566428Y-48613714D02*
X67452142Y-48670857D01*
X67395000Y-48728000D01*
X67337857Y-48842285D01*
X67337857Y-48956571D01*
X66937857Y-50099428D02*
X66937857Y-50785142D01*
X68137857Y-50442285D02*
X66937857Y-50442285D01*
X68137857Y-51185142D02*
X66937857Y-51185142D01*
X68137857Y-51699428D02*
X67509285Y-51699428D01*
X67395000Y-51642285D01*
X67337857Y-51528000D01*
X67337857Y-51356571D01*
X67395000Y-51242285D01*
X67452142Y-51185142D01*
X68080714Y-52728000D02*
X68137857Y-52613714D01*
X68137857Y-52385142D01*
X68080714Y-52270857D01*
X67966428Y-52213714D01*
X67509285Y-52213714D01*
X67395000Y-52270857D01*
X67337857Y-52385142D01*
X67337857Y-52613714D01*
X67395000Y-52728000D01*
X67509285Y-52785142D01*
X67623571Y-52785142D01*
X67737857Y-52213714D01*
X68137857Y-53299428D02*
X67337857Y-53299428D01*
X67566428Y-53299428D02*
X67452142Y-53356571D01*
X67395000Y-53413714D01*
X67337857Y-53528000D01*
X67337857Y-53642285D01*
X68137857Y-54042285D02*
X67337857Y-54042285D01*
X67452142Y-54042285D02*
X67395000Y-54099428D01*
X67337857Y-54213714D01*
X67337857Y-54385142D01*
X67395000Y-54499428D01*
X67509285Y-54556571D01*
X68137857Y-54556571D01*
X67509285Y-54556571D02*
X67395000Y-54613714D01*
X67337857Y-54728000D01*
X67337857Y-54899428D01*
X67395000Y-55013714D01*
X67509285Y-55070857D01*
X68137857Y-55070857D01*
X68137857Y-55813714D02*
X68080714Y-55699428D01*
X68023571Y-55642285D01*
X67909285Y-55585142D01*
X67566428Y-55585142D01*
X67452142Y-55642285D01*
X67395000Y-55699428D01*
X67337857Y-55813714D01*
X67337857Y-55985142D01*
X67395000Y-56099428D01*
X67452142Y-56156571D01*
X67566428Y-56213714D01*
X67909285Y-56213714D01*
X68023571Y-56156571D01*
X68080714Y-56099428D01*
X68137857Y-55985142D01*
X68137857Y-55813714D01*
X68137857Y-56728000D02*
X67337857Y-56728000D01*
X67566428Y-56728000D02*
X67452142Y-56785142D01*
X67395000Y-56842285D01*
X67337857Y-56956571D01*
X67337857Y-57070857D01*
X68080714Y-57928000D02*
X68137857Y-57813714D01*
X68137857Y-57585142D01*
X68080714Y-57470857D01*
X67966428Y-57413714D01*
X67509285Y-57413714D01*
X67395000Y-57470857D01*
X67337857Y-57585142D01*
X67337857Y-57813714D01*
X67395000Y-57928000D01*
X67509285Y-57985142D01*
X67623571Y-57985142D01*
X67737857Y-57413714D01*
X67337857Y-59013714D02*
X68309285Y-59013714D01*
X68423571Y-58956571D01*
X68480714Y-58899428D01*
X68537857Y-58785142D01*
X68537857Y-58613714D01*
X68480714Y-58499428D01*
X68080714Y-59013714D02*
X68137857Y-58899428D01*
X68137857Y-58670857D01*
X68080714Y-58556571D01*
X68023571Y-58499428D01*
X67909285Y-58442285D01*
X67566428Y-58442285D01*
X67452142Y-58499428D01*
X67395000Y-58556571D01*
X67337857Y-58670857D01*
X67337857Y-58899428D01*
X67395000Y-59013714D01*
X67337857Y-60099428D02*
X68137857Y-60099428D01*
X67337857Y-59585142D02*
X67966428Y-59585142D01*
X68080714Y-59642285D01*
X68137857Y-59756571D01*
X68137857Y-59928000D01*
X68080714Y-60042285D01*
X68023571Y-60099428D01*
X68137857Y-60842285D02*
X68080714Y-60728000D01*
X67966428Y-60670857D01*
X66937857Y-60670857D01*
X68137857Y-61813714D02*
X67509285Y-61813714D01*
X67395000Y-61756571D01*
X67337857Y-61642285D01*
X67337857Y-61413714D01*
X67395000Y-61299428D01*
X68080714Y-61813714D02*
X68137857Y-61699428D01*
X68137857Y-61413714D01*
X68080714Y-61299428D01*
X67966428Y-61242285D01*
X67852142Y-61242285D01*
X67737857Y-61299428D01*
X67680714Y-61413714D01*
X67680714Y-61699428D01*
X67623571Y-61813714D01*
X67337857Y-62213714D02*
X67337857Y-62670857D01*
X66937857Y-62385142D02*
X67966428Y-62385142D01*
X68080714Y-62442285D01*
X68137857Y-62556571D01*
X68137857Y-62670857D01*
X68137857Y-63070857D02*
X67337857Y-63070857D01*
X66937857Y-63070857D02*
X66995000Y-63013714D01*
X67052142Y-63070857D01*
X66995000Y-63128000D01*
X66937857Y-63070857D01*
X67052142Y-63070857D01*
X68137857Y-63813714D02*
X68080714Y-63699428D01*
X68023571Y-63642285D01*
X67909285Y-63585142D01*
X67566428Y-63585142D01*
X67452142Y-63642285D01*
X67395000Y-63699428D01*
X67337857Y-63813714D01*
X67337857Y-63985142D01*
X67395000Y-64099428D01*
X67452142Y-64156571D01*
X67566428Y-64213714D01*
X67909285Y-64213714D01*
X68023571Y-64156571D01*
X68080714Y-64099428D01*
X68137857Y-63985142D01*
X68137857Y-63813714D01*
X67337857Y-64728000D02*
X68137857Y-64728000D01*
X67452142Y-64728000D02*
X67395000Y-64785142D01*
X67337857Y-64899428D01*
X67337857Y-65070857D01*
X67395000Y-65185142D01*
X67509285Y-65242285D01*
X68137857Y-65242285D01*
X68080714Y-66670857D02*
X68137857Y-66842285D01*
X68137857Y-67128000D01*
X68080714Y-67242285D01*
X68023571Y-67299428D01*
X67909285Y-67356571D01*
X67795000Y-67356571D01*
X67680714Y-67299428D01*
X67623571Y-67242285D01*
X67566428Y-67128000D01*
X67509285Y-66899428D01*
X67452142Y-66785142D01*
X67395000Y-66728000D01*
X67280714Y-66670857D01*
X67166428Y-66670857D01*
X67052142Y-66728000D01*
X66995000Y-66785142D01*
X66937857Y-66899428D01*
X66937857Y-67185142D01*
X66995000Y-67356571D01*
X67337857Y-67756571D02*
X68137857Y-68042285D01*
X67337857Y-68328000D02*
X68137857Y-68042285D01*
X68423571Y-67928000D01*
X68480714Y-67870857D01*
X68537857Y-67756571D01*
X68080714Y-68728000D02*
X68137857Y-68842285D01*
X68137857Y-69070857D01*
X68080714Y-69185142D01*
X67966428Y-69242285D01*
X67909285Y-69242285D01*
X67795000Y-69185142D01*
X67737857Y-69070857D01*
X67737857Y-68899428D01*
X67680714Y-68785142D01*
X67566428Y-68728000D01*
X67509285Y-68728000D01*
X67395000Y-68785142D01*
X67337857Y-68899428D01*
X67337857Y-69070857D01*
X67395000Y-69185142D01*
X67337857Y-69585142D02*
X67337857Y-70042285D01*
X66937857Y-69756571D02*
X67966428Y-69756571D01*
X68080714Y-69813714D01*
X68137857Y-69928000D01*
X68137857Y-70042285D01*
X68080714Y-70899428D02*
X68137857Y-70785142D01*
X68137857Y-70556571D01*
X68080714Y-70442285D01*
X67966428Y-70385142D01*
X67509285Y-70385142D01*
X67395000Y-70442285D01*
X67337857Y-70556571D01*
X67337857Y-70785142D01*
X67395000Y-70899428D01*
X67509285Y-70956571D01*
X67623571Y-70956571D01*
X67737857Y-70385142D01*
X68137857Y-71470857D02*
X67337857Y-71470857D01*
X67452142Y-71470857D02*
X67395000Y-71528000D01*
X67337857Y-71642285D01*
X67337857Y-71813714D01*
X67395000Y-71928000D01*
X67509285Y-71985142D01*
X68137857Y-71985142D01*
X67509285Y-71985142D02*
X67395000Y-72042285D01*
X67337857Y-72156571D01*
X67337857Y-72328000D01*
X67395000Y-72442285D01*
X67509285Y-72499428D01*
X68137857Y-72499428D01*
X70107857Y-48070857D02*
X69307857Y-48070857D01*
X69422142Y-48070857D02*
X69365000Y-48128000D01*
X69307857Y-48242285D01*
X69307857Y-48413714D01*
X69365000Y-48528000D01*
X69479285Y-48585142D01*
X70107857Y-48585142D01*
X69479285Y-48585142D02*
X69365000Y-48642285D01*
X69307857Y-48756571D01*
X69307857Y-48928000D01*
X69365000Y-49042285D01*
X69479285Y-49099428D01*
X70107857Y-49099428D01*
X70107857Y-50185142D02*
X69479285Y-50185142D01*
X69365000Y-50128000D01*
X69307857Y-50013714D01*
X69307857Y-49785142D01*
X69365000Y-49670857D01*
X70050714Y-50185142D02*
X70107857Y-50070857D01*
X70107857Y-49785142D01*
X70050714Y-49670857D01*
X69936428Y-49613714D01*
X69822142Y-49613714D01*
X69707857Y-49670857D01*
X69650714Y-49785142D01*
X69650714Y-50070857D01*
X69593571Y-50185142D01*
X70107857Y-50756571D02*
X69307857Y-50756571D01*
X68907857Y-50756571D02*
X68965000Y-50699428D01*
X69022142Y-50756571D01*
X68965000Y-50813714D01*
X68907857Y-50756571D01*
X69022142Y-50756571D01*
X69307857Y-51328000D02*
X70107857Y-51328000D01*
X69422142Y-51328000D02*
X69365000Y-51385142D01*
X69307857Y-51499428D01*
X69307857Y-51670857D01*
X69365000Y-51785142D01*
X69479285Y-51842285D01*
X70107857Y-51842285D01*
X70107857Y-53328000D02*
X68907857Y-53328000D01*
X69365000Y-53328000D02*
X69307857Y-53442285D01*
X69307857Y-53670857D01*
X69365000Y-53785142D01*
X69422142Y-53842285D01*
X69536428Y-53899428D01*
X69879285Y-53899428D01*
X69993571Y-53842285D01*
X70050714Y-53785142D01*
X70107857Y-53670857D01*
X70107857Y-53442285D01*
X70050714Y-53328000D01*
X70107857Y-54585142D02*
X70050714Y-54470857D01*
X69993571Y-54413714D01*
X69879285Y-54356571D01*
X69536428Y-54356571D01*
X69422142Y-54413714D01*
X69365000Y-54470857D01*
X69307857Y-54585142D01*
X69307857Y-54756571D01*
X69365000Y-54870857D01*
X69422142Y-54928000D01*
X69536428Y-54985142D01*
X69879285Y-54985142D01*
X69993571Y-54928000D01*
X70050714Y-54870857D01*
X70107857Y-54756571D01*
X70107857Y-54585142D01*
X70107857Y-56013714D02*
X69479285Y-56013714D01*
X69365000Y-55956571D01*
X69307857Y-55842285D01*
X69307857Y-55613714D01*
X69365000Y-55499428D01*
X70050714Y-56013714D02*
X70107857Y-55899428D01*
X70107857Y-55613714D01*
X70050714Y-55499428D01*
X69936428Y-55442285D01*
X69822142Y-55442285D01*
X69707857Y-55499428D01*
X69650714Y-55613714D01*
X69650714Y-55899428D01*
X69593571Y-56013714D01*
X70107857Y-56585142D02*
X69307857Y-56585142D01*
X69536428Y-56585142D02*
X69422142Y-56642285D01*
X69365000Y-56699428D01*
X69307857Y-56813714D01*
X69307857Y-56928000D01*
X70107857Y-57842285D02*
X68907857Y-57842285D01*
X70050714Y-57842285D02*
X70107857Y-57728000D01*
X70107857Y-57499428D01*
X70050714Y-57385142D01*
X69993571Y-57328000D01*
X69879285Y-57270857D01*
X69536428Y-57270857D01*
X69422142Y-57328000D01*
X69365000Y-57385142D01*
X69307857Y-57499428D01*
X69307857Y-57728000D01*
X69365000Y-57842285D01*
X70565000Y-59670857D02*
X70507857Y-59613714D01*
X70336428Y-59499428D01*
X70222142Y-59442285D01*
X70050714Y-59385142D01*
X69765000Y-59328000D01*
X69536428Y-59328000D01*
X69250714Y-59385142D01*
X69079285Y-59442285D01*
X68965000Y-59499428D01*
X68793571Y-59613714D01*
X68736428Y-59670857D01*
X70050714Y-60642285D02*
X70107857Y-60528000D01*
X70107857Y-60299428D01*
X70050714Y-60185142D01*
X69993571Y-60128000D01*
X69879285Y-60070857D01*
X69536428Y-60070857D01*
X69422142Y-60128000D01*
X69365000Y-60185142D01*
X69307857Y-60299428D01*
X69307857Y-60528000D01*
X69365000Y-60642285D01*
X70107857Y-61328000D02*
X70050714Y-61213714D01*
X69993571Y-61156571D01*
X69879285Y-61099428D01*
X69536428Y-61099428D01*
X69422142Y-61156571D01*
X69365000Y-61213714D01*
X69307857Y-61328000D01*
X69307857Y-61499428D01*
X69365000Y-61613714D01*
X69422142Y-61670857D01*
X69536428Y-61728000D01*
X69879285Y-61728000D01*
X69993571Y-61670857D01*
X70050714Y-61613714D01*
X70107857Y-61499428D01*
X70107857Y-61328000D01*
X69307857Y-62242285D02*
X70107857Y-62242285D01*
X69422142Y-62242285D02*
X69365000Y-62299428D01*
X69307857Y-62413714D01*
X69307857Y-62585142D01*
X69365000Y-62699428D01*
X69479285Y-62756571D01*
X70107857Y-62756571D01*
X69307857Y-63156571D02*
X69307857Y-63613714D01*
X68907857Y-63328000D02*
X69936428Y-63328000D01*
X70050714Y-63385142D01*
X70107857Y-63499428D01*
X70107857Y-63613714D01*
X70107857Y-64013714D02*
X69307857Y-64013714D01*
X69536428Y-64013714D02*
X69422142Y-64070857D01*
X69365000Y-64128000D01*
X69307857Y-64242285D01*
X69307857Y-64356571D01*
X70107857Y-64928000D02*
X70050714Y-64813714D01*
X69993571Y-64756571D01*
X69879285Y-64699428D01*
X69536428Y-64699428D01*
X69422142Y-64756571D01*
X69365000Y-64813714D01*
X69307857Y-64928000D01*
X69307857Y-65099428D01*
X69365000Y-65213714D01*
X69422142Y-65270857D01*
X69536428Y-65328000D01*
X69879285Y-65328000D01*
X69993571Y-65270857D01*
X70050714Y-65213714D01*
X70107857Y-65099428D01*
X70107857Y-64928000D01*
X70107857Y-66013714D02*
X70050714Y-65899428D01*
X69936428Y-65842285D01*
X68907857Y-65842285D01*
X70565000Y-66356571D02*
X70507857Y-66413714D01*
X70336428Y-66528000D01*
X70222142Y-66585142D01*
X70050714Y-66642285D01*
X69765000Y-66699428D01*
X69536428Y-66699428D01*
X69250714Y-66642285D01*
X69079285Y-66585142D01*
X68965000Y-66528000D01*
X68793571Y-66413714D01*
X68736428Y-66356571D01*
X68907857Y-68013714D02*
X70107857Y-68413714D01*
X68907857Y-68813714D01*
X70107857Y-69842285D02*
X70107857Y-69156571D01*
X70107857Y-69499428D02*
X68907857Y-69499428D01*
X69079285Y-69385142D01*
X69193571Y-69270857D01*
X69250714Y-69156571D01*
D12*
%TO.C,REF\u002A\u002A*%
G36*
X80774100Y-78283903D02*
G01*
X80662550Y-78339522D01*
X80564092Y-78441931D01*
X80536977Y-78479864D01*
X80507438Y-78529500D01*
X80488272Y-78583412D01*
X80477307Y-78655364D01*
X80472371Y-78759122D01*
X80471287Y-78896101D01*
X80476182Y-79083815D01*
X80493196Y-79224758D01*
X80525823Y-79329908D01*
X80577558Y-79410243D01*
X80651896Y-79476741D01*
X80657358Y-79480678D01*
X80730620Y-79520953D01*
X80818840Y-79540880D01*
X80931038Y-79545793D01*
X81113433Y-79545793D01*
X81113509Y-79722857D01*
X81115207Y-79821470D01*
X81125550Y-79879314D01*
X81152578Y-79914006D01*
X81204332Y-79943164D01*
X81216761Y-79949121D01*
X81274923Y-79977039D01*
X81319956Y-79994672D01*
X81353441Y-79996194D01*
X81376962Y-79975781D01*
X81392100Y-79927607D01*
X81400437Y-79845846D01*
X81403556Y-79724672D01*
X81403040Y-79558260D01*
X81400471Y-79340785D01*
X81399668Y-79275736D01*
X81396778Y-79051502D01*
X81394188Y-78904821D01*
X81113586Y-78904821D01*
X81112009Y-79029326D01*
X81105000Y-79110787D01*
X81089142Y-79164515D01*
X81061019Y-79205823D01*
X81041925Y-79225971D01*
X80963865Y-79284921D01*
X80894753Y-79289720D01*
X80823440Y-79241038D01*
X80821632Y-79239241D01*
X80792617Y-79201618D01*
X80774967Y-79150484D01*
X80766064Y-79071738D01*
X80763291Y-78951276D01*
X80763241Y-78924588D01*
X80769942Y-78758583D01*
X80791752Y-78643505D01*
X80831235Y-78573254D01*
X80890956Y-78541729D01*
X80925472Y-78538552D01*
X81007389Y-78553460D01*
X81063579Y-78602548D01*
X81097402Y-78692362D01*
X81112220Y-78829445D01*
X81113586Y-78904821D01*
X81394188Y-78904821D01*
X81393713Y-78877952D01*
X81389753Y-78747382D01*
X81384174Y-78652087D01*
X81376254Y-78584364D01*
X81365269Y-78536507D01*
X81350499Y-78500813D01*
X81331218Y-78469578D01*
X81322951Y-78457824D01*
X81213288Y-78346797D01*
X81074635Y-78283847D01*
X80914246Y-78266297D01*
X80774100Y-78283903D01*
G37*
X80774100Y-78283903D02*
X80662550Y-78339522D01*
X80564092Y-78441931D01*
X80536977Y-78479864D01*
X80507438Y-78529500D01*
X80488272Y-78583412D01*
X80477307Y-78655364D01*
X80472371Y-78759122D01*
X80471287Y-78896101D01*
X80476182Y-79083815D01*
X80493196Y-79224758D01*
X80525823Y-79329908D01*
X80577558Y-79410243D01*
X80651896Y-79476741D01*
X80657358Y-79480678D01*
X80730620Y-79520953D01*
X80818840Y-79540880D01*
X80931038Y-79545793D01*
X81113433Y-79545793D01*
X81113509Y-79722857D01*
X81115207Y-79821470D01*
X81125550Y-79879314D01*
X81152578Y-79914006D01*
X81204332Y-79943164D01*
X81216761Y-79949121D01*
X81274923Y-79977039D01*
X81319956Y-79994672D01*
X81353441Y-79996194D01*
X81376962Y-79975781D01*
X81392100Y-79927607D01*
X81400437Y-79845846D01*
X81403556Y-79724672D01*
X81403040Y-79558260D01*
X81400471Y-79340785D01*
X81399668Y-79275736D01*
X81396778Y-79051502D01*
X81394188Y-78904821D01*
X81113586Y-78904821D01*
X81112009Y-79029326D01*
X81105000Y-79110787D01*
X81089142Y-79164515D01*
X81061019Y-79205823D01*
X81041925Y-79225971D01*
X80963865Y-79284921D01*
X80894753Y-79289720D01*
X80823440Y-79241038D01*
X80821632Y-79239241D01*
X80792617Y-79201618D01*
X80774967Y-79150484D01*
X80766064Y-79071738D01*
X80763291Y-78951276D01*
X80763241Y-78924588D01*
X80769942Y-78758583D01*
X80791752Y-78643505D01*
X80831235Y-78573254D01*
X80890956Y-78541729D01*
X80925472Y-78538552D01*
X81007389Y-78553460D01*
X81063579Y-78602548D01*
X81097402Y-78692362D01*
X81112220Y-78829445D01*
X81113586Y-78904821D01*
X81394188Y-78904821D01*
X81393713Y-78877952D01*
X81389753Y-78747382D01*
X81384174Y-78652087D01*
X81376254Y-78584364D01*
X81365269Y-78536507D01*
X81350499Y-78500813D01*
X81331218Y-78469578D01*
X81322951Y-78457824D01*
X81213288Y-78346797D01*
X81074635Y-78283847D01*
X80914246Y-78266297D01*
X80774100Y-78283903D01*
G36*
X78528571Y-78299719D02*
G01*
X78434877Y-78353914D01*
X78369736Y-78407707D01*
X78322093Y-78464066D01*
X78289272Y-78532987D01*
X78268594Y-78624468D01*
X78257380Y-78748506D01*
X78252951Y-78915098D01*
X78252437Y-79034851D01*
X78252437Y-79475659D01*
X78376517Y-79531283D01*
X78500598Y-79586907D01*
X78515195Y-79104095D01*
X78521227Y-78923779D01*
X78527555Y-78792901D01*
X78535394Y-78702511D01*
X78545963Y-78643664D01*
X78560477Y-78607413D01*
X78580152Y-78584810D01*
X78586465Y-78579917D01*
X78682112Y-78541706D01*
X78778793Y-78556827D01*
X78836345Y-78596943D01*
X78859755Y-78625370D01*
X78875961Y-78662672D01*
X78886259Y-78719223D01*
X78891951Y-78805394D01*
X78894336Y-78931558D01*
X78894736Y-79063042D01*
X78894814Y-79227999D01*
X78897639Y-79344761D01*
X78907093Y-79423510D01*
X78927060Y-79474431D01*
X78961424Y-79507706D01*
X79014068Y-79533520D01*
X79084383Y-79560344D01*
X79161180Y-79589542D01*
X79152038Y-79071346D01*
X79148357Y-78884539D01*
X79144050Y-78746490D01*
X79137877Y-78647568D01*
X79128598Y-78578145D01*
X79114973Y-78528590D01*
X79095761Y-78489273D01*
X79072598Y-78454584D01*
X78960848Y-78343770D01*
X78824487Y-78279689D01*
X78676175Y-78264339D01*
X78528571Y-78299719D01*
G37*
X78528571Y-78299719D02*
X78434877Y-78353914D01*
X78369736Y-78407707D01*
X78322093Y-78464066D01*
X78289272Y-78532987D01*
X78268594Y-78624468D01*
X78257380Y-78748506D01*
X78252951Y-78915098D01*
X78252437Y-79034851D01*
X78252437Y-79475659D01*
X78376517Y-79531283D01*
X78500598Y-79586907D01*
X78515195Y-79104095D01*
X78521227Y-78923779D01*
X78527555Y-78792901D01*
X78535394Y-78702511D01*
X78545963Y-78643664D01*
X78560477Y-78607413D01*
X78580152Y-78584810D01*
X78586465Y-78579917D01*
X78682112Y-78541706D01*
X78778793Y-78556827D01*
X78836345Y-78596943D01*
X78859755Y-78625370D01*
X78875961Y-78662672D01*
X78886259Y-78719223D01*
X78891951Y-78805394D01*
X78894336Y-78931558D01*
X78894736Y-79063042D01*
X78894814Y-79227999D01*
X78897639Y-79344761D01*
X78907093Y-79423510D01*
X78927060Y-79474431D01*
X78961424Y-79507706D01*
X79014068Y-79533520D01*
X79084383Y-79560344D01*
X79161180Y-79589542D01*
X79152038Y-79071346D01*
X79148357Y-78884539D01*
X79144050Y-78746490D01*
X79137877Y-78647568D01*
X79128598Y-78578145D01*
X79114973Y-78528590D01*
X79095761Y-78489273D01*
X79072598Y-78454584D01*
X78960848Y-78343770D01*
X78824487Y-78279689D01*
X78676175Y-78264339D01*
X78528571Y-78299719D01*
G36*
X81897779Y-78288015D02*
G01*
X81760939Y-78359968D01*
X81659949Y-78475766D01*
X81624075Y-78550213D01*
X81596161Y-78661992D01*
X81581871Y-78803227D01*
X81580516Y-78957371D01*
X81591405Y-79107879D01*
X81613847Y-79238205D01*
X81647150Y-79331803D01*
X81657385Y-79347922D01*
X81778618Y-79468249D01*
X81922613Y-79540317D01*
X82078861Y-79561408D01*
X82236852Y-79528802D01*
X82280820Y-79509253D01*
X82366444Y-79449012D01*
X82441592Y-79369135D01*
X82448694Y-79359004D01*
X82477561Y-79310181D01*
X82496643Y-79257990D01*
X82507916Y-79189285D01*
X82513355Y-79090918D01*
X82514938Y-78949744D01*
X82514965Y-78918092D01*
X82514893Y-78908019D01*
X82223011Y-78908019D01*
X82221313Y-79041256D01*
X82214628Y-79129674D01*
X82200575Y-79186785D01*
X82176771Y-79226102D01*
X82164621Y-79239241D01*
X82094764Y-79289172D01*
X82026941Y-79286895D01*
X81958365Y-79243584D01*
X81917465Y-79197346D01*
X81893242Y-79129857D01*
X81879639Y-79023433D01*
X81878706Y-79011020D01*
X81876384Y-78818147D01*
X81900650Y-78674900D01*
X81951176Y-78582160D01*
X82027632Y-78540807D01*
X82054924Y-78538552D01*
X82126589Y-78549893D01*
X82175610Y-78589184D01*
X82205582Y-78664326D01*
X82220101Y-78783222D01*
X82223011Y-78908019D01*
X82514893Y-78908019D01*
X82513878Y-78767659D01*
X82509312Y-78662549D01*
X82499312Y-78589714D01*
X82481921Y-78536108D01*
X82455184Y-78488681D01*
X82449276Y-78479864D01*
X82349968Y-78361007D01*
X82241758Y-78292008D01*
X82110019Y-78264619D01*
X82065283Y-78263281D01*
X81897779Y-78288015D01*
G37*
X81897779Y-78288015D02*
X81760939Y-78359968D01*
X81659949Y-78475766D01*
X81624075Y-78550213D01*
X81596161Y-78661992D01*
X81581871Y-78803227D01*
X81580516Y-78957371D01*
X81591405Y-79107879D01*
X81613847Y-79238205D01*
X81647150Y-79331803D01*
X81657385Y-79347922D01*
X81778618Y-79468249D01*
X81922613Y-79540317D01*
X82078861Y-79561408D01*
X82236852Y-79528802D01*
X82280820Y-79509253D01*
X82366444Y-79449012D01*
X82441592Y-79369135D01*
X82448694Y-79359004D01*
X82477561Y-79310181D01*
X82496643Y-79257990D01*
X82507916Y-79189285D01*
X82513355Y-79090918D01*
X82514938Y-78949744D01*
X82514965Y-78918092D01*
X82514893Y-78908019D01*
X82223011Y-78908019D01*
X82221313Y-79041256D01*
X82214628Y-79129674D01*
X82200575Y-79186785D01*
X82176771Y-79226102D01*
X82164621Y-79239241D01*
X82094764Y-79289172D01*
X82026941Y-79286895D01*
X81958365Y-79243584D01*
X81917465Y-79197346D01*
X81893242Y-79129857D01*
X81879639Y-79023433D01*
X81878706Y-79011020D01*
X81876384Y-78818147D01*
X81900650Y-78674900D01*
X81951176Y-78582160D01*
X82027632Y-78540807D01*
X82054924Y-78538552D01*
X82126589Y-78549893D01*
X82175610Y-78589184D01*
X82205582Y-78664326D01*
X82220101Y-78783222D01*
X82223011Y-78908019D01*
X82514893Y-78908019D01*
X82513878Y-78767659D01*
X82509312Y-78662549D01*
X82499312Y-78589714D01*
X82481921Y-78536108D01*
X82455184Y-78488681D01*
X82449276Y-78479864D01*
X82349968Y-78361007D01*
X82241758Y-78292008D01*
X82110019Y-78264619D01*
X82065283Y-78263281D01*
X81897779Y-78288015D01*
G36*
X79630448Y-78306676D02*
G01*
X79515342Y-78384111D01*
X79426389Y-78495949D01*
X79373251Y-78638265D01*
X79362503Y-78743015D01*
X79363724Y-78786726D01*
X79373944Y-78820194D01*
X79402039Y-78850179D01*
X79456884Y-78883440D01*
X79547355Y-78926738D01*
X79682328Y-78986833D01*
X79683011Y-78987134D01*
X79807249Y-79044037D01*
X79909127Y-79094565D01*
X79978233Y-79133280D01*
X80004154Y-79154740D01*
X80004161Y-79154913D01*
X79981315Y-79201644D01*
X79927891Y-79253154D01*
X79866558Y-79290261D01*
X79835485Y-79297632D01*
X79750711Y-79272138D01*
X79677707Y-79208291D01*
X79642087Y-79138094D01*
X79607820Y-79086343D01*
X79540697Y-79027409D01*
X79461792Y-78976496D01*
X79392179Y-78948809D01*
X79377623Y-78947287D01*
X79361237Y-78972321D01*
X79360250Y-79036311D01*
X79372292Y-79122593D01*
X79394993Y-79214501D01*
X79425986Y-79295369D01*
X79427552Y-79298509D01*
X79520819Y-79428734D01*
X79641696Y-79517311D01*
X79778973Y-79560786D01*
X79921440Y-79555706D01*
X80057888Y-79498616D01*
X80063955Y-79494602D01*
X80171290Y-79397326D01*
X80241868Y-79270409D01*
X80280926Y-79103526D01*
X80286168Y-79056639D01*
X80295452Y-78835329D01*
X80284322Y-78732124D01*
X80004161Y-78732124D01*
X80000521Y-78796503D01*
X79980611Y-78815291D01*
X79930974Y-78801235D01*
X79852733Y-78768009D01*
X79765274Y-78726359D01*
X79763101Y-78725256D01*
X79688970Y-78686265D01*
X79659219Y-78660244D01*
X79666555Y-78632965D01*
X79697447Y-78597121D01*
X79776040Y-78545251D01*
X79860677Y-78541439D01*
X79936597Y-78579189D01*
X79989035Y-78652001D01*
X80004161Y-78732124D01*
X80284322Y-78732124D01*
X80276356Y-78658261D01*
X80227366Y-78517829D01*
X80159164Y-78419447D01*
X80036065Y-78320030D01*
X79900472Y-78270711D01*
X79762045Y-78267568D01*
X79630448Y-78306676D01*
G37*
X79630448Y-78306676D02*
X79515342Y-78384111D01*
X79426389Y-78495949D01*
X79373251Y-78638265D01*
X79362503Y-78743015D01*
X79363724Y-78786726D01*
X79373944Y-78820194D01*
X79402039Y-78850179D01*
X79456884Y-78883440D01*
X79547355Y-78926738D01*
X79682328Y-78986833D01*
X79683011Y-78987134D01*
X79807249Y-79044037D01*
X79909127Y-79094565D01*
X79978233Y-79133280D01*
X80004154Y-79154740D01*
X80004161Y-79154913D01*
X79981315Y-79201644D01*
X79927891Y-79253154D01*
X79866558Y-79290261D01*
X79835485Y-79297632D01*
X79750711Y-79272138D01*
X79677707Y-79208291D01*
X79642087Y-79138094D01*
X79607820Y-79086343D01*
X79540697Y-79027409D01*
X79461792Y-78976496D01*
X79392179Y-78948809D01*
X79377623Y-78947287D01*
X79361237Y-78972321D01*
X79360250Y-79036311D01*
X79372292Y-79122593D01*
X79394993Y-79214501D01*
X79425986Y-79295369D01*
X79427552Y-79298509D01*
X79520819Y-79428734D01*
X79641696Y-79517311D01*
X79778973Y-79560786D01*
X79921440Y-79555706D01*
X80057888Y-79498616D01*
X80063955Y-79494602D01*
X80171290Y-79397326D01*
X80241868Y-79270409D01*
X80280926Y-79103526D01*
X80286168Y-79056639D01*
X80295452Y-78835329D01*
X80284322Y-78732124D01*
X80004161Y-78732124D01*
X80000521Y-78796503D01*
X79980611Y-78815291D01*
X79930974Y-78801235D01*
X79852733Y-78768009D01*
X79765274Y-78726359D01*
X79763101Y-78725256D01*
X79688970Y-78686265D01*
X79659219Y-78660244D01*
X79666555Y-78632965D01*
X79697447Y-78597121D01*
X79776040Y-78545251D01*
X79860677Y-78541439D01*
X79936597Y-78579189D01*
X79989035Y-78652001D01*
X80004161Y-78732124D01*
X80284322Y-78732124D01*
X80276356Y-78658261D01*
X80227366Y-78517829D01*
X80159164Y-78419447D01*
X80036065Y-78320030D01*
X79900472Y-78270711D01*
X79762045Y-78267568D01*
X79630448Y-78306676D01*
G36*
X77201402Y-78145857D02*
G01*
X77192846Y-78265188D01*
X77183019Y-78335506D01*
X77169401Y-78366179D01*
X77149473Y-78366571D01*
X77143011Y-78362910D01*
X77057060Y-78336398D01*
X76945255Y-78337946D01*
X76831586Y-78365199D01*
X76760490Y-78400455D01*
X76687595Y-78456778D01*
X76634307Y-78520519D01*
X76597725Y-78601510D01*
X76574950Y-78709586D01*
X76563081Y-78854580D01*
X76559218Y-79046326D01*
X76559149Y-79083109D01*
X76559103Y-79496288D01*
X76651046Y-79528339D01*
X76716348Y-79550144D01*
X76752176Y-79560297D01*
X76753230Y-79560391D01*
X76756758Y-79532860D01*
X76759761Y-79456923D01*
X76762010Y-79342565D01*
X76763276Y-79199769D01*
X76763471Y-79112951D01*
X76763877Y-78941773D01*
X76765968Y-78819088D01*
X76771053Y-78735000D01*
X76780440Y-78679614D01*
X76795439Y-78643032D01*
X76817358Y-78615359D01*
X76831043Y-78602032D01*
X76925051Y-78548328D01*
X77027636Y-78544307D01*
X77120710Y-78589725D01*
X77137922Y-78606123D01*
X77163168Y-78636957D01*
X77180680Y-78673531D01*
X77191858Y-78726415D01*
X77198104Y-78806177D01*
X77200818Y-78923385D01*
X77201402Y-79084991D01*
X77201402Y-79496288D01*
X77293345Y-79528339D01*
X77358647Y-79550144D01*
X77394475Y-79560297D01*
X77395529Y-79560391D01*
X77398225Y-79532448D01*
X77400655Y-79453630D01*
X77402722Y-79331453D01*
X77404329Y-79173432D01*
X77405377Y-78987083D01*
X77405769Y-78779920D01*
X77405770Y-78770706D01*
X77405770Y-77981020D01*
X77310885Y-77940997D01*
X77216000Y-77900973D01*
X77201402Y-78145857D01*
G37*
X77201402Y-78145857D02*
X77192846Y-78265188D01*
X77183019Y-78335506D01*
X77169401Y-78366179D01*
X77149473Y-78366571D01*
X77143011Y-78362910D01*
X77057060Y-78336398D01*
X76945255Y-78337946D01*
X76831586Y-78365199D01*
X76760490Y-78400455D01*
X76687595Y-78456778D01*
X76634307Y-78520519D01*
X76597725Y-78601510D01*
X76574950Y-78709586D01*
X76563081Y-78854580D01*
X76559218Y-79046326D01*
X76559149Y-79083109D01*
X76559103Y-79496288D01*
X76651046Y-79528339D01*
X76716348Y-79550144D01*
X76752176Y-79560297D01*
X76753230Y-79560391D01*
X76756758Y-79532860D01*
X76759761Y-79456923D01*
X76762010Y-79342565D01*
X76763276Y-79199769D01*
X76763471Y-79112951D01*
X76763877Y-78941773D01*
X76765968Y-78819088D01*
X76771053Y-78735000D01*
X76780440Y-78679614D01*
X76795439Y-78643032D01*
X76817358Y-78615359D01*
X76831043Y-78602032D01*
X76925051Y-78548328D01*
X77027636Y-78544307D01*
X77120710Y-78589725D01*
X77137922Y-78606123D01*
X77163168Y-78636957D01*
X77180680Y-78673531D01*
X77191858Y-78726415D01*
X77198104Y-78806177D01*
X77200818Y-78923385D01*
X77201402Y-79084991D01*
X77201402Y-79496288D01*
X77293345Y-79528339D01*
X77358647Y-79550144D01*
X77394475Y-79560297D01*
X77395529Y-79560391D01*
X77398225Y-79532448D01*
X77400655Y-79453630D01*
X77402722Y-79331453D01*
X77404329Y-79173432D01*
X77405377Y-78987083D01*
X77405769Y-78779920D01*
X77405770Y-78770706D01*
X77405770Y-77981020D01*
X77310885Y-77940997D01*
X77216000Y-77900973D01*
X77201402Y-78145857D01*
G36*
X75866056Y-78346360D02*
G01*
X75751657Y-78388842D01*
X75750348Y-78389658D01*
X75679597Y-78441730D01*
X75627364Y-78502584D01*
X75590629Y-78581887D01*
X75566366Y-78689309D01*
X75551555Y-78834517D01*
X75543171Y-79027179D01*
X75542436Y-79054628D01*
X75531880Y-79468521D01*
X75620709Y-79514456D01*
X75684982Y-79545498D01*
X75723790Y-79560206D01*
X75725585Y-79560391D01*
X75732300Y-79533250D01*
X75737635Y-79460041D01*
X75740917Y-79353081D01*
X75741632Y-79266469D01*
X75741649Y-79126162D01*
X75748063Y-79038051D01*
X75770420Y-78996025D01*
X75818268Y-78993975D01*
X75901151Y-79025790D01*
X76026287Y-79084272D01*
X76118303Y-79132845D01*
X76165629Y-79174986D01*
X76179542Y-79220916D01*
X76179563Y-79223189D01*
X76156605Y-79302311D01*
X76088630Y-79345055D01*
X75984602Y-79351246D01*
X75909670Y-79350172D01*
X75870161Y-79371753D01*
X75845522Y-79423591D01*
X75831341Y-79489632D01*
X75851777Y-79527104D01*
X75859472Y-79532467D01*
X75931917Y-79554006D01*
X76033367Y-79557055D01*
X76137843Y-79542778D01*
X76211875Y-79516688D01*
X76314228Y-79429785D01*
X76372409Y-79308816D01*
X76383931Y-79214308D01*
X76375138Y-79129062D01*
X76343320Y-79059476D01*
X76280316Y-78997672D01*
X76177969Y-78935772D01*
X76028118Y-78865897D01*
X76018988Y-78861948D01*
X75884003Y-78799588D01*
X75800706Y-78748446D01*
X75765003Y-78702488D01*
X75772797Y-78655683D01*
X75819993Y-78601998D01*
X75834106Y-78589644D01*
X75928641Y-78541741D01*
X76026594Y-78543758D01*
X76111903Y-78590724D01*
X76168504Y-78677669D01*
X76173763Y-78694734D01*
X76224977Y-78777504D01*
X76289963Y-78817372D01*
X76383931Y-78856882D01*
X76383931Y-78754658D01*
X76355347Y-78606072D01*
X76270505Y-78469784D01*
X76226355Y-78424191D01*
X76125995Y-78365674D01*
X75998365Y-78339184D01*
X75866056Y-78346360D01*
G37*
X75866056Y-78346360D02*
X75751657Y-78388842D01*
X75750348Y-78389658D01*
X75679597Y-78441730D01*
X75627364Y-78502584D01*
X75590629Y-78581887D01*
X75566366Y-78689309D01*
X75551555Y-78834517D01*
X75543171Y-79027179D01*
X75542436Y-79054628D01*
X75531880Y-79468521D01*
X75620709Y-79514456D01*
X75684982Y-79545498D01*
X75723790Y-79560206D01*
X75725585Y-79560391D01*
X75732300Y-79533250D01*
X75737635Y-79460041D01*
X75740917Y-79353081D01*
X75741632Y-79266469D01*
X75741649Y-79126162D01*
X75748063Y-79038051D01*
X75770420Y-78996025D01*
X75818268Y-78993975D01*
X75901151Y-79025790D01*
X76026287Y-79084272D01*
X76118303Y-79132845D01*
X76165629Y-79174986D01*
X76179542Y-79220916D01*
X76179563Y-79223189D01*
X76156605Y-79302311D01*
X76088630Y-79345055D01*
X75984602Y-79351246D01*
X75909670Y-79350172D01*
X75870161Y-79371753D01*
X75845522Y-79423591D01*
X75831341Y-79489632D01*
X75851777Y-79527104D01*
X75859472Y-79532467D01*
X75931917Y-79554006D01*
X76033367Y-79557055D01*
X76137843Y-79542778D01*
X76211875Y-79516688D01*
X76314228Y-79429785D01*
X76372409Y-79308816D01*
X76383931Y-79214308D01*
X76375138Y-79129062D01*
X76343320Y-79059476D01*
X76280316Y-78997672D01*
X76177969Y-78935772D01*
X76028118Y-78865897D01*
X76018988Y-78861948D01*
X75884003Y-78799588D01*
X75800706Y-78748446D01*
X75765003Y-78702488D01*
X75772797Y-78655683D01*
X75819993Y-78601998D01*
X75834106Y-78589644D01*
X75928641Y-78541741D01*
X76026594Y-78543758D01*
X76111903Y-78590724D01*
X76168504Y-78677669D01*
X76173763Y-78694734D01*
X76224977Y-78777504D01*
X76289963Y-78817372D01*
X76383931Y-78856882D01*
X76383931Y-78754658D01*
X76355347Y-78606072D01*
X76270505Y-78469784D01*
X76226355Y-78424191D01*
X76125995Y-78365674D01*
X75998365Y-78339184D01*
X75866056Y-78346360D01*
G36*
X74880057Y-78343920D02*
G01*
X74747435Y-78392859D01*
X74639990Y-78479419D01*
X74597968Y-78540352D01*
X74552157Y-78652161D01*
X74553109Y-78733006D01*
X74601192Y-78787378D01*
X74618983Y-78796624D01*
X74695796Y-78825450D01*
X74735024Y-78818065D01*
X74748311Y-78769658D01*
X74748988Y-78742920D01*
X74773314Y-78644548D01*
X74836719Y-78575734D01*
X74924846Y-78542498D01*
X75023337Y-78550861D01*
X75103398Y-78594296D01*
X75130439Y-78619072D01*
X75149606Y-78649129D01*
X75162554Y-78694565D01*
X75170936Y-78765476D01*
X75176407Y-78871960D01*
X75180622Y-79024112D01*
X75181713Y-79072287D01*
X75185693Y-79237095D01*
X75190219Y-79353088D01*
X75197005Y-79429833D01*
X75207769Y-79476893D01*
X75224227Y-79503835D01*
X75248094Y-79520223D01*
X75263374Y-79527463D01*
X75328267Y-79552220D01*
X75366466Y-79560391D01*
X75379088Y-79533103D01*
X75386792Y-79450603D01*
X75389620Y-79311941D01*
X75387614Y-79116162D01*
X75386989Y-79085965D01*
X75382579Y-78907349D01*
X75377365Y-78776923D01*
X75369945Y-78684492D01*
X75358918Y-78619858D01*
X75342883Y-78572825D01*
X75320439Y-78533196D01*
X75308698Y-78516215D01*
X75241381Y-78441080D01*
X75166090Y-78382638D01*
X75156872Y-78377536D01*
X75021867Y-78337260D01*
X74880057Y-78343920D01*
G37*
X74880057Y-78343920D02*
X74747435Y-78392859D01*
X74639990Y-78479419D01*
X74597968Y-78540352D01*
X74552157Y-78652161D01*
X74553109Y-78733006D01*
X74601192Y-78787378D01*
X74618983Y-78796624D01*
X74695796Y-78825450D01*
X74735024Y-78818065D01*
X74748311Y-78769658D01*
X74748988Y-78742920D01*
X74773314Y-78644548D01*
X74836719Y-78575734D01*
X74924846Y-78542498D01*
X75023337Y-78550861D01*
X75103398Y-78594296D01*
X75130439Y-78619072D01*
X75149606Y-78649129D01*
X75162554Y-78694565D01*
X75170936Y-78765476D01*
X75176407Y-78871960D01*
X75180622Y-79024112D01*
X75181713Y-79072287D01*
X75185693Y-79237095D01*
X75190219Y-79353088D01*
X75197005Y-79429833D01*
X75207769Y-79476893D01*
X75224227Y-79503835D01*
X75248094Y-79520223D01*
X75263374Y-79527463D01*
X75328267Y-79552220D01*
X75366466Y-79560391D01*
X75379088Y-79533103D01*
X75386792Y-79450603D01*
X75389620Y-79311941D01*
X75387614Y-79116162D01*
X75386989Y-79085965D01*
X75382579Y-78907349D01*
X75377365Y-78776923D01*
X75369945Y-78684492D01*
X75358918Y-78619858D01*
X75342883Y-78572825D01*
X75320439Y-78533196D01*
X75308698Y-78516215D01*
X75241381Y-78441080D01*
X75166090Y-78382638D01*
X75156872Y-78377536D01*
X75021867Y-78337260D01*
X74880057Y-78343920D01*
G36*
X73552086Y-78576455D02*
G01*
X73552457Y-78794661D01*
X73553892Y-78962519D01*
X73556998Y-79088070D01*
X73562378Y-79179355D01*
X73570638Y-79244415D01*
X73582384Y-79291291D01*
X73598219Y-79328024D01*
X73610210Y-79348991D01*
X73709510Y-79462694D01*
X73835412Y-79533965D01*
X73974709Y-79559538D01*
X74114195Y-79536150D01*
X74197257Y-79494119D01*
X74284455Y-79421411D01*
X74343883Y-79332612D01*
X74379739Y-79216320D01*
X74396219Y-79061135D01*
X74398553Y-78947287D01*
X74398239Y-78939106D01*
X74194276Y-78939106D01*
X74193030Y-79069657D01*
X74187322Y-79156080D01*
X74174196Y-79212618D01*
X74150694Y-79253514D01*
X74122614Y-79284362D01*
X74028312Y-79343905D01*
X73927060Y-79348992D01*
X73831364Y-79299279D01*
X73823916Y-79292543D01*
X73792126Y-79257502D01*
X73772192Y-79215811D01*
X73761400Y-79153762D01*
X73757035Y-79057644D01*
X73756345Y-78951379D01*
X73757841Y-78817880D01*
X73764036Y-78728822D01*
X73777486Y-78670293D01*
X73800749Y-78628382D01*
X73819825Y-78606123D01*
X73908437Y-78549985D01*
X74010492Y-78543235D01*
X74107905Y-78586114D01*
X74126704Y-78602032D01*
X74158707Y-78637382D01*
X74178682Y-78679502D01*
X74189407Y-78742251D01*
X74193661Y-78839487D01*
X74194276Y-78939106D01*
X74398239Y-78939106D01*
X74391496Y-78763947D01*
X74367528Y-78626195D01*
X74322452Y-78522632D01*
X74252072Y-78441856D01*
X74197257Y-78400455D01*
X74097624Y-78355728D01*
X73982145Y-78334967D01*
X73874801Y-78340525D01*
X73814736Y-78362943D01*
X73791165Y-78369323D01*
X73775523Y-78345535D01*
X73764605Y-78281788D01*
X73756345Y-78184687D01*
X73747301Y-78076541D01*
X73734739Y-78011475D01*
X73711881Y-77974268D01*
X73671949Y-77949699D01*
X73646862Y-77938819D01*
X73551977Y-77899072D01*
X73552086Y-78576455D01*
G37*
X73552086Y-78576455D02*
X73552457Y-78794661D01*
X73553892Y-78962519D01*
X73556998Y-79088070D01*
X73562378Y-79179355D01*
X73570638Y-79244415D01*
X73582384Y-79291291D01*
X73598219Y-79328024D01*
X73610210Y-79348991D01*
X73709510Y-79462694D01*
X73835412Y-79533965D01*
X73974709Y-79559538D01*
X74114195Y-79536150D01*
X74197257Y-79494119D01*
X74284455Y-79421411D01*
X74343883Y-79332612D01*
X74379739Y-79216320D01*
X74396219Y-79061135D01*
X74398553Y-78947287D01*
X74398239Y-78939106D01*
X74194276Y-78939106D01*
X74193030Y-79069657D01*
X74187322Y-79156080D01*
X74174196Y-79212618D01*
X74150694Y-79253514D01*
X74122614Y-79284362D01*
X74028312Y-79343905D01*
X73927060Y-79348992D01*
X73831364Y-79299279D01*
X73823916Y-79292543D01*
X73792126Y-79257502D01*
X73772192Y-79215811D01*
X73761400Y-79153762D01*
X73757035Y-79057644D01*
X73756345Y-78951379D01*
X73757841Y-78817880D01*
X73764036Y-78728822D01*
X73777486Y-78670293D01*
X73800749Y-78628382D01*
X73819825Y-78606123D01*
X73908437Y-78549985D01*
X74010492Y-78543235D01*
X74107905Y-78586114D01*
X74126704Y-78602032D01*
X74158707Y-78637382D01*
X74178682Y-78679502D01*
X74189407Y-78742251D01*
X74193661Y-78839487D01*
X74194276Y-78939106D01*
X74398239Y-78939106D01*
X74391496Y-78763947D01*
X74367528Y-78626195D01*
X74322452Y-78522632D01*
X74252072Y-78441856D01*
X74197257Y-78400455D01*
X74097624Y-78355728D01*
X73982145Y-78334967D01*
X73874801Y-78340525D01*
X73814736Y-78362943D01*
X73791165Y-78369323D01*
X73775523Y-78345535D01*
X73764605Y-78281788D01*
X73756345Y-78184687D01*
X73747301Y-78076541D01*
X73734739Y-78011475D01*
X73711881Y-77974268D01*
X73671949Y-77949699D01*
X73646862Y-77938819D01*
X73551977Y-77899072D01*
X73552086Y-78576455D01*
G36*
X72365876Y-78361840D02*
G01*
X72361421Y-78438653D01*
X72357929Y-78555391D01*
X72355685Y-78702821D01*
X72354965Y-78857455D01*
X72354965Y-79380727D01*
X72447355Y-79473117D01*
X72511022Y-79530047D01*
X72566911Y-79553107D01*
X72643298Y-79551647D01*
X72673620Y-79547934D01*
X72768390Y-79537126D01*
X72846778Y-79530933D01*
X72865885Y-79530361D01*
X72930301Y-79534102D01*
X73022429Y-79543494D01*
X73058150Y-79547934D01*
X73145886Y-79554801D01*
X73204847Y-79539885D01*
X73263310Y-79493835D01*
X73284415Y-79473117D01*
X73376805Y-79380727D01*
X73376805Y-78401947D01*
X73302442Y-78368066D01*
X73238410Y-78342970D01*
X73200948Y-78334184D01*
X73191343Y-78361950D01*
X73182365Y-78439530D01*
X73174614Y-78558348D01*
X73168686Y-78709828D01*
X73165827Y-78837805D01*
X73157839Y-79341425D01*
X73088152Y-79351278D01*
X73024771Y-79344389D01*
X72993714Y-79322083D01*
X72985033Y-79280379D01*
X72977622Y-79191544D01*
X72972069Y-79066834D01*
X72968964Y-78917507D01*
X72968516Y-78840661D01*
X72968069Y-78398287D01*
X72876126Y-78366235D01*
X72811051Y-78344443D01*
X72775653Y-78334281D01*
X72774632Y-78334184D01*
X72771080Y-78361809D01*
X72767177Y-78438411D01*
X72763249Y-78554579D01*
X72759624Y-78700904D01*
X72757092Y-78837805D01*
X72749103Y-79341425D01*
X72573931Y-79341425D01*
X72565893Y-78881965D01*
X72557854Y-78422505D01*
X72472457Y-78378344D01*
X72409407Y-78348019D01*
X72372090Y-78334258D01*
X72371013Y-78334184D01*
X72365876Y-78361840D01*
G37*
X72365876Y-78361840D02*
X72361421Y-78438653D01*
X72357929Y-78555391D01*
X72355685Y-78702821D01*
X72354965Y-78857455D01*
X72354965Y-79380727D01*
X72447355Y-79473117D01*
X72511022Y-79530047D01*
X72566911Y-79553107D01*
X72643298Y-79551647D01*
X72673620Y-79547934D01*
X72768390Y-79537126D01*
X72846778Y-79530933D01*
X72865885Y-79530361D01*
X72930301Y-79534102D01*
X73022429Y-79543494D01*
X73058150Y-79547934D01*
X73145886Y-79554801D01*
X73204847Y-79539885D01*
X73263310Y-79493835D01*
X73284415Y-79473117D01*
X73376805Y-79380727D01*
X73376805Y-78401947D01*
X73302442Y-78368066D01*
X73238410Y-78342970D01*
X73200948Y-78334184D01*
X73191343Y-78361950D01*
X73182365Y-78439530D01*
X73174614Y-78558348D01*
X73168686Y-78709828D01*
X73165827Y-78837805D01*
X73157839Y-79341425D01*
X73088152Y-79351278D01*
X73024771Y-79344389D01*
X72993714Y-79322083D01*
X72985033Y-79280379D01*
X72977622Y-79191544D01*
X72972069Y-79066834D01*
X72968964Y-78917507D01*
X72968516Y-78840661D01*
X72968069Y-78398287D01*
X72876126Y-78366235D01*
X72811051Y-78344443D01*
X72775653Y-78334281D01*
X72774632Y-78334184D01*
X72771080Y-78361809D01*
X72767177Y-78438411D01*
X72763249Y-78554579D01*
X72759624Y-78700904D01*
X72757092Y-78837805D01*
X72749103Y-79341425D01*
X72573931Y-79341425D01*
X72565893Y-78881965D01*
X72557854Y-78422505D01*
X72472457Y-78378344D01*
X72409407Y-78348019D01*
X72372090Y-78334258D01*
X72371013Y-78334184D01*
X72365876Y-78361840D01*
G36*
X71631594Y-78357156D02*
G01*
X71547531Y-78395393D01*
X71481550Y-78441726D01*
X71433206Y-78493532D01*
X71399828Y-78560363D01*
X71378747Y-78651769D01*
X71367293Y-78777301D01*
X71362797Y-78946508D01*
X71362322Y-79057933D01*
X71362322Y-79492627D01*
X71436684Y-79526509D01*
X71495254Y-79551272D01*
X71524270Y-79560391D01*
X71529821Y-79533257D01*
X71534225Y-79460094D01*
X71536922Y-79353263D01*
X71537494Y-79268437D01*
X71539954Y-79145887D01*
X71546588Y-79048668D01*
X71556274Y-78989134D01*
X71563968Y-78976483D01*
X71615689Y-78989402D01*
X71696883Y-79022539D01*
X71790898Y-79067461D01*
X71881083Y-79115735D01*
X71950785Y-79158928D01*
X71983352Y-79188608D01*
X71983481Y-79188929D01*
X71980680Y-79243857D01*
X71955561Y-79296292D01*
X71911459Y-79338881D01*
X71847091Y-79353126D01*
X71792079Y-79351466D01*
X71714165Y-79350245D01*
X71673268Y-79368498D01*
X71648705Y-79416726D01*
X71645608Y-79425820D01*
X71634960Y-79494598D01*
X71663435Y-79536360D01*
X71737656Y-79556263D01*
X71817832Y-79559944D01*
X71962110Y-79532658D01*
X72036797Y-79493690D01*
X72129037Y-79402148D01*
X72177957Y-79289782D01*
X72182346Y-79171051D01*
X72140999Y-79060411D01*
X72078803Y-78991080D01*
X72016706Y-78952265D01*
X71919105Y-78903125D01*
X71805368Y-78853292D01*
X71786410Y-78845677D01*
X71661479Y-78790545D01*
X71589461Y-78741954D01*
X71566300Y-78693647D01*
X71587936Y-78639370D01*
X71625080Y-78596943D01*
X71712873Y-78544702D01*
X71809470Y-78540784D01*
X71898056Y-78581041D01*
X71961814Y-78661326D01*
X71970183Y-78682040D01*
X72018904Y-78758225D01*
X72090035Y-78814785D01*
X72179793Y-78861201D01*
X72179793Y-78729584D01*
X72174510Y-78649168D01*
X72151858Y-78585786D01*
X72101633Y-78518163D01*
X72053418Y-78466076D01*
X71978446Y-78392322D01*
X71920194Y-78352702D01*
X71857628Y-78336810D01*
X71786807Y-78334184D01*
X71631594Y-78357156D01*
G37*
X71631594Y-78357156D02*
X71547531Y-78395393D01*
X71481550Y-78441726D01*
X71433206Y-78493532D01*
X71399828Y-78560363D01*
X71378747Y-78651769D01*
X71367293Y-78777301D01*
X71362797Y-78946508D01*
X71362322Y-79057933D01*
X71362322Y-79492627D01*
X71436684Y-79526509D01*
X71495254Y-79551272D01*
X71524270Y-79560391D01*
X71529821Y-79533257D01*
X71534225Y-79460094D01*
X71536922Y-79353263D01*
X71537494Y-79268437D01*
X71539954Y-79145887D01*
X71546588Y-79048668D01*
X71556274Y-78989134D01*
X71563968Y-78976483D01*
X71615689Y-78989402D01*
X71696883Y-79022539D01*
X71790898Y-79067461D01*
X71881083Y-79115735D01*
X71950785Y-79158928D01*
X71983352Y-79188608D01*
X71983481Y-79188929D01*
X71980680Y-79243857D01*
X71955561Y-79296292D01*
X71911459Y-79338881D01*
X71847091Y-79353126D01*
X71792079Y-79351466D01*
X71714165Y-79350245D01*
X71673268Y-79368498D01*
X71648705Y-79416726D01*
X71645608Y-79425820D01*
X71634960Y-79494598D01*
X71663435Y-79536360D01*
X71737656Y-79556263D01*
X71817832Y-79559944D01*
X71962110Y-79532658D01*
X72036797Y-79493690D01*
X72129037Y-79402148D01*
X72177957Y-79289782D01*
X72182346Y-79171051D01*
X72140999Y-79060411D01*
X72078803Y-78991080D01*
X72016706Y-78952265D01*
X71919105Y-78903125D01*
X71805368Y-78853292D01*
X71786410Y-78845677D01*
X71661479Y-78790545D01*
X71589461Y-78741954D01*
X71566300Y-78693647D01*
X71587936Y-78639370D01*
X71625080Y-78596943D01*
X71712873Y-78544702D01*
X71809470Y-78540784D01*
X71898056Y-78581041D01*
X71961814Y-78661326D01*
X71970183Y-78682040D01*
X72018904Y-78758225D01*
X72090035Y-78814785D01*
X72179793Y-78861201D01*
X72179793Y-78729584D01*
X72174510Y-78649168D01*
X72151858Y-78585786D01*
X72101633Y-78518163D01*
X72053418Y-78466076D01*
X71978446Y-78392322D01*
X71920194Y-78352702D01*
X71857628Y-78336810D01*
X71786807Y-78334184D01*
X71631594Y-78357156D01*
G36*
X70610310Y-78362018D02*
G01*
X70575415Y-78377269D01*
X70492123Y-78443235D01*
X70420897Y-78538618D01*
X70376847Y-78640406D01*
X70369678Y-78690587D01*
X70393715Y-78760647D01*
X70446439Y-78797717D01*
X70502969Y-78820164D01*
X70528854Y-78824300D01*
X70541458Y-78794283D01*
X70566346Y-78728961D01*
X70577265Y-78699445D01*
X70638492Y-78597348D01*
X70727139Y-78546423D01*
X70840807Y-78547989D01*
X70849226Y-78549994D01*
X70909912Y-78578767D01*
X70954526Y-78634859D01*
X70984998Y-78725163D01*
X71003256Y-78856571D01*
X71011229Y-79035974D01*
X71011977Y-79131433D01*
X71012348Y-79281913D01*
X71014777Y-79384495D01*
X71021240Y-79449672D01*
X71033712Y-79487938D01*
X71054167Y-79509785D01*
X71084581Y-79525707D01*
X71086339Y-79526509D01*
X71144909Y-79551272D01*
X71173925Y-79560391D01*
X71178384Y-79532822D01*
X71182201Y-79456620D01*
X71185101Y-79341541D01*
X71186809Y-79197341D01*
X71187149Y-79091814D01*
X71185412Y-78887613D01*
X71178618Y-78732697D01*
X71164393Y-78618024D01*
X71140362Y-78534551D01*
X71104152Y-78473236D01*
X71053388Y-78425034D01*
X71003261Y-78391393D01*
X70882725Y-78346619D01*
X70742443Y-78336521D01*
X70610310Y-78362018D01*
G37*
X70610310Y-78362018D02*
X70575415Y-78377269D01*
X70492123Y-78443235D01*
X70420897Y-78538618D01*
X70376847Y-78640406D01*
X70369678Y-78690587D01*
X70393715Y-78760647D01*
X70446439Y-78797717D01*
X70502969Y-78820164D01*
X70528854Y-78824300D01*
X70541458Y-78794283D01*
X70566346Y-78728961D01*
X70577265Y-78699445D01*
X70638492Y-78597348D01*
X70727139Y-78546423D01*
X70840807Y-78547989D01*
X70849226Y-78549994D01*
X70909912Y-78578767D01*
X70954526Y-78634859D01*
X70984998Y-78725163D01*
X71003256Y-78856571D01*
X71011229Y-79035974D01*
X71011977Y-79131433D01*
X71012348Y-79281913D01*
X71014777Y-79384495D01*
X71021240Y-79449672D01*
X71033712Y-79487938D01*
X71054167Y-79509785D01*
X71084581Y-79525707D01*
X71086339Y-79526509D01*
X71144909Y-79551272D01*
X71173925Y-79560391D01*
X71178384Y-79532822D01*
X71182201Y-79456620D01*
X71185101Y-79341541D01*
X71186809Y-79197341D01*
X71187149Y-79091814D01*
X71185412Y-78887613D01*
X71178618Y-78732697D01*
X71164393Y-78618024D01*
X71140362Y-78534551D01*
X71104152Y-78473236D01*
X71053388Y-78425034D01*
X71003261Y-78391393D01*
X70882725Y-78346619D01*
X70742443Y-78336521D01*
X70610310Y-78362018D01*
G36*
X69602561Y-78378540D02*
G01*
X69487050Y-78454034D01*
X69431336Y-78521617D01*
X69387196Y-78644255D01*
X69383691Y-78741298D01*
X69391632Y-78871056D01*
X69690885Y-79002039D01*
X69836389Y-79068958D01*
X69931463Y-79122790D01*
X69980899Y-79169416D01*
X69989489Y-79214720D01*
X69962028Y-79264582D01*
X69931747Y-79297632D01*
X69843637Y-79350633D01*
X69747804Y-79354347D01*
X69659788Y-79313041D01*
X69595131Y-79230983D01*
X69583567Y-79202008D01*
X69528175Y-79111509D01*
X69464447Y-79072940D01*
X69377034Y-79039946D01*
X69377034Y-79165034D01*
X69384762Y-79250156D01*
X69415034Y-79321938D01*
X69478482Y-79404356D01*
X69487912Y-79415066D01*
X69558487Y-79488391D01*
X69619153Y-79527742D01*
X69695050Y-79545845D01*
X69757970Y-79551774D01*
X69870513Y-79553251D01*
X69950630Y-79534535D01*
X70000610Y-79506747D01*
X70079162Y-79445641D01*
X70133537Y-79379554D01*
X70167948Y-79296441D01*
X70186612Y-79184254D01*
X70193744Y-79030946D01*
X70194313Y-78953136D01*
X70192378Y-78859853D01*
X70016101Y-78859853D01*
X70014056Y-78909896D01*
X70008961Y-78918092D01*
X69975334Y-78906958D01*
X69902970Y-78877493D01*
X69806253Y-78835601D01*
X69786027Y-78826597D01*
X69663797Y-78764442D01*
X69596453Y-78709815D01*
X69581652Y-78658649D01*
X69617053Y-78606876D01*
X69646289Y-78584000D01*
X69751784Y-78538250D01*
X69850524Y-78545808D01*
X69933188Y-78601651D01*
X69990452Y-78700753D01*
X70008812Y-78779414D01*
X70016101Y-78859853D01*
X70192378Y-78859853D01*
X70190541Y-78771351D01*
X70176641Y-78636853D01*
X70149106Y-78538916D01*
X70104428Y-78466811D01*
X70039099Y-78409813D01*
X70010617Y-78391393D01*
X69881237Y-78343422D01*
X69739588Y-78340403D01*
X69602561Y-78378540D01*
G37*
X69602561Y-78378540D02*
X69487050Y-78454034D01*
X69431336Y-78521617D01*
X69387196Y-78644255D01*
X69383691Y-78741298D01*
X69391632Y-78871056D01*
X69690885Y-79002039D01*
X69836389Y-79068958D01*
X69931463Y-79122790D01*
X69980899Y-79169416D01*
X69989489Y-79214720D01*
X69962028Y-79264582D01*
X69931747Y-79297632D01*
X69843637Y-79350633D01*
X69747804Y-79354347D01*
X69659788Y-79313041D01*
X69595131Y-79230983D01*
X69583567Y-79202008D01*
X69528175Y-79111509D01*
X69464447Y-79072940D01*
X69377034Y-79039946D01*
X69377034Y-79165034D01*
X69384762Y-79250156D01*
X69415034Y-79321938D01*
X69478482Y-79404356D01*
X69487912Y-79415066D01*
X69558487Y-79488391D01*
X69619153Y-79527742D01*
X69695050Y-79545845D01*
X69757970Y-79551774D01*
X69870513Y-79553251D01*
X69950630Y-79534535D01*
X70000610Y-79506747D01*
X70079162Y-79445641D01*
X70133537Y-79379554D01*
X70167948Y-79296441D01*
X70186612Y-79184254D01*
X70193744Y-79030946D01*
X70194313Y-78953136D01*
X70192378Y-78859853D01*
X70016101Y-78859853D01*
X70014056Y-78909896D01*
X70008961Y-78918092D01*
X69975334Y-78906958D01*
X69902970Y-78877493D01*
X69806253Y-78835601D01*
X69786027Y-78826597D01*
X69663797Y-78764442D01*
X69596453Y-78709815D01*
X69581652Y-78658649D01*
X69617053Y-78606876D01*
X69646289Y-78584000D01*
X69751784Y-78538250D01*
X69850524Y-78545808D01*
X69933188Y-78601651D01*
X69990452Y-78700753D01*
X70008812Y-78779414D01*
X70016101Y-78859853D01*
X70192378Y-78859853D01*
X70190541Y-78771351D01*
X70176641Y-78636853D01*
X70149106Y-78538916D01*
X70104428Y-78466811D01*
X70039099Y-78409813D01*
X70010617Y-78391393D01*
X69881237Y-78343422D01*
X69739588Y-78340403D01*
X69602561Y-78378540D01*
G36*
X75736986Y-68874998D02*
G01*
X75578994Y-68875863D01*
X75464653Y-68878205D01*
X75386593Y-68882762D01*
X75337446Y-68890270D01*
X75309841Y-68901466D01*
X75296408Y-68917088D01*
X75289779Y-68937873D01*
X75289135Y-68940563D01*
X75279065Y-68989113D01*
X75260425Y-69084905D01*
X75235155Y-69217743D01*
X75205193Y-69377431D01*
X75172478Y-69553774D01*
X75171336Y-69559967D01*
X75138567Y-69732782D01*
X75107907Y-69885469D01*
X75081336Y-70008871D01*
X75060833Y-70093831D01*
X75048374Y-70131190D01*
X75047780Y-70131852D01*
X75011081Y-70150095D01*
X74935414Y-70180497D01*
X74837122Y-70216493D01*
X74836575Y-70216685D01*
X74712767Y-70263222D01*
X74566804Y-70322504D01*
X74429219Y-70382109D01*
X74422707Y-70385056D01*
X74198610Y-70486765D01*
X73702381Y-70147897D01*
X73550154Y-70044592D01*
X73412259Y-69952237D01*
X73296685Y-69876084D01*
X73211421Y-69821385D01*
X73164456Y-69793393D01*
X73159996Y-69791317D01*
X73125866Y-69800560D01*
X73062119Y-69845156D01*
X72966269Y-69927209D01*
X72835831Y-70048821D01*
X72702672Y-70178205D01*
X72574306Y-70305702D01*
X72459419Y-70422046D01*
X72364927Y-70520052D01*
X72297747Y-70592536D01*
X72264794Y-70632313D01*
X72263568Y-70634361D01*
X72259926Y-70661656D01*
X72273650Y-70706234D01*
X72308131Y-70774112D01*
X72366761Y-70871311D01*
X72452930Y-71003851D01*
X72567800Y-71174476D01*
X72669746Y-71324655D01*
X72760877Y-71459350D01*
X72835927Y-71570740D01*
X72889631Y-71651005D01*
X72916720Y-71692325D01*
X72918426Y-71695130D01*
X72915118Y-71734721D01*
X72890047Y-71811669D01*
X72848202Y-71911432D01*
X72833288Y-71943291D01*
X72768214Y-72085226D01*
X72698788Y-72246273D01*
X72642391Y-72385621D01*
X72601753Y-72489044D01*
X72569474Y-72567642D01*
X72550822Y-72608720D01*
X72548503Y-72611885D01*
X72514197Y-72617128D01*
X72433331Y-72631494D01*
X72316657Y-72652937D01*
X72174925Y-72679413D01*
X72018890Y-72708877D01*
X71859302Y-72739283D01*
X71706915Y-72768588D01*
X71572479Y-72794745D01*
X71466748Y-72815710D01*
X71400474Y-72829439D01*
X71384218Y-72833320D01*
X71367427Y-72842900D01*
X71354751Y-72864536D01*
X71345622Y-72905531D01*
X71339469Y-72973189D01*
X71335720Y-73074812D01*
X71333808Y-73217703D01*
X71333160Y-73409165D01*
X71333126Y-73487645D01*
X71333126Y-74125906D01*
X71486402Y-74156160D01*
X71571678Y-74172564D01*
X71698930Y-74196509D01*
X71852685Y-74225107D01*
X72017466Y-74255467D01*
X72063011Y-74263806D01*
X72215068Y-74293370D01*
X72347532Y-74322442D01*
X72449286Y-74348329D01*
X72509212Y-74368337D01*
X72519195Y-74374301D01*
X72543707Y-74416534D01*
X72578852Y-74498370D01*
X72617827Y-74603683D01*
X72625558Y-74626368D01*
X72676640Y-74767018D01*
X72740046Y-74925714D01*
X72802096Y-75068225D01*
X72802402Y-75068886D01*
X72905733Y-75292440D01*
X72226039Y-76292232D01*
X72662379Y-76729300D01*
X72794351Y-76859381D01*
X72914721Y-76974048D01*
X73016727Y-77067181D01*
X73093609Y-77132658D01*
X73138607Y-77164357D01*
X73145062Y-77166368D01*
X73182960Y-77150529D01*
X73260292Y-77106496D01*
X73368611Y-77039490D01*
X73499468Y-76954734D01*
X73640948Y-76859816D01*
X73784539Y-76762998D01*
X73912565Y-76678751D01*
X74016895Y-76612258D01*
X74089400Y-76568702D01*
X74121842Y-76553264D01*
X74161424Y-76566328D01*
X74236481Y-76600750D01*
X74331532Y-76649380D01*
X74341608Y-76654785D01*
X74469609Y-76718980D01*
X74557382Y-76750463D01*
X74611972Y-76750798D01*
X74640425Y-76721548D01*
X74640590Y-76721138D01*
X74654812Y-76686498D01*
X74688731Y-76604269D01*
X74739716Y-76480814D01*
X74805138Y-76322498D01*
X74882366Y-76135686D01*
X74968771Y-75926742D01*
X75052449Y-75724446D01*
X75144412Y-75501200D01*
X75228850Y-75294392D01*
X75303231Y-75110362D01*
X75365026Y-74955451D01*
X75411703Y-74835996D01*
X75440732Y-74758339D01*
X75449678Y-74729356D01*
X75427244Y-74696110D01*
X75368561Y-74643123D01*
X75290311Y-74584704D01*
X75067466Y-74399952D01*
X74893282Y-74188182D01*
X74769846Y-73953856D01*
X74699246Y-73701434D01*
X74683569Y-73435377D01*
X74694964Y-73312575D01*
X74757050Y-73057793D01*
X74863977Y-72832801D01*
X75009111Y-72639817D01*
X75185822Y-72481061D01*
X75387478Y-72358750D01*
X75607446Y-72275105D01*
X75839094Y-72232344D01*
X76075791Y-72232687D01*
X76310905Y-72278352D01*
X76537804Y-72371559D01*
X76749856Y-72514527D01*
X76838364Y-72595383D01*
X77008111Y-72803007D01*
X77126301Y-73029895D01*
X77193722Y-73269433D01*
X77211160Y-73515007D01*
X77179402Y-73760003D01*
X77099235Y-73997808D01*
X76971445Y-74221807D01*
X76796820Y-74425387D01*
X76601688Y-74584704D01*
X76520409Y-74645602D01*
X76462991Y-74698015D01*
X76442322Y-74729406D01*
X76453144Y-74763639D01*
X76483923Y-74845419D01*
X76532126Y-74968407D01*
X76595222Y-75126263D01*
X76670678Y-75312649D01*
X76755962Y-75521226D01*
X76839781Y-75724496D01*
X76932255Y-75947933D01*
X77017911Y-76154984D01*
X77094118Y-76339286D01*
X77158247Y-76494475D01*
X77207668Y-76614188D01*
X77239752Y-76692061D01*
X77251641Y-76721138D01*
X77279726Y-76750677D01*
X77334051Y-76750591D01*
X77421605Y-76719326D01*
X77549381Y-76655329D01*
X77550392Y-76654785D01*
X77646598Y-76605121D01*
X77724369Y-76568945D01*
X77768223Y-76553408D01*
X77770158Y-76553264D01*
X77803171Y-76569024D01*
X77876054Y-76612850D01*
X77980678Y-76679557D01*
X78108910Y-76763964D01*
X78251052Y-76859816D01*
X78395767Y-76956867D01*
X78526196Y-77041270D01*
X78633890Y-77107801D01*
X78710402Y-77151238D01*
X78746938Y-77166368D01*
X78780582Y-77146482D01*
X78848224Y-77090903D01*
X78943107Y-77005754D01*
X79058470Y-76897153D01*
X79187555Y-76771221D01*
X79229771Y-76729149D01*
X79666261Y-76291931D01*
X79334023Y-75804340D01*
X79233054Y-75654605D01*
X79144438Y-75520220D01*
X79073146Y-75408969D01*
X79024150Y-75328639D01*
X79002422Y-75287014D01*
X79001785Y-75284053D01*
X79013240Y-75244818D01*
X79044051Y-75165895D01*
X79088884Y-75060509D01*
X79120353Y-74989954D01*
X79179192Y-74854876D01*
X79234604Y-74718409D01*
X79277564Y-74603103D01*
X79289234Y-74567977D01*
X79322389Y-74474174D01*
X79354799Y-74401694D01*
X79372601Y-74374301D01*
X79411886Y-74357536D01*
X79497626Y-74333770D01*
X79618697Y-74305697D01*
X79763973Y-74276009D01*
X79828988Y-74263806D01*
X79994087Y-74233468D01*
X80152448Y-74204093D01*
X80288596Y-74178569D01*
X80387057Y-74159785D01*
X80405598Y-74156160D01*
X80558873Y-74125906D01*
X80558873Y-73487645D01*
X80558529Y-73277770D01*
X80557116Y-73118980D01*
X80554064Y-73003973D01*
X80548803Y-72925446D01*
X80540763Y-72876096D01*
X80529373Y-72848619D01*
X80514063Y-72835713D01*
X80507782Y-72833320D01*
X80469896Y-72824833D01*
X80386195Y-72807900D01*
X80267433Y-72784566D01*
X80124361Y-72756875D01*
X79967732Y-72726873D01*
X79808297Y-72696604D01*
X79656809Y-72668115D01*
X79524019Y-72643449D01*
X79420681Y-72624651D01*
X79357545Y-72613767D01*
X79343497Y-72611885D01*
X79330770Y-72586704D01*
X79302600Y-72519622D01*
X79264252Y-72423333D01*
X79249609Y-72385621D01*
X79190548Y-72239921D01*
X79121000Y-72078951D01*
X79058712Y-71943291D01*
X79012879Y-71839561D01*
X78982387Y-71754326D01*
X78972208Y-71702126D01*
X78973831Y-71695130D01*
X78995343Y-71662102D01*
X79044465Y-71588643D01*
X79115923Y-71482577D01*
X79204445Y-71351726D01*
X79304759Y-71203912D01*
X79324594Y-71174734D01*
X79440988Y-71001863D01*
X79526548Y-70870226D01*
X79584684Y-70773761D01*
X79618808Y-70706408D01*
X79632331Y-70662106D01*
X79628664Y-70634794D01*
X79628570Y-70634620D01*
X79599707Y-70598746D01*
X79535867Y-70529391D01*
X79443969Y-70433745D01*
X79330933Y-70318999D01*
X79203679Y-70192341D01*
X79189328Y-70178205D01*
X79028957Y-70022903D01*
X78905195Y-69908870D01*
X78815555Y-69834002D01*
X78757552Y-69796196D01*
X78732004Y-69791317D01*
X78694718Y-69812603D01*
X78617343Y-69861773D01*
X78507867Y-69933575D01*
X78374280Y-70022755D01*
X78224570Y-70124063D01*
X78189618Y-70147897D01*
X77693390Y-70486765D01*
X77469293Y-70385056D01*
X77333011Y-70325783D01*
X77186724Y-70266170D01*
X77060965Y-70218640D01*
X77055425Y-70216685D01*
X76957057Y-70180677D01*
X76881229Y-70150229D01*
X76844282Y-70131905D01*
X76844220Y-70131852D01*
X76832496Y-70098729D01*
X76812568Y-70017267D01*
X76786413Y-69896625D01*
X76756010Y-69745959D01*
X76723337Y-69574428D01*
X76720664Y-69559967D01*
X76687890Y-69383235D01*
X76657802Y-69222810D01*
X76632339Y-69088888D01*
X76613441Y-68991663D01*
X76603047Y-68941332D01*
X76602865Y-68940563D01*
X76596539Y-68919153D01*
X76584239Y-68902988D01*
X76558594Y-68891331D01*
X76512235Y-68883445D01*
X76437792Y-68878593D01*
X76327895Y-68876039D01*
X76175175Y-68875045D01*
X75972262Y-68874874D01*
X75946000Y-68874874D01*
X75736986Y-68874998D01*
G37*
X75736986Y-68874998D02*
X75578994Y-68875863D01*
X75464653Y-68878205D01*
X75386593Y-68882762D01*
X75337446Y-68890270D01*
X75309841Y-68901466D01*
X75296408Y-68917088D01*
X75289779Y-68937873D01*
X75289135Y-68940563D01*
X75279065Y-68989113D01*
X75260425Y-69084905D01*
X75235155Y-69217743D01*
X75205193Y-69377431D01*
X75172478Y-69553774D01*
X75171336Y-69559967D01*
X75138567Y-69732782D01*
X75107907Y-69885469D01*
X75081336Y-70008871D01*
X75060833Y-70093831D01*
X75048374Y-70131190D01*
X75047780Y-70131852D01*
X75011081Y-70150095D01*
X74935414Y-70180497D01*
X74837122Y-70216493D01*
X74836575Y-70216685D01*
X74712767Y-70263222D01*
X74566804Y-70322504D01*
X74429219Y-70382109D01*
X74422707Y-70385056D01*
X74198610Y-70486765D01*
X73702381Y-70147897D01*
X73550154Y-70044592D01*
X73412259Y-69952237D01*
X73296685Y-69876084D01*
X73211421Y-69821385D01*
X73164456Y-69793393D01*
X73159996Y-69791317D01*
X73125866Y-69800560D01*
X73062119Y-69845156D01*
X72966269Y-69927209D01*
X72835831Y-70048821D01*
X72702672Y-70178205D01*
X72574306Y-70305702D01*
X72459419Y-70422046D01*
X72364927Y-70520052D01*
X72297747Y-70592536D01*
X72264794Y-70632313D01*
X72263568Y-70634361D01*
X72259926Y-70661656D01*
X72273650Y-70706234D01*
X72308131Y-70774112D01*
X72366761Y-70871311D01*
X72452930Y-71003851D01*
X72567800Y-71174476D01*
X72669746Y-71324655D01*
X72760877Y-71459350D01*
X72835927Y-71570740D01*
X72889631Y-71651005D01*
X72916720Y-71692325D01*
X72918426Y-71695130D01*
X72915118Y-71734721D01*
X72890047Y-71811669D01*
X72848202Y-71911432D01*
X72833288Y-71943291D01*
X72768214Y-72085226D01*
X72698788Y-72246273D01*
X72642391Y-72385621D01*
X72601753Y-72489044D01*
X72569474Y-72567642D01*
X72550822Y-72608720D01*
X72548503Y-72611885D01*
X72514197Y-72617128D01*
X72433331Y-72631494D01*
X72316657Y-72652937D01*
X72174925Y-72679413D01*
X72018890Y-72708877D01*
X71859302Y-72739283D01*
X71706915Y-72768588D01*
X71572479Y-72794745D01*
X71466748Y-72815710D01*
X71400474Y-72829439D01*
X71384218Y-72833320D01*
X71367427Y-72842900D01*
X71354751Y-72864536D01*
X71345622Y-72905531D01*
X71339469Y-72973189D01*
X71335720Y-73074812D01*
X71333808Y-73217703D01*
X71333160Y-73409165D01*
X71333126Y-73487645D01*
X71333126Y-74125906D01*
X71486402Y-74156160D01*
X71571678Y-74172564D01*
X71698930Y-74196509D01*
X71852685Y-74225107D01*
X72017466Y-74255467D01*
X72063011Y-74263806D01*
X72215068Y-74293370D01*
X72347532Y-74322442D01*
X72449286Y-74348329D01*
X72509212Y-74368337D01*
X72519195Y-74374301D01*
X72543707Y-74416534D01*
X72578852Y-74498370D01*
X72617827Y-74603683D01*
X72625558Y-74626368D01*
X72676640Y-74767018D01*
X72740046Y-74925714D01*
X72802096Y-75068225D01*
X72802402Y-75068886D01*
X72905733Y-75292440D01*
X72226039Y-76292232D01*
X72662379Y-76729300D01*
X72794351Y-76859381D01*
X72914721Y-76974048D01*
X73016727Y-77067181D01*
X73093609Y-77132658D01*
X73138607Y-77164357D01*
X73145062Y-77166368D01*
X73182960Y-77150529D01*
X73260292Y-77106496D01*
X73368611Y-77039490D01*
X73499468Y-76954734D01*
X73640948Y-76859816D01*
X73784539Y-76762998D01*
X73912565Y-76678751D01*
X74016895Y-76612258D01*
X74089400Y-76568702D01*
X74121842Y-76553264D01*
X74161424Y-76566328D01*
X74236481Y-76600750D01*
X74331532Y-76649380D01*
X74341608Y-76654785D01*
X74469609Y-76718980D01*
X74557382Y-76750463D01*
X74611972Y-76750798D01*
X74640425Y-76721548D01*
X74640590Y-76721138D01*
X74654812Y-76686498D01*
X74688731Y-76604269D01*
X74739716Y-76480814D01*
X74805138Y-76322498D01*
X74882366Y-76135686D01*
X74968771Y-75926742D01*
X75052449Y-75724446D01*
X75144412Y-75501200D01*
X75228850Y-75294392D01*
X75303231Y-75110362D01*
X75365026Y-74955451D01*
X75411703Y-74835996D01*
X75440732Y-74758339D01*
X75449678Y-74729356D01*
X75427244Y-74696110D01*
X75368561Y-74643123D01*
X75290311Y-74584704D01*
X75067466Y-74399952D01*
X74893282Y-74188182D01*
X74769846Y-73953856D01*
X74699246Y-73701434D01*
X74683569Y-73435377D01*
X74694964Y-73312575D01*
X74757050Y-73057793D01*
X74863977Y-72832801D01*
X75009111Y-72639817D01*
X75185822Y-72481061D01*
X75387478Y-72358750D01*
X75607446Y-72275105D01*
X75839094Y-72232344D01*
X76075791Y-72232687D01*
X76310905Y-72278352D01*
X76537804Y-72371559D01*
X76749856Y-72514527D01*
X76838364Y-72595383D01*
X77008111Y-72803007D01*
X77126301Y-73029895D01*
X77193722Y-73269433D01*
X77211160Y-73515007D01*
X77179402Y-73760003D01*
X77099235Y-73997808D01*
X76971445Y-74221807D01*
X76796820Y-74425387D01*
X76601688Y-74584704D01*
X76520409Y-74645602D01*
X76462991Y-74698015D01*
X76442322Y-74729406D01*
X76453144Y-74763639D01*
X76483923Y-74845419D01*
X76532126Y-74968407D01*
X76595222Y-75126263D01*
X76670678Y-75312649D01*
X76755962Y-75521226D01*
X76839781Y-75724496D01*
X76932255Y-75947933D01*
X77017911Y-76154984D01*
X77094118Y-76339286D01*
X77158247Y-76494475D01*
X77207668Y-76614188D01*
X77239752Y-76692061D01*
X77251641Y-76721138D01*
X77279726Y-76750677D01*
X77334051Y-76750591D01*
X77421605Y-76719326D01*
X77549381Y-76655329D01*
X77550392Y-76654785D01*
X77646598Y-76605121D01*
X77724369Y-76568945D01*
X77768223Y-76553408D01*
X77770158Y-76553264D01*
X77803171Y-76569024D01*
X77876054Y-76612850D01*
X77980678Y-76679557D01*
X78108910Y-76763964D01*
X78251052Y-76859816D01*
X78395767Y-76956867D01*
X78526196Y-77041270D01*
X78633890Y-77107801D01*
X78710402Y-77151238D01*
X78746938Y-77166368D01*
X78780582Y-77146482D01*
X78848224Y-77090903D01*
X78943107Y-77005754D01*
X79058470Y-76897153D01*
X79187555Y-76771221D01*
X79229771Y-76729149D01*
X79666261Y-76291931D01*
X79334023Y-75804340D01*
X79233054Y-75654605D01*
X79144438Y-75520220D01*
X79073146Y-75408969D01*
X79024150Y-75328639D01*
X79002422Y-75287014D01*
X79001785Y-75284053D01*
X79013240Y-75244818D01*
X79044051Y-75165895D01*
X79088884Y-75060509D01*
X79120353Y-74989954D01*
X79179192Y-74854876D01*
X79234604Y-74718409D01*
X79277564Y-74603103D01*
X79289234Y-74567977D01*
X79322389Y-74474174D01*
X79354799Y-74401694D01*
X79372601Y-74374301D01*
X79411886Y-74357536D01*
X79497626Y-74333770D01*
X79618697Y-74305697D01*
X79763973Y-74276009D01*
X79828988Y-74263806D01*
X79994087Y-74233468D01*
X80152448Y-74204093D01*
X80288596Y-74178569D01*
X80387057Y-74159785D01*
X80405598Y-74156160D01*
X80558873Y-74125906D01*
X80558873Y-73487645D01*
X80558529Y-73277770D01*
X80557116Y-73118980D01*
X80554064Y-73003973D01*
X80548803Y-72925446D01*
X80540763Y-72876096D01*
X80529373Y-72848619D01*
X80514063Y-72835713D01*
X80507782Y-72833320D01*
X80469896Y-72824833D01*
X80386195Y-72807900D01*
X80267433Y-72784566D01*
X80124361Y-72756875D01*
X79967732Y-72726873D01*
X79808297Y-72696604D01*
X79656809Y-72668115D01*
X79524019Y-72643449D01*
X79420681Y-72624651D01*
X79357545Y-72613767D01*
X79343497Y-72611885D01*
X79330770Y-72586704D01*
X79302600Y-72519622D01*
X79264252Y-72423333D01*
X79249609Y-72385621D01*
X79190548Y-72239921D01*
X79121000Y-72078951D01*
X79058712Y-71943291D01*
X79012879Y-71839561D01*
X78982387Y-71754326D01*
X78972208Y-71702126D01*
X78973831Y-71695130D01*
X78995343Y-71662102D01*
X79044465Y-71588643D01*
X79115923Y-71482577D01*
X79204445Y-71351726D01*
X79304759Y-71203912D01*
X79324594Y-71174734D01*
X79440988Y-71001863D01*
X79526548Y-70870226D01*
X79584684Y-70773761D01*
X79618808Y-70706408D01*
X79632331Y-70662106D01*
X79628664Y-70634794D01*
X79628570Y-70634620D01*
X79599707Y-70598746D01*
X79535867Y-70529391D01*
X79443969Y-70433745D01*
X79330933Y-70318999D01*
X79203679Y-70192341D01*
X79189328Y-70178205D01*
X79028957Y-70022903D01*
X78905195Y-69908870D01*
X78815555Y-69834002D01*
X78757552Y-69796196D01*
X78732004Y-69791317D01*
X78694718Y-69812603D01*
X78617343Y-69861773D01*
X78507867Y-69933575D01*
X78374280Y-70022755D01*
X78224570Y-70124063D01*
X78189618Y-70147897D01*
X77693390Y-70486765D01*
X77469293Y-70385056D01*
X77333011Y-70325783D01*
X77186724Y-70266170D01*
X77060965Y-70218640D01*
X77055425Y-70216685D01*
X76957057Y-70180677D01*
X76881229Y-70150229D01*
X76844282Y-70131905D01*
X76844220Y-70131852D01*
X76832496Y-70098729D01*
X76812568Y-70017267D01*
X76786413Y-69896625D01*
X76756010Y-69745959D01*
X76723337Y-69574428D01*
X76720664Y-69559967D01*
X76687890Y-69383235D01*
X76657802Y-69222810D01*
X76632339Y-69088888D01*
X76613441Y-68991663D01*
X76603047Y-68941332D01*
X76602865Y-68940563D01*
X76596539Y-68919153D01*
X76584239Y-68902988D01*
X76558594Y-68891331D01*
X76512235Y-68883445D01*
X76437792Y-68878593D01*
X76327895Y-68876039D01*
X76175175Y-68875045D01*
X75972262Y-68874874D01*
X75946000Y-68874874D01*
X75736986Y-68874998D01*
D13*
%TO.C,R8*%
X78380000Y-57692936D02*
X78380000Y-59147064D01*
X76560000Y-57692936D02*
X76560000Y-59147064D01*
%TO.C,Q1*%
X79685000Y-63625000D02*
X79685000Y-62165000D01*
X76525000Y-63625000D02*
X76525000Y-61465000D01*
X76525000Y-63625000D02*
X77455000Y-63625000D01*
X79685000Y-63625000D02*
X78755000Y-63625000D01*
%TO.C,R8*%
D14*
X76102380Y-58253333D02*
X75626190Y-57920000D01*
X76102380Y-57681904D02*
X75102380Y-57681904D01*
X75102380Y-58062857D01*
X75150000Y-58158095D01*
X75197619Y-58205714D01*
X75292857Y-58253333D01*
X75435714Y-58253333D01*
X75530952Y-58205714D01*
X75578571Y-58158095D01*
X75626190Y-58062857D01*
X75626190Y-57681904D01*
X75530952Y-58824761D02*
X75483333Y-58729523D01*
X75435714Y-58681904D01*
X75340476Y-58634285D01*
X75292857Y-58634285D01*
X75197619Y-58681904D01*
X75150000Y-58729523D01*
X75102380Y-58824761D01*
X75102380Y-59015238D01*
X75150000Y-59110476D01*
X75197619Y-59158095D01*
X75292857Y-59205714D01*
X75340476Y-59205714D01*
X75435714Y-59158095D01*
X75483333Y-59110476D01*
X75530952Y-59015238D01*
X75530952Y-58824761D01*
X75578571Y-58729523D01*
X75626190Y-58681904D01*
X75721428Y-58634285D01*
X75911904Y-58634285D01*
X76007142Y-58681904D01*
X76054761Y-58729523D01*
X76102380Y-58824761D01*
X76102380Y-59015238D01*
X76054761Y-59110476D01*
X76007142Y-59158095D01*
X75911904Y-59205714D01*
X75721428Y-59205714D01*
X75626190Y-59158095D01*
X75578571Y-59110476D01*
X75530952Y-59015238D01*
%TO.C,Q1*%
X76152619Y-62769761D02*
X76105000Y-62674523D01*
X76009761Y-62579285D01*
X75866904Y-62436428D01*
X75819285Y-62341190D01*
X75819285Y-62245952D01*
X76057380Y-62293571D02*
X76009761Y-62198333D01*
X75914523Y-62103095D01*
X75724047Y-62055476D01*
X75390714Y-62055476D01*
X75200238Y-62103095D01*
X75105000Y-62198333D01*
X75057380Y-62293571D01*
X75057380Y-62484047D01*
X75105000Y-62579285D01*
X75200238Y-62674523D01*
X75390714Y-62722142D01*
X75724047Y-62722142D01*
X75914523Y-62674523D01*
X76009761Y-62579285D01*
X76057380Y-62484047D01*
X76057380Y-62293571D01*
X76057380Y-63674523D02*
X76057380Y-63103095D01*
X76057380Y-63388809D02*
X75057380Y-63388809D01*
X75200238Y-63293571D01*
X75295476Y-63198333D01*
X75343095Y-63103095D01*
%TD*%
M02*
