%TF.GenerationSoftware,KiCad,Pcbnew,(5.1.10)-1*%
%TF.CreationDate,2021-09-12T12:23:19+02:00*%
%TF.ProjectId,BTS-MainBoard-Control,4254532d-4d61-4696-9e42-6f6172642d43,rev?*%
%TF.SameCoordinates,Original*%
%TF.FileFunction,Legend,Bot*%
%TF.FilePolarity,Positive*%
%FSLAX46Y46*%
G04 Gerber Fmt 4.6, Leading zero omitted, Abs format (unit mm)*
G04 Created by KiCad (PCBNEW (5.1.10)-1) date 2021-09-12 12:23:19*
%MOMM*%
%LPD*%
G01*
G04 APERTURE LIST*
%ADD10C,0.100000*%
%ADD11C,0.170000*%
%ADD12C,0.010000*%
%ADD13C,0.120000*%
%ADD14C,0.150000*%
G04 APERTURE END LIST*
D10*
X81716666Y-52453750D02*
X81016666Y-52541250D01*
X81016666Y-52707916D01*
X81050000Y-52803750D01*
X81116666Y-52862083D01*
X81183333Y-52887083D01*
X81316666Y-52903750D01*
X81416666Y-52891250D01*
X81550000Y-52841250D01*
X81616666Y-52799583D01*
X81683333Y-52724583D01*
X81716666Y-52620416D01*
X81716666Y-52453750D01*
X81683333Y-53424583D02*
X81716666Y-53353750D01*
X81716666Y-53220416D01*
X81683333Y-53157916D01*
X81616666Y-53132916D01*
X81350000Y-53166250D01*
X81283333Y-53207916D01*
X81250000Y-53278750D01*
X81250000Y-53412083D01*
X81283333Y-53474583D01*
X81350000Y-53499583D01*
X81416666Y-53491250D01*
X81483333Y-53149583D01*
X81683333Y-53724583D02*
X81716666Y-53787083D01*
X81716666Y-53920416D01*
X81683333Y-53991250D01*
X81616666Y-54032916D01*
X81583333Y-54037083D01*
X81516666Y-54012083D01*
X81483333Y-53949583D01*
X81483333Y-53849583D01*
X81450000Y-53787083D01*
X81383333Y-53762083D01*
X81350000Y-53766250D01*
X81283333Y-53807916D01*
X81250000Y-53878750D01*
X81250000Y-53978750D01*
X81283333Y-54041250D01*
X81716666Y-54320416D02*
X81250000Y-54378750D01*
X81016666Y-54407916D02*
X81050000Y-54370416D01*
X81083333Y-54399583D01*
X81050000Y-54437083D01*
X81016666Y-54407916D01*
X81083333Y-54399583D01*
X81250000Y-55012083D02*
X81816666Y-54941250D01*
X81883333Y-54899583D01*
X81916666Y-54862083D01*
X81950000Y-54791250D01*
X81950000Y-54691250D01*
X81916666Y-54628750D01*
X81683333Y-54957916D02*
X81716666Y-54887083D01*
X81716666Y-54753750D01*
X81683333Y-54691250D01*
X81650000Y-54662083D01*
X81583333Y-54637083D01*
X81383333Y-54662083D01*
X81316666Y-54703750D01*
X81283333Y-54741250D01*
X81250000Y-54812083D01*
X81250000Y-54945416D01*
X81283333Y-55007916D01*
X81250000Y-55345416D02*
X81716666Y-55287083D01*
X81316666Y-55337083D02*
X81283333Y-55374583D01*
X81250000Y-55445416D01*
X81250000Y-55545416D01*
X81283333Y-55607916D01*
X81350000Y-55632916D01*
X81716666Y-55587083D01*
X81683333Y-56191250D02*
X81716666Y-56120416D01*
X81716666Y-55987083D01*
X81683333Y-55924583D01*
X81616666Y-55899583D01*
X81350000Y-55932916D01*
X81283333Y-55974583D01*
X81250000Y-56045416D01*
X81250000Y-56178750D01*
X81283333Y-56241250D01*
X81350000Y-56266250D01*
X81416666Y-56257916D01*
X81483333Y-55916250D01*
X81716666Y-56820416D02*
X81016666Y-56907916D01*
X81683333Y-56824583D02*
X81716666Y-56753750D01*
X81716666Y-56620416D01*
X81683333Y-56557916D01*
X81650000Y-56528750D01*
X81583333Y-56503750D01*
X81383333Y-56528750D01*
X81316666Y-56570416D01*
X81283333Y-56607916D01*
X81250000Y-56678750D01*
X81250000Y-56812083D01*
X81283333Y-56874583D01*
X81716666Y-57687083D02*
X81016666Y-57774583D01*
X81283333Y-57741250D02*
X81250000Y-57812083D01*
X81250000Y-57945416D01*
X81283333Y-58007916D01*
X81316666Y-58037083D01*
X81383333Y-58062083D01*
X81583333Y-58037083D01*
X81650000Y-57995416D01*
X81683333Y-57957916D01*
X81716666Y-57887083D01*
X81716666Y-57753750D01*
X81683333Y-57691250D01*
X81250000Y-58312083D02*
X81716666Y-58420416D01*
X81250000Y-58645416D02*
X81716666Y-58420416D01*
X81883333Y-58332916D01*
X81916666Y-58295416D01*
X81950000Y-58224583D01*
X81350000Y-59666250D02*
X81383333Y-59762083D01*
X81416666Y-59791250D01*
X81483333Y-59816250D01*
X81583333Y-59803750D01*
X81650000Y-59762083D01*
X81683333Y-59724583D01*
X81716666Y-59653750D01*
X81716666Y-59387083D01*
X81016666Y-59474583D01*
X81016666Y-59707916D01*
X81050000Y-59770416D01*
X81083333Y-59799583D01*
X81150000Y-59824583D01*
X81216666Y-59816250D01*
X81283333Y-59774583D01*
X81316666Y-59737083D01*
X81350000Y-59666250D01*
X81350000Y-59432916D01*
X81683333Y-60357916D02*
X81716666Y-60287083D01*
X81716666Y-60153750D01*
X81683333Y-60091250D01*
X81616666Y-60066250D01*
X81350000Y-60099583D01*
X81283333Y-60141250D01*
X81250000Y-60212083D01*
X81250000Y-60345416D01*
X81283333Y-60407916D01*
X81350000Y-60432916D01*
X81416666Y-60424583D01*
X81483333Y-60082916D01*
X81250000Y-60745416D02*
X81716666Y-60687083D01*
X81316666Y-60737083D02*
X81283333Y-60774583D01*
X81250000Y-60845416D01*
X81250000Y-60945416D01*
X81283333Y-61007916D01*
X81350000Y-61032916D01*
X81716666Y-60987083D01*
X81716666Y-61420416D02*
X81683333Y-61357916D01*
X81650000Y-61328750D01*
X81583333Y-61303750D01*
X81383333Y-61328750D01*
X81316666Y-61370416D01*
X81283333Y-61407916D01*
X81250000Y-61478750D01*
X81250000Y-61578750D01*
X81283333Y-61641250D01*
X81316666Y-61670416D01*
X81383333Y-61695416D01*
X81583333Y-61670416D01*
X81650000Y-61628750D01*
X81683333Y-61591250D01*
X81716666Y-61520416D01*
X81716666Y-61420416D01*
X81716666Y-61953750D02*
X81250000Y-62012083D01*
X81016666Y-62041250D02*
X81050000Y-62003750D01*
X81083333Y-62032916D01*
X81050000Y-62070416D01*
X81016666Y-62041250D01*
X81083333Y-62032916D01*
X81250000Y-62245416D02*
X81250000Y-62512083D01*
X81016666Y-62374583D02*
X81616666Y-62299583D01*
X81683333Y-62324583D01*
X81716666Y-62387083D01*
X81716666Y-62453750D01*
X81016666Y-63207916D02*
X81016666Y-63607916D01*
X81716666Y-63320416D02*
X81016666Y-63407916D01*
X81716666Y-64053750D02*
X81350000Y-64099583D01*
X81283333Y-64074583D01*
X81250000Y-64012083D01*
X81250000Y-63878750D01*
X81283333Y-63807916D01*
X81683333Y-64057916D02*
X81716666Y-63987083D01*
X81716666Y-63820416D01*
X81683333Y-63757916D01*
X81616666Y-63732916D01*
X81550000Y-63741250D01*
X81483333Y-63782916D01*
X81450000Y-63853750D01*
X81450000Y-64020416D01*
X81416666Y-64091250D01*
X81716666Y-64387083D02*
X81250000Y-64445416D01*
X81383333Y-64428750D02*
X81316666Y-64470416D01*
X81283333Y-64507916D01*
X81250000Y-64578750D01*
X81250000Y-64645416D01*
X81716666Y-64820416D02*
X81250000Y-64878750D01*
X81383333Y-64862083D02*
X81316666Y-64903750D01*
X81283333Y-64941250D01*
X81250000Y-65012083D01*
X81250000Y-65078750D01*
X81716666Y-65553750D02*
X81350000Y-65599583D01*
X81283333Y-65574583D01*
X81250000Y-65512083D01*
X81250000Y-65378750D01*
X81283333Y-65307916D01*
X81683333Y-65557916D02*
X81716666Y-65487083D01*
X81716666Y-65320416D01*
X81683333Y-65257916D01*
X81616666Y-65232916D01*
X81550000Y-65241250D01*
X81483333Y-65282916D01*
X81450000Y-65353750D01*
X81450000Y-65520416D01*
X81416666Y-65591250D01*
X81716666Y-66187083D02*
X81016666Y-66274583D01*
X81683333Y-66191250D02*
X81716666Y-66120416D01*
X81716666Y-65987083D01*
X81683333Y-65924583D01*
X81650000Y-65895416D01*
X81583333Y-65870416D01*
X81383333Y-65895416D01*
X81316666Y-65937083D01*
X81283333Y-65974583D01*
X81250000Y-66045416D01*
X81250000Y-66178750D01*
X81283333Y-66241250D01*
X81683333Y-66791250D02*
X81716666Y-66720416D01*
X81716666Y-66587083D01*
X81683333Y-66524583D01*
X81616666Y-66499583D01*
X81350000Y-66532916D01*
X81283333Y-66574583D01*
X81250000Y-66645416D01*
X81250000Y-66778750D01*
X81283333Y-66841250D01*
X81350000Y-66866250D01*
X81416666Y-66857916D01*
X81483333Y-66516250D01*
X83133333Y-54103750D02*
X83100000Y-54074583D01*
X83000000Y-54020416D01*
X82933333Y-53995416D01*
X82833333Y-53974583D01*
X82666666Y-53962083D01*
X82533333Y-53978750D01*
X82366666Y-54032916D01*
X82266666Y-54078750D01*
X82200000Y-54120416D01*
X82100000Y-54199583D01*
X82066666Y-54237083D01*
X82866666Y-54703750D02*
X82500000Y-54749583D01*
X82433333Y-54724583D01*
X82400000Y-54662083D01*
X82400000Y-54528750D01*
X82433333Y-54457916D01*
X82833333Y-54707916D02*
X82866666Y-54637083D01*
X82866666Y-54470416D01*
X82833333Y-54407916D01*
X82766666Y-54382916D01*
X82700000Y-54391250D01*
X82633333Y-54432916D01*
X82600000Y-54503750D01*
X82600000Y-54670416D01*
X82566666Y-54741250D01*
X82866666Y-55137083D02*
X82833333Y-55074583D01*
X82766666Y-55049583D01*
X82166666Y-55124583D01*
X82866666Y-55403750D02*
X82400000Y-55462083D01*
X82166666Y-55491250D02*
X82200000Y-55453750D01*
X82233333Y-55482916D01*
X82200000Y-55520416D01*
X82166666Y-55491250D01*
X82233333Y-55482916D01*
X82866666Y-56037083D02*
X82500000Y-56082916D01*
X82433333Y-56057916D01*
X82400000Y-55995416D01*
X82400000Y-55862083D01*
X82433333Y-55791250D01*
X82833333Y-56041250D02*
X82866666Y-55970416D01*
X82866666Y-55803750D01*
X82833333Y-55741250D01*
X82766666Y-55716250D01*
X82700000Y-55724583D01*
X82633333Y-55766250D01*
X82600000Y-55837083D01*
X82600000Y-56003750D01*
X82566666Y-56074583D01*
X82833333Y-56341250D02*
X82866666Y-56403750D01*
X82866666Y-56537083D01*
X82833333Y-56607916D01*
X82766666Y-56649583D01*
X82733333Y-56653750D01*
X82666666Y-56628750D01*
X82633333Y-56566250D01*
X82633333Y-56466250D01*
X82600000Y-56403750D01*
X82533333Y-56378750D01*
X82500000Y-56382916D01*
X82433333Y-56424583D01*
X82400000Y-56495416D01*
X82400000Y-56595416D01*
X82433333Y-56657916D01*
X82866666Y-57470416D02*
X82166666Y-57557916D01*
X82433333Y-57524583D02*
X82400000Y-57595416D01*
X82400000Y-57728750D01*
X82433333Y-57791250D01*
X82466666Y-57820416D01*
X82533333Y-57845416D01*
X82733333Y-57820416D01*
X82800000Y-57778750D01*
X82833333Y-57741250D01*
X82866666Y-57670416D01*
X82866666Y-57537083D01*
X82833333Y-57474583D01*
X82833333Y-58374583D02*
X82866666Y-58303750D01*
X82866666Y-58170416D01*
X82833333Y-58107916D01*
X82766666Y-58082916D01*
X82500000Y-58116250D01*
X82433333Y-58157916D01*
X82400000Y-58228750D01*
X82400000Y-58362083D01*
X82433333Y-58424583D01*
X82500000Y-58449583D01*
X82566666Y-58441250D01*
X82633333Y-58099583D01*
X82866666Y-58703750D02*
X82166666Y-58791250D01*
X82433333Y-58757916D02*
X82400000Y-58828750D01*
X82400000Y-58962083D01*
X82433333Y-59024583D01*
X82466666Y-59053750D01*
X82533333Y-59078750D01*
X82733333Y-59053750D01*
X82800000Y-59012083D01*
X82833333Y-58974583D01*
X82866666Y-58903750D01*
X82866666Y-58770416D01*
X82833333Y-58707916D01*
X82833333Y-59607916D02*
X82866666Y-59537083D01*
X82866666Y-59403750D01*
X82833333Y-59341250D01*
X82766666Y-59316250D01*
X82500000Y-59349583D01*
X82433333Y-59391250D01*
X82400000Y-59462083D01*
X82400000Y-59595416D01*
X82433333Y-59657916D01*
X82500000Y-59682916D01*
X82566666Y-59674583D01*
X82633333Y-59332916D01*
X82400000Y-59995416D02*
X82866666Y-59937083D01*
X82466666Y-59987083D02*
X82433333Y-60024583D01*
X82400000Y-60095416D01*
X82400000Y-60195416D01*
X82433333Y-60257916D01*
X82500000Y-60282916D01*
X82866666Y-60237083D01*
X82866666Y-60670416D02*
X82833333Y-60607916D01*
X82766666Y-60582916D01*
X82166666Y-60657916D01*
X82833333Y-61207916D02*
X82866666Y-61137083D01*
X82866666Y-61003750D01*
X82833333Y-60941250D01*
X82766666Y-60916250D01*
X82500000Y-60949583D01*
X82433333Y-60991250D01*
X82400000Y-61062083D01*
X82400000Y-61195416D01*
X82433333Y-61257916D01*
X82500000Y-61282916D01*
X82566666Y-61274583D01*
X82633333Y-60932916D01*
X82866666Y-61537083D02*
X82166666Y-61624583D01*
X82433333Y-61591250D02*
X82400000Y-61662083D01*
X82400000Y-61795416D01*
X82433333Y-61857916D01*
X82466666Y-61887083D01*
X82533333Y-61912083D01*
X82733333Y-61887083D01*
X82800000Y-61845416D01*
X82833333Y-61807916D01*
X82866666Y-61737083D01*
X82866666Y-61603750D01*
X82833333Y-61541250D01*
X82866666Y-62170416D02*
X82400000Y-62228750D01*
X82533333Y-62212083D02*
X82466666Y-62253750D01*
X82433333Y-62291250D01*
X82400000Y-62362083D01*
X82400000Y-62428750D01*
X82866666Y-62603750D02*
X82400000Y-62662083D01*
X82166666Y-62691250D02*
X82200000Y-62653750D01*
X82233333Y-62682916D01*
X82200000Y-62720416D01*
X82166666Y-62691250D01*
X82233333Y-62682916D01*
X82833333Y-63241250D02*
X82866666Y-63170416D01*
X82866666Y-63037083D01*
X82833333Y-62974583D01*
X82800000Y-62945416D01*
X82733333Y-62920416D01*
X82533333Y-62945416D01*
X82466666Y-62987083D01*
X82433333Y-63024583D01*
X82400000Y-63095416D01*
X82400000Y-63228750D01*
X82433333Y-63291250D01*
X82866666Y-63637083D02*
X82833333Y-63574583D01*
X82800000Y-63545416D01*
X82733333Y-63520416D01*
X82533333Y-63545416D01*
X82466666Y-63587083D01*
X82433333Y-63624583D01*
X82400000Y-63695416D01*
X82400000Y-63795416D01*
X82433333Y-63857916D01*
X82466666Y-63887083D01*
X82533333Y-63912083D01*
X82733333Y-63887083D01*
X82800000Y-63845416D01*
X82833333Y-63807916D01*
X82866666Y-63737083D01*
X82866666Y-63637083D01*
X82866666Y-64270416D02*
X82833333Y-64207916D01*
X82766666Y-64182916D01*
X82166666Y-64257916D01*
X82866666Y-64637083D02*
X82833333Y-64574583D01*
X82800000Y-64545416D01*
X82733333Y-64520416D01*
X82533333Y-64545416D01*
X82466666Y-64587083D01*
X82433333Y-64624583D01*
X82400000Y-64695416D01*
X82400000Y-64795416D01*
X82433333Y-64857916D01*
X82466666Y-64887083D01*
X82533333Y-64912083D01*
X82733333Y-64887083D01*
X82800000Y-64845416D01*
X82833333Y-64807916D01*
X82866666Y-64737083D01*
X82866666Y-64637083D01*
X83133333Y-65070416D02*
X83100000Y-65107916D01*
X83000000Y-65187083D01*
X82933333Y-65228750D01*
X82833333Y-65274583D01*
X82666666Y-65328750D01*
X82533333Y-65345416D01*
X82366666Y-65332916D01*
X82266666Y-65312083D01*
X82200000Y-65287083D01*
X82100000Y-65232916D01*
X82066666Y-65203750D01*
X84016666Y-50470416D02*
X83316666Y-50557916D01*
X84016666Y-50770416D02*
X83650000Y-50816250D01*
X83583333Y-50791250D01*
X83550000Y-50728750D01*
X83550000Y-50628750D01*
X83583333Y-50557916D01*
X83616666Y-50520416D01*
X83550000Y-51062083D02*
X83550000Y-51328750D01*
X83316666Y-51191250D02*
X83916666Y-51116250D01*
X83983333Y-51141250D01*
X84016666Y-51203750D01*
X84016666Y-51270416D01*
X83550000Y-51462083D02*
X83550000Y-51728750D01*
X83316666Y-51591250D02*
X83916666Y-51516250D01*
X83983333Y-51541250D01*
X84016666Y-51603750D01*
X84016666Y-51670416D01*
X83550000Y-51962083D02*
X84250000Y-51874583D01*
X83583333Y-51957916D02*
X83550000Y-52028750D01*
X83550000Y-52162083D01*
X83583333Y-52224583D01*
X83616666Y-52253750D01*
X83683333Y-52278750D01*
X83883333Y-52253750D01*
X83950000Y-52212083D01*
X83983333Y-52174583D01*
X84016666Y-52103750D01*
X84016666Y-51970416D01*
X83983333Y-51907916D01*
X83983333Y-52507916D02*
X84016666Y-52570416D01*
X84016666Y-52703750D01*
X83983333Y-52774583D01*
X83916666Y-52816250D01*
X83883333Y-52820416D01*
X83816666Y-52795416D01*
X83783333Y-52732916D01*
X83783333Y-52632916D01*
X83750000Y-52570416D01*
X83683333Y-52545416D01*
X83650000Y-52549583D01*
X83583333Y-52591250D01*
X83550000Y-52662083D01*
X83550000Y-52762083D01*
X83583333Y-52824583D01*
X83950000Y-53112083D02*
X83983333Y-53141250D01*
X84016666Y-53103750D01*
X83983333Y-53074583D01*
X83950000Y-53112083D01*
X84016666Y-53103750D01*
X83583333Y-53157916D02*
X83616666Y-53187083D01*
X83650000Y-53149583D01*
X83616666Y-53120416D01*
X83583333Y-53157916D01*
X83650000Y-53149583D01*
X83283333Y-54028750D02*
X84183333Y-53316250D01*
X83283333Y-54762083D02*
X84183333Y-54049583D01*
X83550000Y-55262083D02*
X84116666Y-55191250D01*
X84183333Y-55149583D01*
X84216666Y-55112083D01*
X84250000Y-55041250D01*
X84250000Y-54941250D01*
X84216666Y-54878750D01*
X83983333Y-55207916D02*
X84016666Y-55137083D01*
X84016666Y-55003750D01*
X83983333Y-54941250D01*
X83950000Y-54912083D01*
X83883333Y-54887083D01*
X83683333Y-54912083D01*
X83616666Y-54953750D01*
X83583333Y-54991250D01*
X83550000Y-55062083D01*
X83550000Y-55195416D01*
X83583333Y-55257916D01*
X84016666Y-55537083D02*
X83550000Y-55595416D01*
X83316666Y-55624583D02*
X83350000Y-55587083D01*
X83383333Y-55616250D01*
X83350000Y-55653750D01*
X83316666Y-55624583D01*
X83383333Y-55616250D01*
X83550000Y-55828750D02*
X83550000Y-56095416D01*
X83316666Y-55957916D02*
X83916666Y-55882916D01*
X83983333Y-55907916D01*
X84016666Y-55970416D01*
X84016666Y-56037083D01*
X84016666Y-56270416D02*
X83316666Y-56357916D01*
X84016666Y-56570416D02*
X83650000Y-56616250D01*
X83583333Y-56591250D01*
X83550000Y-56528750D01*
X83550000Y-56428750D01*
X83583333Y-56357916D01*
X83616666Y-56320416D01*
X83550000Y-57262083D02*
X84016666Y-57203750D01*
X83550000Y-56962083D02*
X83916666Y-56916250D01*
X83983333Y-56941250D01*
X84016666Y-57003750D01*
X84016666Y-57103750D01*
X83983333Y-57174583D01*
X83950000Y-57212083D01*
X84016666Y-57537083D02*
X83316666Y-57624583D01*
X83583333Y-57591250D02*
X83550000Y-57662083D01*
X83550000Y-57795416D01*
X83583333Y-57857916D01*
X83616666Y-57887083D01*
X83683333Y-57912083D01*
X83883333Y-57887083D01*
X83950000Y-57845416D01*
X83983333Y-57807916D01*
X84016666Y-57737083D01*
X84016666Y-57603750D01*
X83983333Y-57541250D01*
X83950000Y-58178750D02*
X83983333Y-58207916D01*
X84016666Y-58170416D01*
X83983333Y-58141250D01*
X83950000Y-58178750D01*
X84016666Y-58170416D01*
X83983333Y-58807916D02*
X84016666Y-58737083D01*
X84016666Y-58603750D01*
X83983333Y-58541250D01*
X83950000Y-58512083D01*
X83883333Y-58487083D01*
X83683333Y-58512083D01*
X83616666Y-58553750D01*
X83583333Y-58591250D01*
X83550000Y-58662083D01*
X83550000Y-58795416D01*
X83583333Y-58857916D01*
X84016666Y-59203750D02*
X83983333Y-59141250D01*
X83950000Y-59112083D01*
X83883333Y-59087083D01*
X83683333Y-59112083D01*
X83616666Y-59153750D01*
X83583333Y-59191250D01*
X83550000Y-59262083D01*
X83550000Y-59362083D01*
X83583333Y-59424583D01*
X83616666Y-59453750D01*
X83683333Y-59478750D01*
X83883333Y-59453750D01*
X83950000Y-59412083D01*
X83983333Y-59374583D01*
X84016666Y-59303750D01*
X84016666Y-59203750D01*
X84016666Y-59737083D02*
X83550000Y-59795416D01*
X83616666Y-59787083D02*
X83583333Y-59824583D01*
X83550000Y-59895416D01*
X83550000Y-59995416D01*
X83583333Y-60057916D01*
X83650000Y-60082916D01*
X84016666Y-60037083D01*
X83650000Y-60082916D02*
X83583333Y-60124583D01*
X83550000Y-60195416D01*
X83550000Y-60295416D01*
X83583333Y-60357916D01*
X83650000Y-60382916D01*
X84016666Y-60337083D01*
X83283333Y-61262083D02*
X84183333Y-60549583D01*
X84016666Y-61403750D02*
X83316666Y-61491250D01*
X83583333Y-61457916D02*
X83550000Y-61528750D01*
X83550000Y-61662083D01*
X83583333Y-61724583D01*
X83616666Y-61753750D01*
X83683333Y-61778750D01*
X83883333Y-61753750D01*
X83950000Y-61712083D01*
X83983333Y-61674583D01*
X84016666Y-61603750D01*
X84016666Y-61470416D01*
X83983333Y-61407916D01*
X83983333Y-62307916D02*
X84016666Y-62237083D01*
X84016666Y-62103750D01*
X83983333Y-62041250D01*
X83916666Y-62016250D01*
X83650000Y-62049583D01*
X83583333Y-62091250D01*
X83550000Y-62162083D01*
X83550000Y-62295416D01*
X83583333Y-62357916D01*
X83650000Y-62382916D01*
X83716666Y-62374583D01*
X83783333Y-62032916D01*
X84016666Y-62637083D02*
X83316666Y-62724583D01*
X83583333Y-62691250D02*
X83550000Y-62762083D01*
X83550000Y-62895416D01*
X83583333Y-62957916D01*
X83616666Y-62987083D01*
X83683333Y-63012083D01*
X83883333Y-62987083D01*
X83950000Y-62945416D01*
X83983333Y-62907916D01*
X84016666Y-62837083D01*
X84016666Y-62703750D01*
X83983333Y-62641250D01*
X83983333Y-63541250D02*
X84016666Y-63470416D01*
X84016666Y-63337083D01*
X83983333Y-63274583D01*
X83916666Y-63249583D01*
X83650000Y-63282916D01*
X83583333Y-63324583D01*
X83550000Y-63395416D01*
X83550000Y-63528750D01*
X83583333Y-63591250D01*
X83650000Y-63616250D01*
X83716666Y-63607916D01*
X83783333Y-63266250D01*
X83550000Y-63928750D02*
X84016666Y-63870416D01*
X83616666Y-63920416D02*
X83583333Y-63957916D01*
X83550000Y-64028750D01*
X83550000Y-64128750D01*
X83583333Y-64191250D01*
X83650000Y-64216250D01*
X84016666Y-64170416D01*
X84016666Y-64603750D02*
X83983333Y-64541250D01*
X83916666Y-64516250D01*
X83316666Y-64591250D01*
X83983333Y-65141250D02*
X84016666Y-65070416D01*
X84016666Y-64937083D01*
X83983333Y-64874583D01*
X83916666Y-64849583D01*
X83650000Y-64882916D01*
X83583333Y-64924583D01*
X83550000Y-64995416D01*
X83550000Y-65128750D01*
X83583333Y-65191250D01*
X83650000Y-65216250D01*
X83716666Y-65207916D01*
X83783333Y-64866250D01*
X84016666Y-65470416D02*
X83316666Y-65557916D01*
X83583333Y-65524583D02*
X83550000Y-65595416D01*
X83550000Y-65728750D01*
X83583333Y-65791250D01*
X83616666Y-65820416D01*
X83683333Y-65845416D01*
X83883333Y-65820416D01*
X83950000Y-65778750D01*
X83983333Y-65741250D01*
X84016666Y-65670416D01*
X84016666Y-65537083D01*
X83983333Y-65474583D01*
X84016666Y-66103750D02*
X83550000Y-66162083D01*
X83683333Y-66145416D02*
X83616666Y-66187083D01*
X83583333Y-66224583D01*
X83550000Y-66295416D01*
X83550000Y-66362083D01*
X84016666Y-66537083D02*
X83550000Y-66595416D01*
X83316666Y-66624583D02*
X83350000Y-66587083D01*
X83383333Y-66616250D01*
X83350000Y-66653750D01*
X83316666Y-66624583D01*
X83383333Y-66616250D01*
X83983333Y-67174583D02*
X84016666Y-67103750D01*
X84016666Y-66970416D01*
X83983333Y-66907916D01*
X83950000Y-66878750D01*
X83883333Y-66853750D01*
X83683333Y-66878750D01*
X83616666Y-66920416D01*
X83583333Y-66957916D01*
X83550000Y-67028750D01*
X83550000Y-67162083D01*
X83583333Y-67224583D01*
X84016666Y-67570416D02*
X83983333Y-67507916D01*
X83950000Y-67478750D01*
X83883333Y-67453750D01*
X83683333Y-67478750D01*
X83616666Y-67520416D01*
X83583333Y-67557916D01*
X83550000Y-67628750D01*
X83550000Y-67728750D01*
X83583333Y-67791250D01*
X83616666Y-67820416D01*
X83683333Y-67845416D01*
X83883333Y-67820416D01*
X83950000Y-67778750D01*
X83983333Y-67741250D01*
X84016666Y-67670416D01*
X84016666Y-67570416D01*
X84016666Y-68203750D02*
X83983333Y-68141250D01*
X83916666Y-68116250D01*
X83316666Y-68191250D01*
X84016666Y-68570416D02*
X83983333Y-68507916D01*
X83950000Y-68478750D01*
X83883333Y-68453750D01*
X83683333Y-68478750D01*
X83616666Y-68520416D01*
X83583333Y-68557916D01*
X83550000Y-68628750D01*
X83550000Y-68728750D01*
X83583333Y-68791250D01*
X83616666Y-68820416D01*
X83683333Y-68845416D01*
X83883333Y-68820416D01*
X83950000Y-68778750D01*
X83983333Y-68741250D01*
X84016666Y-68670416D01*
X84016666Y-68570416D01*
D11*
X67509285Y-45756571D02*
X67566428Y-45928000D01*
X67623571Y-45985142D01*
X67737857Y-46042285D01*
X67909285Y-46042285D01*
X68023571Y-45985142D01*
X68080714Y-45928000D01*
X68137857Y-45813714D01*
X68137857Y-45356571D01*
X66937857Y-45356571D01*
X66937857Y-45756571D01*
X66995000Y-45870857D01*
X67052142Y-45928000D01*
X67166428Y-45985142D01*
X67280714Y-45985142D01*
X67395000Y-45928000D01*
X67452142Y-45870857D01*
X67509285Y-45756571D01*
X67509285Y-45356571D01*
X68080714Y-47013714D02*
X68137857Y-46899428D01*
X68137857Y-46670857D01*
X68080714Y-46556571D01*
X67966428Y-46499428D01*
X67509285Y-46499428D01*
X67395000Y-46556571D01*
X67337857Y-46670857D01*
X67337857Y-46899428D01*
X67395000Y-47013714D01*
X67509285Y-47070857D01*
X67623571Y-47070857D01*
X67737857Y-46499428D01*
X68080714Y-48042285D02*
X68137857Y-47928000D01*
X68137857Y-47699428D01*
X68080714Y-47585142D01*
X67966428Y-47528000D01*
X67509285Y-47528000D01*
X67395000Y-47585142D01*
X67337857Y-47699428D01*
X67337857Y-47928000D01*
X67395000Y-48042285D01*
X67509285Y-48099428D01*
X67623571Y-48099428D01*
X67737857Y-47528000D01*
X68137857Y-48613714D02*
X67337857Y-48613714D01*
X67566428Y-48613714D02*
X67452142Y-48670857D01*
X67395000Y-48728000D01*
X67337857Y-48842285D01*
X67337857Y-48956571D01*
X66937857Y-50099428D02*
X66937857Y-50785142D01*
X68137857Y-50442285D02*
X66937857Y-50442285D01*
X68137857Y-51185142D02*
X66937857Y-51185142D01*
X68137857Y-51699428D02*
X67509285Y-51699428D01*
X67395000Y-51642285D01*
X67337857Y-51528000D01*
X67337857Y-51356571D01*
X67395000Y-51242285D01*
X67452142Y-51185142D01*
X68080714Y-52728000D02*
X68137857Y-52613714D01*
X68137857Y-52385142D01*
X68080714Y-52270857D01*
X67966428Y-52213714D01*
X67509285Y-52213714D01*
X67395000Y-52270857D01*
X67337857Y-52385142D01*
X67337857Y-52613714D01*
X67395000Y-52728000D01*
X67509285Y-52785142D01*
X67623571Y-52785142D01*
X67737857Y-52213714D01*
X68137857Y-53299428D02*
X67337857Y-53299428D01*
X67566428Y-53299428D02*
X67452142Y-53356571D01*
X67395000Y-53413714D01*
X67337857Y-53528000D01*
X67337857Y-53642285D01*
X68137857Y-54042285D02*
X67337857Y-54042285D01*
X67452142Y-54042285D02*
X67395000Y-54099428D01*
X67337857Y-54213714D01*
X67337857Y-54385142D01*
X67395000Y-54499428D01*
X67509285Y-54556571D01*
X68137857Y-54556571D01*
X67509285Y-54556571D02*
X67395000Y-54613714D01*
X67337857Y-54728000D01*
X67337857Y-54899428D01*
X67395000Y-55013714D01*
X67509285Y-55070857D01*
X68137857Y-55070857D01*
X68137857Y-55813714D02*
X68080714Y-55699428D01*
X68023571Y-55642285D01*
X67909285Y-55585142D01*
X67566428Y-55585142D01*
X67452142Y-55642285D01*
X67395000Y-55699428D01*
X67337857Y-55813714D01*
X67337857Y-55985142D01*
X67395000Y-56099428D01*
X67452142Y-56156571D01*
X67566428Y-56213714D01*
X67909285Y-56213714D01*
X68023571Y-56156571D01*
X68080714Y-56099428D01*
X68137857Y-55985142D01*
X68137857Y-55813714D01*
X68137857Y-56728000D02*
X67337857Y-56728000D01*
X67566428Y-56728000D02*
X67452142Y-56785142D01*
X67395000Y-56842285D01*
X67337857Y-56956571D01*
X67337857Y-57070857D01*
X68080714Y-57928000D02*
X68137857Y-57813714D01*
X68137857Y-57585142D01*
X68080714Y-57470857D01*
X67966428Y-57413714D01*
X67509285Y-57413714D01*
X67395000Y-57470857D01*
X67337857Y-57585142D01*
X67337857Y-57813714D01*
X67395000Y-57928000D01*
X67509285Y-57985142D01*
X67623571Y-57985142D01*
X67737857Y-57413714D01*
X67337857Y-59013714D02*
X68309285Y-59013714D01*
X68423571Y-58956571D01*
X68480714Y-58899428D01*
X68537857Y-58785142D01*
X68537857Y-58613714D01*
X68480714Y-58499428D01*
X68080714Y-59013714D02*
X68137857Y-58899428D01*
X68137857Y-58670857D01*
X68080714Y-58556571D01*
X68023571Y-58499428D01*
X67909285Y-58442285D01*
X67566428Y-58442285D01*
X67452142Y-58499428D01*
X67395000Y-58556571D01*
X67337857Y-58670857D01*
X67337857Y-58899428D01*
X67395000Y-59013714D01*
X67337857Y-60099428D02*
X68137857Y-60099428D01*
X67337857Y-59585142D02*
X67966428Y-59585142D01*
X68080714Y-59642285D01*
X68137857Y-59756571D01*
X68137857Y-59928000D01*
X68080714Y-60042285D01*
X68023571Y-60099428D01*
X68137857Y-60842285D02*
X68080714Y-60728000D01*
X67966428Y-60670857D01*
X66937857Y-60670857D01*
X68137857Y-61813714D02*
X67509285Y-61813714D01*
X67395000Y-61756571D01*
X67337857Y-61642285D01*
X67337857Y-61413714D01*
X67395000Y-61299428D01*
X68080714Y-61813714D02*
X68137857Y-61699428D01*
X68137857Y-61413714D01*
X68080714Y-61299428D01*
X67966428Y-61242285D01*
X67852142Y-61242285D01*
X67737857Y-61299428D01*
X67680714Y-61413714D01*
X67680714Y-61699428D01*
X67623571Y-61813714D01*
X67337857Y-62213714D02*
X67337857Y-62670857D01*
X66937857Y-62385142D02*
X67966428Y-62385142D01*
X68080714Y-62442285D01*
X68137857Y-62556571D01*
X68137857Y-62670857D01*
X68137857Y-63070857D02*
X67337857Y-63070857D01*
X66937857Y-63070857D02*
X66995000Y-63013714D01*
X67052142Y-63070857D01*
X66995000Y-63128000D01*
X66937857Y-63070857D01*
X67052142Y-63070857D01*
X68137857Y-63813714D02*
X68080714Y-63699428D01*
X68023571Y-63642285D01*
X67909285Y-63585142D01*
X67566428Y-63585142D01*
X67452142Y-63642285D01*
X67395000Y-63699428D01*
X67337857Y-63813714D01*
X67337857Y-63985142D01*
X67395000Y-64099428D01*
X67452142Y-64156571D01*
X67566428Y-64213714D01*
X67909285Y-64213714D01*
X68023571Y-64156571D01*
X68080714Y-64099428D01*
X68137857Y-63985142D01*
X68137857Y-63813714D01*
X67337857Y-64728000D02*
X68137857Y-64728000D01*
X67452142Y-64728000D02*
X67395000Y-64785142D01*
X67337857Y-64899428D01*
X67337857Y-65070857D01*
X67395000Y-65185142D01*
X67509285Y-65242285D01*
X68137857Y-65242285D01*
X68080714Y-66670857D02*
X68137857Y-66842285D01*
X68137857Y-67128000D01*
X68080714Y-67242285D01*
X68023571Y-67299428D01*
X67909285Y-67356571D01*
X67795000Y-67356571D01*
X67680714Y-67299428D01*
X67623571Y-67242285D01*
X67566428Y-67128000D01*
X67509285Y-66899428D01*
X67452142Y-66785142D01*
X67395000Y-66728000D01*
X67280714Y-66670857D01*
X67166428Y-66670857D01*
X67052142Y-66728000D01*
X66995000Y-66785142D01*
X66937857Y-66899428D01*
X66937857Y-67185142D01*
X66995000Y-67356571D01*
X67337857Y-67756571D02*
X68137857Y-68042285D01*
X67337857Y-68328000D02*
X68137857Y-68042285D01*
X68423571Y-67928000D01*
X68480714Y-67870857D01*
X68537857Y-67756571D01*
X68080714Y-68728000D02*
X68137857Y-68842285D01*
X68137857Y-69070857D01*
X68080714Y-69185142D01*
X67966428Y-69242285D01*
X67909285Y-69242285D01*
X67795000Y-69185142D01*
X67737857Y-69070857D01*
X67737857Y-68899428D01*
X67680714Y-68785142D01*
X67566428Y-68728000D01*
X67509285Y-68728000D01*
X67395000Y-68785142D01*
X67337857Y-68899428D01*
X67337857Y-69070857D01*
X67395000Y-69185142D01*
X67337857Y-69585142D02*
X67337857Y-70042285D01*
X66937857Y-69756571D02*
X67966428Y-69756571D01*
X68080714Y-69813714D01*
X68137857Y-69928000D01*
X68137857Y-70042285D01*
X68080714Y-70899428D02*
X68137857Y-70785142D01*
X68137857Y-70556571D01*
X68080714Y-70442285D01*
X67966428Y-70385142D01*
X67509285Y-70385142D01*
X67395000Y-70442285D01*
X67337857Y-70556571D01*
X67337857Y-70785142D01*
X67395000Y-70899428D01*
X67509285Y-70956571D01*
X67623571Y-70956571D01*
X67737857Y-70385142D01*
X68137857Y-71470857D02*
X67337857Y-71470857D01*
X67452142Y-71470857D02*
X67395000Y-71528000D01*
X67337857Y-71642285D01*
X67337857Y-71813714D01*
X67395000Y-71928000D01*
X67509285Y-71985142D01*
X68137857Y-71985142D01*
X67509285Y-71985142D02*
X67395000Y-72042285D01*
X67337857Y-72156571D01*
X67337857Y-72328000D01*
X67395000Y-72442285D01*
X67509285Y-72499428D01*
X68137857Y-72499428D01*
X70107857Y-48070857D02*
X69307857Y-48070857D01*
X69422142Y-48070857D02*
X69365000Y-48128000D01*
X69307857Y-48242285D01*
X69307857Y-48413714D01*
X69365000Y-48528000D01*
X69479285Y-48585142D01*
X70107857Y-48585142D01*
X69479285Y-48585142D02*
X69365000Y-48642285D01*
X69307857Y-48756571D01*
X69307857Y-48928000D01*
X69365000Y-49042285D01*
X69479285Y-49099428D01*
X70107857Y-49099428D01*
X70107857Y-50185142D02*
X69479285Y-50185142D01*
X69365000Y-50128000D01*
X69307857Y-50013714D01*
X69307857Y-49785142D01*
X69365000Y-49670857D01*
X70050714Y-50185142D02*
X70107857Y-50070857D01*
X70107857Y-49785142D01*
X70050714Y-49670857D01*
X69936428Y-49613714D01*
X69822142Y-49613714D01*
X69707857Y-49670857D01*
X69650714Y-49785142D01*
X69650714Y-50070857D01*
X69593571Y-50185142D01*
X70107857Y-50756571D02*
X69307857Y-50756571D01*
X68907857Y-50756571D02*
X68965000Y-50699428D01*
X69022142Y-50756571D01*
X68965000Y-50813714D01*
X68907857Y-50756571D01*
X69022142Y-50756571D01*
X69307857Y-51328000D02*
X70107857Y-51328000D01*
X69422142Y-51328000D02*
X69365000Y-51385142D01*
X69307857Y-51499428D01*
X69307857Y-51670857D01*
X69365000Y-51785142D01*
X69479285Y-51842285D01*
X70107857Y-51842285D01*
X70107857Y-53328000D02*
X68907857Y-53328000D01*
X69365000Y-53328000D02*
X69307857Y-53442285D01*
X69307857Y-53670857D01*
X69365000Y-53785142D01*
X69422142Y-53842285D01*
X69536428Y-53899428D01*
X69879285Y-53899428D01*
X69993571Y-53842285D01*
X70050714Y-53785142D01*
X70107857Y-53670857D01*
X70107857Y-53442285D01*
X70050714Y-53328000D01*
X70107857Y-54585142D02*
X70050714Y-54470857D01*
X69993571Y-54413714D01*
X69879285Y-54356571D01*
X69536428Y-54356571D01*
X69422142Y-54413714D01*
X69365000Y-54470857D01*
X69307857Y-54585142D01*
X69307857Y-54756571D01*
X69365000Y-54870857D01*
X69422142Y-54928000D01*
X69536428Y-54985142D01*
X69879285Y-54985142D01*
X69993571Y-54928000D01*
X70050714Y-54870857D01*
X70107857Y-54756571D01*
X70107857Y-54585142D01*
X70107857Y-56013714D02*
X69479285Y-56013714D01*
X69365000Y-55956571D01*
X69307857Y-55842285D01*
X69307857Y-55613714D01*
X69365000Y-55499428D01*
X70050714Y-56013714D02*
X70107857Y-55899428D01*
X70107857Y-55613714D01*
X70050714Y-55499428D01*
X69936428Y-55442285D01*
X69822142Y-55442285D01*
X69707857Y-55499428D01*
X69650714Y-55613714D01*
X69650714Y-55899428D01*
X69593571Y-56013714D01*
X70107857Y-56585142D02*
X69307857Y-56585142D01*
X69536428Y-56585142D02*
X69422142Y-56642285D01*
X69365000Y-56699428D01*
X69307857Y-56813714D01*
X69307857Y-56928000D01*
X70107857Y-57842285D02*
X68907857Y-57842285D01*
X70050714Y-57842285D02*
X70107857Y-57728000D01*
X70107857Y-57499428D01*
X70050714Y-57385142D01*
X69993571Y-57328000D01*
X69879285Y-57270857D01*
X69536428Y-57270857D01*
X69422142Y-57328000D01*
X69365000Y-57385142D01*
X69307857Y-57499428D01*
X69307857Y-57728000D01*
X69365000Y-57842285D01*
X70565000Y-59670857D02*
X70507857Y-59613714D01*
X70336428Y-59499428D01*
X70222142Y-59442285D01*
X70050714Y-59385142D01*
X69765000Y-59328000D01*
X69536428Y-59328000D01*
X69250714Y-59385142D01*
X69079285Y-59442285D01*
X68965000Y-59499428D01*
X68793571Y-59613714D01*
X68736428Y-59670857D01*
X70050714Y-60642285D02*
X70107857Y-60528000D01*
X70107857Y-60299428D01*
X70050714Y-60185142D01*
X69993571Y-60128000D01*
X69879285Y-60070857D01*
X69536428Y-60070857D01*
X69422142Y-60128000D01*
X69365000Y-60185142D01*
X69307857Y-60299428D01*
X69307857Y-60528000D01*
X69365000Y-60642285D01*
X70107857Y-61328000D02*
X70050714Y-61213714D01*
X69993571Y-61156571D01*
X69879285Y-61099428D01*
X69536428Y-61099428D01*
X69422142Y-61156571D01*
X69365000Y-61213714D01*
X69307857Y-61328000D01*
X69307857Y-61499428D01*
X69365000Y-61613714D01*
X69422142Y-61670857D01*
X69536428Y-61728000D01*
X69879285Y-61728000D01*
X69993571Y-61670857D01*
X70050714Y-61613714D01*
X70107857Y-61499428D01*
X70107857Y-61328000D01*
X69307857Y-62242285D02*
X70107857Y-62242285D01*
X69422142Y-62242285D02*
X69365000Y-62299428D01*
X69307857Y-62413714D01*
X69307857Y-62585142D01*
X69365000Y-62699428D01*
X69479285Y-62756571D01*
X70107857Y-62756571D01*
X69307857Y-63156571D02*
X69307857Y-63613714D01*
X68907857Y-63328000D02*
X69936428Y-63328000D01*
X70050714Y-63385142D01*
X70107857Y-63499428D01*
X70107857Y-63613714D01*
X70107857Y-64013714D02*
X69307857Y-64013714D01*
X69536428Y-64013714D02*
X69422142Y-64070857D01*
X69365000Y-64128000D01*
X69307857Y-64242285D01*
X69307857Y-64356571D01*
X70107857Y-64928000D02*
X70050714Y-64813714D01*
X69993571Y-64756571D01*
X69879285Y-64699428D01*
X69536428Y-64699428D01*
X69422142Y-64756571D01*
X69365000Y-64813714D01*
X69307857Y-64928000D01*
X69307857Y-65099428D01*
X69365000Y-65213714D01*
X69422142Y-65270857D01*
X69536428Y-65328000D01*
X69879285Y-65328000D01*
X69993571Y-65270857D01*
X70050714Y-65213714D01*
X70107857Y-65099428D01*
X70107857Y-64928000D01*
X70107857Y-66013714D02*
X70050714Y-65899428D01*
X69936428Y-65842285D01*
X68907857Y-65842285D01*
X70565000Y-66356571D02*
X70507857Y-66413714D01*
X70336428Y-66528000D01*
X70222142Y-66585142D01*
X70050714Y-66642285D01*
X69765000Y-66699428D01*
X69536428Y-66699428D01*
X69250714Y-66642285D01*
X69079285Y-66585142D01*
X68965000Y-66528000D01*
X68793571Y-66413714D01*
X68736428Y-66356571D01*
X68907857Y-68013714D02*
X70107857Y-68413714D01*
X68907857Y-68813714D01*
X70107857Y-69842285D02*
X70107857Y-69156571D01*
X70107857Y-69499428D02*
X68907857Y-69499428D01*
X69079285Y-69385142D01*
X69193571Y-69270857D01*
X69250714Y-69156571D01*
D12*
%TO.C,REF\u002A\u002A*%
G36*
X81028100Y-76251903D02*
G01*
X80916550Y-76307522D01*
X80818092Y-76409931D01*
X80790977Y-76447864D01*
X80761438Y-76497500D01*
X80742272Y-76551412D01*
X80731307Y-76623364D01*
X80726371Y-76727122D01*
X80725287Y-76864101D01*
X80730182Y-77051815D01*
X80747196Y-77192758D01*
X80779823Y-77297908D01*
X80831558Y-77378243D01*
X80905896Y-77444741D01*
X80911358Y-77448678D01*
X80984620Y-77488953D01*
X81072840Y-77508880D01*
X81185038Y-77513793D01*
X81367433Y-77513793D01*
X81367509Y-77690857D01*
X81369207Y-77789470D01*
X81379550Y-77847314D01*
X81406578Y-77882006D01*
X81458332Y-77911164D01*
X81470761Y-77917121D01*
X81528923Y-77945039D01*
X81573956Y-77962672D01*
X81607441Y-77964194D01*
X81630962Y-77943781D01*
X81646100Y-77895607D01*
X81654437Y-77813846D01*
X81657556Y-77692672D01*
X81657040Y-77526260D01*
X81654471Y-77308785D01*
X81653668Y-77243736D01*
X81650778Y-77019502D01*
X81648188Y-76872821D01*
X81367586Y-76872821D01*
X81366009Y-76997326D01*
X81359000Y-77078787D01*
X81343142Y-77132515D01*
X81315019Y-77173823D01*
X81295925Y-77193971D01*
X81217865Y-77252921D01*
X81148753Y-77257720D01*
X81077440Y-77209038D01*
X81075632Y-77207241D01*
X81046617Y-77169618D01*
X81028967Y-77118484D01*
X81020064Y-77039738D01*
X81017291Y-76919276D01*
X81017241Y-76892588D01*
X81023942Y-76726583D01*
X81045752Y-76611505D01*
X81085235Y-76541254D01*
X81144956Y-76509729D01*
X81179472Y-76506552D01*
X81261389Y-76521460D01*
X81317579Y-76570548D01*
X81351402Y-76660362D01*
X81366220Y-76797445D01*
X81367586Y-76872821D01*
X81648188Y-76872821D01*
X81647713Y-76845952D01*
X81643753Y-76715382D01*
X81638174Y-76620087D01*
X81630254Y-76552364D01*
X81619269Y-76504507D01*
X81604499Y-76468813D01*
X81585218Y-76437578D01*
X81576951Y-76425824D01*
X81467288Y-76314797D01*
X81328635Y-76251847D01*
X81168246Y-76234297D01*
X81028100Y-76251903D01*
G37*
X81028100Y-76251903D02*
X80916550Y-76307522D01*
X80818092Y-76409931D01*
X80790977Y-76447864D01*
X80761438Y-76497500D01*
X80742272Y-76551412D01*
X80731307Y-76623364D01*
X80726371Y-76727122D01*
X80725287Y-76864101D01*
X80730182Y-77051815D01*
X80747196Y-77192758D01*
X80779823Y-77297908D01*
X80831558Y-77378243D01*
X80905896Y-77444741D01*
X80911358Y-77448678D01*
X80984620Y-77488953D01*
X81072840Y-77508880D01*
X81185038Y-77513793D01*
X81367433Y-77513793D01*
X81367509Y-77690857D01*
X81369207Y-77789470D01*
X81379550Y-77847314D01*
X81406578Y-77882006D01*
X81458332Y-77911164D01*
X81470761Y-77917121D01*
X81528923Y-77945039D01*
X81573956Y-77962672D01*
X81607441Y-77964194D01*
X81630962Y-77943781D01*
X81646100Y-77895607D01*
X81654437Y-77813846D01*
X81657556Y-77692672D01*
X81657040Y-77526260D01*
X81654471Y-77308785D01*
X81653668Y-77243736D01*
X81650778Y-77019502D01*
X81648188Y-76872821D01*
X81367586Y-76872821D01*
X81366009Y-76997326D01*
X81359000Y-77078787D01*
X81343142Y-77132515D01*
X81315019Y-77173823D01*
X81295925Y-77193971D01*
X81217865Y-77252921D01*
X81148753Y-77257720D01*
X81077440Y-77209038D01*
X81075632Y-77207241D01*
X81046617Y-77169618D01*
X81028967Y-77118484D01*
X81020064Y-77039738D01*
X81017291Y-76919276D01*
X81017241Y-76892588D01*
X81023942Y-76726583D01*
X81045752Y-76611505D01*
X81085235Y-76541254D01*
X81144956Y-76509729D01*
X81179472Y-76506552D01*
X81261389Y-76521460D01*
X81317579Y-76570548D01*
X81351402Y-76660362D01*
X81366220Y-76797445D01*
X81367586Y-76872821D01*
X81648188Y-76872821D01*
X81647713Y-76845952D01*
X81643753Y-76715382D01*
X81638174Y-76620087D01*
X81630254Y-76552364D01*
X81619269Y-76504507D01*
X81604499Y-76468813D01*
X81585218Y-76437578D01*
X81576951Y-76425824D01*
X81467288Y-76314797D01*
X81328635Y-76251847D01*
X81168246Y-76234297D01*
X81028100Y-76251903D01*
G36*
X78782571Y-76267719D02*
G01*
X78688877Y-76321914D01*
X78623736Y-76375707D01*
X78576093Y-76432066D01*
X78543272Y-76500987D01*
X78522594Y-76592468D01*
X78511380Y-76716506D01*
X78506951Y-76883098D01*
X78506437Y-77002851D01*
X78506437Y-77443659D01*
X78630517Y-77499283D01*
X78754598Y-77554907D01*
X78769195Y-77072095D01*
X78775227Y-76891779D01*
X78781555Y-76760901D01*
X78789394Y-76670511D01*
X78799963Y-76611664D01*
X78814477Y-76575413D01*
X78834152Y-76552810D01*
X78840465Y-76547917D01*
X78936112Y-76509706D01*
X79032793Y-76524827D01*
X79090345Y-76564943D01*
X79113755Y-76593370D01*
X79129961Y-76630672D01*
X79140259Y-76687223D01*
X79145951Y-76773394D01*
X79148336Y-76899558D01*
X79148736Y-77031042D01*
X79148814Y-77195999D01*
X79151639Y-77312761D01*
X79161093Y-77391510D01*
X79181060Y-77442431D01*
X79215424Y-77475706D01*
X79268068Y-77501520D01*
X79338383Y-77528344D01*
X79415180Y-77557542D01*
X79406038Y-77039346D01*
X79402357Y-76852539D01*
X79398050Y-76714490D01*
X79391877Y-76615568D01*
X79382598Y-76546145D01*
X79368973Y-76496590D01*
X79349761Y-76457273D01*
X79326598Y-76422584D01*
X79214848Y-76311770D01*
X79078487Y-76247689D01*
X78930175Y-76232339D01*
X78782571Y-76267719D01*
G37*
X78782571Y-76267719D02*
X78688877Y-76321914D01*
X78623736Y-76375707D01*
X78576093Y-76432066D01*
X78543272Y-76500987D01*
X78522594Y-76592468D01*
X78511380Y-76716506D01*
X78506951Y-76883098D01*
X78506437Y-77002851D01*
X78506437Y-77443659D01*
X78630517Y-77499283D01*
X78754598Y-77554907D01*
X78769195Y-77072095D01*
X78775227Y-76891779D01*
X78781555Y-76760901D01*
X78789394Y-76670511D01*
X78799963Y-76611664D01*
X78814477Y-76575413D01*
X78834152Y-76552810D01*
X78840465Y-76547917D01*
X78936112Y-76509706D01*
X79032793Y-76524827D01*
X79090345Y-76564943D01*
X79113755Y-76593370D01*
X79129961Y-76630672D01*
X79140259Y-76687223D01*
X79145951Y-76773394D01*
X79148336Y-76899558D01*
X79148736Y-77031042D01*
X79148814Y-77195999D01*
X79151639Y-77312761D01*
X79161093Y-77391510D01*
X79181060Y-77442431D01*
X79215424Y-77475706D01*
X79268068Y-77501520D01*
X79338383Y-77528344D01*
X79415180Y-77557542D01*
X79406038Y-77039346D01*
X79402357Y-76852539D01*
X79398050Y-76714490D01*
X79391877Y-76615568D01*
X79382598Y-76546145D01*
X79368973Y-76496590D01*
X79349761Y-76457273D01*
X79326598Y-76422584D01*
X79214848Y-76311770D01*
X79078487Y-76247689D01*
X78930175Y-76232339D01*
X78782571Y-76267719D01*
G36*
X82151779Y-76256015D02*
G01*
X82014939Y-76327968D01*
X81913949Y-76443766D01*
X81878075Y-76518213D01*
X81850161Y-76629992D01*
X81835871Y-76771227D01*
X81834516Y-76925371D01*
X81845405Y-77075879D01*
X81867847Y-77206205D01*
X81901150Y-77299803D01*
X81911385Y-77315922D01*
X82032618Y-77436249D01*
X82176613Y-77508317D01*
X82332861Y-77529408D01*
X82490852Y-77496802D01*
X82534820Y-77477253D01*
X82620444Y-77417012D01*
X82695592Y-77337135D01*
X82702694Y-77327004D01*
X82731561Y-77278181D01*
X82750643Y-77225990D01*
X82761916Y-77157285D01*
X82767355Y-77058918D01*
X82768938Y-76917744D01*
X82768965Y-76886092D01*
X82768893Y-76876019D01*
X82477011Y-76876019D01*
X82475313Y-77009256D01*
X82468628Y-77097674D01*
X82454575Y-77154785D01*
X82430771Y-77194102D01*
X82418621Y-77207241D01*
X82348764Y-77257172D01*
X82280941Y-77254895D01*
X82212365Y-77211584D01*
X82171465Y-77165346D01*
X82147242Y-77097857D01*
X82133639Y-76991433D01*
X82132706Y-76979020D01*
X82130384Y-76786147D01*
X82154650Y-76642900D01*
X82205176Y-76550160D01*
X82281632Y-76508807D01*
X82308924Y-76506552D01*
X82380589Y-76517893D01*
X82429610Y-76557184D01*
X82459582Y-76632326D01*
X82474101Y-76751222D01*
X82477011Y-76876019D01*
X82768893Y-76876019D01*
X82767878Y-76735659D01*
X82763312Y-76630549D01*
X82753312Y-76557714D01*
X82735921Y-76504108D01*
X82709184Y-76456681D01*
X82703276Y-76447864D01*
X82603968Y-76329007D01*
X82495758Y-76260008D01*
X82364019Y-76232619D01*
X82319283Y-76231281D01*
X82151779Y-76256015D01*
G37*
X82151779Y-76256015D02*
X82014939Y-76327968D01*
X81913949Y-76443766D01*
X81878075Y-76518213D01*
X81850161Y-76629992D01*
X81835871Y-76771227D01*
X81834516Y-76925371D01*
X81845405Y-77075879D01*
X81867847Y-77206205D01*
X81901150Y-77299803D01*
X81911385Y-77315922D01*
X82032618Y-77436249D01*
X82176613Y-77508317D01*
X82332861Y-77529408D01*
X82490852Y-77496802D01*
X82534820Y-77477253D01*
X82620444Y-77417012D01*
X82695592Y-77337135D01*
X82702694Y-77327004D01*
X82731561Y-77278181D01*
X82750643Y-77225990D01*
X82761916Y-77157285D01*
X82767355Y-77058918D01*
X82768938Y-76917744D01*
X82768965Y-76886092D01*
X82768893Y-76876019D01*
X82477011Y-76876019D01*
X82475313Y-77009256D01*
X82468628Y-77097674D01*
X82454575Y-77154785D01*
X82430771Y-77194102D01*
X82418621Y-77207241D01*
X82348764Y-77257172D01*
X82280941Y-77254895D01*
X82212365Y-77211584D01*
X82171465Y-77165346D01*
X82147242Y-77097857D01*
X82133639Y-76991433D01*
X82132706Y-76979020D01*
X82130384Y-76786147D01*
X82154650Y-76642900D01*
X82205176Y-76550160D01*
X82281632Y-76508807D01*
X82308924Y-76506552D01*
X82380589Y-76517893D01*
X82429610Y-76557184D01*
X82459582Y-76632326D01*
X82474101Y-76751222D01*
X82477011Y-76876019D01*
X82768893Y-76876019D01*
X82767878Y-76735659D01*
X82763312Y-76630549D01*
X82753312Y-76557714D01*
X82735921Y-76504108D01*
X82709184Y-76456681D01*
X82703276Y-76447864D01*
X82603968Y-76329007D01*
X82495758Y-76260008D01*
X82364019Y-76232619D01*
X82319283Y-76231281D01*
X82151779Y-76256015D01*
G36*
X79884448Y-76274676D02*
G01*
X79769342Y-76352111D01*
X79680389Y-76463949D01*
X79627251Y-76606265D01*
X79616503Y-76711015D01*
X79617724Y-76754726D01*
X79627944Y-76788194D01*
X79656039Y-76818179D01*
X79710884Y-76851440D01*
X79801355Y-76894738D01*
X79936328Y-76954833D01*
X79937011Y-76955134D01*
X80061249Y-77012037D01*
X80163127Y-77062565D01*
X80232233Y-77101280D01*
X80258154Y-77122740D01*
X80258161Y-77122913D01*
X80235315Y-77169644D01*
X80181891Y-77221154D01*
X80120558Y-77258261D01*
X80089485Y-77265632D01*
X80004711Y-77240138D01*
X79931707Y-77176291D01*
X79896087Y-77106094D01*
X79861820Y-77054343D01*
X79794697Y-76995409D01*
X79715792Y-76944496D01*
X79646179Y-76916809D01*
X79631623Y-76915287D01*
X79615237Y-76940321D01*
X79614250Y-77004311D01*
X79626292Y-77090593D01*
X79648993Y-77182501D01*
X79679986Y-77263369D01*
X79681552Y-77266509D01*
X79774819Y-77396734D01*
X79895696Y-77485311D01*
X80032973Y-77528786D01*
X80175440Y-77523706D01*
X80311888Y-77466616D01*
X80317955Y-77462602D01*
X80425290Y-77365326D01*
X80495868Y-77238409D01*
X80534926Y-77071526D01*
X80540168Y-77024639D01*
X80549452Y-76803329D01*
X80538322Y-76700124D01*
X80258161Y-76700124D01*
X80254521Y-76764503D01*
X80234611Y-76783291D01*
X80184974Y-76769235D01*
X80106733Y-76736009D01*
X80019274Y-76694359D01*
X80017101Y-76693256D01*
X79942970Y-76654265D01*
X79913219Y-76628244D01*
X79920555Y-76600965D01*
X79951447Y-76565121D01*
X80030040Y-76513251D01*
X80114677Y-76509439D01*
X80190597Y-76547189D01*
X80243035Y-76620001D01*
X80258161Y-76700124D01*
X80538322Y-76700124D01*
X80530356Y-76626261D01*
X80481366Y-76485829D01*
X80413164Y-76387447D01*
X80290065Y-76288030D01*
X80154472Y-76238711D01*
X80016045Y-76235568D01*
X79884448Y-76274676D01*
G37*
X79884448Y-76274676D02*
X79769342Y-76352111D01*
X79680389Y-76463949D01*
X79627251Y-76606265D01*
X79616503Y-76711015D01*
X79617724Y-76754726D01*
X79627944Y-76788194D01*
X79656039Y-76818179D01*
X79710884Y-76851440D01*
X79801355Y-76894738D01*
X79936328Y-76954833D01*
X79937011Y-76955134D01*
X80061249Y-77012037D01*
X80163127Y-77062565D01*
X80232233Y-77101280D01*
X80258154Y-77122740D01*
X80258161Y-77122913D01*
X80235315Y-77169644D01*
X80181891Y-77221154D01*
X80120558Y-77258261D01*
X80089485Y-77265632D01*
X80004711Y-77240138D01*
X79931707Y-77176291D01*
X79896087Y-77106094D01*
X79861820Y-77054343D01*
X79794697Y-76995409D01*
X79715792Y-76944496D01*
X79646179Y-76916809D01*
X79631623Y-76915287D01*
X79615237Y-76940321D01*
X79614250Y-77004311D01*
X79626292Y-77090593D01*
X79648993Y-77182501D01*
X79679986Y-77263369D01*
X79681552Y-77266509D01*
X79774819Y-77396734D01*
X79895696Y-77485311D01*
X80032973Y-77528786D01*
X80175440Y-77523706D01*
X80311888Y-77466616D01*
X80317955Y-77462602D01*
X80425290Y-77365326D01*
X80495868Y-77238409D01*
X80534926Y-77071526D01*
X80540168Y-77024639D01*
X80549452Y-76803329D01*
X80538322Y-76700124D01*
X80258161Y-76700124D01*
X80254521Y-76764503D01*
X80234611Y-76783291D01*
X80184974Y-76769235D01*
X80106733Y-76736009D01*
X80019274Y-76694359D01*
X80017101Y-76693256D01*
X79942970Y-76654265D01*
X79913219Y-76628244D01*
X79920555Y-76600965D01*
X79951447Y-76565121D01*
X80030040Y-76513251D01*
X80114677Y-76509439D01*
X80190597Y-76547189D01*
X80243035Y-76620001D01*
X80258161Y-76700124D01*
X80538322Y-76700124D01*
X80530356Y-76626261D01*
X80481366Y-76485829D01*
X80413164Y-76387447D01*
X80290065Y-76288030D01*
X80154472Y-76238711D01*
X80016045Y-76235568D01*
X79884448Y-76274676D01*
G36*
X77455402Y-76113857D02*
G01*
X77446846Y-76233188D01*
X77437019Y-76303506D01*
X77423401Y-76334179D01*
X77403473Y-76334571D01*
X77397011Y-76330910D01*
X77311060Y-76304398D01*
X77199255Y-76305946D01*
X77085586Y-76333199D01*
X77014490Y-76368455D01*
X76941595Y-76424778D01*
X76888307Y-76488519D01*
X76851725Y-76569510D01*
X76828950Y-76677586D01*
X76817081Y-76822580D01*
X76813218Y-77014326D01*
X76813149Y-77051109D01*
X76813103Y-77464288D01*
X76905046Y-77496339D01*
X76970348Y-77518144D01*
X77006176Y-77528297D01*
X77007230Y-77528391D01*
X77010758Y-77500860D01*
X77013761Y-77424923D01*
X77016010Y-77310565D01*
X77017276Y-77167769D01*
X77017471Y-77080951D01*
X77017877Y-76909773D01*
X77019968Y-76787088D01*
X77025053Y-76703000D01*
X77034440Y-76647614D01*
X77049439Y-76611032D01*
X77071358Y-76583359D01*
X77085043Y-76570032D01*
X77179051Y-76516328D01*
X77281636Y-76512307D01*
X77374710Y-76557725D01*
X77391922Y-76574123D01*
X77417168Y-76604957D01*
X77434680Y-76641531D01*
X77445858Y-76694415D01*
X77452104Y-76774177D01*
X77454818Y-76891385D01*
X77455402Y-77052991D01*
X77455402Y-77464288D01*
X77547345Y-77496339D01*
X77612647Y-77518144D01*
X77648475Y-77528297D01*
X77649529Y-77528391D01*
X77652225Y-77500448D01*
X77654655Y-77421630D01*
X77656722Y-77299453D01*
X77658329Y-77141432D01*
X77659377Y-76955083D01*
X77659769Y-76747920D01*
X77659770Y-76738706D01*
X77659770Y-75949020D01*
X77564885Y-75908997D01*
X77470000Y-75868973D01*
X77455402Y-76113857D01*
G37*
X77455402Y-76113857D02*
X77446846Y-76233188D01*
X77437019Y-76303506D01*
X77423401Y-76334179D01*
X77403473Y-76334571D01*
X77397011Y-76330910D01*
X77311060Y-76304398D01*
X77199255Y-76305946D01*
X77085586Y-76333199D01*
X77014490Y-76368455D01*
X76941595Y-76424778D01*
X76888307Y-76488519D01*
X76851725Y-76569510D01*
X76828950Y-76677586D01*
X76817081Y-76822580D01*
X76813218Y-77014326D01*
X76813149Y-77051109D01*
X76813103Y-77464288D01*
X76905046Y-77496339D01*
X76970348Y-77518144D01*
X77006176Y-77528297D01*
X77007230Y-77528391D01*
X77010758Y-77500860D01*
X77013761Y-77424923D01*
X77016010Y-77310565D01*
X77017276Y-77167769D01*
X77017471Y-77080951D01*
X77017877Y-76909773D01*
X77019968Y-76787088D01*
X77025053Y-76703000D01*
X77034440Y-76647614D01*
X77049439Y-76611032D01*
X77071358Y-76583359D01*
X77085043Y-76570032D01*
X77179051Y-76516328D01*
X77281636Y-76512307D01*
X77374710Y-76557725D01*
X77391922Y-76574123D01*
X77417168Y-76604957D01*
X77434680Y-76641531D01*
X77445858Y-76694415D01*
X77452104Y-76774177D01*
X77454818Y-76891385D01*
X77455402Y-77052991D01*
X77455402Y-77464288D01*
X77547345Y-77496339D01*
X77612647Y-77518144D01*
X77648475Y-77528297D01*
X77649529Y-77528391D01*
X77652225Y-77500448D01*
X77654655Y-77421630D01*
X77656722Y-77299453D01*
X77658329Y-77141432D01*
X77659377Y-76955083D01*
X77659769Y-76747920D01*
X77659770Y-76738706D01*
X77659770Y-75949020D01*
X77564885Y-75908997D01*
X77470000Y-75868973D01*
X77455402Y-76113857D01*
G36*
X76120056Y-76314360D02*
G01*
X76005657Y-76356842D01*
X76004348Y-76357658D01*
X75933597Y-76409730D01*
X75881364Y-76470584D01*
X75844629Y-76549887D01*
X75820366Y-76657309D01*
X75805555Y-76802517D01*
X75797171Y-76995179D01*
X75796436Y-77022628D01*
X75785880Y-77436521D01*
X75874709Y-77482456D01*
X75938982Y-77513498D01*
X75977790Y-77528206D01*
X75979585Y-77528391D01*
X75986300Y-77501250D01*
X75991635Y-77428041D01*
X75994917Y-77321081D01*
X75995632Y-77234469D01*
X75995649Y-77094162D01*
X76002063Y-77006051D01*
X76024420Y-76964025D01*
X76072268Y-76961975D01*
X76155151Y-76993790D01*
X76280287Y-77052272D01*
X76372303Y-77100845D01*
X76419629Y-77142986D01*
X76433542Y-77188916D01*
X76433563Y-77191189D01*
X76410605Y-77270311D01*
X76342630Y-77313055D01*
X76238602Y-77319246D01*
X76163670Y-77318172D01*
X76124161Y-77339753D01*
X76099522Y-77391591D01*
X76085341Y-77457632D01*
X76105777Y-77495104D01*
X76113472Y-77500467D01*
X76185917Y-77522006D01*
X76287367Y-77525055D01*
X76391843Y-77510778D01*
X76465875Y-77484688D01*
X76568228Y-77397785D01*
X76626409Y-77276816D01*
X76637931Y-77182308D01*
X76629138Y-77097062D01*
X76597320Y-77027476D01*
X76534316Y-76965672D01*
X76431969Y-76903772D01*
X76282118Y-76833897D01*
X76272988Y-76829948D01*
X76138003Y-76767588D01*
X76054706Y-76716446D01*
X76019003Y-76670488D01*
X76026797Y-76623683D01*
X76073993Y-76569998D01*
X76088106Y-76557644D01*
X76182641Y-76509741D01*
X76280594Y-76511758D01*
X76365903Y-76558724D01*
X76422504Y-76645669D01*
X76427763Y-76662734D01*
X76478977Y-76745504D01*
X76543963Y-76785372D01*
X76637931Y-76824882D01*
X76637931Y-76722658D01*
X76609347Y-76574072D01*
X76524505Y-76437784D01*
X76480355Y-76392191D01*
X76379995Y-76333674D01*
X76252365Y-76307184D01*
X76120056Y-76314360D01*
G37*
X76120056Y-76314360D02*
X76005657Y-76356842D01*
X76004348Y-76357658D01*
X75933597Y-76409730D01*
X75881364Y-76470584D01*
X75844629Y-76549887D01*
X75820366Y-76657309D01*
X75805555Y-76802517D01*
X75797171Y-76995179D01*
X75796436Y-77022628D01*
X75785880Y-77436521D01*
X75874709Y-77482456D01*
X75938982Y-77513498D01*
X75977790Y-77528206D01*
X75979585Y-77528391D01*
X75986300Y-77501250D01*
X75991635Y-77428041D01*
X75994917Y-77321081D01*
X75995632Y-77234469D01*
X75995649Y-77094162D01*
X76002063Y-77006051D01*
X76024420Y-76964025D01*
X76072268Y-76961975D01*
X76155151Y-76993790D01*
X76280287Y-77052272D01*
X76372303Y-77100845D01*
X76419629Y-77142986D01*
X76433542Y-77188916D01*
X76433563Y-77191189D01*
X76410605Y-77270311D01*
X76342630Y-77313055D01*
X76238602Y-77319246D01*
X76163670Y-77318172D01*
X76124161Y-77339753D01*
X76099522Y-77391591D01*
X76085341Y-77457632D01*
X76105777Y-77495104D01*
X76113472Y-77500467D01*
X76185917Y-77522006D01*
X76287367Y-77525055D01*
X76391843Y-77510778D01*
X76465875Y-77484688D01*
X76568228Y-77397785D01*
X76626409Y-77276816D01*
X76637931Y-77182308D01*
X76629138Y-77097062D01*
X76597320Y-77027476D01*
X76534316Y-76965672D01*
X76431969Y-76903772D01*
X76282118Y-76833897D01*
X76272988Y-76829948D01*
X76138003Y-76767588D01*
X76054706Y-76716446D01*
X76019003Y-76670488D01*
X76026797Y-76623683D01*
X76073993Y-76569998D01*
X76088106Y-76557644D01*
X76182641Y-76509741D01*
X76280594Y-76511758D01*
X76365903Y-76558724D01*
X76422504Y-76645669D01*
X76427763Y-76662734D01*
X76478977Y-76745504D01*
X76543963Y-76785372D01*
X76637931Y-76824882D01*
X76637931Y-76722658D01*
X76609347Y-76574072D01*
X76524505Y-76437784D01*
X76480355Y-76392191D01*
X76379995Y-76333674D01*
X76252365Y-76307184D01*
X76120056Y-76314360D01*
G36*
X75134057Y-76311920D02*
G01*
X75001435Y-76360859D01*
X74893990Y-76447419D01*
X74851968Y-76508352D01*
X74806157Y-76620161D01*
X74807109Y-76701006D01*
X74855192Y-76755378D01*
X74872983Y-76764624D01*
X74949796Y-76793450D01*
X74989024Y-76786065D01*
X75002311Y-76737658D01*
X75002988Y-76710920D01*
X75027314Y-76612548D01*
X75090719Y-76543734D01*
X75178846Y-76510498D01*
X75277337Y-76518861D01*
X75357398Y-76562296D01*
X75384439Y-76587072D01*
X75403606Y-76617129D01*
X75416554Y-76662565D01*
X75424936Y-76733476D01*
X75430407Y-76839960D01*
X75434622Y-76992112D01*
X75435713Y-77040287D01*
X75439693Y-77205095D01*
X75444219Y-77321088D01*
X75451005Y-77397833D01*
X75461769Y-77444893D01*
X75478227Y-77471835D01*
X75502094Y-77488223D01*
X75517374Y-77495463D01*
X75582267Y-77520220D01*
X75620466Y-77528391D01*
X75633088Y-77501103D01*
X75640792Y-77418603D01*
X75643620Y-77279941D01*
X75641614Y-77084162D01*
X75640989Y-77053965D01*
X75636579Y-76875349D01*
X75631365Y-76744923D01*
X75623945Y-76652492D01*
X75612918Y-76587858D01*
X75596883Y-76540825D01*
X75574439Y-76501196D01*
X75562698Y-76484215D01*
X75495381Y-76409080D01*
X75420090Y-76350638D01*
X75410872Y-76345536D01*
X75275867Y-76305260D01*
X75134057Y-76311920D01*
G37*
X75134057Y-76311920D02*
X75001435Y-76360859D01*
X74893990Y-76447419D01*
X74851968Y-76508352D01*
X74806157Y-76620161D01*
X74807109Y-76701006D01*
X74855192Y-76755378D01*
X74872983Y-76764624D01*
X74949796Y-76793450D01*
X74989024Y-76786065D01*
X75002311Y-76737658D01*
X75002988Y-76710920D01*
X75027314Y-76612548D01*
X75090719Y-76543734D01*
X75178846Y-76510498D01*
X75277337Y-76518861D01*
X75357398Y-76562296D01*
X75384439Y-76587072D01*
X75403606Y-76617129D01*
X75416554Y-76662565D01*
X75424936Y-76733476D01*
X75430407Y-76839960D01*
X75434622Y-76992112D01*
X75435713Y-77040287D01*
X75439693Y-77205095D01*
X75444219Y-77321088D01*
X75451005Y-77397833D01*
X75461769Y-77444893D01*
X75478227Y-77471835D01*
X75502094Y-77488223D01*
X75517374Y-77495463D01*
X75582267Y-77520220D01*
X75620466Y-77528391D01*
X75633088Y-77501103D01*
X75640792Y-77418603D01*
X75643620Y-77279941D01*
X75641614Y-77084162D01*
X75640989Y-77053965D01*
X75636579Y-76875349D01*
X75631365Y-76744923D01*
X75623945Y-76652492D01*
X75612918Y-76587858D01*
X75596883Y-76540825D01*
X75574439Y-76501196D01*
X75562698Y-76484215D01*
X75495381Y-76409080D01*
X75420090Y-76350638D01*
X75410872Y-76345536D01*
X75275867Y-76305260D01*
X75134057Y-76311920D01*
G36*
X73806086Y-76544455D02*
G01*
X73806457Y-76762661D01*
X73807892Y-76930519D01*
X73810998Y-77056070D01*
X73816378Y-77147355D01*
X73824638Y-77212415D01*
X73836384Y-77259291D01*
X73852219Y-77296024D01*
X73864210Y-77316991D01*
X73963510Y-77430694D01*
X74089412Y-77501965D01*
X74228709Y-77527538D01*
X74368195Y-77504150D01*
X74451257Y-77462119D01*
X74538455Y-77389411D01*
X74597883Y-77300612D01*
X74633739Y-77184320D01*
X74650219Y-77029135D01*
X74652553Y-76915287D01*
X74652239Y-76907106D01*
X74448276Y-76907106D01*
X74447030Y-77037657D01*
X74441322Y-77124080D01*
X74428196Y-77180618D01*
X74404694Y-77221514D01*
X74376614Y-77252362D01*
X74282312Y-77311905D01*
X74181060Y-77316992D01*
X74085364Y-77267279D01*
X74077916Y-77260543D01*
X74046126Y-77225502D01*
X74026192Y-77183811D01*
X74015400Y-77121762D01*
X74011035Y-77025644D01*
X74010345Y-76919379D01*
X74011841Y-76785880D01*
X74018036Y-76696822D01*
X74031486Y-76638293D01*
X74054749Y-76596382D01*
X74073825Y-76574123D01*
X74162437Y-76517985D01*
X74264492Y-76511235D01*
X74361905Y-76554114D01*
X74380704Y-76570032D01*
X74412707Y-76605382D01*
X74432682Y-76647502D01*
X74443407Y-76710251D01*
X74447661Y-76807487D01*
X74448276Y-76907106D01*
X74652239Y-76907106D01*
X74645496Y-76731947D01*
X74621528Y-76594195D01*
X74576452Y-76490632D01*
X74506072Y-76409856D01*
X74451257Y-76368455D01*
X74351624Y-76323728D01*
X74236145Y-76302967D01*
X74128801Y-76308525D01*
X74068736Y-76330943D01*
X74045165Y-76337323D01*
X74029523Y-76313535D01*
X74018605Y-76249788D01*
X74010345Y-76152687D01*
X74001301Y-76044541D01*
X73988739Y-75979475D01*
X73965881Y-75942268D01*
X73925949Y-75917699D01*
X73900862Y-75906819D01*
X73805977Y-75867072D01*
X73806086Y-76544455D01*
G37*
X73806086Y-76544455D02*
X73806457Y-76762661D01*
X73807892Y-76930519D01*
X73810998Y-77056070D01*
X73816378Y-77147355D01*
X73824638Y-77212415D01*
X73836384Y-77259291D01*
X73852219Y-77296024D01*
X73864210Y-77316991D01*
X73963510Y-77430694D01*
X74089412Y-77501965D01*
X74228709Y-77527538D01*
X74368195Y-77504150D01*
X74451257Y-77462119D01*
X74538455Y-77389411D01*
X74597883Y-77300612D01*
X74633739Y-77184320D01*
X74650219Y-77029135D01*
X74652553Y-76915287D01*
X74652239Y-76907106D01*
X74448276Y-76907106D01*
X74447030Y-77037657D01*
X74441322Y-77124080D01*
X74428196Y-77180618D01*
X74404694Y-77221514D01*
X74376614Y-77252362D01*
X74282312Y-77311905D01*
X74181060Y-77316992D01*
X74085364Y-77267279D01*
X74077916Y-77260543D01*
X74046126Y-77225502D01*
X74026192Y-77183811D01*
X74015400Y-77121762D01*
X74011035Y-77025644D01*
X74010345Y-76919379D01*
X74011841Y-76785880D01*
X74018036Y-76696822D01*
X74031486Y-76638293D01*
X74054749Y-76596382D01*
X74073825Y-76574123D01*
X74162437Y-76517985D01*
X74264492Y-76511235D01*
X74361905Y-76554114D01*
X74380704Y-76570032D01*
X74412707Y-76605382D01*
X74432682Y-76647502D01*
X74443407Y-76710251D01*
X74447661Y-76807487D01*
X74448276Y-76907106D01*
X74652239Y-76907106D01*
X74645496Y-76731947D01*
X74621528Y-76594195D01*
X74576452Y-76490632D01*
X74506072Y-76409856D01*
X74451257Y-76368455D01*
X74351624Y-76323728D01*
X74236145Y-76302967D01*
X74128801Y-76308525D01*
X74068736Y-76330943D01*
X74045165Y-76337323D01*
X74029523Y-76313535D01*
X74018605Y-76249788D01*
X74010345Y-76152687D01*
X74001301Y-76044541D01*
X73988739Y-75979475D01*
X73965881Y-75942268D01*
X73925949Y-75917699D01*
X73900862Y-75906819D01*
X73805977Y-75867072D01*
X73806086Y-76544455D01*
G36*
X72619876Y-76329840D02*
G01*
X72615421Y-76406653D01*
X72611929Y-76523391D01*
X72609685Y-76670821D01*
X72608965Y-76825455D01*
X72608965Y-77348727D01*
X72701355Y-77441117D01*
X72765022Y-77498047D01*
X72820911Y-77521107D01*
X72897298Y-77519647D01*
X72927620Y-77515934D01*
X73022390Y-77505126D01*
X73100778Y-77498933D01*
X73119885Y-77498361D01*
X73184301Y-77502102D01*
X73276429Y-77511494D01*
X73312150Y-77515934D01*
X73399886Y-77522801D01*
X73458847Y-77507885D01*
X73517310Y-77461835D01*
X73538415Y-77441117D01*
X73630805Y-77348727D01*
X73630805Y-76369947D01*
X73556442Y-76336066D01*
X73492410Y-76310970D01*
X73454948Y-76302184D01*
X73445343Y-76329950D01*
X73436365Y-76407530D01*
X73428614Y-76526348D01*
X73422686Y-76677828D01*
X73419827Y-76805805D01*
X73411839Y-77309425D01*
X73342152Y-77319278D01*
X73278771Y-77312389D01*
X73247714Y-77290083D01*
X73239033Y-77248379D01*
X73231622Y-77159544D01*
X73226069Y-77034834D01*
X73222964Y-76885507D01*
X73222516Y-76808661D01*
X73222069Y-76366287D01*
X73130126Y-76334235D01*
X73065051Y-76312443D01*
X73029653Y-76302281D01*
X73028632Y-76302184D01*
X73025080Y-76329809D01*
X73021177Y-76406411D01*
X73017249Y-76522579D01*
X73013624Y-76668904D01*
X73011092Y-76805805D01*
X73003103Y-77309425D01*
X72827931Y-77309425D01*
X72819893Y-76849965D01*
X72811854Y-76390505D01*
X72726457Y-76346344D01*
X72663407Y-76316019D01*
X72626090Y-76302258D01*
X72625013Y-76302184D01*
X72619876Y-76329840D01*
G37*
X72619876Y-76329840D02*
X72615421Y-76406653D01*
X72611929Y-76523391D01*
X72609685Y-76670821D01*
X72608965Y-76825455D01*
X72608965Y-77348727D01*
X72701355Y-77441117D01*
X72765022Y-77498047D01*
X72820911Y-77521107D01*
X72897298Y-77519647D01*
X72927620Y-77515934D01*
X73022390Y-77505126D01*
X73100778Y-77498933D01*
X73119885Y-77498361D01*
X73184301Y-77502102D01*
X73276429Y-77511494D01*
X73312150Y-77515934D01*
X73399886Y-77522801D01*
X73458847Y-77507885D01*
X73517310Y-77461835D01*
X73538415Y-77441117D01*
X73630805Y-77348727D01*
X73630805Y-76369947D01*
X73556442Y-76336066D01*
X73492410Y-76310970D01*
X73454948Y-76302184D01*
X73445343Y-76329950D01*
X73436365Y-76407530D01*
X73428614Y-76526348D01*
X73422686Y-76677828D01*
X73419827Y-76805805D01*
X73411839Y-77309425D01*
X73342152Y-77319278D01*
X73278771Y-77312389D01*
X73247714Y-77290083D01*
X73239033Y-77248379D01*
X73231622Y-77159544D01*
X73226069Y-77034834D01*
X73222964Y-76885507D01*
X73222516Y-76808661D01*
X73222069Y-76366287D01*
X73130126Y-76334235D01*
X73065051Y-76312443D01*
X73029653Y-76302281D01*
X73028632Y-76302184D01*
X73025080Y-76329809D01*
X73021177Y-76406411D01*
X73017249Y-76522579D01*
X73013624Y-76668904D01*
X73011092Y-76805805D01*
X73003103Y-77309425D01*
X72827931Y-77309425D01*
X72819893Y-76849965D01*
X72811854Y-76390505D01*
X72726457Y-76346344D01*
X72663407Y-76316019D01*
X72626090Y-76302258D01*
X72625013Y-76302184D01*
X72619876Y-76329840D01*
G36*
X71885594Y-76325156D02*
G01*
X71801531Y-76363393D01*
X71735550Y-76409726D01*
X71687206Y-76461532D01*
X71653828Y-76528363D01*
X71632747Y-76619769D01*
X71621293Y-76745301D01*
X71616797Y-76914508D01*
X71616322Y-77025933D01*
X71616322Y-77460627D01*
X71690684Y-77494509D01*
X71749254Y-77519272D01*
X71778270Y-77528391D01*
X71783821Y-77501257D01*
X71788225Y-77428094D01*
X71790922Y-77321263D01*
X71791494Y-77236437D01*
X71793954Y-77113887D01*
X71800588Y-77016668D01*
X71810274Y-76957134D01*
X71817968Y-76944483D01*
X71869689Y-76957402D01*
X71950883Y-76990539D01*
X72044898Y-77035461D01*
X72135083Y-77083735D01*
X72204785Y-77126928D01*
X72237352Y-77156608D01*
X72237481Y-77156929D01*
X72234680Y-77211857D01*
X72209561Y-77264292D01*
X72165459Y-77306881D01*
X72101091Y-77321126D01*
X72046079Y-77319466D01*
X71968165Y-77318245D01*
X71927268Y-77336498D01*
X71902705Y-77384726D01*
X71899608Y-77393820D01*
X71888960Y-77462598D01*
X71917435Y-77504360D01*
X71991656Y-77524263D01*
X72071832Y-77527944D01*
X72216110Y-77500658D01*
X72290797Y-77461690D01*
X72383037Y-77370148D01*
X72431957Y-77257782D01*
X72436346Y-77139051D01*
X72394999Y-77028411D01*
X72332803Y-76959080D01*
X72270706Y-76920265D01*
X72173105Y-76871125D01*
X72059368Y-76821292D01*
X72040410Y-76813677D01*
X71915479Y-76758545D01*
X71843461Y-76709954D01*
X71820300Y-76661647D01*
X71841936Y-76607370D01*
X71879080Y-76564943D01*
X71966873Y-76512702D01*
X72063470Y-76508784D01*
X72152056Y-76549041D01*
X72215814Y-76629326D01*
X72224183Y-76650040D01*
X72272904Y-76726225D01*
X72344035Y-76782785D01*
X72433793Y-76829201D01*
X72433793Y-76697584D01*
X72428510Y-76617168D01*
X72405858Y-76553786D01*
X72355633Y-76486163D01*
X72307418Y-76434076D01*
X72232446Y-76360322D01*
X72174194Y-76320702D01*
X72111628Y-76304810D01*
X72040807Y-76302184D01*
X71885594Y-76325156D01*
G37*
X71885594Y-76325156D02*
X71801531Y-76363393D01*
X71735550Y-76409726D01*
X71687206Y-76461532D01*
X71653828Y-76528363D01*
X71632747Y-76619769D01*
X71621293Y-76745301D01*
X71616797Y-76914508D01*
X71616322Y-77025933D01*
X71616322Y-77460627D01*
X71690684Y-77494509D01*
X71749254Y-77519272D01*
X71778270Y-77528391D01*
X71783821Y-77501257D01*
X71788225Y-77428094D01*
X71790922Y-77321263D01*
X71791494Y-77236437D01*
X71793954Y-77113887D01*
X71800588Y-77016668D01*
X71810274Y-76957134D01*
X71817968Y-76944483D01*
X71869689Y-76957402D01*
X71950883Y-76990539D01*
X72044898Y-77035461D01*
X72135083Y-77083735D01*
X72204785Y-77126928D01*
X72237352Y-77156608D01*
X72237481Y-77156929D01*
X72234680Y-77211857D01*
X72209561Y-77264292D01*
X72165459Y-77306881D01*
X72101091Y-77321126D01*
X72046079Y-77319466D01*
X71968165Y-77318245D01*
X71927268Y-77336498D01*
X71902705Y-77384726D01*
X71899608Y-77393820D01*
X71888960Y-77462598D01*
X71917435Y-77504360D01*
X71991656Y-77524263D01*
X72071832Y-77527944D01*
X72216110Y-77500658D01*
X72290797Y-77461690D01*
X72383037Y-77370148D01*
X72431957Y-77257782D01*
X72436346Y-77139051D01*
X72394999Y-77028411D01*
X72332803Y-76959080D01*
X72270706Y-76920265D01*
X72173105Y-76871125D01*
X72059368Y-76821292D01*
X72040410Y-76813677D01*
X71915479Y-76758545D01*
X71843461Y-76709954D01*
X71820300Y-76661647D01*
X71841936Y-76607370D01*
X71879080Y-76564943D01*
X71966873Y-76512702D01*
X72063470Y-76508784D01*
X72152056Y-76549041D01*
X72215814Y-76629326D01*
X72224183Y-76650040D01*
X72272904Y-76726225D01*
X72344035Y-76782785D01*
X72433793Y-76829201D01*
X72433793Y-76697584D01*
X72428510Y-76617168D01*
X72405858Y-76553786D01*
X72355633Y-76486163D01*
X72307418Y-76434076D01*
X72232446Y-76360322D01*
X72174194Y-76320702D01*
X72111628Y-76304810D01*
X72040807Y-76302184D01*
X71885594Y-76325156D01*
G36*
X70864310Y-76330018D02*
G01*
X70829415Y-76345269D01*
X70746123Y-76411235D01*
X70674897Y-76506618D01*
X70630847Y-76608406D01*
X70623678Y-76658587D01*
X70647715Y-76728647D01*
X70700439Y-76765717D01*
X70756969Y-76788164D01*
X70782854Y-76792300D01*
X70795458Y-76762283D01*
X70820346Y-76696961D01*
X70831265Y-76667445D01*
X70892492Y-76565348D01*
X70981139Y-76514423D01*
X71094807Y-76515989D01*
X71103226Y-76517994D01*
X71163912Y-76546767D01*
X71208526Y-76602859D01*
X71238998Y-76693163D01*
X71257256Y-76824571D01*
X71265229Y-77003974D01*
X71265977Y-77099433D01*
X71266348Y-77249913D01*
X71268777Y-77352495D01*
X71275240Y-77417672D01*
X71287712Y-77455938D01*
X71308167Y-77477785D01*
X71338581Y-77493707D01*
X71340339Y-77494509D01*
X71398909Y-77519272D01*
X71427925Y-77528391D01*
X71432384Y-77500822D01*
X71436201Y-77424620D01*
X71439101Y-77309541D01*
X71440809Y-77165341D01*
X71441149Y-77059814D01*
X71439412Y-76855613D01*
X71432618Y-76700697D01*
X71418393Y-76586024D01*
X71394362Y-76502551D01*
X71358152Y-76441236D01*
X71307388Y-76393034D01*
X71257261Y-76359393D01*
X71136725Y-76314619D01*
X70996443Y-76304521D01*
X70864310Y-76330018D01*
G37*
X70864310Y-76330018D02*
X70829415Y-76345269D01*
X70746123Y-76411235D01*
X70674897Y-76506618D01*
X70630847Y-76608406D01*
X70623678Y-76658587D01*
X70647715Y-76728647D01*
X70700439Y-76765717D01*
X70756969Y-76788164D01*
X70782854Y-76792300D01*
X70795458Y-76762283D01*
X70820346Y-76696961D01*
X70831265Y-76667445D01*
X70892492Y-76565348D01*
X70981139Y-76514423D01*
X71094807Y-76515989D01*
X71103226Y-76517994D01*
X71163912Y-76546767D01*
X71208526Y-76602859D01*
X71238998Y-76693163D01*
X71257256Y-76824571D01*
X71265229Y-77003974D01*
X71265977Y-77099433D01*
X71266348Y-77249913D01*
X71268777Y-77352495D01*
X71275240Y-77417672D01*
X71287712Y-77455938D01*
X71308167Y-77477785D01*
X71338581Y-77493707D01*
X71340339Y-77494509D01*
X71398909Y-77519272D01*
X71427925Y-77528391D01*
X71432384Y-77500822D01*
X71436201Y-77424620D01*
X71439101Y-77309541D01*
X71440809Y-77165341D01*
X71441149Y-77059814D01*
X71439412Y-76855613D01*
X71432618Y-76700697D01*
X71418393Y-76586024D01*
X71394362Y-76502551D01*
X71358152Y-76441236D01*
X71307388Y-76393034D01*
X71257261Y-76359393D01*
X71136725Y-76314619D01*
X70996443Y-76304521D01*
X70864310Y-76330018D01*
G36*
X69856561Y-76346540D02*
G01*
X69741050Y-76422034D01*
X69685336Y-76489617D01*
X69641196Y-76612255D01*
X69637691Y-76709298D01*
X69645632Y-76839056D01*
X69944885Y-76970039D01*
X70090389Y-77036958D01*
X70185463Y-77090790D01*
X70234899Y-77137416D01*
X70243489Y-77182720D01*
X70216028Y-77232582D01*
X70185747Y-77265632D01*
X70097637Y-77318633D01*
X70001804Y-77322347D01*
X69913788Y-77281041D01*
X69849131Y-77198983D01*
X69837567Y-77170008D01*
X69782175Y-77079509D01*
X69718447Y-77040940D01*
X69631034Y-77007946D01*
X69631034Y-77133034D01*
X69638762Y-77218156D01*
X69669034Y-77289938D01*
X69732482Y-77372356D01*
X69741912Y-77383066D01*
X69812487Y-77456391D01*
X69873153Y-77495742D01*
X69949050Y-77513845D01*
X70011970Y-77519774D01*
X70124513Y-77521251D01*
X70204630Y-77502535D01*
X70254610Y-77474747D01*
X70333162Y-77413641D01*
X70387537Y-77347554D01*
X70421948Y-77264441D01*
X70440612Y-77152254D01*
X70447744Y-76998946D01*
X70448313Y-76921136D01*
X70446378Y-76827853D01*
X70270101Y-76827853D01*
X70268056Y-76877896D01*
X70262961Y-76886092D01*
X70229334Y-76874958D01*
X70156970Y-76845493D01*
X70060253Y-76803601D01*
X70040027Y-76794597D01*
X69917797Y-76732442D01*
X69850453Y-76677815D01*
X69835652Y-76626649D01*
X69871053Y-76574876D01*
X69900289Y-76552000D01*
X70005784Y-76506250D01*
X70104524Y-76513808D01*
X70187188Y-76569651D01*
X70244452Y-76668753D01*
X70262812Y-76747414D01*
X70270101Y-76827853D01*
X70446378Y-76827853D01*
X70444541Y-76739351D01*
X70430641Y-76604853D01*
X70403106Y-76506916D01*
X70358428Y-76434811D01*
X70293099Y-76377813D01*
X70264617Y-76359393D01*
X70135237Y-76311422D01*
X69993588Y-76308403D01*
X69856561Y-76346540D01*
G37*
X69856561Y-76346540D02*
X69741050Y-76422034D01*
X69685336Y-76489617D01*
X69641196Y-76612255D01*
X69637691Y-76709298D01*
X69645632Y-76839056D01*
X69944885Y-76970039D01*
X70090389Y-77036958D01*
X70185463Y-77090790D01*
X70234899Y-77137416D01*
X70243489Y-77182720D01*
X70216028Y-77232582D01*
X70185747Y-77265632D01*
X70097637Y-77318633D01*
X70001804Y-77322347D01*
X69913788Y-77281041D01*
X69849131Y-77198983D01*
X69837567Y-77170008D01*
X69782175Y-77079509D01*
X69718447Y-77040940D01*
X69631034Y-77007946D01*
X69631034Y-77133034D01*
X69638762Y-77218156D01*
X69669034Y-77289938D01*
X69732482Y-77372356D01*
X69741912Y-77383066D01*
X69812487Y-77456391D01*
X69873153Y-77495742D01*
X69949050Y-77513845D01*
X70011970Y-77519774D01*
X70124513Y-77521251D01*
X70204630Y-77502535D01*
X70254610Y-77474747D01*
X70333162Y-77413641D01*
X70387537Y-77347554D01*
X70421948Y-77264441D01*
X70440612Y-77152254D01*
X70447744Y-76998946D01*
X70448313Y-76921136D01*
X70446378Y-76827853D01*
X70270101Y-76827853D01*
X70268056Y-76877896D01*
X70262961Y-76886092D01*
X70229334Y-76874958D01*
X70156970Y-76845493D01*
X70060253Y-76803601D01*
X70040027Y-76794597D01*
X69917797Y-76732442D01*
X69850453Y-76677815D01*
X69835652Y-76626649D01*
X69871053Y-76574876D01*
X69900289Y-76552000D01*
X70005784Y-76506250D01*
X70104524Y-76513808D01*
X70187188Y-76569651D01*
X70244452Y-76668753D01*
X70262812Y-76747414D01*
X70270101Y-76827853D01*
X70446378Y-76827853D01*
X70444541Y-76739351D01*
X70430641Y-76604853D01*
X70403106Y-76506916D01*
X70358428Y-76434811D01*
X70293099Y-76377813D01*
X70264617Y-76359393D01*
X70135237Y-76311422D01*
X69993588Y-76308403D01*
X69856561Y-76346540D01*
G36*
X75990986Y-66842998D02*
G01*
X75832994Y-66843863D01*
X75718653Y-66846205D01*
X75640593Y-66850762D01*
X75591446Y-66858270D01*
X75563841Y-66869466D01*
X75550408Y-66885088D01*
X75543779Y-66905873D01*
X75543135Y-66908563D01*
X75533065Y-66957113D01*
X75514425Y-67052905D01*
X75489155Y-67185743D01*
X75459193Y-67345431D01*
X75426478Y-67521774D01*
X75425336Y-67527967D01*
X75392567Y-67700782D01*
X75361907Y-67853469D01*
X75335336Y-67976871D01*
X75314833Y-68061831D01*
X75302374Y-68099190D01*
X75301780Y-68099852D01*
X75265081Y-68118095D01*
X75189414Y-68148497D01*
X75091122Y-68184493D01*
X75090575Y-68184685D01*
X74966767Y-68231222D01*
X74820804Y-68290504D01*
X74683219Y-68350109D01*
X74676707Y-68353056D01*
X74452610Y-68454765D01*
X73956381Y-68115897D01*
X73804154Y-68012592D01*
X73666259Y-67920237D01*
X73550685Y-67844084D01*
X73465421Y-67789385D01*
X73418456Y-67761393D01*
X73413996Y-67759317D01*
X73379866Y-67768560D01*
X73316119Y-67813156D01*
X73220269Y-67895209D01*
X73089831Y-68016821D01*
X72956672Y-68146205D01*
X72828306Y-68273702D01*
X72713419Y-68390046D01*
X72618927Y-68488052D01*
X72551747Y-68560536D01*
X72518794Y-68600313D01*
X72517568Y-68602361D01*
X72513926Y-68629656D01*
X72527650Y-68674234D01*
X72562131Y-68742112D01*
X72620761Y-68839311D01*
X72706930Y-68971851D01*
X72821800Y-69142476D01*
X72923746Y-69292655D01*
X73014877Y-69427350D01*
X73089927Y-69538740D01*
X73143631Y-69619005D01*
X73170720Y-69660325D01*
X73172426Y-69663130D01*
X73169118Y-69702721D01*
X73144047Y-69779669D01*
X73102202Y-69879432D01*
X73087288Y-69911291D01*
X73022214Y-70053226D01*
X72952788Y-70214273D01*
X72896391Y-70353621D01*
X72855753Y-70457044D01*
X72823474Y-70535642D01*
X72804822Y-70576720D01*
X72802503Y-70579885D01*
X72768197Y-70585128D01*
X72687331Y-70599494D01*
X72570657Y-70620937D01*
X72428925Y-70647413D01*
X72272890Y-70676877D01*
X72113302Y-70707283D01*
X71960915Y-70736588D01*
X71826479Y-70762745D01*
X71720748Y-70783710D01*
X71654474Y-70797439D01*
X71638218Y-70801320D01*
X71621427Y-70810900D01*
X71608751Y-70832536D01*
X71599622Y-70873531D01*
X71593469Y-70941189D01*
X71589720Y-71042812D01*
X71587808Y-71185703D01*
X71587160Y-71377165D01*
X71587126Y-71455645D01*
X71587126Y-72093906D01*
X71740402Y-72124160D01*
X71825678Y-72140564D01*
X71952930Y-72164509D01*
X72106685Y-72193107D01*
X72271466Y-72223467D01*
X72317011Y-72231806D01*
X72469068Y-72261370D01*
X72601532Y-72290442D01*
X72703286Y-72316329D01*
X72763212Y-72336337D01*
X72773195Y-72342301D01*
X72797707Y-72384534D01*
X72832852Y-72466370D01*
X72871827Y-72571683D01*
X72879558Y-72594368D01*
X72930640Y-72735018D01*
X72994046Y-72893714D01*
X73056096Y-73036225D01*
X73056402Y-73036886D01*
X73159733Y-73260440D01*
X72480039Y-74260232D01*
X72916379Y-74697300D01*
X73048351Y-74827381D01*
X73168721Y-74942048D01*
X73270727Y-75035181D01*
X73347609Y-75100658D01*
X73392607Y-75132357D01*
X73399062Y-75134368D01*
X73436960Y-75118529D01*
X73514292Y-75074496D01*
X73622611Y-75007490D01*
X73753468Y-74922734D01*
X73894948Y-74827816D01*
X74038539Y-74730998D01*
X74166565Y-74646751D01*
X74270895Y-74580258D01*
X74343400Y-74536702D01*
X74375842Y-74521264D01*
X74415424Y-74534328D01*
X74490481Y-74568750D01*
X74585532Y-74617380D01*
X74595608Y-74622785D01*
X74723609Y-74686980D01*
X74811382Y-74718463D01*
X74865972Y-74718798D01*
X74894425Y-74689548D01*
X74894590Y-74689138D01*
X74908812Y-74654498D01*
X74942731Y-74572269D01*
X74993716Y-74448814D01*
X75059138Y-74290498D01*
X75136366Y-74103686D01*
X75222771Y-73894742D01*
X75306449Y-73692446D01*
X75398412Y-73469200D01*
X75482850Y-73262392D01*
X75557231Y-73078362D01*
X75619026Y-72923451D01*
X75665703Y-72803996D01*
X75694732Y-72726339D01*
X75703678Y-72697356D01*
X75681244Y-72664110D01*
X75622561Y-72611123D01*
X75544311Y-72552704D01*
X75321466Y-72367952D01*
X75147282Y-72156182D01*
X75023846Y-71921856D01*
X74953246Y-71669434D01*
X74937569Y-71403377D01*
X74948964Y-71280575D01*
X75011050Y-71025793D01*
X75117977Y-70800801D01*
X75263111Y-70607817D01*
X75439822Y-70449061D01*
X75641478Y-70326750D01*
X75861446Y-70243105D01*
X76093094Y-70200344D01*
X76329791Y-70200687D01*
X76564905Y-70246352D01*
X76791804Y-70339559D01*
X77003856Y-70482527D01*
X77092364Y-70563383D01*
X77262111Y-70771007D01*
X77380301Y-70997895D01*
X77447722Y-71237433D01*
X77465160Y-71483007D01*
X77433402Y-71728003D01*
X77353235Y-71965808D01*
X77225445Y-72189807D01*
X77050820Y-72393387D01*
X76855688Y-72552704D01*
X76774409Y-72613602D01*
X76716991Y-72666015D01*
X76696322Y-72697406D01*
X76707144Y-72731639D01*
X76737923Y-72813419D01*
X76786126Y-72936407D01*
X76849222Y-73094263D01*
X76924678Y-73280649D01*
X77009962Y-73489226D01*
X77093781Y-73692496D01*
X77186255Y-73915933D01*
X77271911Y-74122984D01*
X77348118Y-74307286D01*
X77412247Y-74462475D01*
X77461668Y-74582188D01*
X77493752Y-74660061D01*
X77505641Y-74689138D01*
X77533726Y-74718677D01*
X77588051Y-74718591D01*
X77675605Y-74687326D01*
X77803381Y-74623329D01*
X77804392Y-74622785D01*
X77900598Y-74573121D01*
X77978369Y-74536945D01*
X78022223Y-74521408D01*
X78024158Y-74521264D01*
X78057171Y-74537024D01*
X78130054Y-74580850D01*
X78234678Y-74647557D01*
X78362910Y-74731964D01*
X78505052Y-74827816D01*
X78649767Y-74924867D01*
X78780196Y-75009270D01*
X78887890Y-75075801D01*
X78964402Y-75119238D01*
X79000938Y-75134368D01*
X79034582Y-75114482D01*
X79102224Y-75058903D01*
X79197107Y-74973754D01*
X79312470Y-74865153D01*
X79441555Y-74739221D01*
X79483771Y-74697149D01*
X79920261Y-74259931D01*
X79588023Y-73772340D01*
X79487054Y-73622605D01*
X79398438Y-73488220D01*
X79327146Y-73376969D01*
X79278150Y-73296639D01*
X79256422Y-73255014D01*
X79255785Y-73252053D01*
X79267240Y-73212818D01*
X79298051Y-73133895D01*
X79342884Y-73028509D01*
X79374353Y-72957954D01*
X79433192Y-72822876D01*
X79488604Y-72686409D01*
X79531564Y-72571103D01*
X79543234Y-72535977D01*
X79576389Y-72442174D01*
X79608799Y-72369694D01*
X79626601Y-72342301D01*
X79665886Y-72325536D01*
X79751626Y-72301770D01*
X79872697Y-72273697D01*
X80017973Y-72244009D01*
X80082988Y-72231806D01*
X80248087Y-72201468D01*
X80406448Y-72172093D01*
X80542596Y-72146569D01*
X80641057Y-72127785D01*
X80659598Y-72124160D01*
X80812873Y-72093906D01*
X80812873Y-71455645D01*
X80812529Y-71245770D01*
X80811116Y-71086980D01*
X80808064Y-70971973D01*
X80802803Y-70893446D01*
X80794763Y-70844096D01*
X80783373Y-70816619D01*
X80768063Y-70803713D01*
X80761782Y-70801320D01*
X80723896Y-70792833D01*
X80640195Y-70775900D01*
X80521433Y-70752566D01*
X80378361Y-70724875D01*
X80221732Y-70694873D01*
X80062297Y-70664604D01*
X79910809Y-70636115D01*
X79778019Y-70611449D01*
X79674681Y-70592651D01*
X79611545Y-70581767D01*
X79597497Y-70579885D01*
X79584770Y-70554704D01*
X79556600Y-70487622D01*
X79518252Y-70391333D01*
X79503609Y-70353621D01*
X79444548Y-70207921D01*
X79375000Y-70046951D01*
X79312712Y-69911291D01*
X79266879Y-69807561D01*
X79236387Y-69722326D01*
X79226208Y-69670126D01*
X79227831Y-69663130D01*
X79249343Y-69630102D01*
X79298465Y-69556643D01*
X79369923Y-69450577D01*
X79458445Y-69319726D01*
X79558759Y-69171912D01*
X79578594Y-69142734D01*
X79694988Y-68969863D01*
X79780548Y-68838226D01*
X79838684Y-68741761D01*
X79872808Y-68674408D01*
X79886331Y-68630106D01*
X79882664Y-68602794D01*
X79882570Y-68602620D01*
X79853707Y-68566746D01*
X79789867Y-68497391D01*
X79697969Y-68401745D01*
X79584933Y-68286999D01*
X79457679Y-68160341D01*
X79443328Y-68146205D01*
X79282957Y-67990903D01*
X79159195Y-67876870D01*
X79069555Y-67802002D01*
X79011552Y-67764196D01*
X78986004Y-67759317D01*
X78948718Y-67780603D01*
X78871343Y-67829773D01*
X78761867Y-67901575D01*
X78628280Y-67990755D01*
X78478570Y-68092063D01*
X78443618Y-68115897D01*
X77947390Y-68454765D01*
X77723293Y-68353056D01*
X77587011Y-68293783D01*
X77440724Y-68234170D01*
X77314965Y-68186640D01*
X77309425Y-68184685D01*
X77211057Y-68148677D01*
X77135229Y-68118229D01*
X77098282Y-68099905D01*
X77098220Y-68099852D01*
X77086496Y-68066729D01*
X77066568Y-67985267D01*
X77040413Y-67864625D01*
X77010010Y-67713959D01*
X76977337Y-67542428D01*
X76974664Y-67527967D01*
X76941890Y-67351235D01*
X76911802Y-67190810D01*
X76886339Y-67056888D01*
X76867441Y-66959663D01*
X76857047Y-66909332D01*
X76856865Y-66908563D01*
X76850539Y-66887153D01*
X76838239Y-66870988D01*
X76812594Y-66859331D01*
X76766235Y-66851445D01*
X76691792Y-66846593D01*
X76581895Y-66844039D01*
X76429175Y-66843045D01*
X76226262Y-66842874D01*
X76200000Y-66842874D01*
X75990986Y-66842998D01*
G37*
X75990986Y-66842998D02*
X75832994Y-66843863D01*
X75718653Y-66846205D01*
X75640593Y-66850762D01*
X75591446Y-66858270D01*
X75563841Y-66869466D01*
X75550408Y-66885088D01*
X75543779Y-66905873D01*
X75543135Y-66908563D01*
X75533065Y-66957113D01*
X75514425Y-67052905D01*
X75489155Y-67185743D01*
X75459193Y-67345431D01*
X75426478Y-67521774D01*
X75425336Y-67527967D01*
X75392567Y-67700782D01*
X75361907Y-67853469D01*
X75335336Y-67976871D01*
X75314833Y-68061831D01*
X75302374Y-68099190D01*
X75301780Y-68099852D01*
X75265081Y-68118095D01*
X75189414Y-68148497D01*
X75091122Y-68184493D01*
X75090575Y-68184685D01*
X74966767Y-68231222D01*
X74820804Y-68290504D01*
X74683219Y-68350109D01*
X74676707Y-68353056D01*
X74452610Y-68454765D01*
X73956381Y-68115897D01*
X73804154Y-68012592D01*
X73666259Y-67920237D01*
X73550685Y-67844084D01*
X73465421Y-67789385D01*
X73418456Y-67761393D01*
X73413996Y-67759317D01*
X73379866Y-67768560D01*
X73316119Y-67813156D01*
X73220269Y-67895209D01*
X73089831Y-68016821D01*
X72956672Y-68146205D01*
X72828306Y-68273702D01*
X72713419Y-68390046D01*
X72618927Y-68488052D01*
X72551747Y-68560536D01*
X72518794Y-68600313D01*
X72517568Y-68602361D01*
X72513926Y-68629656D01*
X72527650Y-68674234D01*
X72562131Y-68742112D01*
X72620761Y-68839311D01*
X72706930Y-68971851D01*
X72821800Y-69142476D01*
X72923746Y-69292655D01*
X73014877Y-69427350D01*
X73089927Y-69538740D01*
X73143631Y-69619005D01*
X73170720Y-69660325D01*
X73172426Y-69663130D01*
X73169118Y-69702721D01*
X73144047Y-69779669D01*
X73102202Y-69879432D01*
X73087288Y-69911291D01*
X73022214Y-70053226D01*
X72952788Y-70214273D01*
X72896391Y-70353621D01*
X72855753Y-70457044D01*
X72823474Y-70535642D01*
X72804822Y-70576720D01*
X72802503Y-70579885D01*
X72768197Y-70585128D01*
X72687331Y-70599494D01*
X72570657Y-70620937D01*
X72428925Y-70647413D01*
X72272890Y-70676877D01*
X72113302Y-70707283D01*
X71960915Y-70736588D01*
X71826479Y-70762745D01*
X71720748Y-70783710D01*
X71654474Y-70797439D01*
X71638218Y-70801320D01*
X71621427Y-70810900D01*
X71608751Y-70832536D01*
X71599622Y-70873531D01*
X71593469Y-70941189D01*
X71589720Y-71042812D01*
X71587808Y-71185703D01*
X71587160Y-71377165D01*
X71587126Y-71455645D01*
X71587126Y-72093906D01*
X71740402Y-72124160D01*
X71825678Y-72140564D01*
X71952930Y-72164509D01*
X72106685Y-72193107D01*
X72271466Y-72223467D01*
X72317011Y-72231806D01*
X72469068Y-72261370D01*
X72601532Y-72290442D01*
X72703286Y-72316329D01*
X72763212Y-72336337D01*
X72773195Y-72342301D01*
X72797707Y-72384534D01*
X72832852Y-72466370D01*
X72871827Y-72571683D01*
X72879558Y-72594368D01*
X72930640Y-72735018D01*
X72994046Y-72893714D01*
X73056096Y-73036225D01*
X73056402Y-73036886D01*
X73159733Y-73260440D01*
X72480039Y-74260232D01*
X72916379Y-74697300D01*
X73048351Y-74827381D01*
X73168721Y-74942048D01*
X73270727Y-75035181D01*
X73347609Y-75100658D01*
X73392607Y-75132357D01*
X73399062Y-75134368D01*
X73436960Y-75118529D01*
X73514292Y-75074496D01*
X73622611Y-75007490D01*
X73753468Y-74922734D01*
X73894948Y-74827816D01*
X74038539Y-74730998D01*
X74166565Y-74646751D01*
X74270895Y-74580258D01*
X74343400Y-74536702D01*
X74375842Y-74521264D01*
X74415424Y-74534328D01*
X74490481Y-74568750D01*
X74585532Y-74617380D01*
X74595608Y-74622785D01*
X74723609Y-74686980D01*
X74811382Y-74718463D01*
X74865972Y-74718798D01*
X74894425Y-74689548D01*
X74894590Y-74689138D01*
X74908812Y-74654498D01*
X74942731Y-74572269D01*
X74993716Y-74448814D01*
X75059138Y-74290498D01*
X75136366Y-74103686D01*
X75222771Y-73894742D01*
X75306449Y-73692446D01*
X75398412Y-73469200D01*
X75482850Y-73262392D01*
X75557231Y-73078362D01*
X75619026Y-72923451D01*
X75665703Y-72803996D01*
X75694732Y-72726339D01*
X75703678Y-72697356D01*
X75681244Y-72664110D01*
X75622561Y-72611123D01*
X75544311Y-72552704D01*
X75321466Y-72367952D01*
X75147282Y-72156182D01*
X75023846Y-71921856D01*
X74953246Y-71669434D01*
X74937569Y-71403377D01*
X74948964Y-71280575D01*
X75011050Y-71025793D01*
X75117977Y-70800801D01*
X75263111Y-70607817D01*
X75439822Y-70449061D01*
X75641478Y-70326750D01*
X75861446Y-70243105D01*
X76093094Y-70200344D01*
X76329791Y-70200687D01*
X76564905Y-70246352D01*
X76791804Y-70339559D01*
X77003856Y-70482527D01*
X77092364Y-70563383D01*
X77262111Y-70771007D01*
X77380301Y-70997895D01*
X77447722Y-71237433D01*
X77465160Y-71483007D01*
X77433402Y-71728003D01*
X77353235Y-71965808D01*
X77225445Y-72189807D01*
X77050820Y-72393387D01*
X76855688Y-72552704D01*
X76774409Y-72613602D01*
X76716991Y-72666015D01*
X76696322Y-72697406D01*
X76707144Y-72731639D01*
X76737923Y-72813419D01*
X76786126Y-72936407D01*
X76849222Y-73094263D01*
X76924678Y-73280649D01*
X77009962Y-73489226D01*
X77093781Y-73692496D01*
X77186255Y-73915933D01*
X77271911Y-74122984D01*
X77348118Y-74307286D01*
X77412247Y-74462475D01*
X77461668Y-74582188D01*
X77493752Y-74660061D01*
X77505641Y-74689138D01*
X77533726Y-74718677D01*
X77588051Y-74718591D01*
X77675605Y-74687326D01*
X77803381Y-74623329D01*
X77804392Y-74622785D01*
X77900598Y-74573121D01*
X77978369Y-74536945D01*
X78022223Y-74521408D01*
X78024158Y-74521264D01*
X78057171Y-74537024D01*
X78130054Y-74580850D01*
X78234678Y-74647557D01*
X78362910Y-74731964D01*
X78505052Y-74827816D01*
X78649767Y-74924867D01*
X78780196Y-75009270D01*
X78887890Y-75075801D01*
X78964402Y-75119238D01*
X79000938Y-75134368D01*
X79034582Y-75114482D01*
X79102224Y-75058903D01*
X79197107Y-74973754D01*
X79312470Y-74865153D01*
X79441555Y-74739221D01*
X79483771Y-74697149D01*
X79920261Y-74259931D01*
X79588023Y-73772340D01*
X79487054Y-73622605D01*
X79398438Y-73488220D01*
X79327146Y-73376969D01*
X79278150Y-73296639D01*
X79256422Y-73255014D01*
X79255785Y-73252053D01*
X79267240Y-73212818D01*
X79298051Y-73133895D01*
X79342884Y-73028509D01*
X79374353Y-72957954D01*
X79433192Y-72822876D01*
X79488604Y-72686409D01*
X79531564Y-72571103D01*
X79543234Y-72535977D01*
X79576389Y-72442174D01*
X79608799Y-72369694D01*
X79626601Y-72342301D01*
X79665886Y-72325536D01*
X79751626Y-72301770D01*
X79872697Y-72273697D01*
X80017973Y-72244009D01*
X80082988Y-72231806D01*
X80248087Y-72201468D01*
X80406448Y-72172093D01*
X80542596Y-72146569D01*
X80641057Y-72127785D01*
X80659598Y-72124160D01*
X80812873Y-72093906D01*
X80812873Y-71455645D01*
X80812529Y-71245770D01*
X80811116Y-71086980D01*
X80808064Y-70971973D01*
X80802803Y-70893446D01*
X80794763Y-70844096D01*
X80783373Y-70816619D01*
X80768063Y-70803713D01*
X80761782Y-70801320D01*
X80723896Y-70792833D01*
X80640195Y-70775900D01*
X80521433Y-70752566D01*
X80378361Y-70724875D01*
X80221732Y-70694873D01*
X80062297Y-70664604D01*
X79910809Y-70636115D01*
X79778019Y-70611449D01*
X79674681Y-70592651D01*
X79611545Y-70581767D01*
X79597497Y-70579885D01*
X79584770Y-70554704D01*
X79556600Y-70487622D01*
X79518252Y-70391333D01*
X79503609Y-70353621D01*
X79444548Y-70207921D01*
X79375000Y-70046951D01*
X79312712Y-69911291D01*
X79266879Y-69807561D01*
X79236387Y-69722326D01*
X79226208Y-69670126D01*
X79227831Y-69663130D01*
X79249343Y-69630102D01*
X79298465Y-69556643D01*
X79369923Y-69450577D01*
X79458445Y-69319726D01*
X79558759Y-69171912D01*
X79578594Y-69142734D01*
X79694988Y-68969863D01*
X79780548Y-68838226D01*
X79838684Y-68741761D01*
X79872808Y-68674408D01*
X79886331Y-68630106D01*
X79882664Y-68602794D01*
X79882570Y-68602620D01*
X79853707Y-68566746D01*
X79789867Y-68497391D01*
X79697969Y-68401745D01*
X79584933Y-68286999D01*
X79457679Y-68160341D01*
X79443328Y-68146205D01*
X79282957Y-67990903D01*
X79159195Y-67876870D01*
X79069555Y-67802002D01*
X79011552Y-67764196D01*
X78986004Y-67759317D01*
X78948718Y-67780603D01*
X78871343Y-67829773D01*
X78761867Y-67901575D01*
X78628280Y-67990755D01*
X78478570Y-68092063D01*
X78443618Y-68115897D01*
X77947390Y-68454765D01*
X77723293Y-68353056D01*
X77587011Y-68293783D01*
X77440724Y-68234170D01*
X77314965Y-68186640D01*
X77309425Y-68184685D01*
X77211057Y-68148677D01*
X77135229Y-68118229D01*
X77098282Y-68099905D01*
X77098220Y-68099852D01*
X77086496Y-68066729D01*
X77066568Y-67985267D01*
X77040413Y-67864625D01*
X77010010Y-67713959D01*
X76977337Y-67542428D01*
X76974664Y-67527967D01*
X76941890Y-67351235D01*
X76911802Y-67190810D01*
X76886339Y-67056888D01*
X76867441Y-66959663D01*
X76857047Y-66909332D01*
X76856865Y-66908563D01*
X76850539Y-66887153D01*
X76838239Y-66870988D01*
X76812594Y-66859331D01*
X76766235Y-66851445D01*
X76691792Y-66846593D01*
X76581895Y-66844039D01*
X76429175Y-66843045D01*
X76226262Y-66842874D01*
X76200000Y-66842874D01*
X75990986Y-66842998D01*
D13*
%TO.C,R8*%
X76560000Y-57692936D02*
X76560000Y-59147064D01*
X78380000Y-57692936D02*
X78380000Y-59147064D01*
%TO.C,Q1*%
X79685000Y-63625000D02*
X78755000Y-63625000D01*
X76525000Y-63625000D02*
X77455000Y-63625000D01*
X76525000Y-63625000D02*
X76525000Y-61465000D01*
X79685000Y-63625000D02*
X79685000Y-62165000D01*
%TO.C,R8*%
D14*
X76102380Y-58253333D02*
X75626190Y-57920000D01*
X76102380Y-57681904D02*
X75102380Y-57681904D01*
X75102380Y-58062857D01*
X75150000Y-58158095D01*
X75197619Y-58205714D01*
X75292857Y-58253333D01*
X75435714Y-58253333D01*
X75530952Y-58205714D01*
X75578571Y-58158095D01*
X75626190Y-58062857D01*
X75626190Y-57681904D01*
X75530952Y-58824761D02*
X75483333Y-58729523D01*
X75435714Y-58681904D01*
X75340476Y-58634285D01*
X75292857Y-58634285D01*
X75197619Y-58681904D01*
X75150000Y-58729523D01*
X75102380Y-58824761D01*
X75102380Y-59015238D01*
X75150000Y-59110476D01*
X75197619Y-59158095D01*
X75292857Y-59205714D01*
X75340476Y-59205714D01*
X75435714Y-59158095D01*
X75483333Y-59110476D01*
X75530952Y-59015238D01*
X75530952Y-58824761D01*
X75578571Y-58729523D01*
X75626190Y-58681904D01*
X75721428Y-58634285D01*
X75911904Y-58634285D01*
X76007142Y-58681904D01*
X76054761Y-58729523D01*
X76102380Y-58824761D01*
X76102380Y-59015238D01*
X76054761Y-59110476D01*
X76007142Y-59158095D01*
X75911904Y-59205714D01*
X75721428Y-59205714D01*
X75626190Y-59158095D01*
X75578571Y-59110476D01*
X75530952Y-59015238D01*
%TO.C,Q1*%
X76152619Y-62769761D02*
X76105000Y-62674523D01*
X76009761Y-62579285D01*
X75866904Y-62436428D01*
X75819285Y-62341190D01*
X75819285Y-62245952D01*
X76057380Y-62293571D02*
X76009761Y-62198333D01*
X75914523Y-62103095D01*
X75724047Y-62055476D01*
X75390714Y-62055476D01*
X75200238Y-62103095D01*
X75105000Y-62198333D01*
X75057380Y-62293571D01*
X75057380Y-62484047D01*
X75105000Y-62579285D01*
X75200238Y-62674523D01*
X75390714Y-62722142D01*
X75724047Y-62722142D01*
X75914523Y-62674523D01*
X76009761Y-62579285D01*
X76057380Y-62484047D01*
X76057380Y-62293571D01*
X76057380Y-63674523D02*
X76057380Y-63103095D01*
X76057380Y-63388809D02*
X75057380Y-63388809D01*
X75200238Y-63293571D01*
X75295476Y-63198333D01*
X75343095Y-63103095D01*
%TD*%
M02*
